ISO-10303-21;
HEADER;
/* Generated by software containing ST-Developer
 * from STEP Tools, Inc. (www.steptools.com) 
 */

FILE_DESCRIPTION(
/* description */ (''),
/* implementation_level */ '2;1');

FILE_NAME(
/* name */ 'fan_cassette.step',
/* time_stamp */ '2026-09-06T12:04:40+09:00',
/* author */ (''),
/* organization */ (''),
/* preprocessor_version */ 'ST-DEVELOPER v20.1',
/* originating_system */ 'Autodesk Translation Framework v15.8.0.0',
/* authorisation */ '');

FILE_SCHEMA (('AUTOMOTIVE_DESIGN { 1 0 10303 214 3 1 1 }'));
ENDSEC;

DATA;
#10=MECHANICAL_DESIGN_GEOMETRIC_PRESENTATION_REPRESENTATION('',(#13),#1976);
#11=SHAPE_REPRESENTATION_RELATIONSHIP('SRR','None',#1983,#12);
#12=ADVANCED_BREP_SHAPE_REPRESENTATION('',(#14),#1975);
#13=STYLED_ITEM('',(#1993),#14);
#14=MANIFOLD_SOLID_BREP('\X2\30DC30C730A3\X0\1',#1220);
#15=FACE_BOUND('',#158,.T.);
#16=FACE_BOUND('',#167,.T.);
#17=FACE_BOUND('',#168,.T.);
#18=FACE_BOUND('',#169,.T.);
#19=FACE_BOUND('',#170,.T.);
#20=FACE_BOUND('',#171,.T.);
#21=FACE_BOUND('',#172,.T.);
#22=FACE_BOUND('',#173,.T.);
#23=FACE_BOUND('',#176,.T.);
#24=FACE_BOUND('',#191,.T.);
#25=FACE_BOUND('',#201,.T.);
#26=FACE_BOUND('',#208,.T.);
#27=FACE_BOUND('',#209,.T.);
#28=FACE_BOUND('',#210,.T.);
#29=FACE_BOUND('',#211,.T.);
#30=FACE_BOUND('',#212,.T.);
#31=FACE_BOUND('',#216,.T.);
#32=FACE_BOUND('',#220,.T.);
#33=FACE_BOUND('',#224,.T.);
#34=FACE_BOUND('',#228,.T.);
#35=PLANE('',#1237);
#36=PLANE('',#1238);
#37=PLANE('',#1239);
#38=PLANE('',#1240);
#39=PLANE('',#1241);
#40=PLANE('',#1242);
#41=PLANE('',#1243);
#42=PLANE('',#1244);
#43=PLANE('',#1245);
#44=PLANE('',#1246);
#45=PLANE('',#1247);
#46=PLANE('',#1248);
#47=PLANE('',#1249);
#48=PLANE('',#1250);
#49=PLANE('',#1251);
#50=PLANE('',#1258);
#51=PLANE('',#1259);
#52=PLANE('',#1260);
#53=PLANE('',#1261);
#54=PLANE('',#1262);
#55=PLANE('',#1263);
#56=PLANE('',#1264);
#57=PLANE('',#1265);
#58=PLANE('',#1268);
#59=PLANE('',#1269);
#60=PLANE('',#1270);
#61=PLANE('',#1271);
#62=PLANE('',#1272);
#63=PLANE('',#1273);
#64=PLANE('',#1274);
#65=PLANE('',#1275);
#66=PLANE('',#1276);
#67=PLANE('',#1277);
#68=PLANE('',#1278);
#69=PLANE('',#1279);
#70=PLANE('',#1280);
#71=PLANE('',#1281);
#72=PLANE('',#1282);
#73=PLANE('',#1283);
#74=PLANE('',#1284);
#75=PLANE('',#1285);
#76=PLANE('',#1286);
#77=PLANE('',#1287);
#78=PLANE('',#1288);
#79=PLANE('',#1289);
#80=PLANE('',#1299);
#81=PLANE('',#1304);
#82=PLANE('',#1309);
#83=PLANE('',#1314);
#84=PLANE('',#1316);
#85=PLANE('',#1317);
#86=PLANE('',#1318);
#87=FACE_OUTER_BOUND('',#150,.T.);
#88=FACE_OUTER_BOUND('',#151,.T.);
#89=FACE_OUTER_BOUND('',#152,.T.);
#90=FACE_OUTER_BOUND('',#153,.T.);
#91=FACE_OUTER_BOUND('',#154,.T.);
#92=FACE_OUTER_BOUND('',#155,.T.);
#93=FACE_OUTER_BOUND('',#156,.T.);
#94=FACE_OUTER_BOUND('',#157,.T.);
#95=FACE_OUTER_BOUND('',#159,.T.);
#96=FACE_OUTER_BOUND('',#160,.T.);
#97=FACE_OUTER_BOUND('',#161,.T.);
#98=FACE_OUTER_BOUND('',#162,.T.);
#99=FACE_OUTER_BOUND('',#163,.T.);
#100=FACE_OUTER_BOUND('',#164,.T.);
#101=FACE_OUTER_BOUND('',#165,.T.);
#102=FACE_OUTER_BOUND('',#166,.T.);
#103=FACE_OUTER_BOUND('',#174,.T.);
#104=FACE_OUTER_BOUND('',#175,.T.);
#105=FACE_OUTER_BOUND('',#177,.T.);
#106=FACE_OUTER_BOUND('',#178,.T.);
#107=FACE_OUTER_BOUND('',#179,.T.);
#108=FACE_OUTER_BOUND('',#180,.T.);
#109=FACE_OUTER_BOUND('',#181,.T.);
#110=FACE_OUTER_BOUND('',#182,.T.);
#111=FACE_OUTER_BOUND('',#183,.T.);
#112=FACE_OUTER_BOUND('',#184,.T.);
#113=FACE_OUTER_BOUND('',#185,.T.);
#114=FACE_OUTER_BOUND('',#186,.T.);
#115=FACE_OUTER_BOUND('',#187,.T.);
#116=FACE_OUTER_BOUND('',#188,.T.);
#117=FACE_OUTER_BOUND('',#189,.T.);
#118=FACE_OUTER_BOUND('',#190,.T.);
#119=FACE_OUTER_BOUND('',#192,.T.);
#120=FACE_OUTER_BOUND('',#193,.T.);
#121=FACE_OUTER_BOUND('',#194,.T.);
#122=FACE_OUTER_BOUND('',#195,.T.);
#123=FACE_OUTER_BOUND('',#196,.T.);
#124=FACE_OUTER_BOUND('',#197,.T.);
#125=FACE_OUTER_BOUND('',#198,.T.);
#126=FACE_OUTER_BOUND('',#199,.T.);
#127=FACE_OUTER_BOUND('',#200,.T.);
#128=FACE_OUTER_BOUND('',#202,.T.);
#129=FACE_OUTER_BOUND('',#203,.T.);
#130=FACE_OUTER_BOUND('',#204,.T.);
#131=FACE_OUTER_BOUND('',#205,.T.);
#132=FACE_OUTER_BOUND('',#206,.T.);
#133=FACE_OUTER_BOUND('',#207,.T.);
#134=FACE_OUTER_BOUND('',#213,.T.);
#135=FACE_OUTER_BOUND('',#214,.T.);
#136=FACE_OUTER_BOUND('',#215,.T.);
#137=FACE_OUTER_BOUND('',#217,.T.);
#138=FACE_OUTER_BOUND('',#218,.T.);
#139=FACE_OUTER_BOUND('',#219,.T.);
#140=FACE_OUTER_BOUND('',#221,.T.);
#141=FACE_OUTER_BOUND('',#222,.T.);
#142=FACE_OUTER_BOUND('',#223,.T.);
#143=FACE_OUTER_BOUND('',#225,.T.);
#144=FACE_OUTER_BOUND('',#226,.T.);
#145=FACE_OUTER_BOUND('',#227,.T.);
#146=FACE_OUTER_BOUND('',#229,.T.);
#147=FACE_OUTER_BOUND('',#230,.T.);
#148=FACE_OUTER_BOUND('',#231,.T.);
#149=FACE_OUTER_BOUND('',#232,.T.);
#150=EDGE_LOOP('',(#816,#817,#818,#819));
#151=EDGE_LOOP('',(#820,#821,#822,#823));
#152=EDGE_LOOP('',(#824,#825,#826,#827));
#153=EDGE_LOOP('',(#828,#829,#830,#831));
#154=EDGE_LOOP('',(#832,#833,#834,#835));
#155=EDGE_LOOP('',(#836,#837,#838,#839));
#156=EDGE_LOOP('',(#840,#841,#842,#843));
#157=EDGE_LOOP('',(#844,#845,#846,#847));
#158=EDGE_LOOP('',(#848));
#159=EDGE_LOOP('',(#849,#850,#851,#852,#853,#854,#855,#856));
#160=EDGE_LOOP('',(#857,#858,#859,#860));
#161=EDGE_LOOP('',(#861,#862,#863,#864));
#162=EDGE_LOOP('',(#865,#866,#867,#868,#869,#870,#871,#872));
#163=EDGE_LOOP('',(#873,#874,#875,#876));
#164=EDGE_LOOP('',(#877,#878,#879,#880));
#165=EDGE_LOOP('',(#881,#882,#883,#884));
#166=EDGE_LOOP('',(#885,#886,#887,#888,#889,#890,#891,#892,#893,#894,#895,
#896,#897,#898,#899,#900,#901,#902,#903,#904));
#167=EDGE_LOOP('',(#905));
#168=EDGE_LOOP('',(#906));
#169=EDGE_LOOP('',(#907));
#170=EDGE_LOOP('',(#908));
#171=EDGE_LOOP('',(#909));
#172=EDGE_LOOP('',(#910));
#173=EDGE_LOOP('',(#911));
#174=EDGE_LOOP('',(#912,#913,#914,#915));
#175=EDGE_LOOP('',(#916,#917,#918,#919));
#176=EDGE_LOOP('',(#920,#921,#922,#923));
#177=EDGE_LOOP('',(#924,#925,#926,#927,#928,#929,#930,#931));
#178=EDGE_LOOP('',(#932,#933,#934,#935));
#179=EDGE_LOOP('',(#936,#937,#938,#939));
#180=EDGE_LOOP('',(#940,#941,#942,#943,#944,#945,#946,#947));
#181=EDGE_LOOP('',(#948,#949,#950,#951));
#182=EDGE_LOOP('',(#952,#953,#954,#955));
#183=EDGE_LOOP('',(#956,#957,#958,#959));
#184=EDGE_LOOP('',(#960,#961,#962,#963));
#185=EDGE_LOOP('',(#964,#965,#966,#967));
#186=EDGE_LOOP('',(#968,#969,#970,#971));
#187=EDGE_LOOP('',(#972,#973,#974,#975));
#188=EDGE_LOOP('',(#976,#977,#978,#979));
#189=EDGE_LOOP('',(#980,#981,#982,#983));
#190=EDGE_LOOP('',(#984,#985,#986,#987));
#191=EDGE_LOOP('',(#988));
#192=EDGE_LOOP('',(#989,#990,#991,#992));
#193=EDGE_LOOP('',(#993,#994,#995,#996,#997,#998,#999,#1000));
#194=EDGE_LOOP('',(#1001,#1002,#1003,#1004));
#195=EDGE_LOOP('',(#1005,#1006,#1007,#1008,#1009,#1010,#1011,#1012));
#196=EDGE_LOOP('',(#1013,#1014,#1015,#1016));
#197=EDGE_LOOP('',(#1017,#1018,#1019,#1020));
#198=EDGE_LOOP('',(#1021,#1022,#1023,#1024));
#199=EDGE_LOOP('',(#1025,#1026,#1027,#1028));
#200=EDGE_LOOP('',(#1029,#1030,#1031,#1032));
#201=EDGE_LOOP('',(#1033,#1034,#1035,#1036));
#202=EDGE_LOOP('',(#1037,#1038,#1039,#1040));
#203=EDGE_LOOP('',(#1041,#1042,#1043,#1044,#1045,#1046,#1047,#1048));
#204=EDGE_LOOP('',(#1049,#1050,#1051,#1052,#1053,#1054,#1055,#1056));
#205=EDGE_LOOP('',(#1057,#1058,#1059,#1060));
#206=EDGE_LOOP('',(#1061,#1062,#1063,#1064));
#207=EDGE_LOOP('',(#1065,#1066,#1067,#1068,#1069,#1070,#1071,#1072,#1073,
#1074,#1075,#1076,#1077,#1078,#1079,#1080,#1081,#1082,#1083,#1084));
#208=EDGE_LOOP('',(#1085));
#209=EDGE_LOOP('',(#1086));
#210=EDGE_LOOP('',(#1087));
#211=EDGE_LOOP('',(#1088));
#212=EDGE_LOOP('',(#1089));
#213=EDGE_LOOP('',(#1090,#1091,#1092,#1093));
#214=EDGE_LOOP('',(#1094,#1095,#1096,#1097));
#215=EDGE_LOOP('',(#1098));
#216=EDGE_LOOP('',(#1099));
#217=EDGE_LOOP('',(#1100,#1101,#1102,#1103));
#218=EDGE_LOOP('',(#1104,#1105,#1106,#1107));
#219=EDGE_LOOP('',(#1108));
#220=EDGE_LOOP('',(#1109));
#221=EDGE_LOOP('',(#1110,#1111,#1112,#1113));
#222=EDGE_LOOP('',(#1114,#1115,#1116,#1117));
#223=EDGE_LOOP('',(#1118));
#224=EDGE_LOOP('',(#1119));
#225=EDGE_LOOP('',(#1120,#1121,#1122,#1123));
#226=EDGE_LOOP('',(#1124,#1125,#1126,#1127));
#227=EDGE_LOOP('',(#1128));
#228=EDGE_LOOP('',(#1129));
#229=EDGE_LOOP('',(#1130,#1131,#1132,#1133));
#230=EDGE_LOOP('',(#1134,#1135,#1136,#1137));
#231=EDGE_LOOP('',(#1138,#1139,#1140,#1141));
#232=EDGE_LOOP('',(#1142,#1143,#1144,#1145));
#233=LINE('',#1639,#376);
#234=LINE('',#1644,#377);
#235=LINE('',#1646,#378);
#236=LINE('',#1648,#379);
#237=LINE('',#1649,#380);
#238=LINE('',#1652,#381);
#239=LINE('',#1654,#382);
#240=LINE('',#1655,#383);
#241=LINE('',#1658,#384);
#242=LINE('',#1660,#385);
#243=LINE('',#1661,#386);
#244=LINE('',#1663,#387);
#245=LINE('',#1664,#388);
#246=LINE('',#1669,#389);
#247=LINE('',#1671,#390);
#248=LINE('',#1673,#391);
#249=LINE('',#1674,#392);
#250=LINE('',#1677,#393);
#251=LINE('',#1679,#394);
#252=LINE('',#1680,#395);
#253=LINE('',#1683,#396);
#254=LINE('',#1685,#397);
#255=LINE('',#1687,#398);
#256=LINE('',#1689,#399);
#257=LINE('',#1691,#400);
#258=LINE('',#1692,#401);
#259=LINE('',#1695,#402);
#260=LINE('',#1696,#403);
#261=LINE('',#1699,#404);
#262=LINE('',#1701,#405);
#263=LINE('',#1702,#406);
#264=LINE('',#1704,#407);
#265=LINE('',#1706,#408);
#266=LINE('',#1708,#409);
#267=LINE('',#1709,#410);
#268=LINE('',#1713,#411);
#269=LINE('',#1715,#412);
#270=LINE('',#1716,#413);
#271=LINE('',#1719,#414);
#272=LINE('',#1721,#415);
#273=LINE('',#1722,#416);
#274=LINE('',#1725,#417);
#275=LINE('',#1727,#418);
#276=LINE('',#1729,#419);
#277=LINE('',#1731,#420);
#278=LINE('',#1733,#421);
#279=LINE('',#1735,#422);
#280=LINE('',#1737,#423);
#281=LINE('',#1739,#424);
#282=LINE('',#1741,#425);
#283=LINE('',#1743,#426);
#284=LINE('',#1745,#427);
#285=LINE('',#1747,#428);
#286=LINE('',#1749,#429);
#287=LINE('',#1751,#430);
#288=LINE('',#1752,#431);
#289=LINE('',#1768,#432);
#290=LINE('',#1770,#433);
#291=LINE('',#1772,#434);
#292=LINE('',#1773,#435);
#293=LINE('',#1776,#436);
#294=LINE('',#1778,#437);
#295=LINE('',#1779,#438);
#296=LINE('',#1781,#439);
#297=LINE('',#1783,#440);
#298=LINE('',#1785,#441);
#299=LINE('',#1787,#442);
#300=LINE('',#1788,#443);
#301=LINE('',#1790,#444);
#302=LINE('',#1793,#445);
#303=LINE('',#1795,#446);
#304=LINE('',#1796,#447);
#305=LINE('',#1798,#448);
#306=LINE('',#1799,#449);
#307=LINE('',#1803,#450);
#308=LINE('',#1804,#451);
#309=LINE('',#1807,#452);
#310=LINE('',#1812,#453);
#311=LINE('',#1814,#454);
#312=LINE('',#1816,#455);
#313=LINE('',#1817,#456);
#314=LINE('',#1820,#457);
#315=LINE('',#1822,#458);
#316=LINE('',#1823,#459);
#317=LINE('',#1826,#460);
#318=LINE('',#1828,#461);
#319=LINE('',#1829,#462);
#320=LINE('',#1831,#463);
#321=LINE('',#1832,#464);
#322=LINE('',#1837,#465);
#323=LINE('',#1839,#466);
#324=LINE('',#1841,#467);
#325=LINE('',#1842,#468);
#326=LINE('',#1846,#469);
#327=LINE('',#1847,#470);
#328=LINE('',#1848,#471);
#329=LINE('',#1851,#472);
#330=LINE('',#1853,#473);
#331=LINE('',#1854,#474);
#332=LINE('',#1856,#475);
#333=LINE('',#1858,#476);
#334=LINE('',#1860,#477);
#335=LINE('',#1861,#478);
#336=LINE('',#1864,#479);
#337=LINE('',#1865,#480);
#338=LINE('',#1868,#481);
#339=LINE('',#1869,#482);
#340=LINE('',#1870,#483);
#341=LINE('',#1874,#484);
#342=LINE('',#1875,#485);
#343=LINE('',#1878,#486);
#344=LINE('',#1879,#487);
#345=LINE('',#1883,#488);
#346=LINE('',#1885,#489);
#347=LINE('',#1887,#490);
#348=LINE('',#1888,#491);
#349=LINE('',#1892,#492);
#350=LINE('',#1893,#493);
#351=LINE('',#1894,#494);
#352=LINE('',#1897,#495);
#353=LINE('',#1899,#496);
#354=LINE('',#1900,#497);
#355=LINE('',#1902,#498);
#356=LINE('',#1904,#499);
#357=LINE('',#1905,#500);
#358=LINE('',#1908,#501);
#359=LINE('',#1910,#502);
#360=LINE('',#1911,#503);
#361=LINE('',#1912,#504);
#362=LINE('',#1914,#505);
#363=LINE('',#1918,#506);
#364=LINE('',#1919,#507);
#365=LINE('',#1920,#508);
#366=LINE('',#1933,#509);
#367=LINE('',#1938,#510);
#368=LINE('',#1942,#511);
#369=LINE('',#1947,#512);
#370=LINE('',#1951,#513);
#371=LINE('',#1956,#514);
#372=LINE('',#1960,#515);
#373=LINE('',#1965,#516);
#374=LINE('',#1968,#517);
#375=LINE('',#1970,#518);
#376=VECTOR('',#1325,2.25);
#377=VECTOR('',#1330,10.);
#378=VECTOR('',#1331,10.);
#379=VECTOR('',#1332,10.);
#380=VECTOR('',#1333,10.);
#381=VECTOR('',#1336,10.);
#382=VECTOR('',#1337,10.);
#383=VECTOR('',#1338,10.);
#384=VECTOR('',#1341,10.);
#385=VECTOR('',#1342,10.);
#386=VECTOR('',#1343,10.);
#387=VECTOR('',#1346,10.);
#388=VECTOR('',#1347,10.);
#389=VECTOR('',#1352,10.);
#390=VECTOR('',#1353,10.);
#391=VECTOR('',#1354,10.);
#392=VECTOR('',#1355,10.);
#393=VECTOR('',#1358,10.);
#394=VECTOR('',#1359,10.);
#395=VECTOR('',#1360,10.);
#396=VECTOR('',#1363,10.);
#397=VECTOR('',#1364,10.);
#398=VECTOR('',#1365,10.);
#399=VECTOR('',#1366,10.);
#400=VECTOR('',#1367,10.);
#401=VECTOR('',#1368,10.);
#402=VECTOR('',#1371,10.);
#403=VECTOR('',#1372,10.);
#404=VECTOR('',#1375,10.);
#405=VECTOR('',#1376,10.);
#406=VECTOR('',#1377,10.);
#407=VECTOR('',#1380,10.);
#408=VECTOR('',#1381,10.);
#409=VECTOR('',#1382,10.);
#410=VECTOR('',#1383,10.);
#411=VECTOR('',#1388,10.);
#412=VECTOR('',#1389,10.);
#413=VECTOR('',#1390,10.);
#414=VECTOR('',#1393,10.);
#415=VECTOR('',#1394,10.);
#416=VECTOR('',#1395,10.);
#417=VECTOR('',#1398,10.);
#418=VECTOR('',#1399,10.);
#419=VECTOR('',#1400,10.);
#420=VECTOR('',#1401,10.);
#421=VECTOR('',#1402,10.);
#422=VECTOR('',#1403,10.);
#423=VECTOR('',#1404,10.);
#424=VECTOR('',#1405,10.);
#425=VECTOR('',#1406,10.);
#426=VECTOR('',#1407,10.);
#427=VECTOR('',#1408,10.);
#428=VECTOR('',#1409,10.);
#429=VECTOR('',#1410,10.);
#430=VECTOR('',#1411,10.);
#431=VECTOR('',#1412,10.);
#432=VECTOR('',#1427,10.);
#433=VECTOR('',#1428,10.);
#434=VECTOR('',#1429,10.);
#435=VECTOR('',#1430,10.);
#436=VECTOR('',#1433,10.);
#437=VECTOR('',#1434,10.);
#438=VECTOR('',#1435,10.);
#439=VECTOR('',#1438,10.);
#440=VECTOR('',#1439,10.);
#441=VECTOR('',#1440,10.);
#442=VECTOR('',#1441,10.);
#443=VECTOR('',#1442,10.);
#444=VECTOR('',#1445,10.);
#445=VECTOR('',#1448,10.);
#446=VECTOR('',#1449,10.);
#447=VECTOR('',#1450,10.);
#448=VECTOR('',#1453,10.);
#449=VECTOR('',#1454,10.);
#450=VECTOR('',#1459,10.);
#451=VECTOR('',#1460,10.);
#452=VECTOR('',#1463,2.25);
#453=VECTOR('',#1468,10.);
#454=VECTOR('',#1469,10.);
#455=VECTOR('',#1470,10.);
#456=VECTOR('',#1471,10.);
#457=VECTOR('',#1474,10.);
#458=VECTOR('',#1475,10.);
#459=VECTOR('',#1476,10.);
#460=VECTOR('',#1479,10.);
#461=VECTOR('',#1480,10.);
#462=VECTOR('',#1481,10.);
#463=VECTOR('',#1484,10.);
#464=VECTOR('',#1485,10.);
#465=VECTOR('',#1490,10.);
#466=VECTOR('',#1491,10.);
#467=VECTOR('',#1492,10.);
#468=VECTOR('',#1493,10.);
#469=VECTOR('',#1496,10.);
#470=VECTOR('',#1497,10.);
#471=VECTOR('',#1498,10.);
#472=VECTOR('',#1501,10.);
#473=VECTOR('',#1502,10.);
#474=VECTOR('',#1503,10.);
#475=VECTOR('',#1506,10.);
#476=VECTOR('',#1507,10.);
#477=VECTOR('',#1508,10.);
#478=VECTOR('',#1509,10.);
#479=VECTOR('',#1512,10.);
#480=VECTOR('',#1513,10.);
#481=VECTOR('',#1516,10.);
#482=VECTOR('',#1517,10.);
#483=VECTOR('',#1518,10.);
#484=VECTOR('',#1523,10.);
#485=VECTOR('',#1524,10.);
#486=VECTOR('',#1527,10.);
#487=VECTOR('',#1528,10.);
#488=VECTOR('',#1531,10.);
#489=VECTOR('',#1532,10.);
#490=VECTOR('',#1533,10.);
#491=VECTOR('',#1534,10.);
#492=VECTOR('',#1537,10.);
#493=VECTOR('',#1538,10.);
#494=VECTOR('',#1539,10.);
#495=VECTOR('',#1542,10.);
#496=VECTOR('',#1543,10.);
#497=VECTOR('',#1544,10.);
#498=VECTOR('',#1547,10.);
#499=VECTOR('',#1548,10.);
#500=VECTOR('',#1549,10.);
#501=VECTOR('',#1552,10.);
#502=VECTOR('',#1553,10.);
#503=VECTOR('',#1554,10.);
#504=VECTOR('',#1555,10.);
#505=VECTOR('',#1558,10.);
#506=VECTOR('',#1563,10.);
#507=VECTOR('',#1564,10.);
#508=VECTOR('',#1565,10.);
#509=VECTOR('',#1578,2.25);
#510=VECTOR('',#1585,5.);
#511=VECTOR('',#1590,2.25);
#512=VECTOR('',#1597,5.);
#513=VECTOR('',#1602,2.25);
#514=VECTOR('',#1609,5.);
#515=VECTOR('',#1614,2.25);
#516=VECTOR('',#1621,5.);
#517=VECTOR('',#1626,68.);
#518=VECTOR('',#1629,10.);
#519=CIRCLE('',#1235,2.25);
#520=CIRCLE('',#1236,2.25);
#521=CIRCLE('',#1252,2.25);
#522=CIRCLE('',#1253,68.);
#523=CIRCLE('',#1254,2.25);
#524=CIRCLE('',#1255,2.25);
#525=CIRCLE('',#1256,2.25);
#526=CIRCLE('',#1257,2.25);
#527=CIRCLE('',#1267,2.25);
#528=CIRCLE('',#1290,68.);
#529=CIRCLE('',#1291,5.);
#530=CIRCLE('',#1292,5.);
#531=CIRCLE('',#1293,5.);
#532=CIRCLE('',#1294,5.);
#533=CIRCLE('',#1296,2.25);
#534=CIRCLE('',#1298,5.);
#535=CIRCLE('',#1301,2.25);
#536=CIRCLE('',#1303,5.);
#537=CIRCLE('',#1306,2.25);
#538=CIRCLE('',#1308,5.);
#539=CIRCLE('',#1311,2.25);
#540=CIRCLE('',#1313,5.);
#541=VERTEX_POINT('',#1636);
#542=VERTEX_POINT('',#1638);
#543=VERTEX_POINT('',#1642);
#544=VERTEX_POINT('',#1643);
#545=VERTEX_POINT('',#1645);
#546=VERTEX_POINT('',#1647);
#547=VERTEX_POINT('',#1651);
#548=VERTEX_POINT('',#1653);
#549=VERTEX_POINT('',#1657);
#550=VERTEX_POINT('',#1659);
#551=VERTEX_POINT('',#1667);
#552=VERTEX_POINT('',#1668);
#553=VERTEX_POINT('',#1670);
#554=VERTEX_POINT('',#1672);
#555=VERTEX_POINT('',#1676);
#556=VERTEX_POINT('',#1678);
#557=VERTEX_POINT('',#1682);
#558=VERTEX_POINT('',#1684);
#559=VERTEX_POINT('',#1686);
#560=VERTEX_POINT('',#1688);
#561=VERTEX_POINT('',#1690);
#562=VERTEX_POINT('',#1694);
#563=VERTEX_POINT('',#1698);
#564=VERTEX_POINT('',#1700);
#565=VERTEX_POINT('',#1705);
#566=VERTEX_POINT('',#1707);
#567=VERTEX_POINT('',#1712);
#568=VERTEX_POINT('',#1714);
#569=VERTEX_POINT('',#1718);
#570=VERTEX_POINT('',#1720);
#571=VERTEX_POINT('',#1724);
#572=VERTEX_POINT('',#1726);
#573=VERTEX_POINT('',#1728);
#574=VERTEX_POINT('',#1730);
#575=VERTEX_POINT('',#1732);
#576=VERTEX_POINT('',#1734);
#577=VERTEX_POINT('',#1736);
#578=VERTEX_POINT('',#1738);
#579=VERTEX_POINT('',#1740);
#580=VERTEX_POINT('',#1742);
#581=VERTEX_POINT('',#1744);
#582=VERTEX_POINT('',#1746);
#583=VERTEX_POINT('',#1748);
#584=VERTEX_POINT('',#1750);
#585=VERTEX_POINT('',#1753);
#586=VERTEX_POINT('',#1755);
#587=VERTEX_POINT('',#1757);
#588=VERTEX_POINT('',#1759);
#589=VERTEX_POINT('',#1761);
#590=VERTEX_POINT('',#1763);
#591=VERTEX_POINT('',#1766);
#592=VERTEX_POINT('',#1767);
#593=VERTEX_POINT('',#1769);
#594=VERTEX_POINT('',#1771);
#595=VERTEX_POINT('',#1775);
#596=VERTEX_POINT('',#1777);
#597=VERTEX_POINT('',#1782);
#598=VERTEX_POINT('',#1784);
#599=VERTEX_POINT('',#1786);
#600=VERTEX_POINT('',#1792);
#601=VERTEX_POINT('',#1794);
#602=VERTEX_POINT('',#1802);
#603=VERTEX_POINT('',#1806);
#604=VERTEX_POINT('',#1810);
#605=VERTEX_POINT('',#1811);
#606=VERTEX_POINT('',#1813);
#607=VERTEX_POINT('',#1815);
#608=VERTEX_POINT('',#1819);
#609=VERTEX_POINT('',#1821);
#610=VERTEX_POINT('',#1825);
#611=VERTEX_POINT('',#1827);
#612=VERTEX_POINT('',#1835);
#613=VERTEX_POINT('',#1836);
#614=VERTEX_POINT('',#1838);
#615=VERTEX_POINT('',#1840);
#616=VERTEX_POINT('',#1844);
#617=VERTEX_POINT('',#1845);
#618=VERTEX_POINT('',#1850);
#619=VERTEX_POINT('',#1852);
#620=VERTEX_POINT('',#1857);
#621=VERTEX_POINT('',#1859);
#622=VERTEX_POINT('',#1863);
#623=VERTEX_POINT('',#1867);
#624=VERTEX_POINT('',#1873);
#625=VERTEX_POINT('',#1877);
#626=VERTEX_POINT('',#1881);
#627=VERTEX_POINT('',#1882);
#628=VERTEX_POINT('',#1884);
#629=VERTEX_POINT('',#1886);
#630=VERTEX_POINT('',#1890);
#631=VERTEX_POINT('',#1891);
#632=VERTEX_POINT('',#1896);
#633=VERTEX_POINT('',#1898);
#634=VERTEX_POINT('',#1903);
#635=VERTEX_POINT('',#1907);
#636=VERTEX_POINT('',#1909);
#637=VERTEX_POINT('',#1917);
#638=VERTEX_POINT('',#1921);
#639=VERTEX_POINT('',#1923);
#640=VERTEX_POINT('',#1925);
#641=VERTEX_POINT('',#1927);
#642=VERTEX_POINT('',#1929);
#643=VERTEX_POINT('',#1932);
#644=VERTEX_POINT('',#1936);
#645=VERTEX_POINT('',#1941);
#646=VERTEX_POINT('',#1945);
#647=VERTEX_POINT('',#1950);
#648=VERTEX_POINT('',#1954);
#649=VERTEX_POINT('',#1959);
#650=VERTEX_POINT('',#1963);
#651=EDGE_CURVE('',#541,#541,#519,.T.);
#652=EDGE_CURVE('',#541,#542,#233,.T.);
#653=EDGE_CURVE('',#542,#542,#520,.T.);
#654=EDGE_CURVE('',#543,#544,#234,.T.);
#655=EDGE_CURVE('',#543,#545,#235,.T.);
#656=EDGE_CURVE('',#546,#545,#236,.T.);
#657=EDGE_CURVE('',#544,#546,#237,.T.);
#658=EDGE_CURVE('',#547,#543,#238,.T.);
#659=EDGE_CURVE('',#547,#548,#239,.T.);
#660=EDGE_CURVE('',#545,#548,#240,.T.);
#661=EDGE_CURVE('',#544,#549,#241,.T.);
#662=EDGE_CURVE('',#550,#546,#242,.T.);
#663=EDGE_CURVE('',#549,#550,#243,.T.);
#664=EDGE_CURVE('',#549,#547,#244,.T.);
#665=EDGE_CURVE('',#548,#550,#245,.T.);
#666=EDGE_CURVE('',#551,#552,#246,.T.);
#667=EDGE_CURVE('',#551,#553,#247,.T.);
#668=EDGE_CURVE('',#554,#553,#248,.T.);
#669=EDGE_CURVE('',#552,#554,#249,.T.);
#670=EDGE_CURVE('',#553,#555,#250,.T.);
#671=EDGE_CURVE('',#555,#556,#251,.T.);
#672=EDGE_CURVE('',#556,#554,#252,.T.);
#673=EDGE_CURVE('',#557,#556,#253,.T.);
#674=EDGE_CURVE('',#557,#558,#254,.T.);
#675=EDGE_CURVE('',#559,#558,#255,.T.);
#676=EDGE_CURVE('',#560,#559,#256,.T.);
#677=EDGE_CURVE('',#560,#561,#257,.T.);
#678=EDGE_CURVE('',#552,#561,#258,.T.);
#679=EDGE_CURVE('',#562,#555,#259,.T.);
#680=EDGE_CURVE('',#562,#557,#260,.T.);
#681=EDGE_CURVE('',#563,#560,#261,.T.);
#682=EDGE_CURVE('',#563,#564,#262,.T.);
#683=EDGE_CURVE('',#561,#564,#263,.T.);
#684=EDGE_CURVE('',#564,#551,#264,.T.);
#685=EDGE_CURVE('',#565,#563,#265,.T.);
#686=EDGE_CURVE('',#566,#565,#266,.T.);
#687=EDGE_CURVE('',#566,#562,#267,.T.);
#688=EDGE_CURVE('',#567,#565,#268,.T.);
#689=EDGE_CURVE('',#568,#567,#269,.T.);
#690=EDGE_CURVE('',#568,#566,#270,.T.);
#691=EDGE_CURVE('',#558,#569,#271,.T.);
#692=EDGE_CURVE('',#569,#570,#272,.T.);
#693=EDGE_CURVE('',#559,#570,#273,.T.);
#694=EDGE_CURVE('',#571,#568,#274,.T.);
#695=EDGE_CURVE('',#572,#571,#275,.T.);
#696=EDGE_CURVE('',#573,#572,#276,.T.);
#697=EDGE_CURVE('',#574,#573,#277,.T.);
#698=EDGE_CURVE('',#575,#574,#278,.T.);
#699=EDGE_CURVE('',#576,#575,#279,.T.);
#700=EDGE_CURVE('',#577,#576,#280,.T.);
#701=EDGE_CURVE('',#578,#577,#281,.T.);
#702=EDGE_CURVE('',#579,#578,#282,.T.);
#703=EDGE_CURVE('',#580,#579,#283,.T.);
#704=EDGE_CURVE('',#581,#580,#284,.T.);
#705=EDGE_CURVE('',#582,#581,#285,.T.);
#706=EDGE_CURVE('',#583,#582,#286,.T.);
#707=EDGE_CURVE('',#584,#583,#287,.T.);
#708=EDGE_CURVE('',#569,#584,#288,.T.);
#709=EDGE_CURVE('',#585,#585,#521,.T.);
#710=EDGE_CURVE('',#586,#586,#522,.T.);
#711=EDGE_CURVE('',#587,#587,#523,.T.);
#712=EDGE_CURVE('',#588,#588,#524,.T.);
#713=EDGE_CURVE('',#589,#589,#525,.T.);
#714=EDGE_CURVE('',#590,#590,#526,.T.);
#715=EDGE_CURVE('',#591,#592,#289,.T.);
#716=EDGE_CURVE('',#591,#593,#290,.T.);
#717=EDGE_CURVE('',#594,#593,#291,.T.);
#718=EDGE_CURVE('',#592,#594,#292,.T.);
#719=EDGE_CURVE('',#593,#595,#293,.T.);
#720=EDGE_CURVE('',#595,#596,#294,.T.);
#721=EDGE_CURVE('',#596,#594,#295,.T.);
#722=EDGE_CURVE('',#583,#596,#296,.T.);
#723=EDGE_CURVE('',#597,#582,#297,.T.);
#724=EDGE_CURVE('',#598,#597,#298,.T.);
#725=EDGE_CURVE('',#598,#599,#299,.T.);
#726=EDGE_CURVE('',#592,#599,#300,.T.);
#727=EDGE_CURVE('',#584,#595,#301,.T.);
#728=EDGE_CURVE('',#600,#598,#302,.T.);
#729=EDGE_CURVE('',#600,#601,#303,.T.);
#730=EDGE_CURVE('',#599,#601,#304,.T.);
#731=EDGE_CURVE('',#601,#591,#305,.T.);
#732=EDGE_CURVE('',#570,#600,#306,.T.);
#733=EDGE_CURVE('',#581,#602,#307,.T.);
#734=EDGE_CURVE('',#597,#602,#308,.T.);
#735=EDGE_CURVE('',#585,#603,#309,.T.);
#736=EDGE_CURVE('',#603,#603,#527,.T.);
#737=EDGE_CURVE('',#604,#605,#310,.T.);
#738=EDGE_CURVE('',#604,#606,#311,.T.);
#739=EDGE_CURVE('',#607,#606,#312,.T.);
#740=EDGE_CURVE('',#605,#607,#313,.T.);
#741=EDGE_CURVE('',#608,#604,#314,.T.);
#742=EDGE_CURVE('',#608,#609,#315,.T.);
#743=EDGE_CURVE('',#606,#609,#316,.T.);
#744=EDGE_CURVE('',#605,#610,#317,.T.);
#745=EDGE_CURVE('',#611,#607,#318,.T.);
#746=EDGE_CURVE('',#610,#611,#319,.T.);
#747=EDGE_CURVE('',#610,#608,#320,.T.);
#748=EDGE_CURVE('',#609,#611,#321,.T.);
#749=EDGE_CURVE('',#612,#613,#322,.T.);
#750=EDGE_CURVE('',#612,#614,#323,.T.);
#751=EDGE_CURVE('',#615,#614,#324,.T.);
#752=EDGE_CURVE('',#613,#615,#325,.T.);
#753=EDGE_CURVE('',#616,#617,#326,.T.);
#754=EDGE_CURVE('',#617,#615,#327,.T.);
#755=EDGE_CURVE('',#614,#616,#328,.T.);
#756=EDGE_CURVE('',#613,#618,#329,.T.);
#757=EDGE_CURVE('',#618,#619,#330,.T.);
#758=EDGE_CURVE('',#619,#612,#331,.T.);
#759=EDGE_CURVE('',#573,#617,#332,.T.);
#760=EDGE_CURVE('',#620,#572,#333,.T.);
#761=EDGE_CURVE('',#621,#620,#334,.T.);
#762=EDGE_CURVE('',#621,#618,#335,.T.);
#763=EDGE_CURVE('',#622,#621,#336,.T.);
#764=EDGE_CURVE('',#622,#619,#337,.T.);
#765=EDGE_CURVE('',#623,#622,#338,.T.);
#766=EDGE_CURVE('',#575,#623,#339,.T.);
#767=EDGE_CURVE('',#574,#616,#340,.T.);
#768=EDGE_CURVE('',#624,#623,#341,.T.);
#769=EDGE_CURVE('',#624,#576,#342,.T.);
#770=EDGE_CURVE('',#571,#625,#343,.T.);
#771=EDGE_CURVE('',#620,#625,#344,.T.);
#772=EDGE_CURVE('',#626,#627,#345,.T.);
#773=EDGE_CURVE('',#626,#628,#346,.T.);
#774=EDGE_CURVE('',#629,#628,#347,.T.);
#775=EDGE_CURVE('',#627,#629,#348,.T.);
#776=EDGE_CURVE('',#630,#631,#349,.T.);
#777=EDGE_CURVE('',#631,#629,#350,.T.);
#778=EDGE_CURVE('',#628,#630,#351,.T.);
#779=EDGE_CURVE('',#627,#632,#352,.T.);
#780=EDGE_CURVE('',#632,#633,#353,.T.);
#781=EDGE_CURVE('',#633,#626,#354,.T.);
#782=EDGE_CURVE('',#577,#631,#355,.T.);
#783=EDGE_CURVE('',#634,#624,#356,.T.);
#784=EDGE_CURVE('',#634,#632,#357,.T.);
#785=EDGE_CURVE('',#635,#633,#358,.T.);
#786=EDGE_CURVE('',#636,#635,#359,.T.);
#787=EDGE_CURVE('',#579,#636,#360,.T.);
#788=EDGE_CURVE('',#578,#630,#361,.T.);
#789=EDGE_CURVE('',#635,#634,#362,.T.);
#790=EDGE_CURVE('',#602,#637,#363,.T.);
#791=EDGE_CURVE('',#637,#636,#364,.T.);
#792=EDGE_CURVE('',#625,#567,#365,.T.);
#793=EDGE_CURVE('',#638,#638,#528,.T.);
#794=EDGE_CURVE('',#639,#639,#529,.T.);
#795=EDGE_CURVE('',#640,#640,#530,.T.);
#796=EDGE_CURVE('',#641,#641,#531,.T.);
#797=EDGE_CURVE('',#642,#642,#532,.T.);
#798=EDGE_CURVE('',#590,#643,#366,.T.);
#799=EDGE_CURVE('',#643,#643,#533,.T.);
#800=EDGE_CURVE('',#644,#644,#534,.T.);
#801=EDGE_CURVE('',#644,#642,#367,.T.);
#802=EDGE_CURVE('',#589,#645,#368,.T.);
#803=EDGE_CURVE('',#645,#645,#535,.T.);
#804=EDGE_CURVE('',#646,#646,#536,.T.);
#805=EDGE_CURVE('',#646,#641,#369,.T.);
#806=EDGE_CURVE('',#588,#647,#370,.T.);
#807=EDGE_CURVE('',#647,#647,#537,.T.);
#808=EDGE_CURVE('',#648,#648,#538,.T.);
#809=EDGE_CURVE('',#648,#640,#371,.T.);
#810=EDGE_CURVE('',#587,#649,#372,.T.);
#811=EDGE_CURVE('',#649,#649,#539,.T.);
#812=EDGE_CURVE('',#650,#650,#540,.T.);
#813=EDGE_CURVE('',#650,#639,#373,.T.);
#814=EDGE_CURVE('',#586,#638,#374,.T.);
#815=EDGE_CURVE('',#580,#637,#375,.T.);
#816=ORIENTED_EDGE('',*,*,#651,.F.);
#817=ORIENTED_EDGE('',*,*,#652,.T.);
#818=ORIENTED_EDGE('',*,*,#653,.F.);
#819=ORIENTED_EDGE('',*,*,#652,.F.);
#820=ORIENTED_EDGE('',*,*,#654,.F.);
#821=ORIENTED_EDGE('',*,*,#655,.T.);
#822=ORIENTED_EDGE('',*,*,#656,.F.);
#823=ORIENTED_EDGE('',*,*,#657,.F.);
#824=ORIENTED_EDGE('',*,*,#658,.F.);
#825=ORIENTED_EDGE('',*,*,#659,.T.);
#826=ORIENTED_EDGE('',*,*,#660,.F.);
#827=ORIENTED_EDGE('',*,*,#655,.F.);
#828=ORIENTED_EDGE('',*,*,#661,.F.);
#829=ORIENTED_EDGE('',*,*,#657,.T.);
#830=ORIENTED_EDGE('',*,*,#662,.F.);
#831=ORIENTED_EDGE('',*,*,#663,.F.);
#832=ORIENTED_EDGE('',*,*,#664,.F.);
#833=ORIENTED_EDGE('',*,*,#663,.T.);
#834=ORIENTED_EDGE('',*,*,#665,.F.);
#835=ORIENTED_EDGE('',*,*,#659,.F.);
#836=ORIENTED_EDGE('',*,*,#665,.T.);
#837=ORIENTED_EDGE('',*,*,#662,.T.);
#838=ORIENTED_EDGE('',*,*,#656,.T.);
#839=ORIENTED_EDGE('',*,*,#660,.T.);
#840=ORIENTED_EDGE('',*,*,#666,.F.);
#841=ORIENTED_EDGE('',*,*,#667,.T.);
#842=ORIENTED_EDGE('',*,*,#668,.F.);
#843=ORIENTED_EDGE('',*,*,#669,.F.);
#844=ORIENTED_EDGE('',*,*,#668,.T.);
#845=ORIENTED_EDGE('',*,*,#670,.T.);
#846=ORIENTED_EDGE('',*,*,#671,.T.);
#847=ORIENTED_EDGE('',*,*,#672,.T.);
#848=ORIENTED_EDGE('',*,*,#653,.T.);
#849=ORIENTED_EDGE('',*,*,#673,.F.);
#850=ORIENTED_EDGE('',*,*,#674,.T.);
#851=ORIENTED_EDGE('',*,*,#675,.F.);
#852=ORIENTED_EDGE('',*,*,#676,.F.);
#853=ORIENTED_EDGE('',*,*,#677,.T.);
#854=ORIENTED_EDGE('',*,*,#678,.F.);
#855=ORIENTED_EDGE('',*,*,#669,.T.);
#856=ORIENTED_EDGE('',*,*,#672,.F.);
#857=ORIENTED_EDGE('',*,*,#679,.F.);
#858=ORIENTED_EDGE('',*,*,#680,.T.);
#859=ORIENTED_EDGE('',*,*,#673,.T.);
#860=ORIENTED_EDGE('',*,*,#671,.F.);
#861=ORIENTED_EDGE('',*,*,#681,.F.);
#862=ORIENTED_EDGE('',*,*,#682,.T.);
#863=ORIENTED_EDGE('',*,*,#683,.F.);
#864=ORIENTED_EDGE('',*,*,#677,.F.);
#865=ORIENTED_EDGE('',*,*,#684,.F.);
#866=ORIENTED_EDGE('',*,*,#682,.F.);
#867=ORIENTED_EDGE('',*,*,#685,.F.);
#868=ORIENTED_EDGE('',*,*,#686,.F.);
#869=ORIENTED_EDGE('',*,*,#687,.T.);
#870=ORIENTED_EDGE('',*,*,#679,.T.);
#871=ORIENTED_EDGE('',*,*,#670,.F.);
#872=ORIENTED_EDGE('',*,*,#667,.F.);
#873=ORIENTED_EDGE('',*,*,#666,.T.);
#874=ORIENTED_EDGE('',*,*,#678,.T.);
#875=ORIENTED_EDGE('',*,*,#683,.T.);
#876=ORIENTED_EDGE('',*,*,#684,.T.);
#877=ORIENTED_EDGE('',*,*,#686,.T.);
#878=ORIENTED_EDGE('',*,*,#688,.F.);
#879=ORIENTED_EDGE('',*,*,#689,.F.);
#880=ORIENTED_EDGE('',*,*,#690,.T.);
#881=ORIENTED_EDGE('',*,*,#675,.T.);
#882=ORIENTED_EDGE('',*,*,#691,.T.);
#883=ORIENTED_EDGE('',*,*,#692,.T.);
#884=ORIENTED_EDGE('',*,*,#693,.F.);
#885=ORIENTED_EDGE('',*,*,#690,.F.);
#886=ORIENTED_EDGE('',*,*,#694,.F.);
#887=ORIENTED_EDGE('',*,*,#695,.F.);
#888=ORIENTED_EDGE('',*,*,#696,.F.);
#889=ORIENTED_EDGE('',*,*,#697,.F.);
#890=ORIENTED_EDGE('',*,*,#698,.F.);
#891=ORIENTED_EDGE('',*,*,#699,.F.);
#892=ORIENTED_EDGE('',*,*,#700,.F.);
#893=ORIENTED_EDGE('',*,*,#701,.F.);
#894=ORIENTED_EDGE('',*,*,#702,.F.);
#895=ORIENTED_EDGE('',*,*,#703,.F.);
#896=ORIENTED_EDGE('',*,*,#704,.F.);
#897=ORIENTED_EDGE('',*,*,#705,.F.);
#898=ORIENTED_EDGE('',*,*,#706,.F.);
#899=ORIENTED_EDGE('',*,*,#707,.F.);
#900=ORIENTED_EDGE('',*,*,#708,.F.);
#901=ORIENTED_EDGE('',*,*,#691,.F.);
#902=ORIENTED_EDGE('',*,*,#674,.F.);
#903=ORIENTED_EDGE('',*,*,#680,.F.);
#904=ORIENTED_EDGE('',*,*,#687,.F.);
#905=ORIENTED_EDGE('',*,*,#651,.T.);
#906=ORIENTED_EDGE('',*,*,#709,.T.);
#907=ORIENTED_EDGE('',*,*,#710,.T.);
#908=ORIENTED_EDGE('',*,*,#711,.T.);
#909=ORIENTED_EDGE('',*,*,#712,.T.);
#910=ORIENTED_EDGE('',*,*,#713,.T.);
#911=ORIENTED_EDGE('',*,*,#714,.T.);
#912=ORIENTED_EDGE('',*,*,#715,.F.);
#913=ORIENTED_EDGE('',*,*,#716,.T.);
#914=ORIENTED_EDGE('',*,*,#717,.F.);
#915=ORIENTED_EDGE('',*,*,#718,.F.);
#916=ORIENTED_EDGE('',*,*,#717,.T.);
#917=ORIENTED_EDGE('',*,*,#719,.T.);
#918=ORIENTED_EDGE('',*,*,#720,.T.);
#919=ORIENTED_EDGE('',*,*,#721,.T.);
#920=ORIENTED_EDGE('',*,*,#658,.T.);
#921=ORIENTED_EDGE('',*,*,#654,.T.);
#922=ORIENTED_EDGE('',*,*,#661,.T.);
#923=ORIENTED_EDGE('',*,*,#664,.T.);
#924=ORIENTED_EDGE('',*,*,#722,.F.);
#925=ORIENTED_EDGE('',*,*,#706,.T.);
#926=ORIENTED_EDGE('',*,*,#723,.F.);
#927=ORIENTED_EDGE('',*,*,#724,.F.);
#928=ORIENTED_EDGE('',*,*,#725,.T.);
#929=ORIENTED_EDGE('',*,*,#726,.F.);
#930=ORIENTED_EDGE('',*,*,#718,.T.);
#931=ORIENTED_EDGE('',*,*,#721,.F.);
#932=ORIENTED_EDGE('',*,*,#727,.F.);
#933=ORIENTED_EDGE('',*,*,#707,.T.);
#934=ORIENTED_EDGE('',*,*,#722,.T.);
#935=ORIENTED_EDGE('',*,*,#720,.F.);
#936=ORIENTED_EDGE('',*,*,#728,.F.);
#937=ORIENTED_EDGE('',*,*,#729,.T.);
#938=ORIENTED_EDGE('',*,*,#730,.F.);
#939=ORIENTED_EDGE('',*,*,#725,.F.);
#940=ORIENTED_EDGE('',*,*,#731,.F.);
#941=ORIENTED_EDGE('',*,*,#729,.F.);
#942=ORIENTED_EDGE('',*,*,#732,.F.);
#943=ORIENTED_EDGE('',*,*,#692,.F.);
#944=ORIENTED_EDGE('',*,*,#708,.T.);
#945=ORIENTED_EDGE('',*,*,#727,.T.);
#946=ORIENTED_EDGE('',*,*,#719,.F.);
#947=ORIENTED_EDGE('',*,*,#716,.F.);
#948=ORIENTED_EDGE('',*,*,#715,.T.);
#949=ORIENTED_EDGE('',*,*,#726,.T.);
#950=ORIENTED_EDGE('',*,*,#730,.T.);
#951=ORIENTED_EDGE('',*,*,#731,.T.);
#952=ORIENTED_EDGE('',*,*,#723,.T.);
#953=ORIENTED_EDGE('',*,*,#705,.T.);
#954=ORIENTED_EDGE('',*,*,#733,.T.);
#955=ORIENTED_EDGE('',*,*,#734,.F.);
#956=ORIENTED_EDGE('',*,*,#709,.F.);
#957=ORIENTED_EDGE('',*,*,#735,.T.);
#958=ORIENTED_EDGE('',*,*,#736,.F.);
#959=ORIENTED_EDGE('',*,*,#735,.F.);
#960=ORIENTED_EDGE('',*,*,#737,.F.);
#961=ORIENTED_EDGE('',*,*,#738,.T.);
#962=ORIENTED_EDGE('',*,*,#739,.F.);
#963=ORIENTED_EDGE('',*,*,#740,.F.);
#964=ORIENTED_EDGE('',*,*,#741,.F.);
#965=ORIENTED_EDGE('',*,*,#742,.T.);
#966=ORIENTED_EDGE('',*,*,#743,.F.);
#967=ORIENTED_EDGE('',*,*,#738,.F.);
#968=ORIENTED_EDGE('',*,*,#744,.F.);
#969=ORIENTED_EDGE('',*,*,#740,.T.);
#970=ORIENTED_EDGE('',*,*,#745,.F.);
#971=ORIENTED_EDGE('',*,*,#746,.F.);
#972=ORIENTED_EDGE('',*,*,#747,.F.);
#973=ORIENTED_EDGE('',*,*,#746,.T.);
#974=ORIENTED_EDGE('',*,*,#748,.F.);
#975=ORIENTED_EDGE('',*,*,#742,.F.);
#976=ORIENTED_EDGE('',*,*,#748,.T.);
#977=ORIENTED_EDGE('',*,*,#745,.T.);
#978=ORIENTED_EDGE('',*,*,#739,.T.);
#979=ORIENTED_EDGE('',*,*,#743,.T.);
#980=ORIENTED_EDGE('',*,*,#749,.F.);
#981=ORIENTED_EDGE('',*,*,#750,.T.);
#982=ORIENTED_EDGE('',*,*,#751,.F.);
#983=ORIENTED_EDGE('',*,*,#752,.F.);
#984=ORIENTED_EDGE('',*,*,#753,.T.);
#985=ORIENTED_EDGE('',*,*,#754,.T.);
#986=ORIENTED_EDGE('',*,*,#751,.T.);
#987=ORIENTED_EDGE('',*,*,#755,.T.);
#988=ORIENTED_EDGE('',*,*,#736,.T.);
#989=ORIENTED_EDGE('',*,*,#749,.T.);
#990=ORIENTED_EDGE('',*,*,#756,.T.);
#991=ORIENTED_EDGE('',*,*,#757,.T.);
#992=ORIENTED_EDGE('',*,*,#758,.T.);
#993=ORIENTED_EDGE('',*,*,#759,.F.);
#994=ORIENTED_EDGE('',*,*,#696,.T.);
#995=ORIENTED_EDGE('',*,*,#760,.F.);
#996=ORIENTED_EDGE('',*,*,#761,.F.);
#997=ORIENTED_EDGE('',*,*,#762,.T.);
#998=ORIENTED_EDGE('',*,*,#756,.F.);
#999=ORIENTED_EDGE('',*,*,#752,.T.);
#1000=ORIENTED_EDGE('',*,*,#754,.F.);
#1001=ORIENTED_EDGE('',*,*,#763,.F.);
#1002=ORIENTED_EDGE('',*,*,#764,.T.);
#1003=ORIENTED_EDGE('',*,*,#757,.F.);
#1004=ORIENTED_EDGE('',*,*,#762,.F.);
#1005=ORIENTED_EDGE('',*,*,#758,.F.);
#1006=ORIENTED_EDGE('',*,*,#764,.F.);
#1007=ORIENTED_EDGE('',*,*,#765,.F.);
#1008=ORIENTED_EDGE('',*,*,#766,.F.);
#1009=ORIENTED_EDGE('',*,*,#698,.T.);
#1010=ORIENTED_EDGE('',*,*,#767,.T.);
#1011=ORIENTED_EDGE('',*,*,#755,.F.);
#1012=ORIENTED_EDGE('',*,*,#750,.F.);
#1013=ORIENTED_EDGE('',*,*,#767,.F.);
#1014=ORIENTED_EDGE('',*,*,#697,.T.);
#1015=ORIENTED_EDGE('',*,*,#759,.T.);
#1016=ORIENTED_EDGE('',*,*,#753,.F.);
#1017=ORIENTED_EDGE('',*,*,#766,.T.);
#1018=ORIENTED_EDGE('',*,*,#768,.F.);
#1019=ORIENTED_EDGE('',*,*,#769,.T.);
#1020=ORIENTED_EDGE('',*,*,#699,.T.);
#1021=ORIENTED_EDGE('',*,*,#760,.T.);
#1022=ORIENTED_EDGE('',*,*,#695,.T.);
#1023=ORIENTED_EDGE('',*,*,#770,.T.);
#1024=ORIENTED_EDGE('',*,*,#771,.F.);
#1025=ORIENTED_EDGE('',*,*,#772,.F.);
#1026=ORIENTED_EDGE('',*,*,#773,.T.);
#1027=ORIENTED_EDGE('',*,*,#774,.F.);
#1028=ORIENTED_EDGE('',*,*,#775,.F.);
#1029=ORIENTED_EDGE('',*,*,#776,.T.);
#1030=ORIENTED_EDGE('',*,*,#777,.T.);
#1031=ORIENTED_EDGE('',*,*,#774,.T.);
#1032=ORIENTED_EDGE('',*,*,#778,.T.);
#1033=ORIENTED_EDGE('',*,*,#741,.T.);
#1034=ORIENTED_EDGE('',*,*,#737,.T.);
#1035=ORIENTED_EDGE('',*,*,#744,.T.);
#1036=ORIENTED_EDGE('',*,*,#747,.T.);
#1037=ORIENTED_EDGE('',*,*,#772,.T.);
#1038=ORIENTED_EDGE('',*,*,#779,.T.);
#1039=ORIENTED_EDGE('',*,*,#780,.T.);
#1040=ORIENTED_EDGE('',*,*,#781,.T.);
#1041=ORIENTED_EDGE('',*,*,#782,.F.);
#1042=ORIENTED_EDGE('',*,*,#700,.T.);
#1043=ORIENTED_EDGE('',*,*,#769,.F.);
#1044=ORIENTED_EDGE('',*,*,#783,.F.);
#1045=ORIENTED_EDGE('',*,*,#784,.T.);
#1046=ORIENTED_EDGE('',*,*,#779,.F.);
#1047=ORIENTED_EDGE('',*,*,#775,.T.);
#1048=ORIENTED_EDGE('',*,*,#777,.F.);
#1049=ORIENTED_EDGE('',*,*,#781,.F.);
#1050=ORIENTED_EDGE('',*,*,#785,.F.);
#1051=ORIENTED_EDGE('',*,*,#786,.F.);
#1052=ORIENTED_EDGE('',*,*,#787,.F.);
#1053=ORIENTED_EDGE('',*,*,#702,.T.);
#1054=ORIENTED_EDGE('',*,*,#788,.T.);
#1055=ORIENTED_EDGE('',*,*,#778,.F.);
#1056=ORIENTED_EDGE('',*,*,#773,.F.);
#1057=ORIENTED_EDGE('',*,*,#789,.F.);
#1058=ORIENTED_EDGE('',*,*,#785,.T.);
#1059=ORIENTED_EDGE('',*,*,#780,.F.);
#1060=ORIENTED_EDGE('',*,*,#784,.F.);
#1061=ORIENTED_EDGE('',*,*,#788,.F.);
#1062=ORIENTED_EDGE('',*,*,#701,.T.);
#1063=ORIENTED_EDGE('',*,*,#782,.T.);
#1064=ORIENTED_EDGE('',*,*,#776,.F.);
#1065=ORIENTED_EDGE('',*,*,#676,.T.);
#1066=ORIENTED_EDGE('',*,*,#693,.T.);
#1067=ORIENTED_EDGE('',*,*,#732,.T.);
#1068=ORIENTED_EDGE('',*,*,#728,.T.);
#1069=ORIENTED_EDGE('',*,*,#724,.T.);
#1070=ORIENTED_EDGE('',*,*,#734,.T.);
#1071=ORIENTED_EDGE('',*,*,#790,.T.);
#1072=ORIENTED_EDGE('',*,*,#791,.T.);
#1073=ORIENTED_EDGE('',*,*,#786,.T.);
#1074=ORIENTED_EDGE('',*,*,#789,.T.);
#1075=ORIENTED_EDGE('',*,*,#783,.T.);
#1076=ORIENTED_EDGE('',*,*,#768,.T.);
#1077=ORIENTED_EDGE('',*,*,#765,.T.);
#1078=ORIENTED_EDGE('',*,*,#763,.T.);
#1079=ORIENTED_EDGE('',*,*,#761,.T.);
#1080=ORIENTED_EDGE('',*,*,#771,.T.);
#1081=ORIENTED_EDGE('',*,*,#792,.T.);
#1082=ORIENTED_EDGE('',*,*,#688,.T.);
#1083=ORIENTED_EDGE('',*,*,#685,.T.);
#1084=ORIENTED_EDGE('',*,*,#681,.T.);
#1085=ORIENTED_EDGE('',*,*,#793,.T.);
#1086=ORIENTED_EDGE('',*,*,#794,.T.);
#1087=ORIENTED_EDGE('',*,*,#795,.T.);
#1088=ORIENTED_EDGE('',*,*,#796,.T.);
#1089=ORIENTED_EDGE('',*,*,#797,.T.);
#1090=ORIENTED_EDGE('',*,*,#714,.F.);
#1091=ORIENTED_EDGE('',*,*,#798,.T.);
#1092=ORIENTED_EDGE('',*,*,#799,.F.);
#1093=ORIENTED_EDGE('',*,*,#798,.F.);
#1094=ORIENTED_EDGE('',*,*,#800,.F.);
#1095=ORIENTED_EDGE('',*,*,#801,.T.);
#1096=ORIENTED_EDGE('',*,*,#797,.F.);
#1097=ORIENTED_EDGE('',*,*,#801,.F.);
#1098=ORIENTED_EDGE('',*,*,#800,.T.);
#1099=ORIENTED_EDGE('',*,*,#799,.T.);
#1100=ORIENTED_EDGE('',*,*,#713,.F.);
#1101=ORIENTED_EDGE('',*,*,#802,.T.);
#1102=ORIENTED_EDGE('',*,*,#803,.F.);
#1103=ORIENTED_EDGE('',*,*,#802,.F.);
#1104=ORIENTED_EDGE('',*,*,#804,.F.);
#1105=ORIENTED_EDGE('',*,*,#805,.T.);
#1106=ORIENTED_EDGE('',*,*,#796,.F.);
#1107=ORIENTED_EDGE('',*,*,#805,.F.);
#1108=ORIENTED_EDGE('',*,*,#804,.T.);
#1109=ORIENTED_EDGE('',*,*,#803,.T.);
#1110=ORIENTED_EDGE('',*,*,#712,.F.);
#1111=ORIENTED_EDGE('',*,*,#806,.T.);
#1112=ORIENTED_EDGE('',*,*,#807,.F.);
#1113=ORIENTED_EDGE('',*,*,#806,.F.);
#1114=ORIENTED_EDGE('',*,*,#808,.F.);
#1115=ORIENTED_EDGE('',*,*,#809,.T.);
#1116=ORIENTED_EDGE('',*,*,#795,.F.);
#1117=ORIENTED_EDGE('',*,*,#809,.F.);
#1118=ORIENTED_EDGE('',*,*,#808,.T.);
#1119=ORIENTED_EDGE('',*,*,#807,.T.);
#1120=ORIENTED_EDGE('',*,*,#711,.F.);
#1121=ORIENTED_EDGE('',*,*,#810,.T.);
#1122=ORIENTED_EDGE('',*,*,#811,.F.);
#1123=ORIENTED_EDGE('',*,*,#810,.F.);
#1124=ORIENTED_EDGE('',*,*,#812,.F.);
#1125=ORIENTED_EDGE('',*,*,#813,.T.);
#1126=ORIENTED_EDGE('',*,*,#794,.F.);
#1127=ORIENTED_EDGE('',*,*,#813,.F.);
#1128=ORIENTED_EDGE('',*,*,#812,.T.);
#1129=ORIENTED_EDGE('',*,*,#811,.T.);
#1130=ORIENTED_EDGE('',*,*,#710,.F.);
#1131=ORIENTED_EDGE('',*,*,#814,.T.);
#1132=ORIENTED_EDGE('',*,*,#793,.F.);
#1133=ORIENTED_EDGE('',*,*,#814,.F.);
#1134=ORIENTED_EDGE('',*,*,#704,.T.);
#1135=ORIENTED_EDGE('',*,*,#815,.T.);
#1136=ORIENTED_EDGE('',*,*,#790,.F.);
#1137=ORIENTED_EDGE('',*,*,#733,.F.);
#1138=ORIENTED_EDGE('',*,*,#694,.T.);
#1139=ORIENTED_EDGE('',*,*,#689,.T.);
#1140=ORIENTED_EDGE('',*,*,#792,.F.);
#1141=ORIENTED_EDGE('',*,*,#770,.F.);
#1142=ORIENTED_EDGE('',*,*,#787,.T.);
#1143=ORIENTED_EDGE('',*,*,#791,.F.);
#1144=ORIENTED_EDGE('',*,*,#815,.F.);
#1145=ORIENTED_EDGE('',*,*,#703,.T.);
#1146=CYLINDRICAL_SURFACE('',#1234,2.25);
#1147=CYLINDRICAL_SURFACE('',#1266,2.25);
#1148=CYLINDRICAL_SURFACE('',#1295,2.25);
#1149=CYLINDRICAL_SURFACE('',#1297,5.);
#1150=CYLINDRICAL_SURFACE('',#1300,2.25);
#1151=CYLINDRICAL_SURFACE('',#1302,5.);
#1152=CYLINDRICAL_SURFACE('',#1305,2.25);
#1153=CYLINDRICAL_SURFACE('',#1307,5.);
#1154=CYLINDRICAL_SURFACE('',#1310,2.25);
#1155=CYLINDRICAL_SURFACE('',#1312,5.);
#1156=CYLINDRICAL_SURFACE('',#1315,68.);
#1157=ADVANCED_FACE('',(#87),#1146,.F.);
#1158=ADVANCED_FACE('',(#88),#35,.T.);
#1159=ADVANCED_FACE('',(#89),#36,.T.);
#1160=ADVANCED_FACE('',(#90),#37,.T.);
#1161=ADVANCED_FACE('',(#91),#38,.T.);
#1162=ADVANCED_FACE('',(#92),#39,.T.);
#1163=ADVANCED_FACE('',(#93),#40,.T.);
#1164=ADVANCED_FACE('',(#94,#15),#41,.T.);
#1165=ADVANCED_FACE('',(#95),#42,.T.);
#1166=ADVANCED_FACE('',(#96),#43,.T.);
#1167=ADVANCED_FACE('',(#97),#44,.T.);
#1168=ADVANCED_FACE('',(#98),#45,.T.);
#1169=ADVANCED_FACE('',(#99),#46,.T.);
#1170=ADVANCED_FACE('',(#100),#47,.T.);
#1171=ADVANCED_FACE('',(#101),#48,.T.);
#1172=ADVANCED_FACE('',(#102,#16,#17,#18,#19,#20,#21,#22),#49,.F.);
#1173=ADVANCED_FACE('',(#103),#50,.T.);
#1174=ADVANCED_FACE('',(#104,#23),#51,.T.);
#1175=ADVANCED_FACE('',(#105),#52,.T.);
#1176=ADVANCED_FACE('',(#106),#53,.T.);
#1177=ADVANCED_FACE('',(#107),#54,.T.);
#1178=ADVANCED_FACE('',(#108),#55,.T.);
#1179=ADVANCED_FACE('',(#109),#56,.T.);
#1180=ADVANCED_FACE('',(#110),#57,.T.);
#1181=ADVANCED_FACE('',(#111),#1147,.F.);
#1182=ADVANCED_FACE('',(#112),#58,.T.);
#1183=ADVANCED_FACE('',(#113),#59,.T.);
#1184=ADVANCED_FACE('',(#114),#60,.T.);
#1185=ADVANCED_FACE('',(#115),#61,.T.);
#1186=ADVANCED_FACE('',(#116),#62,.T.);
#1187=ADVANCED_FACE('',(#117),#63,.T.);
#1188=ADVANCED_FACE('',(#118,#24),#64,.T.);
#1189=ADVANCED_FACE('',(#119),#65,.T.);
#1190=ADVANCED_FACE('',(#120),#66,.T.);
#1191=ADVANCED_FACE('',(#121),#67,.T.);
#1192=ADVANCED_FACE('',(#122),#68,.T.);
#1193=ADVANCED_FACE('',(#123),#69,.T.);
#1194=ADVANCED_FACE('',(#124),#70,.T.);
#1195=ADVANCED_FACE('',(#125),#71,.T.);
#1196=ADVANCED_FACE('',(#126),#72,.T.);
#1197=ADVANCED_FACE('',(#127,#25),#73,.T.);
#1198=ADVANCED_FACE('',(#128),#74,.T.);
#1199=ADVANCED_FACE('',(#129),#75,.T.);
#1200=ADVANCED_FACE('',(#130),#76,.T.);
#1201=ADVANCED_FACE('',(#131),#77,.T.);
#1202=ADVANCED_FACE('',(#132),#78,.T.);
#1203=ADVANCED_FACE('',(#133,#26,#27,#28,#29,#30),#79,.T.);
#1204=ADVANCED_FACE('',(#134),#1148,.F.);
#1205=ADVANCED_FACE('',(#135),#1149,.T.);
#1206=ADVANCED_FACE('',(#136,#31),#80,.T.);
#1207=ADVANCED_FACE('',(#137),#1150,.F.);
#1208=ADVANCED_FACE('',(#138),#1151,.T.);
#1209=ADVANCED_FACE('',(#139,#32),#81,.T.);
#1210=ADVANCED_FACE('',(#140),#1152,.F.);
#1211=ADVANCED_FACE('',(#141),#1153,.T.);
#1212=ADVANCED_FACE('',(#142,#33),#82,.T.);
#1213=ADVANCED_FACE('',(#143),#1154,.F.);
#1214=ADVANCED_FACE('',(#144),#1155,.T.);
#1215=ADVANCED_FACE('',(#145,#34),#83,.T.);
#1216=ADVANCED_FACE('',(#146),#1156,.F.);
#1217=ADVANCED_FACE('',(#147),#84,.T.);
#1218=ADVANCED_FACE('',(#148),#85,.T.);
#1219=ADVANCED_FACE('',(#149),#86,.T.);
#1220=CLOSED_SHELL('',(#1157,#1158,#1159,#1160,#1161,#1162,#1163,#1164,
#1165,#1166,#1167,#1168,#1169,#1170,#1171,#1172,#1173,#1174,#1175,#1176,
#1177,#1178,#1179,#1180,#1181,#1182,#1183,#1184,#1185,#1186,#1187,#1188,
#1189,#1190,#1191,#1192,#1193,#1194,#1195,#1196,#1197,#1198,#1199,#1200,
#1201,#1202,#1203,#1204,#1205,#1206,#1207,#1208,#1209,#1210,#1211,#1212,
#1213,#1214,#1215,#1216,#1217,#1218,#1219));
#1221=DERIVED_UNIT_ELEMENT(#1223,1.);
#1222=DERIVED_UNIT_ELEMENT(#1978,-3.);
#1223=(
MASS_UNIT()
NAMED_UNIT(*)
SI_UNIT(.KILO.,.GRAM.)
);
#1224=DERIVED_UNIT((#1221,#1222));
#1225=MEASURE_REPRESENTATION_ITEM('density measure',
POSITIVE_RATIO_MEASURE(7850.),#1224);
#1226=PROPERTY_DEFINITION_REPRESENTATION(#1231,#1228);
#1227=PROPERTY_DEFINITION_REPRESENTATION(#1232,#1229);
#1228=REPRESENTATION('material name',(#1230),#1975);
#1229=REPRESENTATION('density',(#1225),#1975);
#1230=DESCRIPTIVE_REPRESENTATION_ITEM('\X2\92FC\X0\','\X2\92FC\X0\');
#1231=PROPERTY_DEFINITION('material property','material name',#1985);
#1232=PROPERTY_DEFINITION('material property','density of part',#1985);
#1233=AXIS2_PLACEMENT_3D('',#1634,#1319,#1320);
#1234=AXIS2_PLACEMENT_3D('',#1635,#1321,#1322);
#1235=AXIS2_PLACEMENT_3D('',#1637,#1323,#1324);
#1236=AXIS2_PLACEMENT_3D('',#1640,#1326,#1327);
#1237=AXIS2_PLACEMENT_3D('',#1641,#1328,#1329);
#1238=AXIS2_PLACEMENT_3D('',#1650,#1334,#1335);
#1239=AXIS2_PLACEMENT_3D('',#1656,#1339,#1340);
#1240=AXIS2_PLACEMENT_3D('',#1662,#1344,#1345);
#1241=AXIS2_PLACEMENT_3D('',#1665,#1348,#1349);
#1242=AXIS2_PLACEMENT_3D('',#1666,#1350,#1351);
#1243=AXIS2_PLACEMENT_3D('',#1675,#1356,#1357);
#1244=AXIS2_PLACEMENT_3D('',#1681,#1361,#1362);
#1245=AXIS2_PLACEMENT_3D('',#1693,#1369,#1370);
#1246=AXIS2_PLACEMENT_3D('',#1697,#1373,#1374);
#1247=AXIS2_PLACEMENT_3D('',#1703,#1378,#1379);
#1248=AXIS2_PLACEMENT_3D('',#1710,#1384,#1385);
#1249=AXIS2_PLACEMENT_3D('',#1711,#1386,#1387);
#1250=AXIS2_PLACEMENT_3D('',#1717,#1391,#1392);
#1251=AXIS2_PLACEMENT_3D('',#1723,#1396,#1397);
#1252=AXIS2_PLACEMENT_3D('',#1754,#1413,#1414);
#1253=AXIS2_PLACEMENT_3D('',#1756,#1415,#1416);
#1254=AXIS2_PLACEMENT_3D('',#1758,#1417,#1418);
#1255=AXIS2_PLACEMENT_3D('',#1760,#1419,#1420);
#1256=AXIS2_PLACEMENT_3D('',#1762,#1421,#1422);
#1257=AXIS2_PLACEMENT_3D('',#1764,#1423,#1424);
#1258=AXIS2_PLACEMENT_3D('',#1765,#1425,#1426);
#1259=AXIS2_PLACEMENT_3D('',#1774,#1431,#1432);
#1260=AXIS2_PLACEMENT_3D('',#1780,#1436,#1437);
#1261=AXIS2_PLACEMENT_3D('',#1789,#1443,#1444);
#1262=AXIS2_PLACEMENT_3D('',#1791,#1446,#1447);
#1263=AXIS2_PLACEMENT_3D('',#1797,#1451,#1452);
#1264=AXIS2_PLACEMENT_3D('',#1800,#1455,#1456);
#1265=AXIS2_PLACEMENT_3D('',#1801,#1457,#1458);
#1266=AXIS2_PLACEMENT_3D('',#1805,#1461,#1462);
#1267=AXIS2_PLACEMENT_3D('',#1808,#1464,#1465);
#1268=AXIS2_PLACEMENT_3D('',#1809,#1466,#1467);
#1269=AXIS2_PLACEMENT_3D('',#1818,#1472,#1473);
#1270=AXIS2_PLACEMENT_3D('',#1824,#1477,#1478);
#1271=AXIS2_PLACEMENT_3D('',#1830,#1482,#1483);
#1272=AXIS2_PLACEMENT_3D('',#1833,#1486,#1487);
#1273=AXIS2_PLACEMENT_3D('',#1834,#1488,#1489);
#1274=AXIS2_PLACEMENT_3D('',#1843,#1494,#1495);
#1275=AXIS2_PLACEMENT_3D('',#1849,#1499,#1500);
#1276=AXIS2_PLACEMENT_3D('',#1855,#1504,#1505);
#1277=AXIS2_PLACEMENT_3D('',#1862,#1510,#1511);
#1278=AXIS2_PLACEMENT_3D('',#1866,#1514,#1515);
#1279=AXIS2_PLACEMENT_3D('',#1871,#1519,#1520);
#1280=AXIS2_PLACEMENT_3D('',#1872,#1521,#1522);
#1281=AXIS2_PLACEMENT_3D('',#1876,#1525,#1526);
#1282=AXIS2_PLACEMENT_3D('',#1880,#1529,#1530);
#1283=AXIS2_PLACEMENT_3D('',#1889,#1535,#1536);
#1284=AXIS2_PLACEMENT_3D('',#1895,#1540,#1541);
#1285=AXIS2_PLACEMENT_3D('',#1901,#1545,#1546);
#1286=AXIS2_PLACEMENT_3D('',#1906,#1550,#1551);
#1287=AXIS2_PLACEMENT_3D('',#1913,#1556,#1557);
#1288=AXIS2_PLACEMENT_3D('',#1915,#1559,#1560);
#1289=AXIS2_PLACEMENT_3D('',#1916,#1561,#1562);
#1290=AXIS2_PLACEMENT_3D('',#1922,#1566,#1567);
#1291=AXIS2_PLACEMENT_3D('',#1924,#1568,#1569);
#1292=AXIS2_PLACEMENT_3D('',#1926,#1570,#1571);
#1293=AXIS2_PLACEMENT_3D('',#1928,#1572,#1573);
#1294=AXIS2_PLACEMENT_3D('',#1930,#1574,#1575);
#1295=AXIS2_PLACEMENT_3D('',#1931,#1576,#1577);
#1296=AXIS2_PLACEMENT_3D('',#1934,#1579,#1580);
#1297=AXIS2_PLACEMENT_3D('',#1935,#1581,#1582);
#1298=AXIS2_PLACEMENT_3D('',#1937,#1583,#1584);
#1299=AXIS2_PLACEMENT_3D('',#1939,#1586,#1587);
#1300=AXIS2_PLACEMENT_3D('',#1940,#1588,#1589);
#1301=AXIS2_PLACEMENT_3D('',#1943,#1591,#1592);
#1302=AXIS2_PLACEMENT_3D('',#1944,#1593,#1594);
#1303=AXIS2_PLACEMENT_3D('',#1946,#1595,#1596);
#1304=AXIS2_PLACEMENT_3D('',#1948,#1598,#1599);
#1305=AXIS2_PLACEMENT_3D('',#1949,#1600,#1601);
#1306=AXIS2_PLACEMENT_3D('',#1952,#1603,#1604);
#1307=AXIS2_PLACEMENT_3D('',#1953,#1605,#1606);
#1308=AXIS2_PLACEMENT_3D('',#1955,#1607,#1608);
#1309=AXIS2_PLACEMENT_3D('',#1957,#1610,#1611);
#1310=AXIS2_PLACEMENT_3D('',#1958,#1612,#1613);
#1311=AXIS2_PLACEMENT_3D('',#1961,#1615,#1616);
#1312=AXIS2_PLACEMENT_3D('',#1962,#1617,#1618);
#1313=AXIS2_PLACEMENT_3D('',#1964,#1619,#1620);
#1314=AXIS2_PLACEMENT_3D('',#1966,#1622,#1623);
#1315=AXIS2_PLACEMENT_3D('',#1967,#1624,#1625);
#1316=AXIS2_PLACEMENT_3D('',#1969,#1627,#1628);
#1317=AXIS2_PLACEMENT_3D('',#1971,#1630,#1631);
#1318=AXIS2_PLACEMENT_3D('',#1972,#1632,#1633);
#1319=DIRECTION('axis',(0.,0.,1.));
#1320=DIRECTION('refdir',(1.,0.,0.));
#1321=DIRECTION('center_axis',(0.,1.,0.));
#1322=DIRECTION('ref_axis',(1.,0.,0.));
#1323=DIRECTION('center_axis',(0.,1.,0.));
#1324=DIRECTION('ref_axis',(1.,0.,0.));
#1325=DIRECTION('',(0.,1.,0.));
#1326=DIRECTION('center_axis',(0.,-1.,0.));
#1327=DIRECTION('ref_axis',(1.,0.,0.));
#1328=DIRECTION('center_axis',(1.,0.,0.));
#1329=DIRECTION('ref_axis',(0.,0.,-1.));
#1330=DIRECTION('',(0.,0.,1.));
#1331=DIRECTION('',(0.,1.,0.));
#1332=DIRECTION('',(0.,0.,-1.));
#1333=DIRECTION('',(0.,1.,0.));
#1334=DIRECTION('center_axis',(0.,0.,-1.));
#1335=DIRECTION('ref_axis',(-1.,0.,0.));
#1336=DIRECTION('',(1.,0.,0.));
#1337=DIRECTION('',(0.,1.,0.));
#1338=DIRECTION('',(-1.,0.,0.));
#1339=DIRECTION('center_axis',(0.,0.,1.));
#1340=DIRECTION('ref_axis',(1.,0.,0.));
#1341=DIRECTION('',(-1.,0.,0.));
#1342=DIRECTION('',(1.,0.,0.));
#1343=DIRECTION('',(0.,1.,0.));
#1344=DIRECTION('center_axis',(-1.,0.,0.));
#1345=DIRECTION('ref_axis',(0.,0.,1.));
#1346=DIRECTION('',(0.,0.,-1.));
#1347=DIRECTION('',(0.,0.,1.));
#1348=DIRECTION('center_axis',(0.,1.,0.));
#1349=DIRECTION('ref_axis',(0.,0.,1.));
#1350=DIRECTION('center_axis',(-1.,0.,0.));
#1351=DIRECTION('ref_axis',(0.,0.,1.));
#1352=DIRECTION('',(0.,0.,-1.));
#1353=DIRECTION('',(0.,1.,0.));
#1354=DIRECTION('',(0.,0.,1.));
#1355=DIRECTION('',(0.,1.,0.));
#1356=DIRECTION('center_axis',(0.,1.,0.));
#1357=DIRECTION('ref_axis',(0.,0.,1.));
#1358=DIRECTION('',(1.,0.,0.));
#1359=DIRECTION('',(0.,0.,-1.));
#1360=DIRECTION('',(-1.,0.,0.));
#1361=DIRECTION('center_axis',(0.,0.,-1.));
#1362=DIRECTION('ref_axis',(-1.,0.,0.));
#1363=DIRECTION('',(0.,1.,0.));
#1364=DIRECTION('',(-1.,0.,0.));
#1365=DIRECTION('',(0.,-1.,0.));
#1366=DIRECTION('',(1.,0.,0.));
#1367=DIRECTION('',(0.,1.,0.));
#1368=DIRECTION('',(-1.,0.,0.));
#1369=DIRECTION('center_axis',(1.,0.,0.));
#1370=DIRECTION('ref_axis',(0.,0.,-1.));
#1371=DIRECTION('',(0.,1.,0.));
#1372=DIRECTION('',(0.,0.,-1.));
#1373=DIRECTION('center_axis',(-1.,0.,0.));
#1374=DIRECTION('ref_axis',(0.,0.,1.));
#1375=DIRECTION('',(0.,0.,-1.));
#1376=DIRECTION('',(0.,1.,0.));
#1377=DIRECTION('',(0.,0.,1.));
#1378=DIRECTION('center_axis',(0.,0.,1.));
#1379=DIRECTION('ref_axis',(1.,0.,0.));
#1380=DIRECTION('',(1.,0.,0.));
#1381=DIRECTION('',(-1.,0.,0.));
#1382=DIRECTION('',(0.,1.,0.));
#1383=DIRECTION('',(1.,0.,0.));
#1384=DIRECTION('center_axis',(0.,1.,0.));
#1385=DIRECTION('ref_axis',(0.,0.,1.));
#1386=DIRECTION('center_axis',(1.,0.,0.));
#1387=DIRECTION('ref_axis',(0.,0.,-1.));
#1388=DIRECTION('',(0.,0.,-1.));
#1389=DIRECTION('',(0.,1.,0.));
#1390=DIRECTION('',(0.,0.,-1.));
#1391=DIRECTION('center_axis',(1.,0.,0.));
#1392=DIRECTION('ref_axis',(0.,0.,-1.));
#1393=DIRECTION('',(0.,0.,-1.));
#1394=DIRECTION('',(0.,1.,0.));
#1395=DIRECTION('',(0.,0.,-1.));
#1396=DIRECTION('center_axis',(0.,1.,0.));
#1397=DIRECTION('ref_axis',(1.,0.,0.));
#1398=DIRECTION('',(1.,0.,0.));
#1399=DIRECTION('',(0.,0.,1.));
#1400=DIRECTION('',(1.,0.,0.));
#1401=DIRECTION('',(0.,0.,1.));
#1402=DIRECTION('',(-1.,0.,0.));
#1403=DIRECTION('',(0.,0.,1.));
#1404=DIRECTION('',(1.,0.,0.));
#1405=DIRECTION('',(0.,0.,1.));
#1406=DIRECTION('',(-1.,0.,0.));
#1407=DIRECTION('',(0.,0.,1.));
#1408=DIRECTION('',(-1.,0.,-1.09651656753102E-16));
#1409=DIRECTION('',(0.,0.,-1.));
#1410=DIRECTION('',(-1.,0.,0.));
#1411=DIRECTION('',(0.,0.,-1.));
#1412=DIRECTION('',(1.,0.,0.));
#1413=DIRECTION('center_axis',(0.,1.,0.));
#1414=DIRECTION('ref_axis',(1.,0.,0.));
#1415=DIRECTION('center_axis',(0.,1.,0.));
#1416=DIRECTION('ref_axis',(1.,0.,0.));
#1417=DIRECTION('center_axis',(0.,1.,0.));
#1418=DIRECTION('ref_axis',(1.,0.,0.));
#1419=DIRECTION('center_axis',(0.,1.,0.));
#1420=DIRECTION('ref_axis',(1.,0.,0.));
#1421=DIRECTION('center_axis',(0.,1.,0.));
#1422=DIRECTION('ref_axis',(1.,0.,0.));
#1423=DIRECTION('center_axis',(0.,1.,0.));
#1424=DIRECTION('ref_axis',(1.,0.,0.));
#1425=DIRECTION('center_axis',(-1.,0.,0.));
#1426=DIRECTION('ref_axis',(0.,0.,1.));
#1427=DIRECTION('',(0.,0.,-1.));
#1428=DIRECTION('',(0.,1.,0.));
#1429=DIRECTION('',(0.,0.,1.));
#1430=DIRECTION('',(0.,1.,0.));
#1431=DIRECTION('center_axis',(0.,1.,0.));
#1432=DIRECTION('ref_axis',(0.,0.,1.));
#1433=DIRECTION('',(1.,0.,0.));
#1434=DIRECTION('',(0.,0.,-1.));
#1435=DIRECTION('',(-1.,0.,0.));
#1436=DIRECTION('center_axis',(0.,0.,-1.));
#1437=DIRECTION('ref_axis',(-1.,0.,0.));
#1438=DIRECTION('',(0.,1.,0.));
#1439=DIRECTION('',(0.,-1.,0.));
#1440=DIRECTION('',(1.,0.,0.));
#1441=DIRECTION('',(0.,1.,0.));
#1442=DIRECTION('',(-1.,0.,0.));
#1443=DIRECTION('center_axis',(1.,0.,0.));
#1444=DIRECTION('ref_axis',(0.,0.,-1.));
#1445=DIRECTION('',(0.,1.,0.));
#1446=DIRECTION('center_axis',(-1.,0.,0.));
#1447=DIRECTION('ref_axis',(0.,0.,1.));
#1448=DIRECTION('',(0.,0.,-1.));
#1449=DIRECTION('',(0.,1.,0.));
#1450=DIRECTION('',(0.,0.,1.));
#1451=DIRECTION('center_axis',(0.,0.,1.));
#1452=DIRECTION('ref_axis',(1.,0.,0.));
#1453=DIRECTION('',(1.,0.,0.));
#1454=DIRECTION('',(-1.,0.,0.));
#1455=DIRECTION('center_axis',(0.,1.,0.));
#1456=DIRECTION('ref_axis',(0.,0.,1.));
#1457=DIRECTION('center_axis',(1.,0.,0.));
#1458=DIRECTION('ref_axis',(0.,0.,-1.));
#1459=DIRECTION('',(0.,1.,0.));
#1460=DIRECTION('',(0.,0.,-1.));
#1461=DIRECTION('center_axis',(0.,1.,0.));
#1462=DIRECTION('ref_axis',(1.,0.,0.));
#1463=DIRECTION('',(0.,1.,0.));
#1464=DIRECTION('center_axis',(0.,-1.,0.));
#1465=DIRECTION('ref_axis',(1.,0.,0.));
#1466=DIRECTION('center_axis',(1.,0.,0.));
#1467=DIRECTION('ref_axis',(0.,0.,-1.));
#1468=DIRECTION('',(0.,0.,1.));
#1469=DIRECTION('',(0.,1.,0.));
#1470=DIRECTION('',(0.,0.,-1.));
#1471=DIRECTION('',(0.,1.,0.));
#1472=DIRECTION('center_axis',(0.,0.,-1.));
#1473=DIRECTION('ref_axis',(-1.,0.,0.));
#1474=DIRECTION('',(1.,0.,0.));
#1475=DIRECTION('',(0.,1.,0.));
#1476=DIRECTION('',(-1.,0.,0.));
#1477=DIRECTION('center_axis',(0.,0.,1.));
#1478=DIRECTION('ref_axis',(1.,0.,0.));
#1479=DIRECTION('',(-1.,0.,0.));
#1480=DIRECTION('',(1.,0.,0.));
#1481=DIRECTION('',(0.,1.,0.));
#1482=DIRECTION('center_axis',(-1.,0.,0.));
#1483=DIRECTION('ref_axis',(0.,0.,1.));
#1484=DIRECTION('',(0.,0.,-1.));
#1485=DIRECTION('',(0.,0.,1.));
#1486=DIRECTION('center_axis',(0.,1.,0.));
#1487=DIRECTION('ref_axis',(0.,0.,1.));
#1488=DIRECTION('center_axis',(1.,0.,0.));
#1489=DIRECTION('ref_axis',(0.,0.,-1.));
#1490=DIRECTION('',(0.,0.,1.));
#1491=DIRECTION('',(0.,1.,0.));
#1492=DIRECTION('',(0.,0.,-1.));
#1493=DIRECTION('',(0.,1.,0.));
#1494=DIRECTION('center_axis',(0.,1.,0.));
#1495=DIRECTION('ref_axis',(0.,0.,1.));
#1496=DIRECTION('',(0.,0.,1.));
#1497=DIRECTION('',(1.,0.,0.));
#1498=DIRECTION('',(-1.,0.,0.));
#1499=DIRECTION('center_axis',(0.,1.,0.));
#1500=DIRECTION('ref_axis',(0.,0.,1.));
#1501=DIRECTION('',(1.,0.,0.));
#1502=DIRECTION('',(0.,0.,-1.));
#1503=DIRECTION('',(-1.,0.,0.));
#1504=DIRECTION('center_axis',(0.,0.,1.));
#1505=DIRECTION('ref_axis',(1.,0.,0.));
#1506=DIRECTION('',(0.,1.,0.));
#1507=DIRECTION('',(0.,-1.,0.));
#1508=DIRECTION('',(-1.,0.,0.));
#1509=DIRECTION('',(0.,1.,0.));
#1510=DIRECTION('center_axis',(1.,0.,0.));
#1511=DIRECTION('ref_axis',(0.,0.,-1.));
#1512=DIRECTION('',(0.,0.,1.));
#1513=DIRECTION('',(0.,1.,0.));
#1514=DIRECTION('center_axis',(0.,0.,-1.));
#1515=DIRECTION('ref_axis',(-1.,0.,0.));
#1516=DIRECTION('',(1.,0.,0.));
#1517=DIRECTION('',(0.,1.,0.));
#1518=DIRECTION('',(0.,1.,0.));
#1519=DIRECTION('center_axis',(-1.,0.,0.));
#1520=DIRECTION('ref_axis',(0.,0.,1.));
#1521=DIRECTION('center_axis',(-1.,0.,0.));
#1522=DIRECTION('ref_axis',(0.,0.,1.));
#1523=DIRECTION('',(0.,0.,1.));
#1524=DIRECTION('',(0.,-1.,0.));
#1525=DIRECTION('center_axis',(-1.,0.,0.));
#1526=DIRECTION('ref_axis',(0.,0.,1.));
#1527=DIRECTION('',(0.,1.,0.));
#1528=DIRECTION('',(0.,0.,1.));
#1529=DIRECTION('center_axis',(1.,0.,0.));
#1530=DIRECTION('ref_axis',(0.,0.,-1.));
#1531=DIRECTION('',(0.,0.,1.));
#1532=DIRECTION('',(0.,1.,0.));
#1533=DIRECTION('',(0.,0.,-1.));
#1534=DIRECTION('',(0.,1.,0.));
#1535=DIRECTION('center_axis',(0.,1.,0.));
#1536=DIRECTION('ref_axis',(0.,0.,1.));
#1537=DIRECTION('',(0.,0.,1.));
#1538=DIRECTION('',(1.,0.,0.));
#1539=DIRECTION('',(-1.,0.,0.));
#1540=DIRECTION('center_axis',(0.,1.,0.));
#1541=DIRECTION('ref_axis',(0.,0.,1.));
#1542=DIRECTION('',(1.,0.,0.));
#1543=DIRECTION('',(0.,0.,-1.));
#1544=DIRECTION('',(-1.,0.,0.));
#1545=DIRECTION('center_axis',(0.,0.,1.));
#1546=DIRECTION('ref_axis',(1.,0.,0.));
#1547=DIRECTION('',(0.,1.,0.));
#1548=DIRECTION('',(-1.,0.,0.));
#1549=DIRECTION('',(0.,1.,0.));
#1550=DIRECTION('center_axis',(0.,0.,-1.));
#1551=DIRECTION('ref_axis',(-1.,0.,0.));
#1552=DIRECTION('',(0.,1.,0.));
#1553=DIRECTION('',(1.,0.,0.));
#1554=DIRECTION('',(0.,1.,0.));
#1555=DIRECTION('',(0.,1.,0.));
#1556=DIRECTION('center_axis',(1.,0.,0.));
#1557=DIRECTION('ref_axis',(0.,0.,-1.));
#1558=DIRECTION('',(0.,0.,1.));
#1559=DIRECTION('center_axis',(-1.,0.,0.));
#1560=DIRECTION('ref_axis',(0.,0.,1.));
#1561=DIRECTION('center_axis',(0.,1.,0.));
#1562=DIRECTION('ref_axis',(0.,0.,1.));
#1563=DIRECTION('',(-1.,0.,-1.09651656753102E-16));
#1564=DIRECTION('',(0.,0.,1.));
#1565=DIRECTION('',(1.,0.,0.));
#1566=DIRECTION('center_axis',(0.,-1.,0.));
#1567=DIRECTION('ref_axis',(1.,0.,0.));
#1568=DIRECTION('center_axis',(0.,-1.,0.));
#1569=DIRECTION('ref_axis',(1.,0.,0.));
#1570=DIRECTION('center_axis',(0.,-1.,0.));
#1571=DIRECTION('ref_axis',(1.,0.,0.));
#1572=DIRECTION('center_axis',(0.,-1.,0.));
#1573=DIRECTION('ref_axis',(1.,0.,0.));
#1574=DIRECTION('center_axis',(0.,-1.,0.));
#1575=DIRECTION('ref_axis',(1.,0.,0.));
#1576=DIRECTION('center_axis',(0.,1.,0.));
#1577=DIRECTION('ref_axis',(1.,0.,0.));
#1578=DIRECTION('',(0.,1.,0.));
#1579=DIRECTION('center_axis',(0.,-1.,0.));
#1580=DIRECTION('ref_axis',(1.,0.,0.));
#1581=DIRECTION('center_axis',(0.,1.,0.));
#1582=DIRECTION('ref_axis',(1.,0.,0.));
#1583=DIRECTION('center_axis',(0.,1.,0.));
#1584=DIRECTION('ref_axis',(1.,0.,0.));
#1585=DIRECTION('',(0.,-1.,0.));
#1586=DIRECTION('center_axis',(0.,1.,0.));
#1587=DIRECTION('ref_axis',(1.,0.,0.));
#1588=DIRECTION('center_axis',(0.,1.,0.));
#1589=DIRECTION('ref_axis',(1.,0.,0.));
#1590=DIRECTION('',(0.,1.,0.));
#1591=DIRECTION('center_axis',(0.,-1.,0.));
#1592=DIRECTION('ref_axis',(1.,0.,0.));
#1593=DIRECTION('center_axis',(0.,1.,0.));
#1594=DIRECTION('ref_axis',(1.,0.,0.));
#1595=DIRECTION('center_axis',(0.,1.,0.));
#1596=DIRECTION('ref_axis',(1.,0.,0.));
#1597=DIRECTION('',(0.,-1.,0.));
#1598=DIRECTION('center_axis',(0.,1.,0.));
#1599=DIRECTION('ref_axis',(1.,0.,0.));
#1600=DIRECTION('center_axis',(0.,1.,0.));
#1601=DIRECTION('ref_axis',(1.,0.,0.));
#1602=DIRECTION('',(0.,1.,0.));
#1603=DIRECTION('center_axis',(0.,-1.,0.));
#1604=DIRECTION('ref_axis',(1.,0.,0.));
#1605=DIRECTION('center_axis',(0.,1.,0.));
#1606=DIRECTION('ref_axis',(1.,0.,0.));
#1607=DIRECTION('center_axis',(0.,1.,0.));
#1608=DIRECTION('ref_axis',(1.,0.,0.));
#1609=DIRECTION('',(0.,-1.,0.));
#1610=DIRECTION('center_axis',(0.,1.,0.));
#1611=DIRECTION('ref_axis',(1.,0.,0.));
#1612=DIRECTION('center_axis',(0.,1.,0.));
#1613=DIRECTION('ref_axis',(1.,0.,0.));
#1614=DIRECTION('',(0.,1.,0.));
#1615=DIRECTION('center_axis',(0.,-1.,0.));
#1616=DIRECTION('ref_axis',(1.,0.,0.));
#1617=DIRECTION('center_axis',(0.,1.,0.));
#1618=DIRECTION('ref_axis',(1.,0.,0.));
#1619=DIRECTION('center_axis',(0.,1.,0.));
#1620=DIRECTION('ref_axis',(1.,0.,0.));
#1621=DIRECTION('',(0.,-1.,0.));
#1622=DIRECTION('center_axis',(0.,1.,0.));
#1623=DIRECTION('ref_axis',(1.,0.,0.));
#1624=DIRECTION('center_axis',(0.,1.,0.));
#1625=DIRECTION('ref_axis',(1.,0.,0.));
#1626=DIRECTION('',(0.,1.,0.));
#1627=DIRECTION('center_axis',(1.09651656753102E-16,0.,-1.));
#1628=DIRECTION('ref_axis',(-1.,0.,-1.09651656753102E-16));
#1629=DIRECTION('',(0.,1.,0.));
#1630=DIRECTION('center_axis',(0.,0.,1.));
#1631=DIRECTION('ref_axis',(1.,0.,0.));
#1632=DIRECTION('center_axis',(-1.,0.,0.));
#1633=DIRECTION('ref_axis',(0.,0.,1.));
#1634=CARTESIAN_POINT('',(0.,0.,0.));
#1635=CARTESIAN_POINT('Origin',(99.,-1.,145.));
#1636=CARTESIAN_POINT('',(96.75,0.,145.));
#1637=CARTESIAN_POINT('Origin',(99.,0.,145.));
#1638=CARTESIAN_POINT('',(96.75,38.,145.));
#1639=CARTESIAN_POINT('',(96.75,-1.,145.));
#1640=CARTESIAN_POINT('Origin',(99.,38.,145.));
#1641=CARTESIAN_POINT('Origin',(103.,37.,28.));
#1642=CARTESIAN_POINT('',(103.,38.,20.));
#1643=CARTESIAN_POINT('',(103.,38.,28.));
#1644=CARTESIAN_POINT('',(103.,38.,26.));
#1645=CARTESIAN_POINT('',(103.,46.,20.));
#1646=CARTESIAN_POINT('',(103.,37.,20.));
#1647=CARTESIAN_POINT('',(103.,46.,28.));
#1648=CARTESIAN_POINT('',(103.,46.,28.));
#1649=CARTESIAN_POINT('',(103.,37.,28.));
#1650=CARTESIAN_POINT('Origin',(103.,37.,20.));
#1651=CARTESIAN_POINT('',(95.,38.,20.));
#1652=CARTESIAN_POINT('',(101.,38.,20.));
#1653=CARTESIAN_POINT('',(95.,46.,20.));
#1654=CARTESIAN_POINT('',(95.,37.,20.));
#1655=CARTESIAN_POINT('',(103.,46.,20.));
#1656=CARTESIAN_POINT('Origin',(95.,37.,28.));
#1657=CARTESIAN_POINT('',(95.,38.,28.));
#1658=CARTESIAN_POINT('',(97.,38.,28.));
#1659=CARTESIAN_POINT('',(95.,46.,28.));
#1660=CARTESIAN_POINT('',(95.,46.,28.));
#1661=CARTESIAN_POINT('',(95.,37.,28.));
#1662=CARTESIAN_POINT('Origin',(95.,37.,20.));
#1663=CARTESIAN_POINT('',(95.,38.,22.));
#1664=CARTESIAN_POINT('',(95.,46.,20.));
#1665=CARTESIAN_POINT('Origin',(99.,46.,24.));
#1666=CARTESIAN_POINT('Origin',(93.,4.,133.));
#1667=CARTESIAN_POINT('',(93.,10.,157.));
#1668=CARTESIAN_POINT('',(93.,10.,133.));
#1669=CARTESIAN_POINT('',(93.,10.,139.));
#1670=CARTESIAN_POINT('',(93.,38.,157.));
#1671=CARTESIAN_POINT('',(93.,4.,157.));
#1672=CARTESIAN_POINT('',(93.,38.,133.));
#1673=CARTESIAN_POINT('',(93.,38.,133.));
#1674=CARTESIAN_POINT('',(93.,4.,133.));
#1675=CARTESIAN_POINT('Origin',(99.,38.,145.));
#1676=CARTESIAN_POINT('',(105.,38.,157.));
#1677=CARTESIAN_POINT('',(93.,38.,157.));
#1678=CARTESIAN_POINT('',(105.,38.,133.));
#1679=CARTESIAN_POINT('',(105.,38.,157.));
#1680=CARTESIAN_POINT('',(105.,38.,133.));
#1681=CARTESIAN_POINT('Origin',(105.,0.,133.));
#1682=CARTESIAN_POINT('',(105.,0.,133.));
#1683=CARTESIAN_POINT('',(105.,0.,133.));
#1684=CARTESIAN_POINT('',(81.,0.,133.));
#1685=CARTESIAN_POINT('',(105.,0.,133.));
#1686=CARTESIAN_POINT('',(81.,4.,133.));
#1687=CARTESIAN_POINT('',(81.,0.,133.));
#1688=CARTESIAN_POINT('',(79.,4.,133.));
#1689=CARTESIAN_POINT('',(52.5,4.,133.));
#1690=CARTESIAN_POINT('',(79.,10.,133.));
#1691=CARTESIAN_POINT('',(79.,0.,133.));
#1692=CARTESIAN_POINT('',(105.,10.,133.));
#1693=CARTESIAN_POINT('Origin',(105.,0.,157.));
#1694=CARTESIAN_POINT('',(105.,0.,157.));
#1695=CARTESIAN_POINT('',(105.,0.,157.));
#1696=CARTESIAN_POINT('',(105.,0.,157.));
#1697=CARTESIAN_POINT('Origin',(79.,0.,133.));
#1698=CARTESIAN_POINT('',(79.,4.,157.));
#1699=CARTESIAN_POINT('',(79.,4.,109.));
#1700=CARTESIAN_POINT('',(79.,10.,157.));
#1701=CARTESIAN_POINT('',(79.,0.,157.));
#1702=CARTESIAN_POINT('',(79.,10.,133.));
#1703=CARTESIAN_POINT('Origin',(79.,0.,157.));
#1704=CARTESIAN_POINT('',(79.,10.,157.));
#1705=CARTESIAN_POINT('',(81.,4.,157.));
#1706=CARTESIAN_POINT('',(39.5,4.,157.));
#1707=CARTESIAN_POINT('',(81.,0.,157.));
#1708=CARTESIAN_POINT('',(81.,0.,157.));
#1709=CARTESIAN_POINT('',(79.,0.,157.));
#1710=CARTESIAN_POINT('Origin',(92.,10.,145.));
#1711=CARTESIAN_POINT('Origin',(81.,0.,166.));
#1712=CARTESIAN_POINT('',(81.,4.,166.));
#1713=CARTESIAN_POINT('',(81.,4.,166.));
#1714=CARTESIAN_POINT('',(81.,0.,166.));
#1715=CARTESIAN_POINT('',(81.,0.,166.));
#1716=CARTESIAN_POINT('',(81.,0.,166.));
#1717=CARTESIAN_POINT('Origin',(81.,0.,166.));
#1718=CARTESIAN_POINT('',(81.,0.,30.));
#1719=CARTESIAN_POINT('',(81.,0.,166.));
#1720=CARTESIAN_POINT('',(81.,4.,30.));
#1721=CARTESIAN_POINT('',(81.,0.,30.));
#1722=CARTESIAN_POINT('',(81.,4.,166.));
#1723=CARTESIAN_POINT('Origin',(0.,0.,85.));
#1724=CARTESIAN_POINT('',(-81.,0.,166.));
#1725=CARTESIAN_POINT('',(-81.,0.,166.));
#1726=CARTESIAN_POINT('',(-81.,0.,157.));
#1727=CARTESIAN_POINT('',(-81.,0.,3.99999999999999));
#1728=CARTESIAN_POINT('',(-105.,0.,157.));
#1729=CARTESIAN_POINT('',(-105.,0.,157.));
#1730=CARTESIAN_POINT('',(-105.,0.,133.));
#1731=CARTESIAN_POINT('',(-105.,0.,133.));
#1732=CARTESIAN_POINT('',(-81.,0.,133.));
#1733=CARTESIAN_POINT('',(-79.,0.,133.));
#1734=CARTESIAN_POINT('',(-81.,0.,30.));
#1735=CARTESIAN_POINT('',(-81.,0.,3.99999999999999));
#1736=CARTESIAN_POINT('',(-105.,0.,30.));
#1737=CARTESIAN_POINT('',(-105.,0.,30.));
#1738=CARTESIAN_POINT('',(-105.,0.,18.));
#1739=CARTESIAN_POINT('',(-105.,0.,18.));
#1740=CARTESIAN_POINT('',(-81.,0.,18.));
#1741=CARTESIAN_POINT('',(-79.,0.,18.));
#1742=CARTESIAN_POINT('',(-81.,0.,3.99999999999999));
#1743=CARTESIAN_POINT('',(-81.,0.,3.99999999999999));
#1744=CARTESIAN_POINT('',(81.,0.,4.));
#1745=CARTESIAN_POINT('',(81.,0.,4.));
#1746=CARTESIAN_POINT('',(81.,0.,18.));
#1747=CARTESIAN_POINT('',(81.,0.,166.));
#1748=CARTESIAN_POINT('',(105.,0.,18.));
#1749=CARTESIAN_POINT('',(105.,0.,18.));
#1750=CARTESIAN_POINT('',(105.,0.,30.));
#1751=CARTESIAN_POINT('',(105.,0.,30.));
#1752=CARTESIAN_POINT('',(79.,0.,30.));
#1753=CARTESIAN_POINT('',(-101.25,0.,145.));
#1754=CARTESIAN_POINT('Origin',(-99.,0.,145.));
#1755=CARTESIAN_POINT('',(-68.,0.,85.));
#1756=CARTESIAN_POINT('Origin',(0.,0.,85.));
#1757=CARTESIAN_POINT('',(-64.5,0.,22.75));
#1758=CARTESIAN_POINT('Origin',(-62.25,0.,22.75));
#1759=CARTESIAN_POINT('',(-64.5,0.,147.25));
#1760=CARTESIAN_POINT('Origin',(-62.25,0.,147.25));
#1761=CARTESIAN_POINT('',(60.,0.,22.75));
#1762=CARTESIAN_POINT('Origin',(62.25,0.,22.75));
#1763=CARTESIAN_POINT('',(60.,0.,147.25));
#1764=CARTESIAN_POINT('Origin',(62.25,0.,147.25));
#1765=CARTESIAN_POINT('Origin',(93.,4.,18.));
#1766=CARTESIAN_POINT('',(93.,10.,30.));
#1767=CARTESIAN_POINT('',(93.,10.,18.));
#1768=CARTESIAN_POINT('',(93.,10.,21.));
#1769=CARTESIAN_POINT('',(93.,38.,30.));
#1770=CARTESIAN_POINT('',(93.,4.,30.));
#1771=CARTESIAN_POINT('',(93.,38.,18.));
#1772=CARTESIAN_POINT('',(93.,38.,18.));
#1773=CARTESIAN_POINT('',(93.,4.,18.));
#1774=CARTESIAN_POINT('Origin',(99.,38.,24.));
#1775=CARTESIAN_POINT('',(105.,38.,30.));
#1776=CARTESIAN_POINT('',(93.,38.,30.));
#1777=CARTESIAN_POINT('',(105.,38.,18.));
#1778=CARTESIAN_POINT('',(105.,38.,30.));
#1779=CARTESIAN_POINT('',(105.,38.,18.));
#1780=CARTESIAN_POINT('Origin',(105.,0.,18.));
#1781=CARTESIAN_POINT('',(105.,0.,18.));
#1782=CARTESIAN_POINT('',(81.,4.,18.));
#1783=CARTESIAN_POINT('',(81.,0.,18.));
#1784=CARTESIAN_POINT('',(79.,4.,18.));
#1785=CARTESIAN_POINT('',(52.5,4.,18.));
#1786=CARTESIAN_POINT('',(79.,10.,18.));
#1787=CARTESIAN_POINT('',(79.,0.,18.));
#1788=CARTESIAN_POINT('',(105.,10.,18.));
#1789=CARTESIAN_POINT('Origin',(105.,0.,30.));
#1790=CARTESIAN_POINT('',(105.,0.,30.));
#1791=CARTESIAN_POINT('Origin',(79.,0.,18.));
#1792=CARTESIAN_POINT('',(79.,4.,30.));
#1793=CARTESIAN_POINT('',(79.,4.,51.5));
#1794=CARTESIAN_POINT('',(79.,10.,30.));
#1795=CARTESIAN_POINT('',(79.,0.,30.));
#1796=CARTESIAN_POINT('',(79.,10.,18.));
#1797=CARTESIAN_POINT('Origin',(79.,0.,30.));
#1798=CARTESIAN_POINT('',(79.,10.,30.));
#1799=CARTESIAN_POINT('',(39.5,4.,30.));
#1800=CARTESIAN_POINT('Origin',(92.,10.,24.));
#1801=CARTESIAN_POINT('Origin',(81.,0.,166.));
#1802=CARTESIAN_POINT('',(81.,4.,4.));
#1803=CARTESIAN_POINT('',(81.,0.,4.));
#1804=CARTESIAN_POINT('',(81.,4.,166.));
#1805=CARTESIAN_POINT('Origin',(-99.,-1.,145.));
#1806=CARTESIAN_POINT('',(-101.25,38.,145.));
#1807=CARTESIAN_POINT('',(-101.25,-1.,145.));
#1808=CARTESIAN_POINT('Origin',(-99.,38.,145.));
#1809=CARTESIAN_POINT('Origin',(-95.,37.,28.));
#1810=CARTESIAN_POINT('',(-95.,38.,20.));
#1811=CARTESIAN_POINT('',(-95.,38.,28.));
#1812=CARTESIAN_POINT('',(-95.,38.,26.));
#1813=CARTESIAN_POINT('',(-95.,46.,20.));
#1814=CARTESIAN_POINT('',(-95.,37.,20.));
#1815=CARTESIAN_POINT('',(-95.,46.,28.));
#1816=CARTESIAN_POINT('',(-95.,46.,28.));
#1817=CARTESIAN_POINT('',(-95.,37.,28.));
#1818=CARTESIAN_POINT('Origin',(-95.,37.,20.));
#1819=CARTESIAN_POINT('',(-103.,38.,20.));
#1820=CARTESIAN_POINT('',(-97.,38.,20.));
#1821=CARTESIAN_POINT('',(-103.,46.,20.));
#1822=CARTESIAN_POINT('',(-103.,37.,20.));
#1823=CARTESIAN_POINT('',(-95.,46.,20.));
#1824=CARTESIAN_POINT('Origin',(-103.,37.,28.));
#1825=CARTESIAN_POINT('',(-103.,38.,28.));
#1826=CARTESIAN_POINT('',(-101.,38.,28.));
#1827=CARTESIAN_POINT('',(-103.,46.,28.));
#1828=CARTESIAN_POINT('',(-103.,46.,28.));
#1829=CARTESIAN_POINT('',(-103.,37.,28.));
#1830=CARTESIAN_POINT('Origin',(-103.,37.,20.));
#1831=CARTESIAN_POINT('',(-103.,38.,22.));
#1832=CARTESIAN_POINT('',(-103.,46.,20.));
#1833=CARTESIAN_POINT('Origin',(-99.,46.,24.));
#1834=CARTESIAN_POINT('Origin',(-93.,4.,157.));
#1835=CARTESIAN_POINT('',(-93.,10.,133.));
#1836=CARTESIAN_POINT('',(-93.,10.,157.));
#1837=CARTESIAN_POINT('',(-93.,10.,151.));
#1838=CARTESIAN_POINT('',(-93.,38.,133.));
#1839=CARTESIAN_POINT('',(-93.,4.,133.));
#1840=CARTESIAN_POINT('',(-93.,38.,157.));
#1841=CARTESIAN_POINT('',(-93.,38.,157.));
#1842=CARTESIAN_POINT('',(-93.,4.,157.));
#1843=CARTESIAN_POINT('Origin',(-99.,38.,145.));
#1844=CARTESIAN_POINT('',(-105.,38.,133.));
#1845=CARTESIAN_POINT('',(-105.,38.,157.));
#1846=CARTESIAN_POINT('',(-105.,38.,133.));
#1847=CARTESIAN_POINT('',(-105.,38.,157.));
#1848=CARTESIAN_POINT('',(-93.,38.,133.));
#1849=CARTESIAN_POINT('Origin',(-92.,10.,145.));
#1850=CARTESIAN_POINT('',(-79.,10.,157.));
#1851=CARTESIAN_POINT('',(-105.,10.,157.));
#1852=CARTESIAN_POINT('',(-79.,10.,133.));
#1853=CARTESIAN_POINT('',(-79.,10.,157.));
#1854=CARTESIAN_POINT('',(-79.,10.,133.));
#1855=CARTESIAN_POINT('Origin',(-105.,0.,157.));
#1856=CARTESIAN_POINT('',(-105.,0.,157.));
#1857=CARTESIAN_POINT('',(-81.,4.,157.));
#1858=CARTESIAN_POINT('',(-81.,0.,157.));
#1859=CARTESIAN_POINT('',(-79.,4.,157.));
#1860=CARTESIAN_POINT('',(-52.5,4.,157.));
#1861=CARTESIAN_POINT('',(-79.,0.,157.));
#1862=CARTESIAN_POINT('Origin',(-79.,0.,157.));
#1863=CARTESIAN_POINT('',(-79.,4.,133.));
#1864=CARTESIAN_POINT('',(-79.,4.,121.));
#1865=CARTESIAN_POINT('',(-79.,0.,133.));
#1866=CARTESIAN_POINT('Origin',(-79.,0.,133.));
#1867=CARTESIAN_POINT('',(-81.,4.,133.));
#1868=CARTESIAN_POINT('',(-39.5,4.,133.));
#1869=CARTESIAN_POINT('',(-81.,0.,133.));
#1870=CARTESIAN_POINT('',(-105.,0.,133.));
#1871=CARTESIAN_POINT('Origin',(-105.,0.,133.));
#1872=CARTESIAN_POINT('Origin',(-81.,0.,3.99999999999999));
#1873=CARTESIAN_POINT('',(-81.,4.,30.));
#1874=CARTESIAN_POINT('',(-81.,4.,3.99999999999999));
#1875=CARTESIAN_POINT('',(-81.,0.,30.));
#1876=CARTESIAN_POINT('Origin',(-81.,0.,3.99999999999999));
#1877=CARTESIAN_POINT('',(-81.,4.,166.));
#1878=CARTESIAN_POINT('',(-81.,0.,166.));
#1879=CARTESIAN_POINT('',(-81.,4.,3.99999999999999));
#1880=CARTESIAN_POINT('Origin',(-93.,4.,30.));
#1881=CARTESIAN_POINT('',(-93.,10.,18.));
#1882=CARTESIAN_POINT('',(-93.,10.,30.));
#1883=CARTESIAN_POINT('',(-93.,10.,27.));
#1884=CARTESIAN_POINT('',(-93.,38.,18.));
#1885=CARTESIAN_POINT('',(-93.,4.,18.));
#1886=CARTESIAN_POINT('',(-93.,38.,30.));
#1887=CARTESIAN_POINT('',(-93.,38.,30.));
#1888=CARTESIAN_POINT('',(-93.,4.,30.));
#1889=CARTESIAN_POINT('Origin',(-99.,38.,24.));
#1890=CARTESIAN_POINT('',(-105.,38.,18.));
#1891=CARTESIAN_POINT('',(-105.,38.,30.));
#1892=CARTESIAN_POINT('',(-105.,38.,18.));
#1893=CARTESIAN_POINT('',(-105.,38.,30.));
#1894=CARTESIAN_POINT('',(-93.,38.,18.));
#1895=CARTESIAN_POINT('Origin',(-92.,10.,24.));
#1896=CARTESIAN_POINT('',(-79.,10.,30.));
#1897=CARTESIAN_POINT('',(-105.,10.,30.));
#1898=CARTESIAN_POINT('',(-79.,10.,18.));
#1899=CARTESIAN_POINT('',(-79.,10.,30.));
#1900=CARTESIAN_POINT('',(-79.,10.,18.));
#1901=CARTESIAN_POINT('Origin',(-105.,0.,30.));
#1902=CARTESIAN_POINT('',(-105.,0.,30.));
#1903=CARTESIAN_POINT('',(-79.,4.,30.));
#1904=CARTESIAN_POINT('',(-52.5,4.,30.));
#1905=CARTESIAN_POINT('',(-79.,0.,30.));
#1906=CARTESIAN_POINT('Origin',(-79.,0.,18.));
#1907=CARTESIAN_POINT('',(-79.,4.,18.));
#1908=CARTESIAN_POINT('',(-79.,0.,18.));
#1909=CARTESIAN_POINT('',(-81.,4.,18.));
#1910=CARTESIAN_POINT('',(-39.5,4.,18.));
#1911=CARTESIAN_POINT('',(-81.,0.,18.));
#1912=CARTESIAN_POINT('',(-105.,0.,18.));
#1913=CARTESIAN_POINT('Origin',(-79.,0.,30.));
#1914=CARTESIAN_POINT('',(-79.,4.,57.5));
#1915=CARTESIAN_POINT('Origin',(-105.,0.,18.));
#1916=CARTESIAN_POINT('Origin',(0.,4.,85.));
#1917=CARTESIAN_POINT('',(-81.,4.,3.99999999999999));
#1918=CARTESIAN_POINT('',(81.,4.,4.));
#1919=CARTESIAN_POINT('',(-81.,4.,3.99999999999999));
#1920=CARTESIAN_POINT('',(-81.,4.,166.));
#1921=CARTESIAN_POINT('',(-68.,4.,85.));
#1922=CARTESIAN_POINT('Origin',(0.,4.,85.));
#1923=CARTESIAN_POINT('',(-67.25,4.,22.75));
#1924=CARTESIAN_POINT('Origin',(-62.25,4.,22.75));
#1925=CARTESIAN_POINT('',(-67.25,4.,147.25));
#1926=CARTESIAN_POINT('Origin',(-62.25,4.,147.25));
#1927=CARTESIAN_POINT('',(57.25,4.,22.75));
#1928=CARTESIAN_POINT('Origin',(62.25,4.,22.75));
#1929=CARTESIAN_POINT('',(57.25,4.,147.25));
#1930=CARTESIAN_POINT('Origin',(62.25,4.,147.25));
#1931=CARTESIAN_POINT('Origin',(62.25,-1.,147.25));
#1932=CARTESIAN_POINT('',(60.,8.,147.25));
#1933=CARTESIAN_POINT('',(60.,-1.,147.25));
#1934=CARTESIAN_POINT('Origin',(62.25,8.,147.25));
#1935=CARTESIAN_POINT('Origin',(62.25,0.,147.25));
#1936=CARTESIAN_POINT('',(57.25,8.,147.25));
#1937=CARTESIAN_POINT('Origin',(62.25,8.,147.25));
#1938=CARTESIAN_POINT('',(57.25,0.,147.25));
#1939=CARTESIAN_POINT('Origin',(62.25,8.,147.25));
#1940=CARTESIAN_POINT('Origin',(62.25,-1.,22.75));
#1941=CARTESIAN_POINT('',(60.,8.,22.75));
#1942=CARTESIAN_POINT('',(60.,-1.,22.75));
#1943=CARTESIAN_POINT('Origin',(62.25,8.,22.75));
#1944=CARTESIAN_POINT('Origin',(62.25,0.,22.75));
#1945=CARTESIAN_POINT('',(57.25,8.,22.75));
#1946=CARTESIAN_POINT('Origin',(62.25,8.,22.75));
#1947=CARTESIAN_POINT('',(57.25,0.,22.75));
#1948=CARTESIAN_POINT('Origin',(62.25,8.,22.75));
#1949=CARTESIAN_POINT('Origin',(-62.25,-1.,147.25));
#1950=CARTESIAN_POINT('',(-64.5,8.,147.25));
#1951=CARTESIAN_POINT('',(-64.5,-1.,147.25));
#1952=CARTESIAN_POINT('Origin',(-62.25,8.,147.25));
#1953=CARTESIAN_POINT('Origin',(-62.25,0.,147.25));
#1954=CARTESIAN_POINT('',(-67.25,8.,147.25));
#1955=CARTESIAN_POINT('Origin',(-62.25,8.,147.25));
#1956=CARTESIAN_POINT('',(-67.25,0.,147.25));
#1957=CARTESIAN_POINT('Origin',(-62.25,8.,147.25));
#1958=CARTESIAN_POINT('Origin',(-62.25,-1.,22.75));
#1959=CARTESIAN_POINT('',(-64.5,8.,22.75));
#1960=CARTESIAN_POINT('',(-64.5,-1.,22.75));
#1961=CARTESIAN_POINT('Origin',(-62.25,8.,22.75));
#1962=CARTESIAN_POINT('Origin',(-62.25,0.,22.75));
#1963=CARTESIAN_POINT('',(-67.25,8.,22.75));
#1964=CARTESIAN_POINT('Origin',(-62.25,8.,22.75));
#1965=CARTESIAN_POINT('',(-67.25,0.,22.75));
#1966=CARTESIAN_POINT('Origin',(-62.25,8.,22.75));
#1967=CARTESIAN_POINT('Origin',(0.,-1.,85.));
#1968=CARTESIAN_POINT('',(-68.,-1.,85.));
#1969=CARTESIAN_POINT('Origin',(81.,0.,4.));
#1970=CARTESIAN_POINT('',(-81.,0.,3.99999999999999));
#1971=CARTESIAN_POINT('Origin',(-81.,0.,166.));
#1972=CARTESIAN_POINT('Origin',(-81.,0.,3.99999999999999));
#1973=UNCERTAINTY_MEASURE_WITH_UNIT(LENGTH_MEASURE(0.01),#1977,
'DISTANCE_ACCURACY_VALUE',
'Maximum model space distance between geometric entities at asserted c
onnectivities');
#1974=UNCERTAINTY_MEASURE_WITH_UNIT(LENGTH_MEASURE(0.01),#1977,
'DISTANCE_ACCURACY_VALUE',
'Maximum model space distance between geometric entities at asserted c
onnectivities');
#1975=(
GEOMETRIC_REPRESENTATION_CONTEXT(3)
GLOBAL_UNCERTAINTY_ASSIGNED_CONTEXT((#1973))
GLOBAL_UNIT_ASSIGNED_CONTEXT((#1977,#1979,#1980))
REPRESENTATION_CONTEXT('','3D')
);
#1976=(
GEOMETRIC_REPRESENTATION_CONTEXT(3)
GLOBAL_UNCERTAINTY_ASSIGNED_CONTEXT((#1974))
GLOBAL_UNIT_ASSIGNED_CONTEXT((#1977,#1979,#1980))
REPRESENTATION_CONTEXT('','3D')
);
#1977=(
LENGTH_UNIT()
NAMED_UNIT(*)
SI_UNIT(.MILLI.,.METRE.)
);
#1978=(
LENGTH_UNIT()
NAMED_UNIT(*)
SI_UNIT($,.METRE.)
);
#1979=(
NAMED_UNIT(*)
PLANE_ANGLE_UNIT()
SI_UNIT($,.RADIAN.)
);
#1980=(
NAMED_UNIT(*)
SI_UNIT($,.STERADIAN.)
SOLID_ANGLE_UNIT()
);
#1981=SHAPE_DEFINITION_REPRESENTATION(#1982,#1983);
#1982=PRODUCT_DEFINITION_SHAPE('',$,#1985);
#1983=SHAPE_REPRESENTATION('',(#1233),#1975);
#1984=PRODUCT_DEFINITION_CONTEXT('part definition',#1989,'design');
#1985=PRODUCT_DEFINITION('fan_cassette','fan_cassette',#1986,#1984);
#1986=PRODUCT_DEFINITION_FORMATION('',$,#1991);
#1987=PRODUCT_RELATED_PRODUCT_CATEGORY('fan_cassette','fan_cassette',(#1991));
#1988=APPLICATION_PROTOCOL_DEFINITION('international standard',
'automotive_design',2009,#1989);
#1989=APPLICATION_CONTEXT(
'Core Data for Automotive Mechanical Design Process');
#1990=PRODUCT_CONTEXT('part definition',#1989,'mechanical');
#1991=PRODUCT('fan_cassette','fan_cassette',$,(#1990));
#1992=PRESENTATION_STYLE_ASSIGNMENT((#1994));
#1993=PRESENTATION_STYLE_ASSIGNMENT((#1995));
#1994=SURFACE_STYLE_USAGE(.BOTH.,#1996);
#1995=SURFACE_STYLE_USAGE(.BOTH.,#1997);
#1996=SURFACE_SIDE_STYLE('',(#1998));
#1997=SURFACE_SIDE_STYLE('',(#1999));
#1998=SURFACE_STYLE_FILL_AREA(#2000);
#1999=SURFACE_STYLE_FILL_AREA(#2001);
#2000=FILL_AREA_STYLE('\X2\92FC\X0\ - \X2\30B530C630F3\X0\',(#2002));
#2001=FILL_AREA_STYLE('DGX_\X2\591689B3306E307F\X0\_frame',(#2003));
#2002=FILL_AREA_STYLE_COLOUR('\X2\92FC\X0\ - \X2\30B530C630F3\X0\',#2004);
#2003=FILL_AREA_STYLE_COLOUR('DGX_\X2\591689B3306E307F\X0\_frame',#2005);
#2004=COLOUR_RGB('\X2\92FC\X0\ - \X2\30B530C630F3\X0\',0.627450980392157,
0.627450980392157,0.627450980392157);
#2005=COLOUR_RGB('DGX_\X2\591689B3306E307F\X0\_frame',0.509803921568627,
0.541176470588235,0.580392156862745);
ENDSEC;
END-ISO-10303-21;
