ISO-10303-21;
HEADER;
/* Generated by software containing ST-Developer
 * from STEP Tools, Inc. (www.steptools.com) 
 */

FILE_DESCRIPTION(
/* description */ (''),
/* implementation_level */ '2;1');

FILE_NAME(
/* name */ 'fit_coupon_020.step',
/* time_stamp */ '2026-09-06T12:04:40+09:00',
/* author */ (''),
/* organization */ (''),
/* preprocessor_version */ 'ST-DEVELOPER v20.1',
/* originating_system */ 'Autodesk Translation Framework v15.8.0.0',
/* authorisation */ '');

FILE_SCHEMA (('AUTOMOTIVE_DESIGN { 1 0 10303 214 3 1 1 }'));
ENDSEC;

DATA;
#10=MECHANICAL_DESIGN_GEOMETRIC_PRESENTATION_REPRESENTATION('',(#13),#403);
#11=SHAPE_REPRESENTATION_RELATIONSHIP('SRR','None',#410,#12);
#12=ADVANCED_BREP_SHAPE_REPRESENTATION('',(#14),#402);
#13=STYLED_ITEM('',(#420),#14);
#14=MANIFOLD_SOLID_BREP('\X2\30DC30C730A3\X0\1',#243);
#15=FACE_BOUND('',#48,.T.);
#16=FACE_BOUND('',#51,.T.);
#17=FACE_BOUND('',#55,.T.);
#18=FACE_BOUND('',#58,.T.);
#19=FACE_BOUND('',#60,.T.);
#20=PLANE('',#263);
#21=PLANE('',#264);
#22=PLANE('',#265);
#23=PLANE('',#266);
#24=PLANE('',#267);
#25=PLANE('',#268);
#26=PLANE('',#269);
#27=PLANE('',#270);
#28=PLANE('',#271);
#29=PLANE('',#272);
#30=PLANE('',#273);
#31=FACE_OUTER_BOUND('',#44,.T.);
#32=FACE_OUTER_BOUND('',#45,.T.);
#33=FACE_OUTER_BOUND('',#46,.T.);
#34=FACE_OUTER_BOUND('',#47,.T.);
#35=FACE_OUTER_BOUND('',#49,.T.);
#36=FACE_OUTER_BOUND('',#50,.T.);
#37=FACE_OUTER_BOUND('',#52,.T.);
#38=FACE_OUTER_BOUND('',#53,.T.);
#39=FACE_OUTER_BOUND('',#54,.T.);
#40=FACE_OUTER_BOUND('',#56,.T.);
#41=FACE_OUTER_BOUND('',#57,.T.);
#42=FACE_OUTER_BOUND('',#59,.T.);
#43=FACE_OUTER_BOUND('',#61,.T.);
#44=EDGE_LOOP('',(#168,#169,#170,#171));
#45=EDGE_LOOP('',(#172,#173,#174,#175));
#46=EDGE_LOOP('',(#176,#177,#178,#179));
#47=EDGE_LOOP('',(#180,#181,#182,#183));
#48=EDGE_LOOP('',(#184));
#49=EDGE_LOOP('',(#185,#186,#187,#188));
#50=EDGE_LOOP('',(#189,#190,#191,#192));
#51=EDGE_LOOP('',(#193));
#52=EDGE_LOOP('',(#194,#195,#196,#197));
#53=EDGE_LOOP('',(#198,#199,#200,#201));
#54=EDGE_LOOP('',(#202,#203,#204,#205));
#55=EDGE_LOOP('',(#206));
#56=EDGE_LOOP('',(#207,#208,#209,#210));
#57=EDGE_LOOP('',(#211,#212,#213,#214));
#58=EDGE_LOOP('',(#215));
#59=EDGE_LOOP('',(#216,#217,#218,#219));
#60=EDGE_LOOP('',(#220,#221,#222,#223));
#61=EDGE_LOOP('',(#224,#225,#226,#227));
#62=LINE('',#341,#88);
#63=LINE('',#347,#89);
#64=LINE('',#352,#90);
#65=LINE('',#354,#91);
#66=LINE('',#356,#92);
#67=LINE('',#357,#93);
#68=LINE('',#360,#94);
#69=LINE('',#362,#95);
#70=LINE('',#363,#96);
#71=LINE('',#366,#97);
#72=LINE('',#368,#98);
#73=LINE('',#369,#99);
#74=LINE('',#371,#100);
#75=LINE('',#372,#101);
#76=LINE('',#377,#102);
#77=LINE('',#379,#103);
#78=LINE('',#381,#104);
#79=LINE('',#382,#105);
#80=LINE('',#385,#106);
#81=LINE('',#387,#107);
#82=LINE('',#388,#108);
#83=LINE('',#391,#109);
#84=LINE('',#393,#110);
#85=LINE('',#394,#111);
#86=LINE('',#396,#112);
#87=LINE('',#397,#113);
#88=VECTOR('',#280,2.20000000000001);
#89=VECTOR('',#287,2.20000000000001);
#90=VECTOR('',#292,10.);
#91=VECTOR('',#293,10.);
#92=VECTOR('',#294,10.);
#93=VECTOR('',#295,10.);
#94=VECTOR('',#298,10.);
#95=VECTOR('',#299,10.);
#96=VECTOR('',#300,10.);
#97=VECTOR('',#303,10.);
#98=VECTOR('',#304,10.);
#99=VECTOR('',#305,10.);
#100=VECTOR('',#308,10.);
#101=VECTOR('',#309,10.);
#102=VECTOR('',#314,10.);
#103=VECTOR('',#315,10.);
#104=VECTOR('',#316,10.);
#105=VECTOR('',#317,10.);
#106=VECTOR('',#320,10.);
#107=VECTOR('',#321,10.);
#108=VECTOR('',#322,10.);
#109=VECTOR('',#325,10.);
#110=VECTOR('',#326,10.);
#111=VECTOR('',#327,10.);
#112=VECTOR('',#330,10.);
#113=VECTOR('',#331,10.);
#114=CIRCLE('',#258,2.20000000000001);
#115=CIRCLE('',#259,2.20000000000001);
#116=CIRCLE('',#261,2.20000000000001);
#117=CIRCLE('',#262,2.20000000000001);
#118=VERTEX_POINT('',#338);
#119=VERTEX_POINT('',#340);
#120=VERTEX_POINT('',#344);
#121=VERTEX_POINT('',#346);
#122=VERTEX_POINT('',#350);
#123=VERTEX_POINT('',#351);
#124=VERTEX_POINT('',#353);
#125=VERTEX_POINT('',#355);
#126=VERTEX_POINT('',#359);
#127=VERTEX_POINT('',#361);
#128=VERTEX_POINT('',#365);
#129=VERTEX_POINT('',#367);
#130=VERTEX_POINT('',#375);
#131=VERTEX_POINT('',#376);
#132=VERTEX_POINT('',#378);
#133=VERTEX_POINT('',#380);
#134=VERTEX_POINT('',#384);
#135=VERTEX_POINT('',#386);
#136=VERTEX_POINT('',#390);
#137=VERTEX_POINT('',#392);
#138=EDGE_CURVE('',#118,#118,#114,.T.);
#139=EDGE_CURVE('',#118,#119,#62,.T.);
#140=EDGE_CURVE('',#119,#119,#115,.T.);
#141=EDGE_CURVE('',#120,#120,#116,.T.);
#142=EDGE_CURVE('',#120,#121,#63,.T.);
#143=EDGE_CURVE('',#121,#121,#117,.T.);
#144=EDGE_CURVE('',#122,#123,#64,.T.);
#145=EDGE_CURVE('',#124,#122,#65,.T.);
#146=EDGE_CURVE('',#125,#124,#66,.T.);
#147=EDGE_CURVE('',#125,#123,#67,.T.);
#148=EDGE_CURVE('',#123,#126,#68,.T.);
#149=EDGE_CURVE('',#127,#125,#69,.T.);
#150=EDGE_CURVE('',#127,#126,#70,.T.);
#151=EDGE_CURVE('',#126,#128,#71,.T.);
#152=EDGE_CURVE('',#129,#127,#72,.T.);
#153=EDGE_CURVE('',#129,#128,#73,.T.);
#154=EDGE_CURVE('',#128,#122,#74,.T.);
#155=EDGE_CURVE('',#124,#129,#75,.T.);
#156=EDGE_CURVE('',#130,#131,#76,.T.);
#157=EDGE_CURVE('',#131,#132,#77,.T.);
#158=EDGE_CURVE('',#133,#132,#78,.T.);
#159=EDGE_CURVE('',#130,#133,#79,.T.);
#160=EDGE_CURVE('',#134,#130,#80,.T.);
#161=EDGE_CURVE('',#135,#133,#81,.T.);
#162=EDGE_CURVE('',#134,#135,#82,.T.);
#163=EDGE_CURVE('',#136,#134,#83,.T.);
#164=EDGE_CURVE('',#137,#135,#84,.T.);
#165=EDGE_CURVE('',#136,#137,#85,.T.);
#166=EDGE_CURVE('',#131,#136,#86,.T.);
#167=EDGE_CURVE('',#132,#137,#87,.T.);
#168=ORIENTED_EDGE('',*,*,#138,.F.);
#169=ORIENTED_EDGE('',*,*,#139,.T.);
#170=ORIENTED_EDGE('',*,*,#140,.F.);
#171=ORIENTED_EDGE('',*,*,#139,.F.);
#172=ORIENTED_EDGE('',*,*,#141,.F.);
#173=ORIENTED_EDGE('',*,*,#142,.T.);
#174=ORIENTED_EDGE('',*,*,#143,.F.);
#175=ORIENTED_EDGE('',*,*,#142,.F.);
#176=ORIENTED_EDGE('',*,*,#144,.F.);
#177=ORIENTED_EDGE('',*,*,#145,.F.);
#178=ORIENTED_EDGE('',*,*,#146,.F.);
#179=ORIENTED_EDGE('',*,*,#147,.T.);
#180=ORIENTED_EDGE('',*,*,#148,.F.);
#181=ORIENTED_EDGE('',*,*,#147,.F.);
#182=ORIENTED_EDGE('',*,*,#149,.F.);
#183=ORIENTED_EDGE('',*,*,#150,.T.);
#184=ORIENTED_EDGE('',*,*,#141,.T.);
#185=ORIENTED_EDGE('',*,*,#151,.F.);
#186=ORIENTED_EDGE('',*,*,#150,.F.);
#187=ORIENTED_EDGE('',*,*,#152,.F.);
#188=ORIENTED_EDGE('',*,*,#153,.T.);
#189=ORIENTED_EDGE('',*,*,#154,.F.);
#190=ORIENTED_EDGE('',*,*,#153,.F.);
#191=ORIENTED_EDGE('',*,*,#155,.F.);
#192=ORIENTED_EDGE('',*,*,#145,.T.);
#193=ORIENTED_EDGE('',*,*,#140,.T.);
#194=ORIENTED_EDGE('',*,*,#149,.T.);
#195=ORIENTED_EDGE('',*,*,#146,.T.);
#196=ORIENTED_EDGE('',*,*,#155,.T.);
#197=ORIENTED_EDGE('',*,*,#152,.T.);
#198=ORIENTED_EDGE('',*,*,#156,.T.);
#199=ORIENTED_EDGE('',*,*,#157,.T.);
#200=ORIENTED_EDGE('',*,*,#158,.F.);
#201=ORIENTED_EDGE('',*,*,#159,.F.);
#202=ORIENTED_EDGE('',*,*,#160,.T.);
#203=ORIENTED_EDGE('',*,*,#159,.T.);
#204=ORIENTED_EDGE('',*,*,#161,.F.);
#205=ORIENTED_EDGE('',*,*,#162,.F.);
#206=ORIENTED_EDGE('',*,*,#138,.T.);
#207=ORIENTED_EDGE('',*,*,#163,.T.);
#208=ORIENTED_EDGE('',*,*,#162,.T.);
#209=ORIENTED_EDGE('',*,*,#164,.F.);
#210=ORIENTED_EDGE('',*,*,#165,.F.);
#211=ORIENTED_EDGE('',*,*,#166,.T.);
#212=ORIENTED_EDGE('',*,*,#165,.T.);
#213=ORIENTED_EDGE('',*,*,#167,.F.);
#214=ORIENTED_EDGE('',*,*,#157,.F.);
#215=ORIENTED_EDGE('',*,*,#143,.T.);
#216=ORIENTED_EDGE('',*,*,#167,.T.);
#217=ORIENTED_EDGE('',*,*,#164,.T.);
#218=ORIENTED_EDGE('',*,*,#161,.T.);
#219=ORIENTED_EDGE('',*,*,#158,.T.);
#220=ORIENTED_EDGE('',*,*,#151,.T.);
#221=ORIENTED_EDGE('',*,*,#154,.T.);
#222=ORIENTED_EDGE('',*,*,#144,.T.);
#223=ORIENTED_EDGE('',*,*,#148,.T.);
#224=ORIENTED_EDGE('',*,*,#166,.F.);
#225=ORIENTED_EDGE('',*,*,#156,.F.);
#226=ORIENTED_EDGE('',*,*,#160,.F.);
#227=ORIENTED_EDGE('',*,*,#163,.F.);
#228=CYLINDRICAL_SURFACE('',#257,2.20000000000001);
#229=CYLINDRICAL_SURFACE('',#260,2.20000000000001);
#230=ADVANCED_FACE('',(#31),#228,.F.);
#231=ADVANCED_FACE('',(#32),#229,.F.);
#232=ADVANCED_FACE('',(#33),#20,.F.);
#233=ADVANCED_FACE('',(#34,#15),#21,.F.);
#234=ADVANCED_FACE('',(#35),#22,.F.);
#235=ADVANCED_FACE('',(#36,#16),#23,.F.);
#236=ADVANCED_FACE('',(#37),#24,.T.);
#237=ADVANCED_FACE('',(#38),#25,.T.);
#238=ADVANCED_FACE('',(#39,#17),#26,.T.);
#239=ADVANCED_FACE('',(#40),#27,.T.);
#240=ADVANCED_FACE('',(#41,#18),#28,.T.);
#241=ADVANCED_FACE('',(#42,#19),#29,.T.);
#242=ADVANCED_FACE('',(#43),#30,.F.);
#243=CLOSED_SHELL('',(#230,#231,#232,#233,#234,#235,#236,#237,#238,#239,
#240,#241,#242));
#244=DERIVED_UNIT_ELEMENT(#246,1.);
#245=DERIVED_UNIT_ELEMENT(#405,-3.);
#246=(
MASS_UNIT()
NAMED_UNIT(*)
SI_UNIT(.KILO.,.GRAM.)
);
#247=DERIVED_UNIT((#244,#245));
#248=MEASURE_REPRESENTATION_ITEM('density measure',
POSITIVE_RATIO_MEASURE(7850.),#247);
#249=PROPERTY_DEFINITION_REPRESENTATION(#254,#251);
#250=PROPERTY_DEFINITION_REPRESENTATION(#255,#252);
#251=REPRESENTATION('material name',(#253),#402);
#252=REPRESENTATION('density',(#248),#402);
#253=DESCRIPTIVE_REPRESENTATION_ITEM('\X2\92FC\X0\','\X2\92FC\X0\');
#254=PROPERTY_DEFINITION('material property','material name',#412);
#255=PROPERTY_DEFINITION('material property','density of part',#412);
#256=AXIS2_PLACEMENT_3D('',#336,#274,#275);
#257=AXIS2_PLACEMENT_3D('',#337,#276,#277);
#258=AXIS2_PLACEMENT_3D('',#339,#278,#279);
#259=AXIS2_PLACEMENT_3D('',#342,#281,#282);
#260=AXIS2_PLACEMENT_3D('',#343,#283,#284);
#261=AXIS2_PLACEMENT_3D('',#345,#285,#286);
#262=AXIS2_PLACEMENT_3D('',#348,#288,#289);
#263=AXIS2_PLACEMENT_3D('',#349,#290,#291);
#264=AXIS2_PLACEMENT_3D('',#358,#296,#297);
#265=AXIS2_PLACEMENT_3D('',#364,#301,#302);
#266=AXIS2_PLACEMENT_3D('',#370,#306,#307);
#267=AXIS2_PLACEMENT_3D('',#373,#310,#311);
#268=AXIS2_PLACEMENT_3D('',#374,#312,#313);
#269=AXIS2_PLACEMENT_3D('',#383,#318,#319);
#270=AXIS2_PLACEMENT_3D('',#389,#323,#324);
#271=AXIS2_PLACEMENT_3D('',#395,#328,#329);
#272=AXIS2_PLACEMENT_3D('',#398,#332,#333);
#273=AXIS2_PLACEMENT_3D('',#399,#334,#335);
#274=DIRECTION('axis',(0.,0.,1.));
#275=DIRECTION('refdir',(1.,0.,0.));
#276=DIRECTION('center_axis',(0.,0.,1.));
#277=DIRECTION('ref_axis',(1.,0.,0.));
#278=DIRECTION('center_axis',(0.,0.,1.));
#279=DIRECTION('ref_axis',(1.,0.,0.));
#280=DIRECTION('',(0.,0.,1.));
#281=DIRECTION('center_axis',(0.,0.,-1.));
#282=DIRECTION('ref_axis',(1.,0.,0.));
#283=DIRECTION('center_axis',(0.,0.,1.));
#284=DIRECTION('ref_axis',(1.,0.,0.));
#285=DIRECTION('center_axis',(0.,0.,1.));
#286=DIRECTION('ref_axis',(1.,0.,0.));
#287=DIRECTION('',(0.,0.,1.));
#288=DIRECTION('center_axis',(0.,0.,-1.));
#289=DIRECTION('ref_axis',(1.,0.,0.));
#290=DIRECTION('center_axis',(0.,-1.,0.));
#291=DIRECTION('ref_axis',(0.,0.,-1.));
#292=DIRECTION('',(0.,0.,1.));
#293=DIRECTION('',(1.,0.,0.));
#294=DIRECTION('',(0.,0.,-1.));
#295=DIRECTION('',(1.,0.,0.));
#296=DIRECTION('center_axis',(0.,0.,1.));
#297=DIRECTION('ref_axis',(0.,-1.,0.));
#298=DIRECTION('',(0.,1.,0.));
#299=DIRECTION('',(0.,-1.,0.));
#300=DIRECTION('',(1.,0.,0.));
#301=DIRECTION('center_axis',(0.,1.,0.));
#302=DIRECTION('ref_axis',(0.,0.,1.));
#303=DIRECTION('',(0.,0.,-1.));
#304=DIRECTION('',(0.,0.,1.));
#305=DIRECTION('',(1.,0.,0.));
#306=DIRECTION('center_axis',(0.,0.,-1.));
#307=DIRECTION('ref_axis',(0.,1.,0.));
#308=DIRECTION('',(0.,-1.,0.));
#309=DIRECTION('',(0.,1.,0.));
#310=DIRECTION('center_axis',(1.,0.,0.));
#311=DIRECTION('ref_axis',(0.,0.,-1.));
#312=DIRECTION('center_axis',(0.,1.,0.));
#313=DIRECTION('ref_axis',(0.,0.,1.));
#314=DIRECTION('',(0.,0.,1.));
#315=DIRECTION('',(1.,0.,0.));
#316=DIRECTION('',(0.,0.,1.));
#317=DIRECTION('',(1.,0.,0.));
#318=DIRECTION('center_axis',(0.,0.,-1.));
#319=DIRECTION('ref_axis',(0.,1.,0.));
#320=DIRECTION('',(0.,1.,0.));
#321=DIRECTION('',(0.,1.,0.));
#322=DIRECTION('',(1.,0.,0.));
#323=DIRECTION('center_axis',(0.,-1.,0.));
#324=DIRECTION('ref_axis',(0.,0.,-1.));
#325=DIRECTION('',(0.,0.,-1.));
#326=DIRECTION('',(0.,0.,-1.));
#327=DIRECTION('',(1.,0.,0.));
#328=DIRECTION('center_axis',(0.,0.,1.));
#329=DIRECTION('ref_axis',(0.,-1.,0.));
#330=DIRECTION('',(0.,-1.,0.));
#331=DIRECTION('',(0.,-1.,0.));
#332=DIRECTION('center_axis',(1.,0.,0.));
#333=DIRECTION('ref_axis',(0.,0.,-1.));
#334=DIRECTION('center_axis',(1.,0.,0.));
#335=DIRECTION('ref_axis',(0.,0.,-1.));
#336=CARTESIAN_POINT('',(0.,0.,0.));
#337=CARTESIAN_POINT('Origin',(-97.,82.,40.));
#338=CARTESIAN_POINT('',(-99.2,82.,48.));
#339=CARTESIAN_POINT('Origin',(-97.,82.,48.));
#340=CARTESIAN_POINT('',(-99.2,82.,51.8));
#341=CARTESIAN_POINT('',(-99.2,82.,40.));
#342=CARTESIAN_POINT('Origin',(-97.,82.,51.8));
#343=CARTESIAN_POINT('Origin',(-97.,82.,40.));
#344=CARTESIAN_POINT('',(-99.2,82.,60.2));
#345=CARTESIAN_POINT('Origin',(-97.,82.,60.2));
#346=CARTESIAN_POINT('',(-99.2,82.,72.));
#347=CARTESIAN_POINT('',(-99.2,82.,40.));
#348=CARTESIAN_POINT('Origin',(-97.,82.,72.));
#349=CARTESIAN_POINT('Origin',(-102.2,71.8,60.2));
#350=CARTESIAN_POINT('',(-93.,71.8,51.8));
#351=CARTESIAN_POINT('',(-93.,71.8,60.2));
#352=CARTESIAN_POINT('',(-93.,71.8,60.1));
#353=CARTESIAN_POINT('',(-102.2,71.8,51.8));
#354=CARTESIAN_POINT('',(-102.2,71.8,51.8));
#355=CARTESIAN_POINT('',(-102.2,71.8,60.2));
#356=CARTESIAN_POINT('',(-102.2,71.8,60.2));
#357=CARTESIAN_POINT('',(-102.2,71.8,60.2));
#358=CARTESIAN_POINT('Origin',(-102.2,92.2,60.2));
#359=CARTESIAN_POINT('',(-93.,92.2,60.2));
#360=CARTESIAN_POINT('',(-93.,87.1,60.2));
#361=CARTESIAN_POINT('',(-102.2,92.2,60.2));
#362=CARTESIAN_POINT('',(-102.2,92.2,60.2));
#363=CARTESIAN_POINT('',(-102.2,92.2,60.2));
#364=CARTESIAN_POINT('Origin',(-102.2,92.2,51.8));
#365=CARTESIAN_POINT('',(-93.,92.2,51.8));
#366=CARTESIAN_POINT('',(-93.,92.2,55.9));
#367=CARTESIAN_POINT('',(-102.2,92.2,51.8));
#368=CARTESIAN_POINT('',(-102.2,92.2,51.8));
#369=CARTESIAN_POINT('',(-102.2,92.2,51.8));
#370=CARTESIAN_POINT('Origin',(-102.2,71.8,51.8));
#371=CARTESIAN_POINT('',(-93.,76.9,51.8));
#372=CARTESIAN_POINT('',(-102.2,71.8,51.8));
#373=CARTESIAN_POINT('Origin',(-102.2,82.,56.));
#374=CARTESIAN_POINT('Origin',(-105.,97.,48.));
#375=CARTESIAN_POINT('',(-105.,97.,48.));
#376=CARTESIAN_POINT('',(-105.,97.,72.));
#377=CARTESIAN_POINT('',(-105.,97.,48.));
#378=CARTESIAN_POINT('',(-93.,97.,72.));
#379=CARTESIAN_POINT('',(-105.,97.,72.));
#380=CARTESIAN_POINT('',(-93.,97.,48.));
#381=CARTESIAN_POINT('',(-93.,97.,48.));
#382=CARTESIAN_POINT('',(-105.,97.,48.));
#383=CARTESIAN_POINT('Origin',(-105.,67.,48.));
#384=CARTESIAN_POINT('',(-105.,67.,48.));
#385=CARTESIAN_POINT('',(-105.,67.,48.));
#386=CARTESIAN_POINT('',(-93.,67.,48.));
#387=CARTESIAN_POINT('',(-93.,67.,48.));
#388=CARTESIAN_POINT('',(-105.,67.,48.));
#389=CARTESIAN_POINT('Origin',(-105.,67.,72.));
#390=CARTESIAN_POINT('',(-105.,67.,72.));
#391=CARTESIAN_POINT('',(-105.,67.,72.));
#392=CARTESIAN_POINT('',(-93.,67.,72.));
#393=CARTESIAN_POINT('',(-93.,67.,72.));
#394=CARTESIAN_POINT('',(-105.,67.,72.));
#395=CARTESIAN_POINT('Origin',(-105.,97.,72.));
#396=CARTESIAN_POINT('',(-105.,97.,72.));
#397=CARTESIAN_POINT('',(-93.,97.,72.));
#398=CARTESIAN_POINT('Origin',(-93.,82.,60.));
#399=CARTESIAN_POINT('Origin',(-105.,82.,60.));
#400=UNCERTAINTY_MEASURE_WITH_UNIT(LENGTH_MEASURE(0.01),#404,
'DISTANCE_ACCURACY_VALUE',
'Maximum model space distance between geometric entities at asserted c
onnectivities');
#401=UNCERTAINTY_MEASURE_WITH_UNIT(LENGTH_MEASURE(0.01),#404,
'DISTANCE_ACCURACY_VALUE',
'Maximum model space distance between geometric entities at asserted c
onnectivities');
#402=(
GEOMETRIC_REPRESENTATION_CONTEXT(3)
GLOBAL_UNCERTAINTY_ASSIGNED_CONTEXT((#400))
GLOBAL_UNIT_ASSIGNED_CONTEXT((#404,#406,#407))
REPRESENTATION_CONTEXT('','3D')
);
#403=(
GEOMETRIC_REPRESENTATION_CONTEXT(3)
GLOBAL_UNCERTAINTY_ASSIGNED_CONTEXT((#401))
GLOBAL_UNIT_ASSIGNED_CONTEXT((#404,#406,#407))
REPRESENTATION_CONTEXT('','3D')
);
#404=(
LENGTH_UNIT()
NAMED_UNIT(*)
SI_UNIT(.MILLI.,.METRE.)
);
#405=(
LENGTH_UNIT()
NAMED_UNIT(*)
SI_UNIT($,.METRE.)
);
#406=(
NAMED_UNIT(*)
PLANE_ANGLE_UNIT()
SI_UNIT($,.RADIAN.)
);
#407=(
NAMED_UNIT(*)
SI_UNIT($,.STERADIAN.)
SOLID_ANGLE_UNIT()
);
#408=SHAPE_DEFINITION_REPRESENTATION(#409,#410);
#409=PRODUCT_DEFINITION_SHAPE('',$,#412);
#410=SHAPE_REPRESENTATION('',(#256),#402);
#411=PRODUCT_DEFINITION_CONTEXT('part definition',#416,'design');
#412=PRODUCT_DEFINITION('fit_coupon_020','fit_coupon_020',#413,#411);
#413=PRODUCT_DEFINITION_FORMATION('',$,#418);
#414=PRODUCT_RELATED_PRODUCT_CATEGORY('fit_coupon_020','fit_coupon_020',
(#418));
#415=APPLICATION_PROTOCOL_DEFINITION('international standard',
'automotive_design',2009,#416);
#416=APPLICATION_CONTEXT(
'Core Data for Automotive Mechanical Design Process');
#417=PRODUCT_CONTEXT('part definition',#416,'mechanical');
#418=PRODUCT('fit_coupon_020','fit_coupon_020',$,(#417));
#419=PRESENTATION_STYLE_ASSIGNMENT((#421));
#420=PRESENTATION_STYLE_ASSIGNMENT((#422));
#421=SURFACE_STYLE_USAGE(.BOTH.,#423);
#422=SURFACE_STYLE_USAGE(.BOTH.,#424);
#423=SURFACE_SIDE_STYLE('',(#425));
#424=SURFACE_SIDE_STYLE('',(#426));
#425=SURFACE_STYLE_FILL_AREA(#427);
#426=SURFACE_STYLE_FILL_AREA(#428);
#427=FILL_AREA_STYLE('\X2\92FC\X0\ - \X2\30B530C630F3\X0\',(#429));
#428=FILL_AREA_STYLE('DGX_\X2\591689B3306E307F\X0\_frame',(#430));
#429=FILL_AREA_STYLE_COLOUR('\X2\92FC\X0\ - \X2\30B530C630F3\X0\',#431);
#430=FILL_AREA_STYLE_COLOUR('DGX_\X2\591689B3306E307F\X0\_frame',#432);
#431=COLOUR_RGB('\X2\92FC\X0\ - \X2\30B530C630F3\X0\',0.627450980392157,
0.627450980392157,0.627450980392157);
#432=COLOUR_RGB('DGX_\X2\591689B3306E307F\X0\_frame',0.509803921568627,
0.541176470588235,0.580392156862745);
ENDSEC;
END-ISO-10303-21;
