ISO-10303-21;
HEADER;
/* Generated by software containing ST-Developer
 * from STEP Tools, Inc. (www.steptools.com) 
 */

FILE_DESCRIPTION(
/* description */ (''),
/* implementation_level */ '2;1');

FILE_NAME(
/* name */ 'fusion_sideplate_reference.step',
/* time_stamp */ '2026-09-06T11:46:43+09:00',
/* author */ (''),
/* organization */ (''),
/* preprocessor_version */ 'ST-DEVELOPER v20.1',
/* originating_system */ 'Autodesk Translation Framework v15.8.0.0',
/* authorisation */ '');

FILE_SCHEMA (('AUTOMOTIVE_DESIGN { 1 0 10303 214 3 1 1 }'));
ENDSEC;

DATA;
#10=MECHANICAL_DESIGN_GEOMETRIC_PRESENTATION_REPRESENTATION('',(#13),#1964);
#11=SHAPE_REPRESENTATION_RELATIONSHIP('SRR','None',#1971,#12);
#12=ADVANCED_BREP_SHAPE_REPRESENTATION('',(#14),#1963);
#13=STYLED_ITEM('',(#1981),#14);
#14=MANIFOLD_SOLID_BREP('\X2\30DC30C730A3\X0\1',#1188);
#15=CYLINDRICAL_SURFACE('',#1210,2.25);
#16=CYLINDRICAL_SURFACE('',#1217,3.3);
#17=CYLINDRICAL_SURFACE('',#1221,3.3);
#18=CYLINDRICAL_SURFACE('',#1225,3.3);
#19=CYLINDRICAL_SURFACE('',#1229,3.3);
#20=CYLINDRICAL_SURFACE('',#1233,2.3);
#21=CYLINDRICAL_SURFACE('',#1236,2.3);
#22=CYLINDRICAL_SURFACE('',#1244,2.3);
#23=CYLINDRICAL_SURFACE('',#1247,2.3);
#24=CYLINDRICAL_SURFACE('',#1255,2.3);
#25=CYLINDRICAL_SURFACE('',#1258,2.3);
#26=CYLINDRICAL_SURFACE('',#1266,3.);
#27=CYLINDRICAL_SURFACE('',#1270,3.);
#28=CYLINDRICAL_SURFACE('',#1274,3.);
#29=CYLINDRICAL_SURFACE('',#1278,3.);
#30=CYLINDRICAL_SURFACE('',#1282,3.);
#31=CYLINDRICAL_SURFACE('',#1286,3.);
#32=CYLINDRICAL_SURFACE('',#1290,3.);
#33=CYLINDRICAL_SURFACE('',#1294,3.);
#34=FACE_BOUND('',#170,.T.);
#35=FACE_BOUND('',#189,.T.);
#36=FACE_BOUND('',#192,.T.);
#37=FACE_BOUND('',#198,.T.);
#38=FACE_BOUND('',#201,.T.);
#39=FACE_BOUND('',#207,.T.);
#40=FACE_BOUND('',#210,.T.);
#41=FACE_BOUND('',#218,.T.);
#42=FACE_BOUND('',#219,.T.);
#43=FACE_BOUND('',#224,.T.);
#44=FACE_BOUND('',#225,.T.);
#45=FACE_BOUND('',#230,.T.);
#46=FACE_BOUND('',#233,.T.);
#47=FACE_BOUND('',#236,.T.);
#48=FACE_BOUND('',#237,.T.);
#49=FACE_BOUND('',#239,.T.);
#50=FACE_BOUND('',#240,.T.);
#51=FACE_BOUND('',#242,.T.);
#52=FACE_BOUND('',#243,.T.);
#53=FACE_BOUND('',#244,.T.);
#54=FACE_BOUND('',#246,.T.);
#55=FACE_BOUND('',#247,.T.);
#56=FACE_BOUND('',#248,.T.);
#57=FACE_BOUND('',#249,.T.);
#58=FACE_BOUND('',#250,.T.);
#59=FACE_BOUND('',#252,.T.);
#60=FACE_BOUND('',#253,.T.);
#61=CIRCLE('',#1209,2.25);
#62=CIRCLE('',#1211,2.25);
#63=CIRCLE('',#1218,3.3);
#64=CIRCLE('',#1219,3.3);
#65=CIRCLE('',#1222,3.3);
#66=CIRCLE('',#1223,3.3);
#67=CIRCLE('',#1226,3.3);
#68=CIRCLE('',#1227,3.3);
#69=CIRCLE('',#1230,3.3);
#70=CIRCLE('',#1231,3.3);
#71=CIRCLE('',#1234,2.3);
#72=CIRCLE('',#1235,2.3);
#73=CIRCLE('',#1237,2.3);
#74=CIRCLE('',#1238,2.3);
#75=CIRCLE('',#1245,2.3);
#76=CIRCLE('',#1246,2.3);
#77=CIRCLE('',#1248,2.3);
#78=CIRCLE('',#1249,2.3);
#79=CIRCLE('',#1256,2.3);
#80=CIRCLE('',#1257,2.3);
#81=CIRCLE('',#1259,2.3);
#82=CIRCLE('',#1260,2.3);
#83=CIRCLE('',#1267,3.);
#84=CIRCLE('',#1268,3.);
#85=CIRCLE('',#1271,3.);
#86=CIRCLE('',#1272,3.);
#87=CIRCLE('',#1275,3.);
#88=CIRCLE('',#1276,3.);
#89=CIRCLE('',#1279,3.);
#90=CIRCLE('',#1280,3.);
#91=CIRCLE('',#1283,3.);
#92=CIRCLE('',#1284,3.);
#93=CIRCLE('',#1287,3.);
#94=CIRCLE('',#1288,3.);
#95=CIRCLE('',#1291,3.);
#96=CIRCLE('',#1292,3.);
#97=CIRCLE('',#1295,3.);
#98=CIRCLE('',#1296,3.);
#99=FACE_OUTER_BOUND('',#163,.T.);
#100=FACE_OUTER_BOUND('',#164,.T.);
#101=FACE_OUTER_BOUND('',#165,.T.);
#102=FACE_OUTER_BOUND('',#166,.T.);
#103=FACE_OUTER_BOUND('',#167,.T.);
#104=FACE_OUTER_BOUND('',#168,.T.);
#105=FACE_OUTER_BOUND('',#169,.T.);
#106=FACE_OUTER_BOUND('',#171,.T.);
#107=FACE_OUTER_BOUND('',#172,.T.);
#108=FACE_OUTER_BOUND('',#173,.T.);
#109=FACE_OUTER_BOUND('',#174,.T.);
#110=FACE_OUTER_BOUND('',#175,.T.);
#111=FACE_OUTER_BOUND('',#176,.T.);
#112=FACE_OUTER_BOUND('',#177,.T.);
#113=FACE_OUTER_BOUND('',#178,.T.);
#114=FACE_OUTER_BOUND('',#179,.T.);
#115=FACE_OUTER_BOUND('',#180,.T.);
#116=FACE_OUTER_BOUND('',#181,.T.);
#117=FACE_OUTER_BOUND('',#182,.T.);
#118=FACE_OUTER_BOUND('',#183,.T.);
#119=FACE_OUTER_BOUND('',#184,.T.);
#120=FACE_OUTER_BOUND('',#185,.T.);
#121=FACE_OUTER_BOUND('',#186,.T.);
#122=FACE_OUTER_BOUND('',#187,.T.);
#123=FACE_OUTER_BOUND('',#188,.T.);
#124=FACE_OUTER_BOUND('',#190,.T.);
#125=FACE_OUTER_BOUND('',#191,.T.);
#126=FACE_OUTER_BOUND('',#193,.T.);
#127=FACE_OUTER_BOUND('',#194,.T.);
#128=FACE_OUTER_BOUND('',#195,.T.);
#129=FACE_OUTER_BOUND('',#196,.T.);
#130=FACE_OUTER_BOUND('',#197,.T.);
#131=FACE_OUTER_BOUND('',#199,.T.);
#132=FACE_OUTER_BOUND('',#200,.T.);
#133=FACE_OUTER_BOUND('',#202,.T.);
#134=FACE_OUTER_BOUND('',#203,.T.);
#135=FACE_OUTER_BOUND('',#204,.T.);
#136=FACE_OUTER_BOUND('',#205,.T.);
#137=FACE_OUTER_BOUND('',#206,.T.);
#138=FACE_OUTER_BOUND('',#208,.T.);
#139=FACE_OUTER_BOUND('',#209,.T.);
#140=FACE_OUTER_BOUND('',#211,.T.);
#141=FACE_OUTER_BOUND('',#212,.T.);
#142=FACE_OUTER_BOUND('',#213,.T.);
#143=FACE_OUTER_BOUND('',#214,.T.);
#144=FACE_OUTER_BOUND('',#215,.T.);
#145=FACE_OUTER_BOUND('',#216,.T.);
#146=FACE_OUTER_BOUND('',#217,.T.);
#147=FACE_OUTER_BOUND('',#220,.T.);
#148=FACE_OUTER_BOUND('',#221,.T.);
#149=FACE_OUTER_BOUND('',#222,.T.);
#150=FACE_OUTER_BOUND('',#223,.T.);
#151=FACE_OUTER_BOUND('',#226,.T.);
#152=FACE_OUTER_BOUND('',#227,.T.);
#153=FACE_OUTER_BOUND('',#228,.T.);
#154=FACE_OUTER_BOUND('',#229,.T.);
#155=FACE_OUTER_BOUND('',#231,.T.);
#156=FACE_OUTER_BOUND('',#232,.T.);
#157=FACE_OUTER_BOUND('',#234,.T.);
#158=FACE_OUTER_BOUND('',#235,.T.);
#159=FACE_OUTER_BOUND('',#238,.T.);
#160=FACE_OUTER_BOUND('',#241,.T.);
#161=FACE_OUTER_BOUND('',#245,.T.);
#162=FACE_OUTER_BOUND('',#251,.T.);
#163=EDGE_LOOP('',(#761,#762,#763,#764));
#164=EDGE_LOOP('',(#765,#766,#767,#768));
#165=EDGE_LOOP('',(#769,#770,#771,#772));
#166=EDGE_LOOP('',(#773,#774,#775,#776));
#167=EDGE_LOOP('',(#777,#778,#779,#780));
#168=EDGE_LOOP('',(#781,#782,#783,#784));
#169=EDGE_LOOP('',(#785,#786,#787,#788,#789,#790));
#170=EDGE_LOOP('',(#791));
#171=EDGE_LOOP('',(#792,#793,#794,#795));
#172=EDGE_LOOP('',(#796,#797,#798,#799));
#173=EDGE_LOOP('',(#800,#801,#802,#803));
#174=EDGE_LOOP('',(#804,#805,#806,#807));
#175=EDGE_LOOP('',(#808,#809,#810,#811));
#176=EDGE_LOOP('',(#812,#813,#814,#815));
#177=EDGE_LOOP('',(#816,#817,#818,#819));
#178=EDGE_LOOP('',(#820));
#179=EDGE_LOOP('',(#821,#822,#823,#824));
#180=EDGE_LOOP('',(#825));
#181=EDGE_LOOP('',(#826,#827,#828,#829));
#182=EDGE_LOOP('',(#830));
#183=EDGE_LOOP('',(#831,#832,#833,#834));
#184=EDGE_LOOP('',(#835));
#185=EDGE_LOOP('',(#836,#837,#838,#839));
#186=EDGE_LOOP('',(#840,#841,#842,#843));
#187=EDGE_LOOP('',(#844,#845,#846,#847));
#188=EDGE_LOOP('',(#848,#849,#850,#851));
#189=EDGE_LOOP('',(#852));
#190=EDGE_LOOP('',(#853,#854,#855,#856));
#191=EDGE_LOOP('',(#857,#858,#859,#860));
#192=EDGE_LOOP('',(#861));
#193=EDGE_LOOP('',(#862,#863,#864,#865));
#194=EDGE_LOOP('',(#866,#867,#868,#869));
#195=EDGE_LOOP('',(#870,#871,#872,#873));
#196=EDGE_LOOP('',(#874,#875,#876,#877));
#197=EDGE_LOOP('',(#878,#879,#880,#881));
#198=EDGE_LOOP('',(#882));
#199=EDGE_LOOP('',(#883,#884,#885,#886));
#200=EDGE_LOOP('',(#887,#888,#889,#890));
#201=EDGE_LOOP('',(#891));
#202=EDGE_LOOP('',(#892,#893,#894,#895));
#203=EDGE_LOOP('',(#896,#897,#898,#899));
#204=EDGE_LOOP('',(#900,#901,#902,#903));
#205=EDGE_LOOP('',(#904,#905,#906,#907));
#206=EDGE_LOOP('',(#908,#909,#910,#911));
#207=EDGE_LOOP('',(#912));
#208=EDGE_LOOP('',(#913,#914,#915,#916));
#209=EDGE_LOOP('',(#917,#918,#919,#920));
#210=EDGE_LOOP('',(#921));
#211=EDGE_LOOP('',(#922,#923,#924,#925));
#212=EDGE_LOOP('',(#926,#927,#928,#929));
#213=EDGE_LOOP('',(#930,#931,#932,#933));
#214=EDGE_LOOP('',(#934,#935,#936,#937));
#215=EDGE_LOOP('',(#938,#939,#940,#941));
#216=EDGE_LOOP('',(#942,#943,#944,#945));
#217=EDGE_LOOP('',(#946,#947,#948,#949));
#218=EDGE_LOOP('',(#950));
#219=EDGE_LOOP('',(#951));
#220=EDGE_LOOP('',(#952,#953,#954,#955));
#221=EDGE_LOOP('',(#956,#957,#958,#959));
#222=EDGE_LOOP('',(#960,#961,#962,#963));
#223=EDGE_LOOP('',(#964,#965,#966,#967));
#224=EDGE_LOOP('',(#968));
#225=EDGE_LOOP('',(#969));
#226=EDGE_LOOP('',(#970,#971,#972,#973));
#227=EDGE_LOOP('',(#974,#975,#976,#977));
#228=EDGE_LOOP('',(#978,#979,#980,#981));
#229=EDGE_LOOP('',(#982,#983,#984,#985));
#230=EDGE_LOOP('',(#986));
#231=EDGE_LOOP('',(#987,#988,#989,#990));
#232=EDGE_LOOP('',(#991,#992,#993,#994));
#233=EDGE_LOOP('',(#995,#996,#997,#998,#999,#1000));
#234=EDGE_LOOP('',(#1001,#1002,#1003,#1004));
#235=EDGE_LOOP('',(#1005,#1006,#1007,#1008));
#236=EDGE_LOOP('',(#1009));
#237=EDGE_LOOP('',(#1010));
#238=EDGE_LOOP('',(#1011,#1012,#1013,#1014));
#239=EDGE_LOOP('',(#1015));
#240=EDGE_LOOP('',(#1016,#1017,#1018,#1019));
#241=EDGE_LOOP('',(#1020,#1021,#1022,#1023));
#242=EDGE_LOOP('',(#1024));
#243=EDGE_LOOP('',(#1025));
#244=EDGE_LOOP('',(#1026));
#245=EDGE_LOOP('',(#1027,#1028,#1029,#1030));
#246=EDGE_LOOP('',(#1031,#1032,#1033,#1034));
#247=EDGE_LOOP('',(#1035,#1036,#1037,#1038));
#248=EDGE_LOOP('',(#1039,#1040,#1041,#1042));
#249=EDGE_LOOP('',(#1043,#1044,#1045,#1046,#1047,#1048,#1049,#1050));
#250=EDGE_LOOP('',(#1051,#1052,#1053,#1054,#1055,#1056,#1057,#1058));
#251=EDGE_LOOP('',(#1059,#1060,#1061,#1062));
#252=EDGE_LOOP('',(#1063,#1064,#1065,#1066,#1067,#1068,#1069,#1070));
#253=EDGE_LOOP('',(#1071,#1072,#1073,#1074,#1075,#1076,#1077,#1078));
#254=LINE('',#1635,#375);
#255=LINE('',#1637,#376);
#256=LINE('',#1639,#377);
#257=LINE('',#1640,#378);
#258=LINE('',#1643,#379);
#259=LINE('',#1645,#380);
#260=LINE('',#1646,#381);
#261=LINE('',#1649,#382);
#262=LINE('',#1651,#383);
#263=LINE('',#1652,#384);
#264=LINE('',#1655,#385);
#265=LINE('',#1657,#386);
#266=LINE('',#1658,#387);
#267=LINE('',#1661,#388);
#268=LINE('',#1663,#389);
#269=LINE('',#1664,#390);
#270=LINE('',#1666,#391);
#271=LINE('',#1667,#392);
#272=LINE('',#1674,#393);
#273=LINE('',#1678,#394);
#274=LINE('',#1680,#395);
#275=LINE('',#1682,#396);
#276=LINE('',#1683,#397);
#277=LINE('',#1686,#398);
#278=LINE('',#1688,#399);
#279=LINE('',#1689,#400);
#280=LINE('',#1692,#401);
#281=LINE('',#1694,#402);
#282=LINE('',#1695,#403);
#283=LINE('',#1697,#404);
#284=LINE('',#1698,#405);
#285=LINE('',#1704,#406);
#286=LINE('',#1711,#407);
#287=LINE('',#1718,#408);
#288=LINE('',#1725,#409);
#289=LINE('',#1732,#410);
#290=LINE('',#1738,#411);
#291=LINE('',#1743,#412);
#292=LINE('',#1745,#413);
#293=LINE('',#1747,#414);
#294=LINE('',#1748,#415);
#295=LINE('',#1751,#416);
#296=LINE('',#1753,#417);
#297=LINE('',#1754,#418);
#298=LINE('',#1757,#419);
#299=LINE('',#1759,#420);
#300=LINE('',#1760,#421);
#301=LINE('',#1762,#422);
#302=LINE('',#1763,#423);
#303=LINE('',#1769,#424);
#304=LINE('',#1775,#425);
#305=LINE('',#1780,#426);
#306=LINE('',#1782,#427);
#307=LINE('',#1784,#428);
#308=LINE('',#1785,#429);
#309=LINE('',#1788,#430);
#310=LINE('',#1790,#431);
#311=LINE('',#1791,#432);
#312=LINE('',#1794,#433);
#313=LINE('',#1796,#434);
#314=LINE('',#1797,#435);
#315=LINE('',#1799,#436);
#316=LINE('',#1800,#437);
#317=LINE('',#1806,#438);
#318=LINE('',#1812,#439);
#319=LINE('',#1817,#440);
#320=LINE('',#1819,#441);
#321=LINE('',#1821,#442);
#322=LINE('',#1822,#443);
#323=LINE('',#1825,#444);
#324=LINE('',#1827,#445);
#325=LINE('',#1828,#446);
#326=LINE('',#1831,#447);
#327=LINE('',#1833,#448);
#328=LINE('',#1834,#449);
#329=LINE('',#1836,#450);
#330=LINE('',#1837,#451);
#331=LINE('',#1844,#452);
#332=LINE('',#1847,#453);
#333=LINE('',#1850,#454);
#334=LINE('',#1852,#455);
#335=LINE('',#1853,#456);
#336=LINE('',#1859,#457);
#337=LINE('',#1862,#458);
#338=LINE('',#1864,#459);
#339=LINE('',#1865,#460);
#340=LINE('',#1871,#461);
#341=LINE('',#1874,#462);
#342=LINE('',#1876,#463);
#343=LINE('',#1877,#464);
#344=LINE('',#1882,#465);
#345=LINE('',#1885,#466);
#346=LINE('',#1886,#467);
#347=LINE('',#1892,#468);
#348=LINE('',#1895,#469);
#349=LINE('',#1898,#470);
#350=LINE('',#1900,#471);
#351=LINE('',#1901,#472);
#352=LINE('',#1907,#473);
#353=LINE('',#1910,#474);
#354=LINE('',#1912,#475);
#355=LINE('',#1913,#476);
#356=LINE('',#1919,#477);
#357=LINE('',#1922,#478);
#358=LINE('',#1924,#479);
#359=LINE('',#1925,#480);
#360=LINE('',#1930,#481);
#361=LINE('',#1933,#482);
#362=LINE('',#1934,#483);
#363=LINE('',#1938,#484);
#364=LINE('',#1940,#485);
#365=LINE('',#1942,#486);
#366=LINE('',#1943,#487);
#367=LINE('',#1946,#488);
#368=LINE('',#1948,#489);
#369=LINE('',#1949,#490);
#370=LINE('',#1952,#491);
#371=LINE('',#1954,#492);
#372=LINE('',#1955,#493);
#373=LINE('',#1957,#494);
#374=LINE('',#1958,#495);
#375=VECTOR('',#1308,10.);
#376=VECTOR('',#1309,10.);
#377=VECTOR('',#1310,10.);
#378=VECTOR('',#1311,10.);
#379=VECTOR('',#1314,10.);
#380=VECTOR('',#1315,10.);
#381=VECTOR('',#1316,10.);
#382=VECTOR('',#1319,10.);
#383=VECTOR('',#1320,10.);
#384=VECTOR('',#1321,10.);
#385=VECTOR('',#1324,10.);
#386=VECTOR('',#1325,10.);
#387=VECTOR('',#1326,10.);
#388=VECTOR('',#1329,10.);
#389=VECTOR('',#1330,10.);
#390=VECTOR('',#1331,10.);
#391=VECTOR('',#1334,10.);
#392=VECTOR('',#1335,10.);
#393=VECTOR('',#1344,2.25);
#394=VECTOR('',#1347,10.);
#395=VECTOR('',#1348,10.);
#396=VECTOR('',#1349,10.);
#397=VECTOR('',#1350,10.);
#398=VECTOR('',#1353,10.);
#399=VECTOR('',#1354,10.);
#400=VECTOR('',#1355,10.);
#401=VECTOR('',#1358,10.);
#402=VECTOR('',#1359,10.);
#403=VECTOR('',#1360,10.);
#404=VECTOR('',#1363,10.);
#405=VECTOR('',#1364,10.);
#406=VECTOR('',#1371,3.3);
#407=VECTOR('',#1380,3.3);
#408=VECTOR('',#1389,3.3);
#409=VECTOR('',#1398,3.3);
#410=VECTOR('',#1407,2.3);
#411=VECTOR('',#1414,2.3);
#412=VECTOR('',#1419,10.);
#413=VECTOR('',#1420,10.);
#414=VECTOR('',#1421,10.);
#415=VECTOR('',#1422,10.);
#416=VECTOR('',#1425,10.);
#417=VECTOR('',#1426,10.);
#418=VECTOR('',#1427,10.);
#419=VECTOR('',#1430,10.);
#420=VECTOR('',#1431,10.);
#421=VECTOR('',#1432,10.);
#422=VECTOR('',#1435,10.);
#423=VECTOR('',#1436,10.);
#424=VECTOR('',#1443,2.3);
#425=VECTOR('',#1450,2.3);
#426=VECTOR('',#1455,10.);
#427=VECTOR('',#1456,10.);
#428=VECTOR('',#1457,10.);
#429=VECTOR('',#1458,10.);
#430=VECTOR('',#1461,10.);
#431=VECTOR('',#1462,10.);
#432=VECTOR('',#1463,10.);
#433=VECTOR('',#1466,10.);
#434=VECTOR('',#1467,10.);
#435=VECTOR('',#1468,10.);
#436=VECTOR('',#1471,10.);
#437=VECTOR('',#1472,10.);
#438=VECTOR('',#1479,2.3);
#439=VECTOR('',#1486,2.3);
#440=VECTOR('',#1491,10.);
#441=VECTOR('',#1492,10.);
#442=VECTOR('',#1493,10.);
#443=VECTOR('',#1494,10.);
#444=VECTOR('',#1497,10.);
#445=VECTOR('',#1498,10.);
#446=VECTOR('',#1499,10.);
#447=VECTOR('',#1502,10.);
#448=VECTOR('',#1503,10.);
#449=VECTOR('',#1504,10.);
#450=VECTOR('',#1507,10.);
#451=VECTOR('',#1508,10.);
#452=VECTOR('',#1515,10.);
#453=VECTOR('',#1518,10.);
#454=VECTOR('',#1521,10.);
#455=VECTOR('',#1522,10.);
#456=VECTOR('',#1523,10.);
#457=VECTOR('',#1528,10.);
#458=VECTOR('',#1531,10.);
#459=VECTOR('',#1534,10.);
#460=VECTOR('',#1535,10.);
#461=VECTOR('',#1540,10.);
#462=VECTOR('',#1543,10.);
#463=VECTOR('',#1546,10.);
#464=VECTOR('',#1547,10.);
#465=VECTOR('',#1552,10.);
#466=VECTOR('',#1557,10.);
#467=VECTOR('',#1558,10.);
#468=VECTOR('',#1563,10.);
#469=VECTOR('',#1566,10.);
#470=VECTOR('',#1569,10.);
#471=VECTOR('',#1570,10.);
#472=VECTOR('',#1571,10.);
#473=VECTOR('',#1576,10.);
#474=VECTOR('',#1579,10.);
#475=VECTOR('',#1582,10.);
#476=VECTOR('',#1583,10.);
#477=VECTOR('',#1588,10.);
#478=VECTOR('',#1591,10.);
#479=VECTOR('',#1594,10.);
#480=VECTOR('',#1595,10.);
#481=VECTOR('',#1600,10.);
#482=VECTOR('',#1605,10.);
#483=VECTOR('',#1606,10.);
#484=VECTOR('',#1609,10.);
#485=VECTOR('',#1610,10.);
#486=VECTOR('',#1611,10.);
#487=VECTOR('',#1612,10.);
#488=VECTOR('',#1615,10.);
#489=VECTOR('',#1616,10.);
#490=VECTOR('',#1617,10.);
#491=VECTOR('',#1620,10.);
#492=VECTOR('',#1621,10.);
#493=VECTOR('',#1622,10.);
#494=VECTOR('',#1625,10.);
#495=VECTOR('',#1626,10.);
#496=VERTEX_POINT('',#1633);
#497=VERTEX_POINT('',#1634);
#498=VERTEX_POINT('',#1636);
#499=VERTEX_POINT('',#1638);
#500=VERTEX_POINT('',#1642);
#501=VERTEX_POINT('',#1644);
#502=VERTEX_POINT('',#1648);
#503=VERTEX_POINT('',#1650);
#504=VERTEX_POINT('',#1654);
#505=VERTEX_POINT('',#1656);
#506=VERTEX_POINT('',#1660);
#507=VERTEX_POINT('',#1662);
#508=VERTEX_POINT('',#1669);
#509=VERTEX_POINT('',#1672);
#510=VERTEX_POINT('',#1676);
#511=VERTEX_POINT('',#1677);
#512=VERTEX_POINT('',#1679);
#513=VERTEX_POINT('',#1681);
#514=VERTEX_POINT('',#1685);
#515=VERTEX_POINT('',#1687);
#516=VERTEX_POINT('',#1691);
#517=VERTEX_POINT('',#1693);
#518=VERTEX_POINT('',#1701);
#519=VERTEX_POINT('',#1703);
#520=VERTEX_POINT('',#1708);
#521=VERTEX_POINT('',#1710);
#522=VERTEX_POINT('',#1715);
#523=VERTEX_POINT('',#1717);
#524=VERTEX_POINT('',#1722);
#525=VERTEX_POINT('',#1724);
#526=VERTEX_POINT('',#1729);
#527=VERTEX_POINT('',#1731);
#528=VERTEX_POINT('',#1735);
#529=VERTEX_POINT('',#1737);
#530=VERTEX_POINT('',#1741);
#531=VERTEX_POINT('',#1742);
#532=VERTEX_POINT('',#1744);
#533=VERTEX_POINT('',#1746);
#534=VERTEX_POINT('',#1750);
#535=VERTEX_POINT('',#1752);
#536=VERTEX_POINT('',#1756);
#537=VERTEX_POINT('',#1758);
#538=VERTEX_POINT('',#1766);
#539=VERTEX_POINT('',#1768);
#540=VERTEX_POINT('',#1772);
#541=VERTEX_POINT('',#1774);
#542=VERTEX_POINT('',#1778);
#543=VERTEX_POINT('',#1779);
#544=VERTEX_POINT('',#1781);
#545=VERTEX_POINT('',#1783);
#546=VERTEX_POINT('',#1787);
#547=VERTEX_POINT('',#1789);
#548=VERTEX_POINT('',#1793);
#549=VERTEX_POINT('',#1795);
#550=VERTEX_POINT('',#1803);
#551=VERTEX_POINT('',#1805);
#552=VERTEX_POINT('',#1809);
#553=VERTEX_POINT('',#1811);
#554=VERTEX_POINT('',#1815);
#555=VERTEX_POINT('',#1816);
#556=VERTEX_POINT('',#1818);
#557=VERTEX_POINT('',#1820);
#558=VERTEX_POINT('',#1824);
#559=VERTEX_POINT('',#1826);
#560=VERTEX_POINT('',#1830);
#561=VERTEX_POINT('',#1832);
#562=VERTEX_POINT('',#1840);
#563=VERTEX_POINT('',#1841);
#564=VERTEX_POINT('',#1843);
#565=VERTEX_POINT('',#1845);
#566=VERTEX_POINT('',#1849);
#567=VERTEX_POINT('',#1851);
#568=VERTEX_POINT('',#1855);
#569=VERTEX_POINT('',#1856);
#570=VERTEX_POINT('',#1858);
#571=VERTEX_POINT('',#1860);
#572=VERTEX_POINT('',#1867);
#573=VERTEX_POINT('',#1868);
#574=VERTEX_POINT('',#1870);
#575=VERTEX_POINT('',#1872);
#576=VERTEX_POINT('',#1879);
#577=VERTEX_POINT('',#1881);
#578=VERTEX_POINT('',#1888);
#579=VERTEX_POINT('',#1889);
#580=VERTEX_POINT('',#1891);
#581=VERTEX_POINT('',#1893);
#582=VERTEX_POINT('',#1897);
#583=VERTEX_POINT('',#1899);
#584=VERTEX_POINT('',#1903);
#585=VERTEX_POINT('',#1904);
#586=VERTEX_POINT('',#1906);
#587=VERTEX_POINT('',#1908);
#588=VERTEX_POINT('',#1915);
#589=VERTEX_POINT('',#1916);
#590=VERTEX_POINT('',#1918);
#591=VERTEX_POINT('',#1920);
#592=VERTEX_POINT('',#1927);
#593=VERTEX_POINT('',#1929);
#594=VERTEX_POINT('',#1936);
#595=VERTEX_POINT('',#1937);
#596=VERTEX_POINT('',#1939);
#597=VERTEX_POINT('',#1941);
#598=VERTEX_POINT('',#1945);
#599=VERTEX_POINT('',#1947);
#600=VERTEX_POINT('',#1951);
#601=VERTEX_POINT('',#1953);
#602=EDGE_CURVE('',#496,#497,#254,.T.);
#603=EDGE_CURVE('',#498,#496,#255,.T.);
#604=EDGE_CURVE('',#499,#498,#256,.T.);
#605=EDGE_CURVE('',#499,#497,#257,.T.);
#606=EDGE_CURVE('',#497,#500,#258,.T.);
#607=EDGE_CURVE('',#501,#499,#259,.T.);
#608=EDGE_CURVE('',#501,#500,#260,.T.);
#609=EDGE_CURVE('',#500,#502,#261,.T.);
#610=EDGE_CURVE('',#503,#501,#262,.T.);
#611=EDGE_CURVE('',#503,#502,#263,.T.);
#612=EDGE_CURVE('',#502,#504,#264,.T.);
#613=EDGE_CURVE('',#505,#503,#265,.T.);
#614=EDGE_CURVE('',#505,#504,#266,.T.);
#615=EDGE_CURVE('',#504,#506,#267,.T.);
#616=EDGE_CURVE('',#507,#505,#268,.T.);
#617=EDGE_CURVE('',#507,#506,#269,.T.);
#618=EDGE_CURVE('',#506,#496,#270,.T.);
#619=EDGE_CURVE('',#498,#507,#271,.T.);
#620=EDGE_CURVE('',#508,#508,#61,.T.);
#621=EDGE_CURVE('',#509,#509,#62,.T.);
#622=EDGE_CURVE('',#509,#508,#272,.T.);
#623=EDGE_CURVE('',#510,#511,#273,.T.);
#624=EDGE_CURVE('',#510,#512,#274,.T.);
#625=EDGE_CURVE('',#512,#513,#275,.T.);
#626=EDGE_CURVE('',#511,#513,#276,.T.);
#627=EDGE_CURVE('',#511,#514,#277,.T.);
#628=EDGE_CURVE('',#513,#515,#278,.T.);
#629=EDGE_CURVE('',#514,#515,#279,.T.);
#630=EDGE_CURVE('',#514,#516,#280,.T.);
#631=EDGE_CURVE('',#515,#517,#281,.T.);
#632=EDGE_CURVE('',#516,#517,#282,.T.);
#633=EDGE_CURVE('',#516,#510,#283,.T.);
#634=EDGE_CURVE('',#517,#512,#284,.T.);
#635=EDGE_CURVE('',#518,#518,#63,.T.);
#636=EDGE_CURVE('',#518,#519,#285,.T.);
#637=EDGE_CURVE('',#519,#519,#64,.T.);
#638=EDGE_CURVE('',#520,#520,#65,.T.);
#639=EDGE_CURVE('',#520,#521,#286,.T.);
#640=EDGE_CURVE('',#521,#521,#66,.T.);
#641=EDGE_CURVE('',#522,#522,#67,.T.);
#642=EDGE_CURVE('',#522,#523,#287,.T.);
#643=EDGE_CURVE('',#523,#523,#68,.T.);
#644=EDGE_CURVE('',#524,#524,#69,.T.);
#645=EDGE_CURVE('',#524,#525,#288,.T.);
#646=EDGE_CURVE('',#525,#525,#70,.T.);
#647=EDGE_CURVE('',#526,#526,#71,.T.);
#648=EDGE_CURVE('',#526,#527,#289,.T.);
#649=EDGE_CURVE('',#527,#527,#72,.T.);
#650=EDGE_CURVE('',#528,#528,#73,.T.);
#651=EDGE_CURVE('',#528,#529,#290,.T.);
#652=EDGE_CURVE('',#529,#529,#74,.T.);
#653=EDGE_CURVE('',#530,#531,#291,.T.);
#654=EDGE_CURVE('',#532,#530,#292,.T.);
#655=EDGE_CURVE('',#533,#532,#293,.T.);
#656=EDGE_CURVE('',#533,#531,#294,.T.);
#657=EDGE_CURVE('',#531,#534,#295,.T.);
#658=EDGE_CURVE('',#535,#533,#296,.T.);
#659=EDGE_CURVE('',#535,#534,#297,.T.);
#660=EDGE_CURVE('',#534,#536,#298,.T.);
#661=EDGE_CURVE('',#537,#535,#299,.T.);
#662=EDGE_CURVE('',#537,#536,#300,.T.);
#663=EDGE_CURVE('',#536,#530,#301,.T.);
#664=EDGE_CURVE('',#532,#537,#302,.T.);
#665=EDGE_CURVE('',#538,#538,#75,.T.);
#666=EDGE_CURVE('',#538,#539,#303,.T.);
#667=EDGE_CURVE('',#539,#539,#76,.T.);
#668=EDGE_CURVE('',#540,#540,#77,.T.);
#669=EDGE_CURVE('',#540,#541,#304,.T.);
#670=EDGE_CURVE('',#541,#541,#78,.T.);
#671=EDGE_CURVE('',#542,#543,#305,.T.);
#672=EDGE_CURVE('',#544,#542,#306,.T.);
#673=EDGE_CURVE('',#545,#544,#307,.T.);
#674=EDGE_CURVE('',#545,#543,#308,.T.);
#675=EDGE_CURVE('',#543,#546,#309,.T.);
#676=EDGE_CURVE('',#547,#545,#310,.T.);
#677=EDGE_CURVE('',#547,#546,#311,.T.);
#678=EDGE_CURVE('',#546,#548,#312,.T.);
#679=EDGE_CURVE('',#549,#547,#313,.T.);
#680=EDGE_CURVE('',#549,#548,#314,.T.);
#681=EDGE_CURVE('',#548,#542,#315,.T.);
#682=EDGE_CURVE('',#544,#549,#316,.T.);
#683=EDGE_CURVE('',#550,#550,#79,.T.);
#684=EDGE_CURVE('',#550,#551,#317,.T.);
#685=EDGE_CURVE('',#551,#551,#80,.T.);
#686=EDGE_CURVE('',#552,#552,#81,.T.);
#687=EDGE_CURVE('',#552,#553,#318,.T.);
#688=EDGE_CURVE('',#553,#553,#82,.T.);
#689=EDGE_CURVE('',#554,#555,#319,.T.);
#690=EDGE_CURVE('',#556,#554,#320,.T.);
#691=EDGE_CURVE('',#557,#556,#321,.T.);
#692=EDGE_CURVE('',#557,#555,#322,.T.);
#693=EDGE_CURVE('',#555,#558,#323,.T.);
#694=EDGE_CURVE('',#559,#557,#324,.T.);
#695=EDGE_CURVE('',#559,#558,#325,.T.);
#696=EDGE_CURVE('',#558,#560,#326,.T.);
#697=EDGE_CURVE('',#561,#559,#327,.T.);
#698=EDGE_CURVE('',#561,#560,#328,.T.);
#699=EDGE_CURVE('',#560,#554,#329,.T.);
#700=EDGE_CURVE('',#556,#561,#330,.T.);
#701=EDGE_CURVE('',#562,#563,#83,.T.);
#702=EDGE_CURVE('',#563,#564,#331,.T.);
#703=EDGE_CURVE('',#564,#565,#84,.T.);
#704=EDGE_CURVE('',#565,#562,#332,.T.);
#705=EDGE_CURVE('',#566,#563,#333,.T.);
#706=EDGE_CURVE('',#567,#566,#334,.T.);
#707=EDGE_CURVE('',#564,#567,#335,.T.);
#708=EDGE_CURVE('',#568,#569,#85,.T.);
#709=EDGE_CURVE('',#569,#570,#336,.T.);
#710=EDGE_CURVE('',#570,#571,#86,.T.);
#711=EDGE_CURVE('',#571,#568,#337,.T.);
#712=EDGE_CURVE('',#570,#565,#338,.T.);
#713=EDGE_CURVE('',#562,#569,#339,.T.);
#714=EDGE_CURVE('',#572,#573,#87,.T.);
#715=EDGE_CURVE('',#573,#574,#340,.T.);
#716=EDGE_CURVE('',#574,#575,#88,.T.);
#717=EDGE_CURVE('',#575,#572,#341,.T.);
#718=EDGE_CURVE('',#574,#571,#342,.T.);
#719=EDGE_CURVE('',#568,#573,#343,.T.);
#720=EDGE_CURVE('',#566,#576,#89,.T.);
#721=EDGE_CURVE('',#576,#577,#344,.T.);
#722=EDGE_CURVE('',#577,#567,#90,.T.);
#723=EDGE_CURVE('',#577,#575,#345,.T.);
#724=EDGE_CURVE('',#572,#576,#346,.T.);
#725=EDGE_CURVE('',#578,#579,#91,.T.);
#726=EDGE_CURVE('',#579,#580,#347,.T.);
#727=EDGE_CURVE('',#580,#581,#92,.T.);
#728=EDGE_CURVE('',#581,#578,#348,.T.);
#729=EDGE_CURVE('',#582,#579,#349,.T.);
#730=EDGE_CURVE('',#583,#582,#350,.T.);
#731=EDGE_CURVE('',#580,#583,#351,.T.);
#732=EDGE_CURVE('',#584,#585,#93,.T.);
#733=EDGE_CURVE('',#585,#586,#352,.T.);
#734=EDGE_CURVE('',#586,#587,#94,.T.);
#735=EDGE_CURVE('',#587,#584,#353,.T.);
#736=EDGE_CURVE('',#586,#581,#354,.T.);
#737=EDGE_CURVE('',#578,#585,#355,.T.);
#738=EDGE_CURVE('',#588,#589,#95,.T.);
#739=EDGE_CURVE('',#589,#590,#356,.T.);
#740=EDGE_CURVE('',#590,#591,#96,.T.);
#741=EDGE_CURVE('',#591,#588,#357,.T.);
#742=EDGE_CURVE('',#590,#587,#358,.T.);
#743=EDGE_CURVE('',#584,#589,#359,.T.);
#744=EDGE_CURVE('',#582,#592,#97,.T.);
#745=EDGE_CURVE('',#592,#593,#360,.T.);
#746=EDGE_CURVE('',#593,#583,#98,.T.);
#747=EDGE_CURVE('',#593,#591,#361,.T.);
#748=EDGE_CURVE('',#588,#592,#362,.T.);
#749=EDGE_CURVE('',#594,#595,#363,.T.);
#750=EDGE_CURVE('',#595,#596,#364,.T.);
#751=EDGE_CURVE('',#597,#596,#365,.T.);
#752=EDGE_CURVE('',#594,#597,#366,.T.);
#753=EDGE_CURVE('',#598,#594,#367,.T.);
#754=EDGE_CURVE('',#599,#597,#368,.T.);
#755=EDGE_CURVE('',#598,#599,#369,.T.);
#756=EDGE_CURVE('',#600,#598,#370,.T.);
#757=EDGE_CURVE('',#601,#599,#371,.T.);
#758=EDGE_CURVE('',#600,#601,#372,.T.);
#759=EDGE_CURVE('',#595,#600,#373,.T.);
#760=EDGE_CURVE('',#596,#601,#374,.T.);
#761=ORIENTED_EDGE('',*,*,#602,.F.);
#762=ORIENTED_EDGE('',*,*,#603,.F.);
#763=ORIENTED_EDGE('',*,*,#604,.F.);
#764=ORIENTED_EDGE('',*,*,#605,.T.);
#765=ORIENTED_EDGE('',*,*,#606,.F.);
#766=ORIENTED_EDGE('',*,*,#605,.F.);
#767=ORIENTED_EDGE('',*,*,#607,.F.);
#768=ORIENTED_EDGE('',*,*,#608,.T.);
#769=ORIENTED_EDGE('',*,*,#609,.F.);
#770=ORIENTED_EDGE('',*,*,#608,.F.);
#771=ORIENTED_EDGE('',*,*,#610,.F.);
#772=ORIENTED_EDGE('',*,*,#611,.T.);
#773=ORIENTED_EDGE('',*,*,#612,.F.);
#774=ORIENTED_EDGE('',*,*,#611,.F.);
#775=ORIENTED_EDGE('',*,*,#613,.F.);
#776=ORIENTED_EDGE('',*,*,#614,.T.);
#777=ORIENTED_EDGE('',*,*,#615,.F.);
#778=ORIENTED_EDGE('',*,*,#614,.F.);
#779=ORIENTED_EDGE('',*,*,#616,.F.);
#780=ORIENTED_EDGE('',*,*,#617,.T.);
#781=ORIENTED_EDGE('',*,*,#618,.F.);
#782=ORIENTED_EDGE('',*,*,#617,.F.);
#783=ORIENTED_EDGE('',*,*,#619,.F.);
#784=ORIENTED_EDGE('',*,*,#603,.T.);
#785=ORIENTED_EDGE('',*,*,#610,.T.);
#786=ORIENTED_EDGE('',*,*,#607,.T.);
#787=ORIENTED_EDGE('',*,*,#604,.T.);
#788=ORIENTED_EDGE('',*,*,#619,.T.);
#789=ORIENTED_EDGE('',*,*,#616,.T.);
#790=ORIENTED_EDGE('',*,*,#613,.T.);
#791=ORIENTED_EDGE('',*,*,#620,.F.);
#792=ORIENTED_EDGE('',*,*,#621,.F.);
#793=ORIENTED_EDGE('',*,*,#622,.T.);
#794=ORIENTED_EDGE('',*,*,#620,.T.);
#795=ORIENTED_EDGE('',*,*,#622,.F.);
#796=ORIENTED_EDGE('',*,*,#623,.F.);
#797=ORIENTED_EDGE('',*,*,#624,.T.);
#798=ORIENTED_EDGE('',*,*,#625,.T.);
#799=ORIENTED_EDGE('',*,*,#626,.F.);
#800=ORIENTED_EDGE('',*,*,#627,.F.);
#801=ORIENTED_EDGE('',*,*,#626,.T.);
#802=ORIENTED_EDGE('',*,*,#628,.T.);
#803=ORIENTED_EDGE('',*,*,#629,.F.);
#804=ORIENTED_EDGE('',*,*,#630,.F.);
#805=ORIENTED_EDGE('',*,*,#629,.T.);
#806=ORIENTED_EDGE('',*,*,#631,.T.);
#807=ORIENTED_EDGE('',*,*,#632,.F.);
#808=ORIENTED_EDGE('',*,*,#633,.F.);
#809=ORIENTED_EDGE('',*,*,#632,.T.);
#810=ORIENTED_EDGE('',*,*,#634,.T.);
#811=ORIENTED_EDGE('',*,*,#624,.F.);
#812=ORIENTED_EDGE('',*,*,#634,.F.);
#813=ORIENTED_EDGE('',*,*,#631,.F.);
#814=ORIENTED_EDGE('',*,*,#628,.F.);
#815=ORIENTED_EDGE('',*,*,#625,.F.);
#816=ORIENTED_EDGE('',*,*,#635,.F.);
#817=ORIENTED_EDGE('',*,*,#636,.T.);
#818=ORIENTED_EDGE('',*,*,#637,.F.);
#819=ORIENTED_EDGE('',*,*,#636,.F.);
#820=ORIENTED_EDGE('',*,*,#635,.T.);
#821=ORIENTED_EDGE('',*,*,#638,.F.);
#822=ORIENTED_EDGE('',*,*,#639,.T.);
#823=ORIENTED_EDGE('',*,*,#640,.T.);
#824=ORIENTED_EDGE('',*,*,#639,.F.);
#825=ORIENTED_EDGE('',*,*,#640,.F.);
#826=ORIENTED_EDGE('',*,*,#641,.F.);
#827=ORIENTED_EDGE('',*,*,#642,.T.);
#828=ORIENTED_EDGE('',*,*,#643,.F.);
#829=ORIENTED_EDGE('',*,*,#642,.F.);
#830=ORIENTED_EDGE('',*,*,#641,.T.);
#831=ORIENTED_EDGE('',*,*,#644,.F.);
#832=ORIENTED_EDGE('',*,*,#645,.T.);
#833=ORIENTED_EDGE('',*,*,#646,.T.);
#834=ORIENTED_EDGE('',*,*,#645,.F.);
#835=ORIENTED_EDGE('',*,*,#646,.F.);
#836=ORIENTED_EDGE('',*,*,#647,.F.);
#837=ORIENTED_EDGE('',*,*,#648,.T.);
#838=ORIENTED_EDGE('',*,*,#649,.F.);
#839=ORIENTED_EDGE('',*,*,#648,.F.);
#840=ORIENTED_EDGE('',*,*,#650,.F.);
#841=ORIENTED_EDGE('',*,*,#651,.T.);
#842=ORIENTED_EDGE('',*,*,#652,.F.);
#843=ORIENTED_EDGE('',*,*,#651,.F.);
#844=ORIENTED_EDGE('',*,*,#653,.F.);
#845=ORIENTED_EDGE('',*,*,#654,.F.);
#846=ORIENTED_EDGE('',*,*,#655,.F.);
#847=ORIENTED_EDGE('',*,*,#656,.T.);
#848=ORIENTED_EDGE('',*,*,#657,.F.);
#849=ORIENTED_EDGE('',*,*,#656,.F.);
#850=ORIENTED_EDGE('',*,*,#658,.F.);
#851=ORIENTED_EDGE('',*,*,#659,.T.);
#852=ORIENTED_EDGE('',*,*,#650,.T.);
#853=ORIENTED_EDGE('',*,*,#660,.F.);
#854=ORIENTED_EDGE('',*,*,#659,.F.);
#855=ORIENTED_EDGE('',*,*,#661,.F.);
#856=ORIENTED_EDGE('',*,*,#662,.T.);
#857=ORIENTED_EDGE('',*,*,#663,.F.);
#858=ORIENTED_EDGE('',*,*,#662,.F.);
#859=ORIENTED_EDGE('',*,*,#664,.F.);
#860=ORIENTED_EDGE('',*,*,#654,.T.);
#861=ORIENTED_EDGE('',*,*,#649,.T.);
#862=ORIENTED_EDGE('',*,*,#658,.T.);
#863=ORIENTED_EDGE('',*,*,#655,.T.);
#864=ORIENTED_EDGE('',*,*,#664,.T.);
#865=ORIENTED_EDGE('',*,*,#661,.T.);
#866=ORIENTED_EDGE('',*,*,#665,.F.);
#867=ORIENTED_EDGE('',*,*,#666,.T.);
#868=ORIENTED_EDGE('',*,*,#667,.F.);
#869=ORIENTED_EDGE('',*,*,#666,.F.);
#870=ORIENTED_EDGE('',*,*,#668,.F.);
#871=ORIENTED_EDGE('',*,*,#669,.T.);
#872=ORIENTED_EDGE('',*,*,#670,.F.);
#873=ORIENTED_EDGE('',*,*,#669,.F.);
#874=ORIENTED_EDGE('',*,*,#671,.F.);
#875=ORIENTED_EDGE('',*,*,#672,.F.);
#876=ORIENTED_EDGE('',*,*,#673,.F.);
#877=ORIENTED_EDGE('',*,*,#674,.T.);
#878=ORIENTED_EDGE('',*,*,#675,.F.);
#879=ORIENTED_EDGE('',*,*,#674,.F.);
#880=ORIENTED_EDGE('',*,*,#676,.F.);
#881=ORIENTED_EDGE('',*,*,#677,.T.);
#882=ORIENTED_EDGE('',*,*,#668,.T.);
#883=ORIENTED_EDGE('',*,*,#678,.F.);
#884=ORIENTED_EDGE('',*,*,#677,.F.);
#885=ORIENTED_EDGE('',*,*,#679,.F.);
#886=ORIENTED_EDGE('',*,*,#680,.T.);
#887=ORIENTED_EDGE('',*,*,#681,.F.);
#888=ORIENTED_EDGE('',*,*,#680,.F.);
#889=ORIENTED_EDGE('',*,*,#682,.F.);
#890=ORIENTED_EDGE('',*,*,#672,.T.);
#891=ORIENTED_EDGE('',*,*,#667,.T.);
#892=ORIENTED_EDGE('',*,*,#676,.T.);
#893=ORIENTED_EDGE('',*,*,#673,.T.);
#894=ORIENTED_EDGE('',*,*,#682,.T.);
#895=ORIENTED_EDGE('',*,*,#679,.T.);
#896=ORIENTED_EDGE('',*,*,#683,.F.);
#897=ORIENTED_EDGE('',*,*,#684,.T.);
#898=ORIENTED_EDGE('',*,*,#685,.F.);
#899=ORIENTED_EDGE('',*,*,#684,.F.);
#900=ORIENTED_EDGE('',*,*,#686,.F.);
#901=ORIENTED_EDGE('',*,*,#687,.T.);
#902=ORIENTED_EDGE('',*,*,#688,.F.);
#903=ORIENTED_EDGE('',*,*,#687,.F.);
#904=ORIENTED_EDGE('',*,*,#689,.F.);
#905=ORIENTED_EDGE('',*,*,#690,.F.);
#906=ORIENTED_EDGE('',*,*,#691,.F.);
#907=ORIENTED_EDGE('',*,*,#692,.T.);
#908=ORIENTED_EDGE('',*,*,#693,.F.);
#909=ORIENTED_EDGE('',*,*,#692,.F.);
#910=ORIENTED_EDGE('',*,*,#694,.F.);
#911=ORIENTED_EDGE('',*,*,#695,.T.);
#912=ORIENTED_EDGE('',*,*,#686,.T.);
#913=ORIENTED_EDGE('',*,*,#696,.F.);
#914=ORIENTED_EDGE('',*,*,#695,.F.);
#915=ORIENTED_EDGE('',*,*,#697,.F.);
#916=ORIENTED_EDGE('',*,*,#698,.T.);
#917=ORIENTED_EDGE('',*,*,#699,.F.);
#918=ORIENTED_EDGE('',*,*,#698,.F.);
#919=ORIENTED_EDGE('',*,*,#700,.F.);
#920=ORIENTED_EDGE('',*,*,#690,.T.);
#921=ORIENTED_EDGE('',*,*,#685,.T.);
#922=ORIENTED_EDGE('',*,*,#694,.T.);
#923=ORIENTED_EDGE('',*,*,#691,.T.);
#924=ORIENTED_EDGE('',*,*,#700,.T.);
#925=ORIENTED_EDGE('',*,*,#697,.T.);
#926=ORIENTED_EDGE('',*,*,#701,.T.);
#927=ORIENTED_EDGE('',*,*,#702,.T.);
#928=ORIENTED_EDGE('',*,*,#703,.T.);
#929=ORIENTED_EDGE('',*,*,#704,.T.);
#930=ORIENTED_EDGE('',*,*,#702,.F.);
#931=ORIENTED_EDGE('',*,*,#705,.F.);
#932=ORIENTED_EDGE('',*,*,#706,.F.);
#933=ORIENTED_EDGE('',*,*,#707,.F.);
#934=ORIENTED_EDGE('',*,*,#708,.T.);
#935=ORIENTED_EDGE('',*,*,#709,.T.);
#936=ORIENTED_EDGE('',*,*,#710,.T.);
#937=ORIENTED_EDGE('',*,*,#711,.T.);
#938=ORIENTED_EDGE('',*,*,#704,.F.);
#939=ORIENTED_EDGE('',*,*,#712,.F.);
#940=ORIENTED_EDGE('',*,*,#709,.F.);
#941=ORIENTED_EDGE('',*,*,#713,.F.);
#942=ORIENTED_EDGE('',*,*,#714,.T.);
#943=ORIENTED_EDGE('',*,*,#715,.T.);
#944=ORIENTED_EDGE('',*,*,#716,.T.);
#945=ORIENTED_EDGE('',*,*,#717,.T.);
#946=ORIENTED_EDGE('',*,*,#711,.F.);
#947=ORIENTED_EDGE('',*,*,#718,.F.);
#948=ORIENTED_EDGE('',*,*,#715,.F.);
#949=ORIENTED_EDGE('',*,*,#719,.F.);
#950=ORIENTED_EDGE('',*,*,#665,.T.);
#951=ORIENTED_EDGE('',*,*,#683,.T.);
#952=ORIENTED_EDGE('',*,*,#720,.T.);
#953=ORIENTED_EDGE('',*,*,#721,.T.);
#954=ORIENTED_EDGE('',*,*,#722,.T.);
#955=ORIENTED_EDGE('',*,*,#706,.T.);
#956=ORIENTED_EDGE('',*,*,#717,.F.);
#957=ORIENTED_EDGE('',*,*,#723,.F.);
#958=ORIENTED_EDGE('',*,*,#721,.F.);
#959=ORIENTED_EDGE('',*,*,#724,.F.);
#960=ORIENTED_EDGE('',*,*,#725,.T.);
#961=ORIENTED_EDGE('',*,*,#726,.T.);
#962=ORIENTED_EDGE('',*,*,#727,.T.);
#963=ORIENTED_EDGE('',*,*,#728,.T.);
#964=ORIENTED_EDGE('',*,*,#726,.F.);
#965=ORIENTED_EDGE('',*,*,#729,.F.);
#966=ORIENTED_EDGE('',*,*,#730,.F.);
#967=ORIENTED_EDGE('',*,*,#731,.F.);
#968=ORIENTED_EDGE('',*,*,#670,.T.);
#969=ORIENTED_EDGE('',*,*,#688,.T.);
#970=ORIENTED_EDGE('',*,*,#732,.T.);
#971=ORIENTED_EDGE('',*,*,#733,.T.);
#972=ORIENTED_EDGE('',*,*,#734,.T.);
#973=ORIENTED_EDGE('',*,*,#735,.T.);
#974=ORIENTED_EDGE('',*,*,#728,.F.);
#975=ORIENTED_EDGE('',*,*,#736,.F.);
#976=ORIENTED_EDGE('',*,*,#733,.F.);
#977=ORIENTED_EDGE('',*,*,#737,.F.);
#978=ORIENTED_EDGE('',*,*,#738,.T.);
#979=ORIENTED_EDGE('',*,*,#739,.T.);
#980=ORIENTED_EDGE('',*,*,#740,.T.);
#981=ORIENTED_EDGE('',*,*,#741,.T.);
#982=ORIENTED_EDGE('',*,*,#735,.F.);
#983=ORIENTED_EDGE('',*,*,#742,.F.);
#984=ORIENTED_EDGE('',*,*,#739,.F.);
#985=ORIENTED_EDGE('',*,*,#743,.F.);
#986=ORIENTED_EDGE('',*,*,#647,.T.);
#987=ORIENTED_EDGE('',*,*,#744,.T.);
#988=ORIENTED_EDGE('',*,*,#745,.T.);
#989=ORIENTED_EDGE('',*,*,#746,.T.);
#990=ORIENTED_EDGE('',*,*,#730,.T.);
#991=ORIENTED_EDGE('',*,*,#741,.F.);
#992=ORIENTED_EDGE('',*,*,#747,.F.);
#993=ORIENTED_EDGE('',*,*,#745,.F.);
#994=ORIENTED_EDGE('',*,*,#748,.F.);
#995=ORIENTED_EDGE('',*,*,#612,.T.);
#996=ORIENTED_EDGE('',*,*,#615,.T.);
#997=ORIENTED_EDGE('',*,*,#618,.T.);
#998=ORIENTED_EDGE('',*,*,#602,.T.);
#999=ORIENTED_EDGE('',*,*,#606,.T.);
#1000=ORIENTED_EDGE('',*,*,#609,.T.);
#1001=ORIENTED_EDGE('',*,*,#749,.T.);
#1002=ORIENTED_EDGE('',*,*,#750,.T.);
#1003=ORIENTED_EDGE('',*,*,#751,.F.);
#1004=ORIENTED_EDGE('',*,*,#752,.F.);
#1005=ORIENTED_EDGE('',*,*,#753,.T.);
#1006=ORIENTED_EDGE('',*,*,#752,.T.);
#1007=ORIENTED_EDGE('',*,*,#754,.F.);
#1008=ORIENTED_EDGE('',*,*,#755,.F.);
#1009=ORIENTED_EDGE('',*,*,#638,.T.);
#1010=ORIENTED_EDGE('',*,*,#644,.T.);
#1011=ORIENTED_EDGE('',*,*,#756,.T.);
#1012=ORIENTED_EDGE('',*,*,#755,.T.);
#1013=ORIENTED_EDGE('',*,*,#757,.F.);
#1014=ORIENTED_EDGE('',*,*,#758,.F.);
#1015=ORIENTED_EDGE('',*,*,#621,.T.);
#1016=ORIENTED_EDGE('',*,*,#630,.T.);
#1017=ORIENTED_EDGE('',*,*,#633,.T.);
#1018=ORIENTED_EDGE('',*,*,#623,.T.);
#1019=ORIENTED_EDGE('',*,*,#627,.T.);
#1020=ORIENTED_EDGE('',*,*,#759,.T.);
#1021=ORIENTED_EDGE('',*,*,#758,.T.);
#1022=ORIENTED_EDGE('',*,*,#760,.F.);
#1023=ORIENTED_EDGE('',*,*,#750,.F.);
#1024=ORIENTED_EDGE('',*,*,#637,.T.);
#1025=ORIENTED_EDGE('',*,*,#643,.T.);
#1026=ORIENTED_EDGE('',*,*,#652,.T.);
#1027=ORIENTED_EDGE('',*,*,#760,.T.);
#1028=ORIENTED_EDGE('',*,*,#757,.T.);
#1029=ORIENTED_EDGE('',*,*,#754,.T.);
#1030=ORIENTED_EDGE('',*,*,#751,.T.);
#1031=ORIENTED_EDGE('',*,*,#660,.T.);
#1032=ORIENTED_EDGE('',*,*,#663,.T.);
#1033=ORIENTED_EDGE('',*,*,#653,.T.);
#1034=ORIENTED_EDGE('',*,*,#657,.T.);
#1035=ORIENTED_EDGE('',*,*,#678,.T.);
#1036=ORIENTED_EDGE('',*,*,#681,.T.);
#1037=ORIENTED_EDGE('',*,*,#671,.T.);
#1038=ORIENTED_EDGE('',*,*,#675,.T.);
#1039=ORIENTED_EDGE('',*,*,#696,.T.);
#1040=ORIENTED_EDGE('',*,*,#699,.T.);
#1041=ORIENTED_EDGE('',*,*,#689,.T.);
#1042=ORIENTED_EDGE('',*,*,#693,.T.);
#1043=ORIENTED_EDGE('',*,*,#736,.T.);
#1044=ORIENTED_EDGE('',*,*,#727,.F.);
#1045=ORIENTED_EDGE('',*,*,#731,.T.);
#1046=ORIENTED_EDGE('',*,*,#746,.F.);
#1047=ORIENTED_EDGE('',*,*,#747,.T.);
#1048=ORIENTED_EDGE('',*,*,#740,.F.);
#1049=ORIENTED_EDGE('',*,*,#742,.T.);
#1050=ORIENTED_EDGE('',*,*,#734,.F.);
#1051=ORIENTED_EDGE('',*,*,#712,.T.);
#1052=ORIENTED_EDGE('',*,*,#703,.F.);
#1053=ORIENTED_EDGE('',*,*,#707,.T.);
#1054=ORIENTED_EDGE('',*,*,#722,.F.);
#1055=ORIENTED_EDGE('',*,*,#723,.T.);
#1056=ORIENTED_EDGE('',*,*,#716,.F.);
#1057=ORIENTED_EDGE('',*,*,#718,.T.);
#1058=ORIENTED_EDGE('',*,*,#710,.F.);
#1059=ORIENTED_EDGE('',*,*,#759,.F.);
#1060=ORIENTED_EDGE('',*,*,#749,.F.);
#1061=ORIENTED_EDGE('',*,*,#753,.F.);
#1062=ORIENTED_EDGE('',*,*,#756,.F.);
#1063=ORIENTED_EDGE('',*,*,#737,.T.);
#1064=ORIENTED_EDGE('',*,*,#732,.F.);
#1065=ORIENTED_EDGE('',*,*,#743,.T.);
#1066=ORIENTED_EDGE('',*,*,#738,.F.);
#1067=ORIENTED_EDGE('',*,*,#748,.T.);
#1068=ORIENTED_EDGE('',*,*,#744,.F.);
#1069=ORIENTED_EDGE('',*,*,#729,.T.);
#1070=ORIENTED_EDGE('',*,*,#725,.F.);
#1071=ORIENTED_EDGE('',*,*,#713,.T.);
#1072=ORIENTED_EDGE('',*,*,#708,.F.);
#1073=ORIENTED_EDGE('',*,*,#719,.T.);
#1074=ORIENTED_EDGE('',*,*,#714,.F.);
#1075=ORIENTED_EDGE('',*,*,#724,.T.);
#1076=ORIENTED_EDGE('',*,*,#720,.F.);
#1077=ORIENTED_EDGE('',*,*,#705,.T.);
#1078=ORIENTED_EDGE('',*,*,#701,.F.);
#1079=PLANE('',#1202);
#1080=PLANE('',#1203);
#1081=PLANE('',#1204);
#1082=PLANE('',#1205);
#1083=PLANE('',#1206);
#1084=PLANE('',#1207);
#1085=PLANE('',#1208);
#1086=PLANE('',#1212);
#1087=PLANE('',#1213);
#1088=PLANE('',#1214);
#1089=PLANE('',#1215);
#1090=PLANE('',#1216);
#1091=PLANE('',#1220);
#1092=PLANE('',#1224);
#1093=PLANE('',#1228);
#1094=PLANE('',#1232);
#1095=PLANE('',#1239);
#1096=PLANE('',#1240);
#1097=PLANE('',#1241);
#1098=PLANE('',#1242);
#1099=PLANE('',#1243);
#1100=PLANE('',#1250);
#1101=PLANE('',#1251);
#1102=PLANE('',#1252);
#1103=PLANE('',#1253);
#1104=PLANE('',#1254);
#1105=PLANE('',#1261);
#1106=PLANE('',#1262);
#1107=PLANE('',#1263);
#1108=PLANE('',#1264);
#1109=PLANE('',#1265);
#1110=PLANE('',#1269);
#1111=PLANE('',#1273);
#1112=PLANE('',#1277);
#1113=PLANE('',#1281);
#1114=PLANE('',#1285);
#1115=PLANE('',#1289);
#1116=PLANE('',#1293);
#1117=PLANE('',#1297);
#1118=PLANE('',#1298);
#1119=PLANE('',#1299);
#1120=PLANE('',#1300);
#1121=PLANE('',#1301);
#1122=PLANE('',#1302);
#1123=PLANE('',#1303);
#1124=ADVANCED_FACE('',(#99),#1079,.F.);
#1125=ADVANCED_FACE('',(#100),#1080,.F.);
#1126=ADVANCED_FACE('',(#101),#1081,.F.);
#1127=ADVANCED_FACE('',(#102),#1082,.F.);
#1128=ADVANCED_FACE('',(#103),#1083,.F.);
#1129=ADVANCED_FACE('',(#104),#1084,.F.);
#1130=ADVANCED_FACE('',(#105,#34),#1085,.T.);
#1131=ADVANCED_FACE('',(#106),#15,.F.);
#1132=ADVANCED_FACE('',(#107),#1086,.F.);
#1133=ADVANCED_FACE('',(#108),#1087,.F.);
#1134=ADVANCED_FACE('',(#109),#1088,.F.);
#1135=ADVANCED_FACE('',(#110),#1089,.F.);
#1136=ADVANCED_FACE('',(#111),#1090,.F.);
#1137=ADVANCED_FACE('',(#112),#16,.F.);
#1138=ADVANCED_FACE('',(#113),#1091,.T.);
#1139=ADVANCED_FACE('',(#114),#17,.F.);
#1140=ADVANCED_FACE('',(#115),#1092,.F.);
#1141=ADVANCED_FACE('',(#116),#18,.F.);
#1142=ADVANCED_FACE('',(#117),#1093,.T.);
#1143=ADVANCED_FACE('',(#118),#19,.F.);
#1144=ADVANCED_FACE('',(#119),#1094,.F.);
#1145=ADVANCED_FACE('',(#120),#20,.F.);
#1146=ADVANCED_FACE('',(#121),#21,.F.);
#1147=ADVANCED_FACE('',(#122),#1095,.F.);
#1148=ADVANCED_FACE('',(#123,#35),#1096,.F.);
#1149=ADVANCED_FACE('',(#124),#1097,.F.);
#1150=ADVANCED_FACE('',(#125,#36),#1098,.F.);
#1151=ADVANCED_FACE('',(#126),#1099,.T.);
#1152=ADVANCED_FACE('',(#127),#22,.F.);
#1153=ADVANCED_FACE('',(#128),#23,.F.);
#1154=ADVANCED_FACE('',(#129),#1100,.F.);
#1155=ADVANCED_FACE('',(#130,#37),#1101,.F.);
#1156=ADVANCED_FACE('',(#131),#1102,.F.);
#1157=ADVANCED_FACE('',(#132,#38),#1103,.F.);
#1158=ADVANCED_FACE('',(#133),#1104,.T.);
#1159=ADVANCED_FACE('',(#134),#24,.F.);
#1160=ADVANCED_FACE('',(#135),#25,.F.);
#1161=ADVANCED_FACE('',(#136),#1105,.F.);
#1162=ADVANCED_FACE('',(#137,#39),#1106,.F.);
#1163=ADVANCED_FACE('',(#138),#1107,.F.);
#1164=ADVANCED_FACE('',(#139,#40),#1108,.F.);
#1165=ADVANCED_FACE('',(#140),#1109,.T.);
#1166=ADVANCED_FACE('',(#141),#26,.F.);
#1167=ADVANCED_FACE('',(#142),#1110,.F.);
#1168=ADVANCED_FACE('',(#143),#27,.F.);
#1169=ADVANCED_FACE('',(#144),#1111,.F.);
#1170=ADVANCED_FACE('',(#145),#28,.F.);
#1171=ADVANCED_FACE('',(#146,#41,#42),#1112,.F.);
#1172=ADVANCED_FACE('',(#147),#29,.F.);
#1173=ADVANCED_FACE('',(#148),#1113,.F.);
#1174=ADVANCED_FACE('',(#149),#30,.F.);
#1175=ADVANCED_FACE('',(#150,#43,#44),#1114,.F.);
#1176=ADVANCED_FACE('',(#151),#31,.F.);
#1177=ADVANCED_FACE('',(#152),#1115,.F.);
#1178=ADVANCED_FACE('',(#153),#32,.F.);
#1179=ADVANCED_FACE('',(#154,#45),#1116,.F.);
#1180=ADVANCED_FACE('',(#155),#33,.F.);
#1181=ADVANCED_FACE('',(#156,#46),#1117,.F.);
#1182=ADVANCED_FACE('',(#157),#1118,.T.);
#1183=ADVANCED_FACE('',(#158,#47,#48),#1119,.T.);
#1184=ADVANCED_FACE('',(#159,#49,#50),#1120,.T.);
#1185=ADVANCED_FACE('',(#160,#51,#52,#53),#1121,.T.);
#1186=ADVANCED_FACE('',(#161,#54,#55,#56,#57,#58),#1122,.T.);
#1187=ADVANCED_FACE('',(#162,#59,#60),#1123,.F.);
#1188=CLOSED_SHELL('',(#1124,#1125,#1126,#1127,#1128,#1129,#1130,#1131,
#1132,#1133,#1134,#1135,#1136,#1137,#1138,#1139,#1140,#1141,#1142,#1143,
#1144,#1145,#1146,#1147,#1148,#1149,#1150,#1151,#1152,#1153,#1154,#1155,
#1156,#1157,#1158,#1159,#1160,#1161,#1162,#1163,#1164,#1165,#1166,#1167,
#1168,#1169,#1170,#1171,#1172,#1173,#1174,#1175,#1176,#1177,#1178,#1179,
#1180,#1181,#1182,#1183,#1184,#1185,#1186,#1187));
#1189=DERIVED_UNIT_ELEMENT(#1191,1.);
#1190=DERIVED_UNIT_ELEMENT(#1966,-3.);
#1191=(
MASS_UNIT()
NAMED_UNIT(*)
SI_UNIT(.KILO.,.GRAM.)
);
#1192=DERIVED_UNIT((#1189,#1190));
#1193=MEASURE_REPRESENTATION_ITEM('density measure',
POSITIVE_RATIO_MEASURE(7850.),#1192);
#1194=PROPERTY_DEFINITION_REPRESENTATION(#1199,#1196);
#1195=PROPERTY_DEFINITION_REPRESENTATION(#1200,#1197);
#1196=REPRESENTATION('material name',(#1198),#1963);
#1197=REPRESENTATION('density',(#1193),#1963);
#1198=DESCRIPTIVE_REPRESENTATION_ITEM('\X2\92FC\X0\','\X2\92FC\X0\');
#1199=PROPERTY_DEFINITION('material property','material name',#1973);
#1200=PROPERTY_DEFINITION('material property','density of part',#1973);
#1201=AXIS2_PLACEMENT_3D('',#1631,#1304,#1305);
#1202=AXIS2_PLACEMENT_3D('',#1632,#1306,#1307);
#1203=AXIS2_PLACEMENT_3D('',#1641,#1312,#1313);
#1204=AXIS2_PLACEMENT_3D('',#1647,#1317,#1318);
#1205=AXIS2_PLACEMENT_3D('',#1653,#1322,#1323);
#1206=AXIS2_PLACEMENT_3D('',#1659,#1327,#1328);
#1207=AXIS2_PLACEMENT_3D('',#1665,#1332,#1333);
#1208=AXIS2_PLACEMENT_3D('',#1668,#1336,#1337);
#1209=AXIS2_PLACEMENT_3D('',#1670,#1338,#1339);
#1210=AXIS2_PLACEMENT_3D('',#1671,#1340,#1341);
#1211=AXIS2_PLACEMENT_3D('',#1673,#1342,#1343);
#1212=AXIS2_PLACEMENT_3D('',#1675,#1345,#1346);
#1213=AXIS2_PLACEMENT_3D('',#1684,#1351,#1352);
#1214=AXIS2_PLACEMENT_3D('',#1690,#1356,#1357);
#1215=AXIS2_PLACEMENT_3D('',#1696,#1361,#1362);
#1216=AXIS2_PLACEMENT_3D('',#1699,#1365,#1366);
#1217=AXIS2_PLACEMENT_3D('',#1700,#1367,#1368);
#1218=AXIS2_PLACEMENT_3D('',#1702,#1369,#1370);
#1219=AXIS2_PLACEMENT_3D('',#1705,#1372,#1373);
#1220=AXIS2_PLACEMENT_3D('',#1706,#1374,#1375);
#1221=AXIS2_PLACEMENT_3D('',#1707,#1376,#1377);
#1222=AXIS2_PLACEMENT_3D('',#1709,#1378,#1379);
#1223=AXIS2_PLACEMENT_3D('',#1712,#1381,#1382);
#1224=AXIS2_PLACEMENT_3D('',#1713,#1383,#1384);
#1225=AXIS2_PLACEMENT_3D('',#1714,#1385,#1386);
#1226=AXIS2_PLACEMENT_3D('',#1716,#1387,#1388);
#1227=AXIS2_PLACEMENT_3D('',#1719,#1390,#1391);
#1228=AXIS2_PLACEMENT_3D('',#1720,#1392,#1393);
#1229=AXIS2_PLACEMENT_3D('',#1721,#1394,#1395);
#1230=AXIS2_PLACEMENT_3D('',#1723,#1396,#1397);
#1231=AXIS2_PLACEMENT_3D('',#1726,#1399,#1400);
#1232=AXIS2_PLACEMENT_3D('',#1727,#1401,#1402);
#1233=AXIS2_PLACEMENT_3D('',#1728,#1403,#1404);
#1234=AXIS2_PLACEMENT_3D('',#1730,#1405,#1406);
#1235=AXIS2_PLACEMENT_3D('',#1733,#1408,#1409);
#1236=AXIS2_PLACEMENT_3D('',#1734,#1410,#1411);
#1237=AXIS2_PLACEMENT_3D('',#1736,#1412,#1413);
#1238=AXIS2_PLACEMENT_3D('',#1739,#1415,#1416);
#1239=AXIS2_PLACEMENT_3D('',#1740,#1417,#1418);
#1240=AXIS2_PLACEMENT_3D('',#1749,#1423,#1424);
#1241=AXIS2_PLACEMENT_3D('',#1755,#1428,#1429);
#1242=AXIS2_PLACEMENT_3D('',#1761,#1433,#1434);
#1243=AXIS2_PLACEMENT_3D('',#1764,#1437,#1438);
#1244=AXIS2_PLACEMENT_3D('',#1765,#1439,#1440);
#1245=AXIS2_PLACEMENT_3D('',#1767,#1441,#1442);
#1246=AXIS2_PLACEMENT_3D('',#1770,#1444,#1445);
#1247=AXIS2_PLACEMENT_3D('',#1771,#1446,#1447);
#1248=AXIS2_PLACEMENT_3D('',#1773,#1448,#1449);
#1249=AXIS2_PLACEMENT_3D('',#1776,#1451,#1452);
#1250=AXIS2_PLACEMENT_3D('',#1777,#1453,#1454);
#1251=AXIS2_PLACEMENT_3D('',#1786,#1459,#1460);
#1252=AXIS2_PLACEMENT_3D('',#1792,#1464,#1465);
#1253=AXIS2_PLACEMENT_3D('',#1798,#1469,#1470);
#1254=AXIS2_PLACEMENT_3D('',#1801,#1473,#1474);
#1255=AXIS2_PLACEMENT_3D('',#1802,#1475,#1476);
#1256=AXIS2_PLACEMENT_3D('',#1804,#1477,#1478);
#1257=AXIS2_PLACEMENT_3D('',#1807,#1480,#1481);
#1258=AXIS2_PLACEMENT_3D('',#1808,#1482,#1483);
#1259=AXIS2_PLACEMENT_3D('',#1810,#1484,#1485);
#1260=AXIS2_PLACEMENT_3D('',#1813,#1487,#1488);
#1261=AXIS2_PLACEMENT_3D('',#1814,#1489,#1490);
#1262=AXIS2_PLACEMENT_3D('',#1823,#1495,#1496);
#1263=AXIS2_PLACEMENT_3D('',#1829,#1500,#1501);
#1264=AXIS2_PLACEMENT_3D('',#1835,#1505,#1506);
#1265=AXIS2_PLACEMENT_3D('',#1838,#1509,#1510);
#1266=AXIS2_PLACEMENT_3D('',#1839,#1511,#1512);
#1267=AXIS2_PLACEMENT_3D('',#1842,#1513,#1514);
#1268=AXIS2_PLACEMENT_3D('',#1846,#1516,#1517);
#1269=AXIS2_PLACEMENT_3D('',#1848,#1519,#1520);
#1270=AXIS2_PLACEMENT_3D('',#1854,#1524,#1525);
#1271=AXIS2_PLACEMENT_3D('',#1857,#1526,#1527);
#1272=AXIS2_PLACEMENT_3D('',#1861,#1529,#1530);
#1273=AXIS2_PLACEMENT_3D('',#1863,#1532,#1533);
#1274=AXIS2_PLACEMENT_3D('',#1866,#1536,#1537);
#1275=AXIS2_PLACEMENT_3D('',#1869,#1538,#1539);
#1276=AXIS2_PLACEMENT_3D('',#1873,#1541,#1542);
#1277=AXIS2_PLACEMENT_3D('',#1875,#1544,#1545);
#1278=AXIS2_PLACEMENT_3D('',#1878,#1548,#1549);
#1279=AXIS2_PLACEMENT_3D('',#1880,#1550,#1551);
#1280=AXIS2_PLACEMENT_3D('',#1883,#1553,#1554);
#1281=AXIS2_PLACEMENT_3D('',#1884,#1555,#1556);
#1282=AXIS2_PLACEMENT_3D('',#1887,#1559,#1560);
#1283=AXIS2_PLACEMENT_3D('',#1890,#1561,#1562);
#1284=AXIS2_PLACEMENT_3D('',#1894,#1564,#1565);
#1285=AXIS2_PLACEMENT_3D('',#1896,#1567,#1568);
#1286=AXIS2_PLACEMENT_3D('',#1902,#1572,#1573);
#1287=AXIS2_PLACEMENT_3D('',#1905,#1574,#1575);
#1288=AXIS2_PLACEMENT_3D('',#1909,#1577,#1578);
#1289=AXIS2_PLACEMENT_3D('',#1911,#1580,#1581);
#1290=AXIS2_PLACEMENT_3D('',#1914,#1584,#1585);
#1291=AXIS2_PLACEMENT_3D('',#1917,#1586,#1587);
#1292=AXIS2_PLACEMENT_3D('',#1921,#1589,#1590);
#1293=AXIS2_PLACEMENT_3D('',#1923,#1592,#1593);
#1294=AXIS2_PLACEMENT_3D('',#1926,#1596,#1597);
#1295=AXIS2_PLACEMENT_3D('',#1928,#1598,#1599);
#1296=AXIS2_PLACEMENT_3D('',#1931,#1601,#1602);
#1297=AXIS2_PLACEMENT_3D('',#1932,#1603,#1604);
#1298=AXIS2_PLACEMENT_3D('',#1935,#1607,#1608);
#1299=AXIS2_PLACEMENT_3D('',#1944,#1613,#1614);
#1300=AXIS2_PLACEMENT_3D('',#1950,#1618,#1619);
#1301=AXIS2_PLACEMENT_3D('',#1956,#1623,#1624);
#1302=AXIS2_PLACEMENT_3D('',#1959,#1627,#1628);
#1303=AXIS2_PLACEMENT_3D('',#1960,#1629,#1630);
#1304=DIRECTION('axis',(0.,0.,1.));
#1305=DIRECTION('refdir',(1.,0.,0.));
#1306=DIRECTION('center_axis',(0.,0.,-1.));
#1307=DIRECTION('ref_axis',(-1.,0.,0.));
#1308=DIRECTION('',(1.,0.,0.));
#1309=DIRECTION('',(0.,1.,0.));
#1310=DIRECTION('',(-1.,0.,0.));
#1311=DIRECTION('',(0.,1.,0.));
#1312=DIRECTION('center_axis',(0.86602540378444,0.,-0.499999999999998));
#1313=DIRECTION('ref_axis',(-0.499999999999998,0.,-0.86602540378444));
#1314=DIRECTION('',(0.499999999999998,0.,0.86602540378444));
#1315=DIRECTION('',(-0.499999999999998,0.,-0.86602540378444));
#1316=DIRECTION('',(0.,1.,0.));
#1317=DIRECTION('center_axis',(0.866025403784438,0.,0.500000000000001));
#1318=DIRECTION('ref_axis',(0.500000000000001,0.,-0.866025403784438));
#1319=DIRECTION('',(-0.500000000000001,0.,0.866025403784438));
#1320=DIRECTION('',(0.500000000000001,0.,-0.866025403784438));
#1321=DIRECTION('',(0.,1.,0.));
#1322=DIRECTION('center_axis',(-4.10232039761827E-15,0.,1.));
#1323=DIRECTION('ref_axis',(1.,0.,4.10232039761827E-15));
#1324=DIRECTION('',(-1.,0.,-4.10232039761827E-15));
#1325=DIRECTION('',(1.,0.,4.10232039761827E-15));
#1326=DIRECTION('',(0.,1.,0.));
#1327=DIRECTION('center_axis',(-0.86602540378444,0.,0.499999999999998));
#1328=DIRECTION('ref_axis',(0.499999999999998,0.,0.86602540378444));
#1329=DIRECTION('',(-0.499999999999998,0.,-0.86602540378444));
#1330=DIRECTION('',(0.499999999999998,0.,0.86602540378444));
#1331=DIRECTION('',(0.,1.,0.));
#1332=DIRECTION('center_axis',(-0.866025403784437,0.,-0.500000000000003));
#1333=DIRECTION('ref_axis',(-0.500000000000003,0.,0.866025403784437));
#1334=DIRECTION('',(0.500000000000003,0.,-0.866025403784437));
#1335=DIRECTION('',(-0.500000000000003,0.,0.866025403784437));
#1336=DIRECTION('center_axis',(0.,1.,0.));
#1337=DIRECTION('ref_axis',(1.,0.,0.));
#1338=DIRECTION('center_axis',(0.,1.,0.));
#1339=DIRECTION('ref_axis',(1.,0.,0.));
#1340=DIRECTION('center_axis',(0.,1.,0.));
#1341=DIRECTION('ref_axis',(1.,0.,0.));
#1342=DIRECTION('center_axis',(0.,1.,0.));
#1343=DIRECTION('ref_axis',(1.,0.,0.));
#1344=DIRECTION('',(0.,1.,0.));
#1345=DIRECTION('center_axis',(0.,0.,1.));
#1346=DIRECTION('ref_axis',(1.,0.,0.));
#1347=DIRECTION('',(1.,0.,0.));
#1348=DIRECTION('',(0.,1.,0.));
#1349=DIRECTION('',(1.,0.,0.));
#1350=DIRECTION('',(0.,1.,0.));
#1351=DIRECTION('center_axis',(1.,0.,0.));
#1352=DIRECTION('ref_axis',(0.,0.,-1.));
#1353=DIRECTION('',(0.,0.,-1.));
#1354=DIRECTION('',(0.,0.,-1.));
#1355=DIRECTION('',(0.,1.,0.));
#1356=DIRECTION('center_axis',(0.,0.,-1.));
#1357=DIRECTION('ref_axis',(-1.,0.,0.));
#1358=DIRECTION('',(-1.,0.,0.));
#1359=DIRECTION('',(-1.,0.,0.));
#1360=DIRECTION('',(0.,1.,0.));
#1361=DIRECTION('center_axis',(-1.,0.,0.));
#1362=DIRECTION('ref_axis',(0.,0.,1.));
#1363=DIRECTION('',(0.,0.,1.));
#1364=DIRECTION('',(0.,0.,1.));
#1365=DIRECTION('center_axis',(0.,1.,0.));
#1366=DIRECTION('ref_axis',(0.,0.,1.));
#1367=DIRECTION('center_axis',(0.,0.,1.));
#1368=DIRECTION('ref_axis',(1.,0.,0.));
#1369=DIRECTION('center_axis',(0.,0.,1.));
#1370=DIRECTION('ref_axis',(1.,0.,0.));
#1371=DIRECTION('',(0.,0.,1.));
#1372=DIRECTION('center_axis',(0.,0.,-1.));
#1373=DIRECTION('ref_axis',(1.,0.,0.));
#1374=DIRECTION('center_axis',(0.,0.,1.));
#1375=DIRECTION('ref_axis',(1.,0.,0.));
#1376=DIRECTION('center_axis',(0.,0.,1.));
#1377=DIRECTION('ref_axis',(1.,0.,0.));
#1378=DIRECTION('center_axis',(0.,0.,1.));
#1379=DIRECTION('ref_axis',(1.,0.,0.));
#1380=DIRECTION('',(0.,0.,1.));
#1381=DIRECTION('center_axis',(0.,0.,1.));
#1382=DIRECTION('ref_axis',(1.,0.,0.));
#1383=DIRECTION('center_axis',(0.,0.,1.));
#1384=DIRECTION('ref_axis',(1.,0.,0.));
#1385=DIRECTION('center_axis',(0.,0.,1.));
#1386=DIRECTION('ref_axis',(1.,0.,0.));
#1387=DIRECTION('center_axis',(0.,0.,1.));
#1388=DIRECTION('ref_axis',(1.,0.,0.));
#1389=DIRECTION('',(0.,0.,1.));
#1390=DIRECTION('center_axis',(0.,0.,-1.));
#1391=DIRECTION('ref_axis',(1.,0.,0.));
#1392=DIRECTION('center_axis',(0.,0.,1.));
#1393=DIRECTION('ref_axis',(1.,0.,0.));
#1394=DIRECTION('center_axis',(0.,0.,1.));
#1395=DIRECTION('ref_axis',(1.,0.,0.));
#1396=DIRECTION('center_axis',(0.,0.,1.));
#1397=DIRECTION('ref_axis',(1.,0.,0.));
#1398=DIRECTION('',(0.,0.,1.));
#1399=DIRECTION('center_axis',(0.,0.,1.));
#1400=DIRECTION('ref_axis',(1.,0.,0.));
#1401=DIRECTION('center_axis',(0.,0.,1.));
#1402=DIRECTION('ref_axis',(1.,0.,0.));
#1403=DIRECTION('center_axis',(0.,0.,1.));
#1404=DIRECTION('ref_axis',(1.,0.,0.));
#1405=DIRECTION('center_axis',(0.,0.,1.));
#1406=DIRECTION('ref_axis',(1.,0.,0.));
#1407=DIRECTION('',(0.,0.,1.));
#1408=DIRECTION('center_axis',(0.,0.,-1.));
#1409=DIRECTION('ref_axis',(1.,0.,0.));
#1410=DIRECTION('center_axis',(0.,0.,1.));
#1411=DIRECTION('ref_axis',(1.,0.,0.));
#1412=DIRECTION('center_axis',(0.,0.,1.));
#1413=DIRECTION('ref_axis',(1.,0.,0.));
#1414=DIRECTION('',(0.,0.,1.));
#1415=DIRECTION('center_axis',(0.,0.,-1.));
#1416=DIRECTION('ref_axis',(1.,0.,0.));
#1417=DIRECTION('center_axis',(0.,-1.,0.));
#1418=DIRECTION('ref_axis',(0.,0.,-1.));
#1419=DIRECTION('',(0.,0.,1.));
#1420=DIRECTION('',(1.,0.,0.));
#1421=DIRECTION('',(0.,0.,-1.));
#1422=DIRECTION('',(1.,0.,0.));
#1423=DIRECTION('center_axis',(0.,0.,1.));
#1424=DIRECTION('ref_axis',(0.,-1.,0.));
#1425=DIRECTION('',(0.,1.,0.));
#1426=DIRECTION('',(0.,-1.,0.));
#1427=DIRECTION('',(1.,0.,0.));
#1428=DIRECTION('center_axis',(0.,1.,0.));
#1429=DIRECTION('ref_axis',(0.,0.,1.));
#1430=DIRECTION('',(0.,0.,-1.));
#1431=DIRECTION('',(0.,0.,1.));
#1432=DIRECTION('',(1.,0.,0.));
#1433=DIRECTION('center_axis',(0.,0.,-1.));
#1434=DIRECTION('ref_axis',(0.,1.,0.));
#1435=DIRECTION('',(0.,-1.,0.));
#1436=DIRECTION('',(0.,1.,0.));
#1437=DIRECTION('center_axis',(1.,0.,0.));
#1438=DIRECTION('ref_axis',(0.,0.,-1.));
#1439=DIRECTION('center_axis',(0.,0.,1.));
#1440=DIRECTION('ref_axis',(1.,0.,0.));
#1441=DIRECTION('center_axis',(0.,0.,1.));
#1442=DIRECTION('ref_axis',(1.,0.,0.));
#1443=DIRECTION('',(0.,0.,1.));
#1444=DIRECTION('center_axis',(0.,0.,-1.));
#1445=DIRECTION('ref_axis',(1.,0.,0.));
#1446=DIRECTION('center_axis',(0.,0.,1.));
#1447=DIRECTION('ref_axis',(1.,0.,0.));
#1448=DIRECTION('center_axis',(0.,0.,1.));
#1449=DIRECTION('ref_axis',(1.,0.,0.));
#1450=DIRECTION('',(0.,0.,1.));
#1451=DIRECTION('center_axis',(0.,0.,-1.));
#1452=DIRECTION('ref_axis',(1.,0.,0.));
#1453=DIRECTION('center_axis',(0.,-1.,0.));
#1454=DIRECTION('ref_axis',(0.,0.,-1.));
#1455=DIRECTION('',(0.,0.,1.));
#1456=DIRECTION('',(1.,0.,0.));
#1457=DIRECTION('',(0.,0.,-1.));
#1458=DIRECTION('',(1.,0.,0.));
#1459=DIRECTION('center_axis',(0.,0.,1.));
#1460=DIRECTION('ref_axis',(0.,-1.,0.));
#1461=DIRECTION('',(0.,1.,0.));
#1462=DIRECTION('',(0.,-1.,0.));
#1463=DIRECTION('',(1.,0.,0.));
#1464=DIRECTION('center_axis',(0.,1.,0.));
#1465=DIRECTION('ref_axis',(0.,0.,1.));
#1466=DIRECTION('',(0.,0.,-1.));
#1467=DIRECTION('',(0.,0.,1.));
#1468=DIRECTION('',(1.,0.,0.));
#1469=DIRECTION('center_axis',(0.,0.,-1.));
#1470=DIRECTION('ref_axis',(0.,1.,0.));
#1471=DIRECTION('',(0.,-1.,0.));
#1472=DIRECTION('',(0.,1.,0.));
#1473=DIRECTION('center_axis',(1.,0.,0.));
#1474=DIRECTION('ref_axis',(0.,0.,-1.));
#1475=DIRECTION('center_axis',(0.,0.,1.));
#1476=DIRECTION('ref_axis',(1.,0.,0.));
#1477=DIRECTION('center_axis',(0.,0.,1.));
#1478=DIRECTION('ref_axis',(1.,0.,0.));
#1479=DIRECTION('',(0.,0.,1.));
#1480=DIRECTION('center_axis',(0.,0.,-1.));
#1481=DIRECTION('ref_axis',(1.,0.,0.));
#1482=DIRECTION('center_axis',(0.,0.,1.));
#1483=DIRECTION('ref_axis',(1.,0.,0.));
#1484=DIRECTION('center_axis',(0.,0.,1.));
#1485=DIRECTION('ref_axis',(1.,0.,0.));
#1486=DIRECTION('',(0.,0.,1.));
#1487=DIRECTION('center_axis',(0.,0.,-1.));
#1488=DIRECTION('ref_axis',(1.,0.,0.));
#1489=DIRECTION('center_axis',(0.,-1.,0.));
#1490=DIRECTION('ref_axis',(0.,0.,-1.));
#1491=DIRECTION('',(0.,0.,1.));
#1492=DIRECTION('',(1.,0.,0.));
#1493=DIRECTION('',(0.,0.,-1.));
#1494=DIRECTION('',(1.,0.,0.));
#1495=DIRECTION('center_axis',(0.,0.,1.));
#1496=DIRECTION('ref_axis',(0.,-1.,0.));
#1497=DIRECTION('',(0.,1.,0.));
#1498=DIRECTION('',(0.,-1.,0.));
#1499=DIRECTION('',(1.,0.,0.));
#1500=DIRECTION('center_axis',(0.,1.,0.));
#1501=DIRECTION('ref_axis',(0.,0.,1.));
#1502=DIRECTION('',(0.,0.,-1.));
#1503=DIRECTION('',(0.,0.,1.));
#1504=DIRECTION('',(1.,0.,0.));
#1505=DIRECTION('center_axis',(0.,0.,-1.));
#1506=DIRECTION('ref_axis',(0.,1.,0.));
#1507=DIRECTION('',(0.,-1.,0.));
#1508=DIRECTION('',(0.,1.,0.));
#1509=DIRECTION('center_axis',(1.,0.,0.));
#1510=DIRECTION('ref_axis',(0.,0.,-1.));
#1511=DIRECTION('center_axis',(1.,0.,0.));
#1512=DIRECTION('ref_axis',(0.,0.707106781186553,-0.707106781186542));
#1513=DIRECTION('center_axis',(-1.,0.,0.));
#1514=DIRECTION('ref_axis',(0.,0.707106781186553,-0.707106781186542));
#1515=DIRECTION('',(1.,0.,0.));
#1516=DIRECTION('center_axis',(1.,0.,0.));
#1517=DIRECTION('ref_axis',(0.,0.707106781186553,-0.707106781186542));
#1518=DIRECTION('',(-1.,0.,0.));
#1519=DIRECTION('center_axis',(0.,1.46081976924363E-17,-1.));
#1520=DIRECTION('ref_axis',(0.,1.,1.46081976924363E-17));
#1521=DIRECTION('',(0.,1.,1.46081976924363E-17));
#1522=DIRECTION('',(-1.,0.,0.));
#1523=DIRECTION('',(0.,-1.,-1.46081976924363E-17));
#1524=DIRECTION('center_axis',(1.,0.,0.));
#1525=DIRECTION('ref_axis',(0.,0.707106781186552,0.707106781186543));
#1526=DIRECTION('center_axis',(-1.,0.,0.));
#1527=DIRECTION('ref_axis',(0.,0.707106781186552,0.707106781186543));
#1528=DIRECTION('',(1.,0.,0.));
#1529=DIRECTION('center_axis',(1.,0.,0.));
#1530=DIRECTION('ref_axis',(0.,0.707106781186552,0.707106781186543));
#1531=DIRECTION('',(-1.,0.,0.));
#1532=DIRECTION('center_axis',(0.,1.,0.));
#1533=DIRECTION('ref_axis',(0.,0.,1.));
#1534=DIRECTION('',(0.,0.,-1.));
#1535=DIRECTION('',(0.,0.,1.));
#1536=DIRECTION('center_axis',(1.,0.,0.));
#1537=DIRECTION('ref_axis',(0.,-0.707106781186548,0.707106781186548));
#1538=DIRECTION('center_axis',(-1.,0.,0.));
#1539=DIRECTION('ref_axis',(0.,-0.707106781186548,0.707106781186548));
#1540=DIRECTION('',(1.,0.,0.));
#1541=DIRECTION('center_axis',(1.,0.,0.));
#1542=DIRECTION('ref_axis',(0.,-0.707106781186548,0.707106781186548));
#1543=DIRECTION('',(-1.,0.,0.));
#1544=DIRECTION('center_axis',(0.,0.,1.));
#1545=DIRECTION('ref_axis',(0.,-1.,0.));
#1546=DIRECTION('',(0.,1.,0.));
#1547=DIRECTION('',(0.,-1.,0.));
#1548=DIRECTION('center_axis',(1.,0.,0.));
#1549=DIRECTION('ref_axis',(0.,-0.707106781186547,-0.707106781186548));
#1550=DIRECTION('center_axis',(-1.,0.,0.));
#1551=DIRECTION('ref_axis',(0.,-0.707106781186547,-0.707106781186548));
#1552=DIRECTION('',(1.,0.,0.));
#1553=DIRECTION('center_axis',(1.,0.,0.));
#1554=DIRECTION('ref_axis',(0.,-0.707106781186547,-0.707106781186548));
#1555=DIRECTION('center_axis',(0.,-1.,0.));
#1556=DIRECTION('ref_axis',(0.,0.,-1.));
#1557=DIRECTION('',(0.,0.,1.));
#1558=DIRECTION('',(0.,0.,-1.));
#1559=DIRECTION('center_axis',(1.,0.,0.));
#1560=DIRECTION('ref_axis',(0.,0.707106781186552,-0.707106781186543));
#1561=DIRECTION('center_axis',(-1.,0.,0.));
#1562=DIRECTION('ref_axis',(0.,0.707106781186552,-0.707106781186543));
#1563=DIRECTION('',(1.,0.,0.));
#1564=DIRECTION('center_axis',(1.,0.,0.));
#1565=DIRECTION('ref_axis',(0.,0.707106781186552,-0.707106781186543));
#1566=DIRECTION('',(-1.,0.,0.));
#1567=DIRECTION('center_axis',(0.,0.,-1.));
#1568=DIRECTION('ref_axis',(0.,1.,0.));
#1569=DIRECTION('',(0.,1.,0.));
#1570=DIRECTION('',(-1.,0.,0.));
#1571=DIRECTION('',(0.,-1.,0.));
#1572=DIRECTION('center_axis',(1.,0.,0.));
#1573=DIRECTION('ref_axis',(0.,0.707106781186552,0.707106781186543));
#1574=DIRECTION('center_axis',(-1.,0.,0.));
#1575=DIRECTION('ref_axis',(0.,0.707106781186552,0.707106781186543));
#1576=DIRECTION('',(1.,0.,0.));
#1577=DIRECTION('center_axis',(1.,0.,0.));
#1578=DIRECTION('ref_axis',(0.,0.707106781186552,0.707106781186543));
#1579=DIRECTION('',(-1.,0.,0.));
#1580=DIRECTION('center_axis',(0.,1.,0.));
#1581=DIRECTION('ref_axis',(0.,0.,1.));
#1582=DIRECTION('',(0.,0.,-1.));
#1583=DIRECTION('',(0.,0.,1.));
#1584=DIRECTION('center_axis',(1.,0.,0.));
#1585=DIRECTION('ref_axis',(0.,-0.707106781186548,0.707106781186548));
#1586=DIRECTION('center_axis',(-1.,0.,0.));
#1587=DIRECTION('ref_axis',(0.,-0.707106781186548,0.707106781186548));
#1588=DIRECTION('',(1.,0.,0.));
#1589=DIRECTION('center_axis',(1.,0.,0.));
#1590=DIRECTION('ref_axis',(0.,-0.707106781186548,0.707106781186548));
#1591=DIRECTION('',(-1.,0.,0.));
#1592=DIRECTION('center_axis',(0.,0.,1.));
#1593=DIRECTION('ref_axis',(0.,-1.,0.));
#1594=DIRECTION('',(0.,1.,0.));
#1595=DIRECTION('',(0.,-1.,0.));
#1596=DIRECTION('center_axis',(1.,0.,0.));
#1597=DIRECTION('ref_axis',(0.,-0.707106781186545,-0.70710678118655));
#1598=DIRECTION('center_axis',(-1.,0.,0.));
#1599=DIRECTION('ref_axis',(0.,-0.707106781186545,-0.70710678118655));
#1600=DIRECTION('',(1.,0.,0.));
#1601=DIRECTION('center_axis',(1.,0.,0.));
#1602=DIRECTION('ref_axis',(0.,-0.707106781186545,-0.70710678118655));
#1603=DIRECTION('center_axis',(0.,-1.,0.));
#1604=DIRECTION('ref_axis',(0.,0.,-1.));
#1605=DIRECTION('',(0.,0.,1.));
#1606=DIRECTION('',(0.,0.,-1.));
#1607=DIRECTION('center_axis',(0.,1.,0.));
#1608=DIRECTION('ref_axis',(0.,0.,1.));
#1609=DIRECTION('',(0.,0.,1.));
#1610=DIRECTION('',(1.,0.,0.));
#1611=DIRECTION('',(0.,0.,1.));
#1612=DIRECTION('',(1.,0.,0.));
#1613=DIRECTION('center_axis',(0.,0.,-1.));
#1614=DIRECTION('ref_axis',(0.,1.,0.));
#1615=DIRECTION('',(0.,1.,0.));
#1616=DIRECTION('',(0.,1.,0.));
#1617=DIRECTION('',(1.,0.,0.));
#1618=DIRECTION('center_axis',(0.,-1.,0.));
#1619=DIRECTION('ref_axis',(0.,0.,-1.));
#1620=DIRECTION('',(0.,0.,-1.));
#1621=DIRECTION('',(0.,0.,-1.));
#1622=DIRECTION('',(1.,0.,0.));
#1623=DIRECTION('center_axis',(0.,0.,1.));
#1624=DIRECTION('ref_axis',(0.,-1.,0.));
#1625=DIRECTION('',(0.,-1.,0.));
#1626=DIRECTION('',(0.,-1.,0.));
#1627=DIRECTION('center_axis',(1.,0.,0.));
#1628=DIRECTION('ref_axis',(0.,0.,-1.));
#1629=DIRECTION('center_axis',(1.,0.,0.));
#1630=DIRECTION('ref_axis',(0.,0.,-1.));
#1631=CARTESIAN_POINT('',(0.,0.,0.));
#1632=CARTESIAN_POINT('Origin',(-96.8349364905389,50.4,141.25));
#1633=CARTESIAN_POINT('',(-101.165063509461,58.,141.25));
#1634=CARTESIAN_POINT('',(-96.8349364905389,58.,141.25));
#1635=CARTESIAN_POINT('',(-103.417468245269,58.,141.25));
#1636=CARTESIAN_POINT('',(-101.165063509461,50.4,141.25));
#1637=CARTESIAN_POINT('',(-101.165063509461,50.4,141.25));
#1638=CARTESIAN_POINT('',(-96.8349364905389,50.4,141.25));
#1639=CARTESIAN_POINT('',(-96.8349364905389,50.4,141.25));
#1640=CARTESIAN_POINT('',(-96.8349364905389,50.4,141.25));
#1641=CARTESIAN_POINT('Origin',(-94.6698729810778,50.4,145.));
#1642=CARTESIAN_POINT('',(-94.6698729810778,58.,145.));
#1643=CARTESIAN_POINT('',(-95.0705944018203,58.,144.305930139593));
#1644=CARTESIAN_POINT('',(-94.6698729810778,50.4,145.));
#1645=CARTESIAN_POINT('',(-94.6698729810778,50.4,145.));
#1646=CARTESIAN_POINT('',(-94.6698729810778,50.4,145.));
#1647=CARTESIAN_POINT('Origin',(-96.8349364905389,50.4,148.75));
#1648=CARTESIAN_POINT('',(-96.8349364905389,58.,148.75));
#1649=CARTESIAN_POINT('',(-99.1842150697964,58.,152.819069860407));
#1650=CARTESIAN_POINT('',(-96.8349364905389,50.4,148.75));
#1651=CARTESIAN_POINT('',(-96.8349364905389,50.4,148.75));
#1652=CARTESIAN_POINT('',(-96.8349364905389,50.4,148.75));
#1653=CARTESIAN_POINT('Origin',(-101.165063509461,50.4,148.75));
#1654=CARTESIAN_POINT('',(-101.165063509461,58.,148.75));
#1655=CARTESIAN_POINT('',(-105.582531754731,58.,148.75));
#1656=CARTESIAN_POINT('',(-101.165063509461,50.4,148.75));
#1657=CARTESIAN_POINT('',(-101.165063509461,50.4,148.75));
#1658=CARTESIAN_POINT('',(-101.165063509461,50.4,148.75));
#1659=CARTESIAN_POINT('Origin',(-103.330127018922,50.4,145.));
#1660=CARTESIAN_POINT('',(-103.330127018922,58.,145.));
#1661=CARTESIAN_POINT('',(-102.648316684934,58.,146.180930139593));
#1662=CARTESIAN_POINT('',(-103.330127018922,50.4,145.));
#1663=CARTESIAN_POINT('',(-103.330127018922,50.4,145.));
#1664=CARTESIAN_POINT('',(-103.330127018922,50.4,145.));
#1665=CARTESIAN_POINT('Origin',(-101.165063509461,50.4,141.25));
#1666=CARTESIAN_POINT('',(-104.596873843449,58.,147.194069860407));
#1667=CARTESIAN_POINT('',(-101.165063509461,50.4,141.25));
#1668=CARTESIAN_POINT('Origin',(-99.,50.4,145.));
#1669=CARTESIAN_POINT('',(-101.25,50.4,145.));
#1670=CARTESIAN_POINT('Origin',(-99.,50.4,145.));
#1671=CARTESIAN_POINT('Origin',(-99.,36.,145.));
#1672=CARTESIAN_POINT('',(-101.25,38.,145.));
#1673=CARTESIAN_POINT('Origin',(-99.,38.,145.));
#1674=CARTESIAN_POINT('',(-101.25,36.,145.));
#1675=CARTESIAN_POINT('Origin',(-103.3,37.,28.3));
#1676=CARTESIAN_POINT('',(-103.3,38.,28.3));
#1677=CARTESIAN_POINT('',(-94.7,38.,28.3));
#1678=CARTESIAN_POINT('',(-104.15,38.,28.3));
#1679=CARTESIAN_POINT('',(-103.3,46.3,28.3));
#1680=CARTESIAN_POINT('',(-103.3,37.,28.3));
#1681=CARTESIAN_POINT('',(-94.7,46.3,28.3));
#1682=CARTESIAN_POINT('',(-103.3,46.3,28.3));
#1683=CARTESIAN_POINT('',(-94.7,37.,28.3));
#1684=CARTESIAN_POINT('Origin',(-94.7,37.,28.3));
#1685=CARTESIAN_POINT('',(-94.7,38.,19.7));
#1686=CARTESIAN_POINT('',(-94.7,38.,99.15));
#1687=CARTESIAN_POINT('',(-94.7,46.3,19.7));
#1688=CARTESIAN_POINT('',(-94.7,46.3,28.3));
#1689=CARTESIAN_POINT('',(-94.7,37.,19.7));
#1690=CARTESIAN_POINT('Origin',(-94.7,37.,19.7));
#1691=CARTESIAN_POINT('',(-103.3,38.,19.7));
#1692=CARTESIAN_POINT('',(-99.85,38.,19.7));
#1693=CARTESIAN_POINT('',(-103.3,46.3,19.7));
#1694=CARTESIAN_POINT('',(-94.7,46.3,19.7));
#1695=CARTESIAN_POINT('',(-103.3,37.,19.7));
#1696=CARTESIAN_POINT('Origin',(-103.3,37.,19.7));
#1697=CARTESIAN_POINT('',(-103.3,38.,94.85));
#1698=CARTESIAN_POINT('',(-103.3,46.3,19.7));
#1699=CARTESIAN_POINT('Origin',(-99.,46.3,24.));
#1700=CARTESIAN_POINT('Origin',(-99.,222.,161.7));
#1701=CARTESIAN_POINT('',(-102.3,222.,161.7));
#1702=CARTESIAN_POINT('Origin',(-99.,222.,161.7));
#1703=CARTESIAN_POINT('',(-102.3,222.,170.));
#1704=CARTESIAN_POINT('',(-102.3,222.,161.7));
#1705=CARTESIAN_POINT('Origin',(-99.,222.,170.));
#1706=CARTESIAN_POINT('Origin',(-99.,222.,161.7));
#1707=CARTESIAN_POINT('Origin',(-99.,222.,-0.3));
#1708=CARTESIAN_POINT('',(-102.3,222.,0.));
#1709=CARTESIAN_POINT('Origin',(-99.,222.,0.));
#1710=CARTESIAN_POINT('',(-102.3,222.,8.3));
#1711=CARTESIAN_POINT('',(-102.3,222.,-0.3));
#1712=CARTESIAN_POINT('Origin',(-99.,222.,8.3));
#1713=CARTESIAN_POINT('Origin',(-99.,222.,8.3));
#1714=CARTESIAN_POINT('Origin',(-99.,46.,161.7));
#1715=CARTESIAN_POINT('',(-102.3,46.,161.7));
#1716=CARTESIAN_POINT('Origin',(-99.,46.,161.7));
#1717=CARTESIAN_POINT('',(-102.3,46.,170.));
#1718=CARTESIAN_POINT('',(-102.3,46.,161.7));
#1719=CARTESIAN_POINT('Origin',(-99.,46.,170.));
#1720=CARTESIAN_POINT('Origin',(-99.,46.,161.7));
#1721=CARTESIAN_POINT('Origin',(-99.,46.,-0.3));
#1722=CARTESIAN_POINT('',(-102.3,46.,0.));
#1723=CARTESIAN_POINT('Origin',(-99.,46.,0.));
#1724=CARTESIAN_POINT('',(-102.3,46.,8.3));
#1725=CARTESIAN_POINT('',(-102.3,46.,-0.3));
#1726=CARTESIAN_POINT('Origin',(-99.,46.,8.3));
#1727=CARTESIAN_POINT('Origin',(-99.,46.,8.3));
#1728=CARTESIAN_POINT('Origin',(-97.,180.,148.));
#1729=CARTESIAN_POINT('',(-99.3,180.,152.));
#1730=CARTESIAN_POINT('Origin',(-97.,180.,152.));
#1731=CARTESIAN_POINT('',(-99.3,180.,159.7));
#1732=CARTESIAN_POINT('',(-99.3,180.,148.));
#1733=CARTESIAN_POINT('Origin',(-97.,180.,159.7));
#1734=CARTESIAN_POINT('Origin',(-97.,180.,148.));
#1735=CARTESIAN_POINT('',(-99.3,180.,168.3));
#1736=CARTESIAN_POINT('Origin',(-97.,180.,168.3));
#1737=CARTESIAN_POINT('',(-99.3,180.,170.));
#1738=CARTESIAN_POINT('',(-99.3,180.,148.));
#1739=CARTESIAN_POINT('Origin',(-97.,180.,170.));
#1740=CARTESIAN_POINT('Origin',(-102.3,169.7,168.3));
#1741=CARTESIAN_POINT('',(-93.,169.7,159.7));
#1742=CARTESIAN_POINT('',(-93.,169.7,168.3));
#1743=CARTESIAN_POINT('',(-93.,169.7,126.65));
#1744=CARTESIAN_POINT('',(-102.3,169.7,159.7));
#1745=CARTESIAN_POINT('',(-102.3,169.7,159.7));
#1746=CARTESIAN_POINT('',(-102.3,169.7,168.3));
#1747=CARTESIAN_POINT('',(-102.3,169.7,168.3));
#1748=CARTESIAN_POINT('',(-102.3,169.7,168.3));
#1749=CARTESIAN_POINT('Origin',(-102.3,190.3,168.3));
#1750=CARTESIAN_POINT('',(-93.,190.3,168.3));
#1751=CARTESIAN_POINT('',(-93.,162.15,168.3));
#1752=CARTESIAN_POINT('',(-102.3,190.3,168.3));
#1753=CARTESIAN_POINT('',(-102.3,190.3,168.3));
#1754=CARTESIAN_POINT('',(-102.3,190.3,168.3));
#1755=CARTESIAN_POINT('Origin',(-102.3,190.3,159.7));
#1756=CARTESIAN_POINT('',(-93.,190.3,159.7));
#1757=CARTESIAN_POINT('',(-93.,190.3,122.35));
#1758=CARTESIAN_POINT('',(-102.3,190.3,159.7));
#1759=CARTESIAN_POINT('',(-102.3,190.3,159.7));
#1760=CARTESIAN_POINT('',(-102.3,190.3,159.7));
#1761=CARTESIAN_POINT('Origin',(-102.3,169.7,159.7));
#1762=CARTESIAN_POINT('',(-93.,151.85,159.7));
#1763=CARTESIAN_POINT('',(-102.3,169.7,159.7));
#1764=CARTESIAN_POINT('Origin',(-102.3,180.,164.));
#1765=CARTESIAN_POINT('Origin',(-97.,198.,40.));
#1766=CARTESIAN_POINT('',(-99.3,198.,48.));
#1767=CARTESIAN_POINT('Origin',(-97.,198.,48.));
#1768=CARTESIAN_POINT('',(-99.3,198.,51.7));
#1769=CARTESIAN_POINT('',(-99.3,198.,40.));
#1770=CARTESIAN_POINT('Origin',(-97.,198.,51.7));
#1771=CARTESIAN_POINT('Origin',(-97.,198.,40.));
#1772=CARTESIAN_POINT('',(-99.3,198.,60.3));
#1773=CARTESIAN_POINT('Origin',(-97.,198.,60.3));
#1774=CARTESIAN_POINT('',(-99.3,198.,72.));
#1775=CARTESIAN_POINT('',(-99.3,198.,40.));
#1776=CARTESIAN_POINT('Origin',(-97.,198.,72.));
#1777=CARTESIAN_POINT('Origin',(-102.3,187.7,60.3));
#1778=CARTESIAN_POINT('',(-93.,187.7,51.7));
#1779=CARTESIAN_POINT('',(-93.,187.7,60.3));
#1780=CARTESIAN_POINT('',(-93.,187.7,72.65));
#1781=CARTESIAN_POINT('',(-102.3,187.7,51.7));
#1782=CARTESIAN_POINT('',(-102.3,187.7,51.7));
#1783=CARTESIAN_POINT('',(-102.3,187.7,60.3));
#1784=CARTESIAN_POINT('',(-102.3,187.7,60.3));
#1785=CARTESIAN_POINT('',(-102.3,187.7,60.3));
#1786=CARTESIAN_POINT('Origin',(-102.3,208.3,60.3));
#1787=CARTESIAN_POINT('',(-93.,208.3,60.3));
#1788=CARTESIAN_POINT('',(-93.,171.15,60.3));
#1789=CARTESIAN_POINT('',(-102.3,208.3,60.3));
#1790=CARTESIAN_POINT('',(-102.3,208.3,60.3));
#1791=CARTESIAN_POINT('',(-102.3,208.3,60.3));
#1792=CARTESIAN_POINT('Origin',(-102.3,208.3,51.7));
#1793=CARTESIAN_POINT('',(-93.,208.3,51.7));
#1794=CARTESIAN_POINT('',(-93.,208.3,68.35));
#1795=CARTESIAN_POINT('',(-102.3,208.3,51.7));
#1796=CARTESIAN_POINT('',(-102.3,208.3,51.7));
#1797=CARTESIAN_POINT('',(-102.3,208.3,51.7));
#1798=CARTESIAN_POINT('Origin',(-102.3,187.7,51.7));
#1799=CARTESIAN_POINT('',(-93.,160.85,51.7));
#1800=CARTESIAN_POINT('',(-102.3,187.7,51.7));
#1801=CARTESIAN_POINT('Origin',(-102.3,198.,56.));
#1802=CARTESIAN_POINT('Origin',(-97.,82.,40.));
#1803=CARTESIAN_POINT('',(-99.3,82.,48.));
#1804=CARTESIAN_POINT('Origin',(-97.,82.,48.));
#1805=CARTESIAN_POINT('',(-99.3,82.,51.7));
#1806=CARTESIAN_POINT('',(-99.3,82.,40.));
#1807=CARTESIAN_POINT('Origin',(-97.,82.,51.7));
#1808=CARTESIAN_POINT('Origin',(-97.,82.,40.));
#1809=CARTESIAN_POINT('',(-99.3,82.,60.3));
#1810=CARTESIAN_POINT('Origin',(-97.,82.,60.3));
#1811=CARTESIAN_POINT('',(-99.3,82.,72.));
#1812=CARTESIAN_POINT('',(-99.3,82.,40.));
#1813=CARTESIAN_POINT('Origin',(-97.,82.,72.));
#1814=CARTESIAN_POINT('Origin',(-102.3,71.7,60.3));
#1815=CARTESIAN_POINT('',(-93.,71.7,51.7));
#1816=CARTESIAN_POINT('',(-93.,71.7,60.3));
#1817=CARTESIAN_POINT('',(-93.,71.7,72.65));
#1818=CARTESIAN_POINT('',(-102.3,71.7,51.7));
#1819=CARTESIAN_POINT('',(-102.3,71.7,51.7));
#1820=CARTESIAN_POINT('',(-102.3,71.7,60.3));
#1821=CARTESIAN_POINT('',(-102.3,71.7,60.3));
#1822=CARTESIAN_POINT('',(-102.3,71.7,60.3));
#1823=CARTESIAN_POINT('Origin',(-102.3,92.3,60.3));
#1824=CARTESIAN_POINT('',(-93.,92.3,60.3));
#1825=CARTESIAN_POINT('',(-93.,113.15,60.3));
#1826=CARTESIAN_POINT('',(-102.3,92.3,60.3));
#1827=CARTESIAN_POINT('',(-102.3,92.3,60.3));
#1828=CARTESIAN_POINT('',(-102.3,92.3,60.3));
#1829=CARTESIAN_POINT('Origin',(-102.3,92.3,51.7));
#1830=CARTESIAN_POINT('',(-93.,92.3,51.7));
#1831=CARTESIAN_POINT('',(-93.,92.3,68.35));
#1832=CARTESIAN_POINT('',(-102.3,92.3,51.7));
#1833=CARTESIAN_POINT('',(-102.3,92.3,51.7));
#1834=CARTESIAN_POINT('',(-102.3,92.3,51.7));
#1835=CARTESIAN_POINT('Origin',(-102.3,71.7,51.7));
#1836=CARTESIAN_POINT('',(-93.,102.85,51.7));
#1837=CARTESIAN_POINT('',(-102.3,71.7,51.7));
#1838=CARTESIAN_POINT('Origin',(-102.3,82.,56.));
#1839=CARTESIAN_POINT('Origin',(-110.,207.,21.));
#1840=CARTESIAN_POINT('',(-105.,210.,21.));
#1841=CARTESIAN_POINT('',(-105.,207.,18.));
#1842=CARTESIAN_POINT('Origin',(-105.,207.,21.));
#1843=CARTESIAN_POINT('',(-93.,207.,18.));
#1844=CARTESIAN_POINT('',(-110.,207.,18.));
#1845=CARTESIAN_POINT('',(-93.,210.,21.));
#1846=CARTESIAN_POINT('Origin',(-93.,207.,21.));
#1847=CARTESIAN_POINT('',(-110.,210.,21.));
#1848=CARTESIAN_POINT('Origin',(-110.,58.,18.));
#1849=CARTESIAN_POINT('',(-105.,61.,18.));
#1850=CARTESIAN_POINT('',(-105.,96.,18.));
#1851=CARTESIAN_POINT('',(-93.,61.,18.));
#1852=CARTESIAN_POINT('',(-110.,61.,18.));
#1853=CARTESIAN_POINT('',(-93.,96.,18.));
#1854=CARTESIAN_POINT('Origin',(-110.,207.,45.));
#1855=CARTESIAN_POINT('',(-105.,207.,48.));
#1856=CARTESIAN_POINT('',(-105.,210.,45.));
#1857=CARTESIAN_POINT('Origin',(-105.,207.,45.));
#1858=CARTESIAN_POINT('',(-93.,210.,45.));
#1859=CARTESIAN_POINT('',(-110.,210.,45.));
#1860=CARTESIAN_POINT('',(-93.,207.,48.));
#1861=CARTESIAN_POINT('Origin',(-93.,207.,45.));
#1862=CARTESIAN_POINT('',(-110.,207.,48.));
#1863=CARTESIAN_POINT('Origin',(-110.,210.,18.));
#1864=CARTESIAN_POINT('',(-93.,210.,51.5));
#1865=CARTESIAN_POINT('',(-105.,210.,51.5));
#1866=CARTESIAN_POINT('Origin',(-110.,61.,45.));
#1867=CARTESIAN_POINT('',(-105.,58.,45.));
#1868=CARTESIAN_POINT('',(-105.,61.,48.));
#1869=CARTESIAN_POINT('Origin',(-105.,61.,45.));
#1870=CARTESIAN_POINT('',(-93.,61.,48.));
#1871=CARTESIAN_POINT('',(-110.,61.,48.));
#1872=CARTESIAN_POINT('',(-93.,58.,45.));
#1873=CARTESIAN_POINT('Origin',(-93.,61.,45.));
#1874=CARTESIAN_POINT('',(-110.,58.,45.));
#1875=CARTESIAN_POINT('Origin',(-110.,210.,48.));
#1876=CARTESIAN_POINT('',(-93.,172.,48.));
#1877=CARTESIAN_POINT('',(-105.,172.,48.));
#1878=CARTESIAN_POINT('Origin',(-110.,61.,21.));
#1879=CARTESIAN_POINT('',(-105.,58.,21.));
#1880=CARTESIAN_POINT('Origin',(-105.,61.,21.));
#1881=CARTESIAN_POINT('',(-93.,58.,21.));
#1882=CARTESIAN_POINT('',(-110.,58.,21.));
#1883=CARTESIAN_POINT('Origin',(-93.,61.,21.));
#1884=CARTESIAN_POINT('Origin',(-110.,58.,48.));
#1885=CARTESIAN_POINT('',(-93.,58.,66.5));
#1886=CARTESIAN_POINT('',(-105.,58.,66.5));
#1887=CARTESIAN_POINT('Origin',(-110.,207.,75.));
#1888=CARTESIAN_POINT('',(-105.,210.,75.));
#1889=CARTESIAN_POINT('',(-105.,207.,72.));
#1890=CARTESIAN_POINT('Origin',(-105.,207.,75.));
#1891=CARTESIAN_POINT('',(-93.,207.,72.));
#1892=CARTESIAN_POINT('',(-110.,207.,72.));
#1893=CARTESIAN_POINT('',(-93.,210.,75.));
#1894=CARTESIAN_POINT('Origin',(-93.,207.,75.));
#1895=CARTESIAN_POINT('',(-110.,210.,75.));
#1896=CARTESIAN_POINT('Origin',(-110.,58.,72.));
#1897=CARTESIAN_POINT('',(-105.,61.,72.));
#1898=CARTESIAN_POINT('',(-105.,96.,72.));
#1899=CARTESIAN_POINT('',(-93.,61.,72.));
#1900=CARTESIAN_POINT('',(-110.,61.,72.));
#1901=CARTESIAN_POINT('',(-93.,96.,72.));
#1902=CARTESIAN_POINT('Origin',(-110.,207.,149.));
#1903=CARTESIAN_POINT('',(-105.,207.,152.));
#1904=CARTESIAN_POINT('',(-105.,210.,149.));
#1905=CARTESIAN_POINT('Origin',(-105.,207.,149.));
#1906=CARTESIAN_POINT('',(-93.,210.,149.));
#1907=CARTESIAN_POINT('',(-110.,210.,149.));
#1908=CARTESIAN_POINT('',(-93.,207.,152.));
#1909=CARTESIAN_POINT('Origin',(-93.,207.,149.));
#1910=CARTESIAN_POINT('',(-110.,207.,152.));
#1911=CARTESIAN_POINT('Origin',(-110.,210.,72.));
#1912=CARTESIAN_POINT('',(-93.,210.,78.5));
#1913=CARTESIAN_POINT('',(-105.,210.,78.5));
#1914=CARTESIAN_POINT('Origin',(-110.,61.,149.));
#1915=CARTESIAN_POINT('',(-105.,58.,149.));
#1916=CARTESIAN_POINT('',(-105.,61.,152.));
#1917=CARTESIAN_POINT('Origin',(-105.,61.,149.));
#1918=CARTESIAN_POINT('',(-93.,61.,152.));
#1919=CARTESIAN_POINT('',(-110.,61.,152.));
#1920=CARTESIAN_POINT('',(-93.,58.,149.));
#1921=CARTESIAN_POINT('Origin',(-93.,61.,149.));
#1922=CARTESIAN_POINT('',(-110.,58.,149.));
#1923=CARTESIAN_POINT('Origin',(-110.,210.,152.));
#1924=CARTESIAN_POINT('',(-93.,172.,152.));
#1925=CARTESIAN_POINT('',(-105.,172.,152.));
#1926=CARTESIAN_POINT('Origin',(-110.,61.,75.));
#1927=CARTESIAN_POINT('',(-105.,58.,75.));
#1928=CARTESIAN_POINT('Origin',(-105.,61.,75.));
#1929=CARTESIAN_POINT('',(-93.,58.,75.));
#1930=CARTESIAN_POINT('',(-110.,58.,75.));
#1931=CARTESIAN_POINT('Origin',(-93.,61.,75.));
#1932=CARTESIAN_POINT('Origin',(-110.,58.,152.));
#1933=CARTESIAN_POINT('',(-93.,58.,118.5));
#1934=CARTESIAN_POINT('',(-105.,58.,118.5));
#1935=CARTESIAN_POINT('Origin',(-105.,230.,0.));
#1936=CARTESIAN_POINT('',(-105.,230.,0.));
#1937=CARTESIAN_POINT('',(-105.,230.,170.));
#1938=CARTESIAN_POINT('',(-105.,230.,0.));
#1939=CARTESIAN_POINT('',(-93.,230.,170.));
#1940=CARTESIAN_POINT('',(-105.,230.,170.));
#1941=CARTESIAN_POINT('',(-93.,230.,0.));
#1942=CARTESIAN_POINT('',(-93.,230.,0.));
#1943=CARTESIAN_POINT('',(-105.,230.,0.));
#1944=CARTESIAN_POINT('Origin',(-105.,38.,0.));
#1945=CARTESIAN_POINT('',(-105.,38.,0.));
#1946=CARTESIAN_POINT('',(-105.,38.,0.));
#1947=CARTESIAN_POINT('',(-93.,38.,0.));
#1948=CARTESIAN_POINT('',(-93.,38.,0.));
#1949=CARTESIAN_POINT('',(-105.,38.,0.));
#1950=CARTESIAN_POINT('Origin',(-105.,38.,170.));
#1951=CARTESIAN_POINT('',(-105.,38.,170.));
#1952=CARTESIAN_POINT('',(-105.,38.,170.));
#1953=CARTESIAN_POINT('',(-93.,38.,170.));
#1954=CARTESIAN_POINT('',(-93.,38.,170.));
#1955=CARTESIAN_POINT('',(-105.,38.,170.));
#1956=CARTESIAN_POINT('Origin',(-105.,230.,170.));
#1957=CARTESIAN_POINT('',(-105.,230.,170.));
#1958=CARTESIAN_POINT('',(-93.,230.,170.));
#1959=CARTESIAN_POINT('Origin',(-93.,134.,85.));
#1960=CARTESIAN_POINT('Origin',(-105.,134.,85.));
#1961=UNCERTAINTY_MEASURE_WITH_UNIT(LENGTH_MEASURE(0.01),#1965,
'DISTANCE_ACCURACY_VALUE',
'Maximum model space distance between geometric entities at asserted c
onnectivities');
#1962=UNCERTAINTY_MEASURE_WITH_UNIT(LENGTH_MEASURE(0.01),#1965,
'DISTANCE_ACCURACY_VALUE',
'Maximum model space distance between geometric entities at asserted c
onnectivities');
#1963=(
GEOMETRIC_REPRESENTATION_CONTEXT(3)
GLOBAL_UNCERTAINTY_ASSIGNED_CONTEXT((#1961))
GLOBAL_UNIT_ASSIGNED_CONTEXT((#1965,#1967,#1968))
REPRESENTATION_CONTEXT('','3D')
);
#1964=(
GEOMETRIC_REPRESENTATION_CONTEXT(3)
GLOBAL_UNCERTAINTY_ASSIGNED_CONTEXT((#1962))
GLOBAL_UNIT_ASSIGNED_CONTEXT((#1965,#1967,#1968))
REPRESENTATION_CONTEXT('','3D')
);
#1965=(
LENGTH_UNIT()
NAMED_UNIT(*)
SI_UNIT(.MILLI.,.METRE.)
);
#1966=(
LENGTH_UNIT()
NAMED_UNIT(*)
SI_UNIT($,.METRE.)
);
#1967=(
NAMED_UNIT(*)
PLANE_ANGLE_UNIT()
SI_UNIT($,.RADIAN.)
);
#1968=(
NAMED_UNIT(*)
SI_UNIT($,.STERADIAN.)
SOLID_ANGLE_UNIT()
);
#1969=SHAPE_DEFINITION_REPRESENTATION(#1970,#1971);
#1970=PRODUCT_DEFINITION_SHAPE('',$,#1973);
#1971=SHAPE_REPRESENTATION('',(#1201),#1963);
#1972=PRODUCT_DEFINITION_CONTEXT('part definition',#1977,'design');
#1973=PRODUCT_DEFINITION('side_L','side_L',#1974,#1972);
#1974=PRODUCT_DEFINITION_FORMATION('',$,#1979);
#1975=PRODUCT_RELATED_PRODUCT_CATEGORY('side_L','side_L',(#1979));
#1976=APPLICATION_PROTOCOL_DEFINITION('international standard',
'automotive_design',2009,#1977);
#1977=APPLICATION_CONTEXT(
'Core Data for Automotive Mechanical Design Process');
#1978=PRODUCT_CONTEXT('part definition',#1977,'mechanical');
#1979=PRODUCT('side_L','side_L',$,(#1978));
#1980=PRESENTATION_STYLE_ASSIGNMENT((#1982));
#1981=PRESENTATION_STYLE_ASSIGNMENT((#1983));
#1982=SURFACE_STYLE_USAGE(.BOTH.,#1984);
#1983=SURFACE_STYLE_USAGE(.BOTH.,#1985);
#1984=SURFACE_SIDE_STYLE('',(#1986));
#1985=SURFACE_SIDE_STYLE('',(#1987));
#1986=SURFACE_STYLE_FILL_AREA(#1988);
#1987=SURFACE_STYLE_FILL_AREA(#1989);
#1988=FILL_AREA_STYLE('\X2\92FC\X0\ - \X2\30B530C630F3\X0\',(#1990));
#1989=FILL_AREA_STYLE('DGX_\X2\591689B3306E307F\X0\_frame',(#1991));
#1990=FILL_AREA_STYLE_COLOUR('\X2\92FC\X0\ - \X2\30B530C630F3\X0\',#1992);
#1991=FILL_AREA_STYLE_COLOUR('DGX_\X2\591689B3306E307F\X0\_frame',#1993);
#1992=COLOUR_RGB('\X2\92FC\X0\ - \X2\30B530C630F3\X0\',0.627450980392157,
0.627450980392157,0.627450980392157);
#1993=COLOUR_RGB('DGX_\X2\591689B3306E307F\X0\_frame',0.509803921568627,
0.541176470588235,0.580392156862745);
ENDSEC;
END-ISO-10303-21;
