ISO-10303-21;
HEADER;
FILE_DESCRIPTION(('FreeCAD Model'),'2;1');
FILE_NAME('Open CASCADE Shape Model','2026-09-06T11:53:47',('FreeCAD'),(
    'FreeCAD'),'Open CASCADE STEP processor 7.8','FreeCAD','Unknown');
FILE_SCHEMA(('AUTOMOTIVE_DESIGN { 1 0 10303 214 1 1 1 1 }'));
ENDSEC;
DATA;
#1 = APPLICATION_PROTOCOL_DEFINITION('international standard',
  'automotive_design',2000,#2);
#2 = APPLICATION_CONTEXT(
  'core data for automotive mechanical design processes');
#3 = SHAPE_DEFINITION_REPRESENTATION(#4,#10);
#4 = PRODUCT_DEFINITION_SHAPE('','',#5);
#5 = PRODUCT_DEFINITION('design','',#6,#9);
#6 = PRODUCT_DEFINITION_FORMATION('','',#7);
#7 = PRODUCT('Open CASCADE STEP translator 7.8 2',
  'Open CASCADE STEP translator 7.8 2','',(#8));
#8 = PRODUCT_CONTEXT('',#2,'mechanical');
#9 = PRODUCT_DEFINITION_CONTEXT('part definition',#2,'design');
#10 = ADVANCED_BREP_SHAPE_REPRESENTATION('',(#11,#15),#1946);
#11 = AXIS2_PLACEMENT_3D('',#12,#13,#14);
#12 = CARTESIAN_POINT('',(0.,0.,0.));
#13 = DIRECTION('',(0.,0.,1.));
#14 = DIRECTION('',(1.,0.,-0.));
#15 = MANIFOLD_SOLID_BREP('',#16);
#16 = CLOSED_SHELL('',(#17,#197,#228,#253,#278,#302,#326,#351,#376,#415,
    #468,#537,#561,#611,#664,#689,#714,#788,#812,#837,#862,#890,#1024,
    #1049,#1074,#1099,#1124,#1149,#1180,#1204,#1228,#1245,#1270,#1295,
    #1320,#1345,#1370,#1401,#1425,#1449,#1473,#1497,#1514,#1539,#1573,
    #1597,#1624,#1641,#1675,#1699,#1726,#1743,#1777,#1801,#1828,#1845,
    #1854,#1863,#1880,#1892,#1901,#1910,#1922,#1934));
#17 = ADVANCED_FACE('',(#18,#88,#122),#192,.F.);
#18 = FACE_BOUND('',#19,.F.);
#19 = EDGE_LOOP('',(#20,#30,#39,#47,#56,#64,#73,#81));
#20 = ORIENTED_EDGE('',*,*,#21,.F.);
#21 = EDGE_CURVE('',#22,#24,#26,.T.);
#22 = VERTEX_POINT('',#23);
#23 = CARTESIAN_POINT('',(-105.,61.,18.));
#24 = VERTEX_POINT('',#25);
#25 = CARTESIAN_POINT('',(-105.,207.,17.999999999999));
#26 = LINE('',#27,#28);
#27 = CARTESIAN_POINT('',(-105.,58.000000000001,18.));
#28 = VECTOR('',#29,1.);
#29 = DIRECTION('',(-1.998401444325E-15,1.,-5.107025913276E-15));
#30 = ORIENTED_EDGE('',*,*,#31,.T.);
#31 = EDGE_CURVE('',#22,#32,#34,.T.);
#32 = VERTEX_POINT('',#33);
#33 = CARTESIAN_POINT('',(-105.,58.,21.));
#34 = CIRCLE('',#35,3.);
#35 = AXIS2_PLACEMENT_3D('',#36,#37,#38);
#36 = CARTESIAN_POINT('',(-105.,61.000000000001,21.));
#37 = DIRECTION('',(-1.,-1.443289932013E-15,-4.662936703426E-15));
#38 = DIRECTION('',(1.443289932013E-15,-1.,4.551914400963E-15));
#39 = ORIENTED_EDGE('',*,*,#40,.F.);
#40 = EDGE_CURVE('',#41,#32,#43,.T.);
#41 = VERTEX_POINT('',#42);
#42 = CARTESIAN_POINT('',(-105.,58.,45.));
#43 = LINE('',#44,#45);
#44 = CARTESIAN_POINT('',(-105.,58.000000000001,48.));
#45 = VECTOR('',#46,1.);
#46 = DIRECTION('',(5.107025913276E-15,8.881784197001E-16,-1.));
#47 = ORIENTED_EDGE('',*,*,#48,.F.);
#48 = EDGE_CURVE('',#49,#41,#51,.T.);
#49 = VERTEX_POINT('',#50);
#50 = CARTESIAN_POINT('',(-105.,61.,48.));
#51 = CIRCLE('',#52,3.);
#52 = AXIS2_PLACEMENT_3D('',#53,#54,#55);
#53 = CARTESIAN_POINT('',(-105.,61.,45.));
#54 = DIRECTION('',(1.,1.443289932013E-15,4.662936703426E-15));
#55 = DIRECTION('',(1.443289932013E-15,-1.,4.551914400963E-15));
#56 = ORIENTED_EDGE('',*,*,#57,.F.);
#57 = EDGE_CURVE('',#58,#49,#60,.T.);
#58 = VERTEX_POINT('',#59);
#59 = CARTESIAN_POINT('',(-105.,207.,47.999999999999));
#60 = LINE('',#61,#62);
#61 = CARTESIAN_POINT('',(-105.,210.,47.999999999999));
#62 = VECTOR('',#63,1.);
#63 = DIRECTION('',(1.998401444325E-15,-1.,5.107025913276E-15));
#64 = ORIENTED_EDGE('',*,*,#65,.F.);
#65 = EDGE_CURVE('',#66,#58,#68,.T.);
#66 = VERTEX_POINT('',#67);
#67 = CARTESIAN_POINT('',(-105.,210.,44.999999999999));
#68 = CIRCLE('',#69,3.);
#69 = AXIS2_PLACEMENT_3D('',#70,#71,#72);
#70 = CARTESIAN_POINT('',(-105.,207.,44.999999999999));
#71 = DIRECTION('',(1.,1.443289932013E-15,4.662936703426E-15));
#72 = DIRECTION('',(1.443289932013E-15,-1.,4.551914400963E-15));
#73 = ORIENTED_EDGE('',*,*,#74,.F.);
#74 = EDGE_CURVE('',#75,#66,#77,.T.);
#75 = VERTEX_POINT('',#76);
#76 = CARTESIAN_POINT('',(-105.,210.,20.999999999999));
#77 = LINE('',#78,#79);
#78 = CARTESIAN_POINT('',(-105.,210.,17.999999999999));
#79 = VECTOR('',#80,1.);
#80 = DIRECTION('',(-5.107025913276E-15,-8.881784197001E-16,1.));
#81 = ORIENTED_EDGE('',*,*,#82,.F.);
#82 = EDGE_CURVE('',#24,#75,#83,.T.);
#83 = CIRCLE('',#84,3.);
#84 = AXIS2_PLACEMENT_3D('',#85,#86,#87);
#85 = CARTESIAN_POINT('',(-105.,207.,20.999999999999));
#86 = DIRECTION('',(1.,1.443289932013E-15,4.662936703426E-15));
#87 = DIRECTION('',(1.443289932013E-15,-1.,4.551914400963E-15));
#88 = FACE_BOUND('',#89,.F.);
#89 = EDGE_LOOP('',(#90,#100,#108,#116));
#90 = ORIENTED_EDGE('',*,*,#91,.T.);
#91 = EDGE_CURVE('',#92,#94,#96,.T.);
#92 = VERTEX_POINT('',#93);
#93 = CARTESIAN_POINT('',(-105.,38.,-1.42108547152E-13));
#94 = VERTEX_POINT('',#95);
#95 = CARTESIAN_POINT('',(-105.,230.,-7.958078640513E-13));
#96 = LINE('',#97,#98);
#97 = CARTESIAN_POINT('',(-105.,38.,1.798561299893E-14));
#98 = VECTOR('',#99,1.);
#99 = DIRECTION('',(-2.22044604925E-15,1.,-5.662137425588E-15));
#100 = ORIENTED_EDGE('',*,*,#101,.T.);
#101 = EDGE_CURVE('',#94,#102,#104,.T.);
#102 = VERTEX_POINT('',#103);
#103 = CARTESIAN_POINT('',(-105.,230.,170.));
#104 = LINE('',#105,#106);
#105 = CARTESIAN_POINT('',(-105.,230.,-1.069144772714E-12));
#106 = VECTOR('',#107,1.);
#107 = DIRECTION('',(-5.662137425588E-15,-9.992007221626E-16,1.));
#108 = ORIENTED_EDGE('',*,*,#109,.T.);
#109 = EDGE_CURVE('',#102,#110,#112,.T.);
#110 = VERTEX_POINT('',#111);
#111 = CARTESIAN_POINT('',(-105.,38.,170.));
#112 = LINE('',#113,#114);
#113 = CARTESIAN_POINT('',(-105.,230.,170.));
#114 = VECTOR('',#115,1.);
#115 = DIRECTION('',(2.22044604925E-15,-1.,5.662137425588E-15));
#116 = ORIENTED_EDGE('',*,*,#117,.T.);
#117 = EDGE_CURVE('',#110,#92,#118,.T.);
#118 = LINE('',#119,#120);
#119 = CARTESIAN_POINT('',(-105.,38.,170.));
#120 = VECTOR('',#121,1.);
#121 = DIRECTION('',(5.662137425588E-15,9.992007221626E-16,-1.));
#122 = FACE_BOUND('',#123,.F.);
#123 = EDGE_LOOP('',(#124,#134,#143,#151,#160,#168,#177,#185));
#124 = ORIENTED_EDGE('',*,*,#125,.F.);
#125 = EDGE_CURVE('',#126,#128,#130,.T.);
#126 = VERTEX_POINT('',#127);
#127 = CARTESIAN_POINT('',(-105.,61.,72.));
#128 = VERTEX_POINT('',#129);
#129 = CARTESIAN_POINT('',(-105.,207.,71.999999999999));
#130 = LINE('',#131,#132);
#131 = CARTESIAN_POINT('',(-105.,58.,72.));
#132 = VECTOR('',#133,1.);
#133 = DIRECTION('',(-1.998401444325E-15,1.,-5.107025913276E-15));
#134 = ORIENTED_EDGE('',*,*,#135,.T.);
#135 = EDGE_CURVE('',#126,#136,#138,.T.);
#136 = VERTEX_POINT('',#137);
#137 = CARTESIAN_POINT('',(-105.,58.,75.));
#138 = CIRCLE('',#139,3.);
#139 = AXIS2_PLACEMENT_3D('',#140,#141,#142);
#140 = CARTESIAN_POINT('',(-105.,61.,75.));
#141 = DIRECTION('',(-1.,-1.443289932013E-15,-4.662936703426E-15));
#142 = DIRECTION('',(1.443289932013E-15,-1.,4.551914400963E-15));
#143 = ORIENTED_EDGE('',*,*,#144,.F.);
#144 = EDGE_CURVE('',#145,#136,#147,.T.);
#145 = VERTEX_POINT('',#146);
#146 = CARTESIAN_POINT('',(-105.,58.,149.));
#147 = LINE('',#148,#149);
#148 = CARTESIAN_POINT('',(-105.,58.,152.));
#149 = VECTOR('',#150,1.);
#150 = DIRECTION('',(5.107025913276E-15,8.881784197001E-16,-1.));
#151 = ORIENTED_EDGE('',*,*,#152,.F.);
#152 = EDGE_CURVE('',#153,#145,#155,.T.);
#153 = VERTEX_POINT('',#154);
#154 = CARTESIAN_POINT('',(-105.,61.,152.));
#155 = CIRCLE('',#156,3.);
#156 = AXIS2_PLACEMENT_3D('',#157,#158,#159);
#157 = CARTESIAN_POINT('',(-105.,61.,149.));
#158 = DIRECTION('',(1.,1.443289932013E-15,4.662936703426E-15));
#159 = DIRECTION('',(1.443289932013E-15,-1.,4.551914400963E-15));
#160 = ORIENTED_EDGE('',*,*,#161,.F.);
#161 = EDGE_CURVE('',#162,#153,#164,.T.);
#162 = VERTEX_POINT('',#163);
#163 = CARTESIAN_POINT('',(-105.,207.,152.));
#164 = LINE('',#165,#166);
#165 = CARTESIAN_POINT('',(-105.,210.,152.));
#166 = VECTOR('',#167,1.);
#167 = DIRECTION('',(1.998401444325E-15,-1.,5.107025913276E-15));
#168 = ORIENTED_EDGE('',*,*,#169,.F.);
#169 = EDGE_CURVE('',#170,#162,#172,.T.);
#170 = VERTEX_POINT('',#171);
#171 = CARTESIAN_POINT('',(-105.,210.,149.));
#172 = CIRCLE('',#173,3.);
#173 = AXIS2_PLACEMENT_3D('',#174,#175,#176);
#174 = CARTESIAN_POINT('',(-105.,207.,149.));
#175 = DIRECTION('',(1.,1.443289932013E-15,4.662936703426E-15));
#176 = DIRECTION('',(1.443289932013E-15,-1.,4.551914400963E-15));
#177 = ORIENTED_EDGE('',*,*,#178,.F.);
#178 = EDGE_CURVE('',#179,#170,#181,.T.);
#179 = VERTEX_POINT('',#180);
#180 = CARTESIAN_POINT('',(-105.,210.,74.999999999999));
#181 = LINE('',#182,#183);
#182 = CARTESIAN_POINT('',(-105.,210.,72.));
#183 = VECTOR('',#184,1.);
#184 = DIRECTION('',(-5.107025913276E-15,-8.881784197001E-16,1.));
#185 = ORIENTED_EDGE('',*,*,#186,.F.);
#186 = EDGE_CURVE('',#128,#179,#187,.T.);
#187 = CIRCLE('',#188,3.);
#188 = AXIS2_PLACEMENT_3D('',#189,#190,#191);
#189 = CARTESIAN_POINT('',(-105.,207.,75.));
#190 = DIRECTION('',(1.,1.443289932013E-15,4.662936703426E-15));
#191 = DIRECTION('',(1.443289932013E-15,-1.,4.551914400963E-15));
#192 = PLANE('',#193);
#193 = AXIS2_PLACEMENT_3D('',#194,#195,#196);
#194 = CARTESIAN_POINT('',(-105.,134.,85.));
#195 = DIRECTION('',(1.,-4.440892098501E-15,-1.110223024625E-15));
#196 = DIRECTION('',(-5.551115123126E-15,-1.110223024625E-15,1.));
#197 = ADVANCED_FACE('',(#198),#223,.T.);
#198 = FACE_BOUND('',#199,.T.);
#199 = EDGE_LOOP('',(#200,#201,#209,#217));
#200 = ORIENTED_EDGE('',*,*,#21,.F.);
#201 = ORIENTED_EDGE('',*,*,#202,.T.);
#202 = EDGE_CURVE('',#22,#203,#205,.T.);
#203 = VERTEX_POINT('',#204);
#204 = CARTESIAN_POINT('',(-93.,61.,18.));
#205 = LINE('',#206,#207);
#206 = CARTESIAN_POINT('',(-105.,61.000000000001,18.));
#207 = VECTOR('',#208,1.);
#208 = DIRECTION('',(1.,-3.885780586188E-15,-6.661338147751E-16));
#209 = ORIENTED_EDGE('',*,*,#210,.F.);
#210 = EDGE_CURVE('',#211,#203,#213,.T.);
#211 = VERTEX_POINT('',#212);
#212 = CARTESIAN_POINT('',(-93.,207.,17.999999999999));
#213 = LINE('',#214,#215);
#214 = CARTESIAN_POINT('',(-93.,96.000000000001,18.));
#215 = VECTOR('',#216,1.);
#216 = DIRECTION('',(1.33226762955E-15,-1.,4.884981308351E-15));
#217 = ORIENTED_EDGE('',*,*,#218,.F.);
#218 = EDGE_CURVE('',#24,#211,#219,.T.);
#219 = LINE('',#220,#221);
#220 = CARTESIAN_POINT('',(-105.,207.,17.999999999999));
#221 = VECTOR('',#222,1.);
#222 = DIRECTION('',(1.,-3.885780586188E-15,-6.661338147751E-16));
#223 = PLANE('',#224);
#224 = AXIS2_PLACEMENT_3D('',#225,#226,#227);
#225 = CARTESIAN_POINT('',(-105.,58.,18.));
#226 = DIRECTION('',(-4.662936703426E-15,-4.440892098501E-16,1.));
#227 = DIRECTION('',(-1.7763568394E-15,1.,-4.884981308351E-15));
#228 = ADVANCED_FACE('',(#229),#248,.F.);
#229 = FACE_BOUND('',#230,.T.);
#230 = EDGE_LOOP('',(#231,#232,#240,#247));
#231 = ORIENTED_EDGE('',*,*,#31,.T.);
#232 = ORIENTED_EDGE('',*,*,#233,.T.);
#233 = EDGE_CURVE('',#32,#234,#236,.T.);
#234 = VERTEX_POINT('',#235);
#235 = CARTESIAN_POINT('',(-93.,58.,21.));
#236 = LINE('',#237,#238);
#237 = CARTESIAN_POINT('',(-105.,58.,21.));
#238 = VECTOR('',#239,1.);
#239 = DIRECTION('',(1.,-3.885780586188E-15,-6.661338147751E-16));
#240 = ORIENTED_EDGE('',*,*,#241,.F.);
#241 = EDGE_CURVE('',#203,#234,#242,.T.);
#242 = CIRCLE('',#243,3.);
#243 = AXIS2_PLACEMENT_3D('',#244,#245,#246);
#244 = CARTESIAN_POINT('',(-93.,61.,21.));
#245 = DIRECTION('',(-1.,-1.443289932013E-15,-4.662936703426E-15));
#246 = DIRECTION('',(1.443289932013E-15,-1.,4.551914400963E-15));
#247 = ORIENTED_EDGE('',*,*,#202,.F.);
#248 = CYLINDRICAL_SURFACE('',#249,3.);
#249 = AXIS2_PLACEMENT_3D('',#250,#251,#252);
#250 = CARTESIAN_POINT('',(-105.,61.000000000001,21.));
#251 = DIRECTION('',(1.,-3.885780586188E-15,-6.661338147751E-16));
#252 = DIRECTION('',(4.662936703426E-15,4.440892098501E-16,-1.));
#253 = ADVANCED_FACE('',(#254),#273,.F.);
#254 = FACE_BOUND('',#255,.F.);
#255 = EDGE_LOOP('',(#256,#257,#265,#272));
#256 = ORIENTED_EDGE('',*,*,#82,.T.);
#257 = ORIENTED_EDGE('',*,*,#258,.T.);
#258 = EDGE_CURVE('',#75,#259,#261,.T.);
#259 = VERTEX_POINT('',#260);
#260 = CARTESIAN_POINT('',(-93.,210.,20.999999999999));
#261 = LINE('',#262,#263);
#262 = CARTESIAN_POINT('',(-105.,210.,20.999999999999));
#263 = VECTOR('',#264,1.);
#264 = DIRECTION('',(1.,-3.885780586188E-15,-6.661338147751E-16));
#265 = ORIENTED_EDGE('',*,*,#266,.F.);
#266 = EDGE_CURVE('',#211,#259,#267,.T.);
#267 = CIRCLE('',#268,3.);
#268 = AXIS2_PLACEMENT_3D('',#269,#270,#271);
#269 = CARTESIAN_POINT('',(-93.,207.,20.999999999999));
#270 = DIRECTION('',(1.,1.443289932013E-15,4.662936703426E-15));
#271 = DIRECTION('',(1.443289932013E-15,-1.,4.551914400963E-15));
#272 = ORIENTED_EDGE('',*,*,#218,.F.);
#273 = CYLINDRICAL_SURFACE('',#274,3.);
#274 = AXIS2_PLACEMENT_3D('',#275,#276,#277);
#275 = CARTESIAN_POINT('',(-105.,207.,20.999999999999));
#276 = DIRECTION('',(1.,-3.885780586188E-15,-6.661338147751E-16));
#277 = DIRECTION('',(4.662936703426E-15,4.440892098501E-16,-1.));
#278 = ADVANCED_FACE('',(#279),#297,.T.);
#279 = FACE_BOUND('',#280,.T.);
#280 = EDGE_LOOP('',(#281,#282,#290,#296));
#281 = ORIENTED_EDGE('',*,*,#40,.F.);
#282 = ORIENTED_EDGE('',*,*,#283,.T.);
#283 = EDGE_CURVE('',#41,#284,#286,.T.);
#284 = VERTEX_POINT('',#285);
#285 = CARTESIAN_POINT('',(-93.,58.,45.));
#286 = LINE('',#287,#288);
#287 = CARTESIAN_POINT('',(-105.,58.,45.));
#288 = VECTOR('',#289,1.);
#289 = DIRECTION('',(1.,-3.885780586188E-15,-6.661338147751E-16));
#290 = ORIENTED_EDGE('',*,*,#291,.F.);
#291 = EDGE_CURVE('',#234,#284,#292,.T.);
#292 = LINE('',#293,#294);
#293 = CARTESIAN_POINT('',(-93.,58.,66.5));
#294 = VECTOR('',#295,1.);
#295 = DIRECTION('',(-4.662936703426E-15,-6.661338147751E-16,1.));
#296 = ORIENTED_EDGE('',*,*,#233,.F.);
#297 = PLANE('',#298);
#298 = AXIS2_PLACEMENT_3D('',#299,#300,#301);
#299 = CARTESIAN_POINT('',(-105.,58.,48.));
#300 = DIRECTION('',(-1.443289932013E-15,1.,-4.662936703426E-15));
#301 = DIRECTION('',(4.884981308351E-15,6.661338147751E-16,-1.));
#302 = ADVANCED_FACE('',(#303),#321,.T.);
#303 = FACE_BOUND('',#304,.T.);
#304 = EDGE_LOOP('',(#305,#306,#307,#315));
#305 = ORIENTED_EDGE('',*,*,#74,.F.);
#306 = ORIENTED_EDGE('',*,*,#258,.T.);
#307 = ORIENTED_EDGE('',*,*,#308,.F.);
#308 = EDGE_CURVE('',#309,#259,#311,.T.);
#309 = VERTEX_POINT('',#310);
#310 = CARTESIAN_POINT('',(-93.,210.,44.999999999999));
#311 = LINE('',#312,#313);
#312 = CARTESIAN_POINT('',(-93.,210.,51.499999999999));
#313 = VECTOR('',#314,1.);
#314 = DIRECTION('',(4.662936703426E-15,6.661338147751E-16,-1.));
#315 = ORIENTED_EDGE('',*,*,#316,.F.);
#316 = EDGE_CURVE('',#66,#309,#317,.T.);
#317 = LINE('',#318,#319);
#318 = CARTESIAN_POINT('',(-105.,210.,44.999999999999));
#319 = VECTOR('',#320,1.);
#320 = DIRECTION('',(1.,-3.885780586188E-15,-6.661338147751E-16));
#321 = PLANE('',#322);
#322 = AXIS2_PLACEMENT_3D('',#323,#324,#325);
#323 = CARTESIAN_POINT('',(-105.,210.,17.999999999999));
#324 = DIRECTION('',(1.443289932013E-15,-1.,4.662936703426E-15));
#325 = DIRECTION('',(-4.884981308351E-15,-6.661338147751E-16,1.));
#326 = ADVANCED_FACE('',(#327),#346,.F.);
#327 = FACE_BOUND('',#328,.F.);
#328 = EDGE_LOOP('',(#329,#330,#331,#340));
#329 = ORIENTED_EDGE('',*,*,#48,.T.);
#330 = ORIENTED_EDGE('',*,*,#283,.T.);
#331 = ORIENTED_EDGE('',*,*,#332,.F.);
#332 = EDGE_CURVE('',#333,#284,#335,.T.);
#333 = VERTEX_POINT('',#334);
#334 = CARTESIAN_POINT('',(-93.,61.,48.));
#335 = CIRCLE('',#336,3.);
#336 = AXIS2_PLACEMENT_3D('',#337,#338,#339);
#337 = CARTESIAN_POINT('',(-93.,61.,45.));
#338 = DIRECTION('',(1.,1.443289932013E-15,4.662936703426E-15));
#339 = DIRECTION('',(1.443289932013E-15,-1.,4.551914400963E-15));
#340 = ORIENTED_EDGE('',*,*,#341,.F.);
#341 = EDGE_CURVE('',#49,#333,#342,.T.);
#342 = LINE('',#343,#344);
#343 = CARTESIAN_POINT('',(-105.,61.,48.));
#344 = VECTOR('',#345,1.);
#345 = DIRECTION('',(1.,-3.885780586188E-15,-6.661338147751E-16));
#346 = CYLINDRICAL_SURFACE('',#347,3.);
#347 = AXIS2_PLACEMENT_3D('',#348,#349,#350);
#348 = CARTESIAN_POINT('',(-105.,61.,45.));
#349 = DIRECTION('',(1.,-3.885780586188E-15,-6.661338147751E-16));
#350 = DIRECTION('',(-4.662936703426E-15,-4.440892098501E-16,1.));
#351 = ADVANCED_FACE('',(#352),#371,.F.);
#352 = FACE_BOUND('',#353,.F.);
#353 = EDGE_LOOP('',(#354,#355,#363,#370));
#354 = ORIENTED_EDGE('',*,*,#65,.T.);
#355 = ORIENTED_EDGE('',*,*,#356,.T.);
#356 = EDGE_CURVE('',#58,#357,#359,.T.);
#357 = VERTEX_POINT('',#358);
#358 = CARTESIAN_POINT('',(-93.,207.,47.999999999999));
#359 = LINE('',#360,#361);
#360 = CARTESIAN_POINT('',(-105.,207.,47.999999999999));
#361 = VECTOR('',#362,1.);
#362 = DIRECTION('',(1.,-3.885780586188E-15,-6.661338147751E-16));
#363 = ORIENTED_EDGE('',*,*,#364,.F.);
#364 = EDGE_CURVE('',#309,#357,#365,.T.);
#365 = CIRCLE('',#366,3.);
#366 = AXIS2_PLACEMENT_3D('',#367,#368,#369);
#367 = CARTESIAN_POINT('',(-93.,207.,44.999999999999));
#368 = DIRECTION('',(1.,1.443289932013E-15,4.662936703426E-15));
#369 = DIRECTION('',(1.443289932013E-15,-1.,4.551914400963E-15));
#370 = ORIENTED_EDGE('',*,*,#316,.F.);
#371 = CYLINDRICAL_SURFACE('',#372,3.);
#372 = AXIS2_PLACEMENT_3D('',#373,#374,#375);
#373 = CARTESIAN_POINT('',(-105.,207.,44.999999999999));
#374 = DIRECTION('',(1.,-3.885780586188E-15,-6.661338147751E-16));
#375 = DIRECTION('',(-1.443289932013E-15,1.,-4.662936703426E-15));
#376 = ADVANCED_FACE('',(#377,#388,#399),#410,.T.);
#377 = FACE_BOUND('',#378,.T.);
#378 = EDGE_LOOP('',(#379,#380,#381,#387));
#379 = ORIENTED_EDGE('',*,*,#57,.F.);
#380 = ORIENTED_EDGE('',*,*,#356,.T.);
#381 = ORIENTED_EDGE('',*,*,#382,.F.);
#382 = EDGE_CURVE('',#333,#357,#383,.T.);
#383 = LINE('',#384,#385);
#384 = CARTESIAN_POINT('',(-93.,172.,48.));
#385 = VECTOR('',#386,1.);
#386 = DIRECTION('',(-1.33226762955E-15,1.,-4.884981308351E-15));
#387 = ORIENTED_EDGE('',*,*,#341,.F.);
#388 = FACE_BOUND('',#389,.T.);
#389 = EDGE_LOOP('',(#390));
#390 = ORIENTED_EDGE('',*,*,#391,.F.);
#391 = EDGE_CURVE('',#392,#392,#394,.T.);
#392 = VERTEX_POINT('',#393);
#393 = CARTESIAN_POINT('',(-94.7,82.,48.));
#394 = CIRCLE('',#395,2.3);
#395 = AXIS2_PLACEMENT_3D('',#396,#397,#398);
#396 = CARTESIAN_POINT('',(-97.,82.,48.));
#397 = DIRECTION('',(-5.551115123126E-16,-3.663735981263E-15,-1.));
#398 = DIRECTION('',(1.,-2.886579864025E-15,-5.551115123126E-16));
#399 = FACE_BOUND('',#400,.T.);
#400 = EDGE_LOOP('',(#401));
#401 = ORIENTED_EDGE('',*,*,#402,.F.);
#402 = EDGE_CURVE('',#403,#403,#405,.T.);
#403 = VERTEX_POINT('',#404);
#404 = CARTESIAN_POINT('',(-94.7,198.,47.999999999999));
#405 = CIRCLE('',#406,2.3);
#406 = AXIS2_PLACEMENT_3D('',#407,#408,#409);
#407 = CARTESIAN_POINT('',(-97.,198.,47.999999999999));
#408 = DIRECTION('',(-5.551115123126E-16,-3.663735981263E-15,-1.));
#409 = DIRECTION('',(1.,-2.886579864025E-15,-5.551115123126E-16));
#410 = PLANE('',#411);
#411 = AXIS2_PLACEMENT_3D('',#412,#413,#414);
#412 = CARTESIAN_POINT('',(-105.,210.,47.999999999999));
#413 = DIRECTION('',(4.662936703426E-15,4.440892098501E-16,-1.));
#414 = DIRECTION('',(1.7763568394E-15,-1.,4.884981308351E-15));
#415 = ADVANCED_FACE('',(#416,#441,#452),#463,.F.);
#416 = FACE_BOUND('',#417,.F.);
#417 = EDGE_LOOP('',(#418,#426,#434,#440));
#418 = ORIENTED_EDGE('',*,*,#419,.T.);
#419 = EDGE_CURVE('',#92,#420,#422,.T.);
#420 = VERTEX_POINT('',#421);
#421 = CARTESIAN_POINT('',(-93.,38.,-1.136868377216E-13));
#422 = LINE('',#423,#424);
#423 = CARTESIAN_POINT('',(-105.,38.,3.10862446895E-15));
#424 = VECTOR('',#425,1.);
#425 = DIRECTION('',(1.,-4.329869796038E-15,-7.771561172376E-16));
#426 = ORIENTED_EDGE('',*,*,#427,.T.);
#427 = EDGE_CURVE('',#420,#428,#430,.T.);
#428 = VERTEX_POINT('',#429);
#429 = CARTESIAN_POINT('',(-93.,230.,-7.673861546209E-13));
#430 = LINE('',#431,#432);
#431 = CARTESIAN_POINT('',(-93.,38.,-3.37507799486E-14));
#432 = VECTOR('',#433,1.);
#433 = DIRECTION('',(-2.22044604925E-15,1.,-5.662137425588E-15));
#434 = ORIENTED_EDGE('',*,*,#435,.F.);
#435 = EDGE_CURVE('',#94,#428,#436,.T.);
#436 = LINE('',#437,#438);
#437 = CARTESIAN_POINT('',(-105.,230.,-1.041389197098E-12));
#438 = VECTOR('',#439,1.);
#439 = DIRECTION('',(1.,-4.329869796038E-15,-7.771561172376E-16));
#440 = ORIENTED_EDGE('',*,*,#91,.F.);
#441 = FACE_BOUND('',#442,.F.);
#442 = EDGE_LOOP('',(#443));
#443 = ORIENTED_EDGE('',*,*,#444,.F.);
#444 = EDGE_CURVE('',#445,#445,#447,.T.);
#445 = VERTEX_POINT('',#446);
#446 = CARTESIAN_POINT('',(-95.7,46.,-7.105427357601E-14));
#447 = CIRCLE('',#448,3.3);
#448 = AXIS2_PLACEMENT_3D('',#449,#450,#451);
#449 = CARTESIAN_POINT('',(-99.,46.,-2.415845301584E-13));
#450 = DIRECTION('',(5.551115123126E-16,2.775557561563E-15,1.));
#451 = DIRECTION('',(1.,-2.22044604925E-15,-5.551115123126E-16));
#452 = FACE_BOUND('',#453,.F.);
#453 = EDGE_LOOP('',(#454));
#454 = ORIENTED_EDGE('',*,*,#455,.F.);
#455 = EDGE_CURVE('',#456,#456,#458,.T.);
#456 = VERTEX_POINT('',#457);
#457 = CARTESIAN_POINT('',(-95.7,222.,-3.552713678801E-13));
#458 = CIRCLE('',#459,3.3);
#459 = AXIS2_PLACEMENT_3D('',#460,#461,#462);
#460 = CARTESIAN_POINT('',(-99.,222.,-7.247535904753E-13));
#461 = DIRECTION('',(5.551115123126E-16,2.775557561563E-15,1.));
#462 = DIRECTION('',(1.,-2.22044604925E-15,-5.551115123126E-16));
#463 = PLANE('',#464);
#464 = AXIS2_PLACEMENT_3D('',#465,#466,#467);
#465 = CARTESIAN_POINT('',(-105.,38.,3.10862446895E-15));
#466 = DIRECTION('',(-5.218048215738E-15,-5.551115123126E-16,1.));
#467 = DIRECTION('',(-1.998401444325E-15,1.,-5.440092820663E-15));
#468 = ADVANCED_FACE('',(#469,#487,#498),#532,.F.);
#469 = FACE_BOUND('',#470,.F.);
#470 = EDGE_LOOP('',(#471,#479,#485,#486));
#471 = ORIENTED_EDGE('',*,*,#472,.T.);
#472 = EDGE_CURVE('',#110,#473,#475,.T.);
#473 = VERTEX_POINT('',#474);
#474 = CARTESIAN_POINT('',(-93.,38.,170.));
#475 = LINE('',#476,#477);
#476 = CARTESIAN_POINT('',(-105.,38.,170.));
#477 = VECTOR('',#478,1.);
#478 = DIRECTION('',(1.,-4.329869796038E-15,-7.771561172376E-16));
#479 = ORIENTED_EDGE('',*,*,#480,.T.);
#480 = EDGE_CURVE('',#473,#420,#481,.T.);
#481 = LINE('',#482,#483);
#482 = CARTESIAN_POINT('',(-93.,38.,170.));
#483 = VECTOR('',#484,1.);
#484 = DIRECTION('',(5.662137425588E-15,9.992007221626E-16,-1.));
#485 = ORIENTED_EDGE('',*,*,#419,.F.);
#486 = ORIENTED_EDGE('',*,*,#117,.F.);
#487 = FACE_BOUND('',#488,.F.);
#488 = EDGE_LOOP('',(#489));
#489 = ORIENTED_EDGE('',*,*,#490,.T.);
#490 = EDGE_CURVE('',#491,#491,#493,.T.);
#491 = VERTEX_POINT('',#492);
#492 = CARTESIAN_POINT('',(-96.75,38.,145.));
#493 = CIRCLE('',#494,2.25);
#494 = AXIS2_PLACEMENT_3D('',#495,#496,#497);
#495 = CARTESIAN_POINT('',(-99.,38.,145.));
#496 = DIRECTION('',(-8.881784197001E-16,-1.,-4.437342591868E-31));
#497 = DIRECTION('',(1.,-8.881784197001E-16,-2.22044604925E-16));
#498 = FACE_BOUND('',#499,.F.);
#499 = EDGE_LOOP('',(#500,#510,#518,#526));
#500 = ORIENTED_EDGE('',*,*,#501,.T.);
#501 = EDGE_CURVE('',#502,#504,#506,.T.);
#502 = VERTEX_POINT('',#503);
#503 = CARTESIAN_POINT('',(-103.3,38.,28.3));
#504 = VERTEX_POINT('',#505);
#505 = CARTESIAN_POINT('',(-103.3,38.,19.7));
#506 = LINE('',#507,#508);
#507 = CARTESIAN_POINT('',(-103.3,38.,28.3));
#508 = VECTOR('',#509,1.);
#509 = DIRECTION('',(1.665334536938E-15,1.110223024625E-16,-1.));
#510 = ORIENTED_EDGE('',*,*,#511,.T.);
#511 = EDGE_CURVE('',#504,#512,#514,.T.);
#512 = VERTEX_POINT('',#513);
#513 = CARTESIAN_POINT('',(-94.7,38.,19.7));
#514 = LINE('',#515,#516);
#515 = CARTESIAN_POINT('',(-103.3,38.,19.7));
#516 = VECTOR('',#517,1.);
#517 = DIRECTION('',(1.,-1.33226762955E-15,-3.330669073875E-16));
#518 = ORIENTED_EDGE('',*,*,#519,.T.);
#519 = EDGE_CURVE('',#512,#520,#522,.T.);
#520 = VERTEX_POINT('',#521);
#521 = CARTESIAN_POINT('',(-94.7,38.,28.3));
#522 = LINE('',#523,#524);
#523 = CARTESIAN_POINT('',(-94.7,38.,19.7));
#524 = VECTOR('',#525,1.);
#525 = DIRECTION('',(-1.665334536938E-15,-1.110223024625E-16,1.));
#526 = ORIENTED_EDGE('',*,*,#527,.T.);
#527 = EDGE_CURVE('',#520,#502,#528,.T.);
#528 = LINE('',#529,#530);
#529 = CARTESIAN_POINT('',(-94.7,38.,28.3));
#530 = VECTOR('',#531,1.);
#531 = DIRECTION('',(-1.,1.33226762955E-15,3.330669073875E-16));
#532 = PLANE('',#533);
#533 = AXIS2_PLACEMENT_3D('',#534,#535,#536);
#534 = CARTESIAN_POINT('',(-105.,38.,170.));
#535 = DIRECTION('',(-1.665334536938E-15,1.,-5.218048215738E-15));
#536 = DIRECTION('',(5.440092820663E-15,7.771561172376E-16,-1.));
#537 = ADVANCED_FACE('',(#538),#556,.F.);
#538 = FACE_BOUND('',#539,.F.);
#539 = EDGE_LOOP('',(#540,#541,#549,#555));
#540 = ORIENTED_EDGE('',*,*,#435,.T.);
#541 = ORIENTED_EDGE('',*,*,#542,.T.);
#542 = EDGE_CURVE('',#428,#543,#545,.T.);
#543 = VERTEX_POINT('',#544);
#544 = CARTESIAN_POINT('',(-93.,230.,170.));
#545 = LINE('',#546,#547);
#546 = CARTESIAN_POINT('',(-93.,230.,-1.120881165662E-12));
#547 = VECTOR('',#548,1.);
#548 = DIRECTION('',(-5.662137425588E-15,-9.992007221626E-16,1.));
#549 = ORIENTED_EDGE('',*,*,#550,.F.);
#550 = EDGE_CURVE('',#102,#543,#551,.T.);
#551 = LINE('',#552,#553);
#552 = CARTESIAN_POINT('',(-105.,230.,170.));
#553 = VECTOR('',#554,1.);
#554 = DIRECTION('',(1.,-4.329869796038E-15,-7.771561172376E-16));
#555 = ORIENTED_EDGE('',*,*,#101,.F.);
#556 = PLANE('',#557);
#557 = AXIS2_PLACEMENT_3D('',#558,#559,#560);
#558 = CARTESIAN_POINT('',(-105.,230.,-1.041389197098E-12));
#559 = DIRECTION('',(1.665334536938E-15,-1.,5.218048215738E-15));
#560 = DIRECTION('',(-5.440092820663E-15,-7.771561172376E-16,1.));
#561 = ADVANCED_FACE('',(#562,#573,#584,#595),#606,.F.);
#562 = FACE_BOUND('',#563,.F.);
#563 = EDGE_LOOP('',(#564,#565,#571,#572));
#564 = ORIENTED_EDGE('',*,*,#550,.T.);
#565 = ORIENTED_EDGE('',*,*,#566,.T.);
#566 = EDGE_CURVE('',#543,#473,#567,.T.);
#567 = LINE('',#568,#569);
#568 = CARTESIAN_POINT('',(-93.,230.,170.));
#569 = VECTOR('',#570,1.);
#570 = DIRECTION('',(2.22044604925E-15,-1.,5.662137425588E-15));
#571 = ORIENTED_EDGE('',*,*,#472,.F.);
#572 = ORIENTED_EDGE('',*,*,#109,.F.);
#573 = FACE_BOUND('',#574,.F.);
#574 = EDGE_LOOP('',(#575));
#575 = ORIENTED_EDGE('',*,*,#576,.F.);
#576 = EDGE_CURVE('',#577,#577,#579,.T.);
#577 = VERTEX_POINT('',#578);
#578 = CARTESIAN_POINT('',(-94.7,180.,170.));
#579 = CIRCLE('',#580,2.3);
#580 = AXIS2_PLACEMENT_3D('',#581,#582,#583);
#581 = CARTESIAN_POINT('',(-97.,180.,170.));
#582 = DIRECTION('',(-4.440892098501E-16,-3.10862446895E-15,-1.));
#583 = DIRECTION('',(1.,-2.442490654175E-15,-4.440892098501E-16));
#584 = FACE_BOUND('',#585,.F.);
#585 = EDGE_LOOP('',(#586));
#586 = ORIENTED_EDGE('',*,*,#587,.T.);
#587 = EDGE_CURVE('',#588,#588,#590,.T.);
#588 = VERTEX_POINT('',#589);
#589 = CARTESIAN_POINT('',(-95.7,222.,170.));
#590 = CIRCLE('',#591,3.3);
#591 = AXIS2_PLACEMENT_3D('',#592,#593,#594);
#592 = CARTESIAN_POINT('',(-99.,222.,170.));
#593 = DIRECTION('',(4.440892098501E-16,2.22044604925E-15,1.));
#594 = DIRECTION('',(1.,-1.7763568394E-15,-4.440892098501E-16));
#595 = FACE_BOUND('',#596,.F.);
#596 = EDGE_LOOP('',(#597));
#597 = ORIENTED_EDGE('',*,*,#598,.T.);
#598 = EDGE_CURVE('',#599,#599,#601,.T.);
#599 = VERTEX_POINT('',#600);
#600 = CARTESIAN_POINT('',(-95.7,46.,170.));
#601 = CIRCLE('',#602,3.3);
#602 = AXIS2_PLACEMENT_3D('',#603,#604,#605);
#603 = CARTESIAN_POINT('',(-99.,46.,170.));
#604 = DIRECTION('',(4.440892098501E-16,2.22044604925E-15,1.));
#605 = DIRECTION('',(1.,-1.7763568394E-15,-4.440892098501E-16));
#606 = PLANE('',#607);
#607 = AXIS2_PLACEMENT_3D('',#608,#609,#610);
#608 = CARTESIAN_POINT('',(-105.,230.,170.));
#609 = DIRECTION('',(5.218048215738E-15,5.551115123126E-16,-1.));
#610 = DIRECTION('',(1.998401444325E-15,-1.,5.440092820663E-15));
#611 = ADVANCED_FACE('',(#612,#637,#648),#659,.T.);
#612 = FACE_BOUND('',#613,.T.);
#613 = EDGE_LOOP('',(#614,#615,#623,#631));
#614 = ORIENTED_EDGE('',*,*,#125,.F.);
#615 = ORIENTED_EDGE('',*,*,#616,.T.);
#616 = EDGE_CURVE('',#126,#617,#619,.T.);
#617 = VERTEX_POINT('',#618);
#618 = CARTESIAN_POINT('',(-93.,61.,72.));
#619 = LINE('',#620,#621);
#620 = CARTESIAN_POINT('',(-105.,61.,72.));
#621 = VECTOR('',#622,1.);
#622 = DIRECTION('',(1.,-3.885780586188E-15,-6.661338147751E-16));
#623 = ORIENTED_EDGE('',*,*,#624,.F.);
#624 = EDGE_CURVE('',#625,#617,#627,.T.);
#625 = VERTEX_POINT('',#626);
#626 = CARTESIAN_POINT('',(-93.,207.,72.));
#627 = LINE('',#628,#629);
#628 = CARTESIAN_POINT('',(-93.,96.000000000001,72.));
#629 = VECTOR('',#630,1.);
#630 = DIRECTION('',(1.33226762955E-15,-1.,4.884981308351E-15));
#631 = ORIENTED_EDGE('',*,*,#632,.F.);
#632 = EDGE_CURVE('',#128,#625,#633,.T.);
#633 = LINE('',#634,#635);
#634 = CARTESIAN_POINT('',(-105.,207.,72.));
#635 = VECTOR('',#636,1.);
#636 = DIRECTION('',(1.,-3.885780586188E-15,-6.661338147751E-16));
#637 = FACE_BOUND('',#638,.T.);
#638 = EDGE_LOOP('',(#639));
#639 = ORIENTED_EDGE('',*,*,#640,.T.);
#640 = EDGE_CURVE('',#641,#641,#643,.T.);
#641 = VERTEX_POINT('',#642);
#642 = CARTESIAN_POINT('',(-94.7,82.,72.));
#643 = CIRCLE('',#644,2.3);
#644 = AXIS2_PLACEMENT_3D('',#645,#646,#647);
#645 = CARTESIAN_POINT('',(-97.,82.,72.));
#646 = DIRECTION('',(-5.551115123126E-16,-3.663735981263E-15,-1.));
#647 = DIRECTION('',(1.,-2.886579864025E-15,-5.551115123126E-16));
#648 = FACE_BOUND('',#649,.T.);
#649 = EDGE_LOOP('',(#650));
#650 = ORIENTED_EDGE('',*,*,#651,.T.);
#651 = EDGE_CURVE('',#652,#652,#654,.T.);
#652 = VERTEX_POINT('',#653);
#653 = CARTESIAN_POINT('',(-94.7,198.,72.));
#654 = CIRCLE('',#655,2.3);
#655 = AXIS2_PLACEMENT_3D('',#656,#657,#658);
#656 = CARTESIAN_POINT('',(-97.,198.,72.));
#657 = DIRECTION('',(-5.551115123126E-16,-3.663735981263E-15,-1.));
#658 = DIRECTION('',(1.,-2.886579864025E-15,-5.551115123126E-16));
#659 = PLANE('',#660);
#660 = AXIS2_PLACEMENT_3D('',#661,#662,#663);
#661 = CARTESIAN_POINT('',(-105.,58.,72.));
#662 = DIRECTION('',(-4.662936703426E-15,-4.440892098501E-16,1.));
#663 = DIRECTION('',(-1.7763568394E-15,1.,-4.884981308351E-15));
#664 = ADVANCED_FACE('',(#665),#684,.F.);
#665 = FACE_BOUND('',#666,.T.);
#666 = EDGE_LOOP('',(#667,#668,#676,#683));
#667 = ORIENTED_EDGE('',*,*,#135,.T.);
#668 = ORIENTED_EDGE('',*,*,#669,.T.);
#669 = EDGE_CURVE('',#136,#670,#672,.T.);
#670 = VERTEX_POINT('',#671);
#671 = CARTESIAN_POINT('',(-93.,58.,75.));
#672 = LINE('',#673,#674);
#673 = CARTESIAN_POINT('',(-105.,58.,75.));
#674 = VECTOR('',#675,1.);
#675 = DIRECTION('',(1.,-3.885780586188E-15,-6.661338147751E-16));
#676 = ORIENTED_EDGE('',*,*,#677,.F.);
#677 = EDGE_CURVE('',#617,#670,#678,.T.);
#678 = CIRCLE('',#679,3.);
#679 = AXIS2_PLACEMENT_3D('',#680,#681,#682);
#680 = CARTESIAN_POINT('',(-93.,61.,75.));
#681 = DIRECTION('',(-1.,-1.443289932013E-15,-4.662936703426E-15));
#682 = DIRECTION('',(1.443289932013E-15,-1.,4.551914400963E-15));
#683 = ORIENTED_EDGE('',*,*,#616,.F.);
#684 = CYLINDRICAL_SURFACE('',#685,3.);
#685 = AXIS2_PLACEMENT_3D('',#686,#687,#688);
#686 = CARTESIAN_POINT('',(-105.,61.,75.));
#687 = DIRECTION('',(1.,-3.885780586188E-15,-6.661338147751E-16));
#688 = DIRECTION('',(4.662936703426E-15,4.440892098501E-16,-1.));
#689 = ADVANCED_FACE('',(#690),#709,.F.);
#690 = FACE_BOUND('',#691,.F.);
#691 = EDGE_LOOP('',(#692,#693,#701,#708));
#692 = ORIENTED_EDGE('',*,*,#186,.T.);
#693 = ORIENTED_EDGE('',*,*,#694,.T.);
#694 = EDGE_CURVE('',#179,#695,#697,.T.);
#695 = VERTEX_POINT('',#696);
#696 = CARTESIAN_POINT('',(-93.,210.,75.));
#697 = LINE('',#698,#699);
#698 = CARTESIAN_POINT('',(-105.,210.,75.));
#699 = VECTOR('',#700,1.);
#700 = DIRECTION('',(1.,-3.885780586188E-15,-6.661338147751E-16));
#701 = ORIENTED_EDGE('',*,*,#702,.F.);
#702 = EDGE_CURVE('',#625,#695,#703,.T.);
#703 = CIRCLE('',#704,3.);
#704 = AXIS2_PLACEMENT_3D('',#705,#706,#707);
#705 = CARTESIAN_POINT('',(-93.,207.,75.));
#706 = DIRECTION('',(1.,1.443289932013E-15,4.662936703426E-15));
#707 = DIRECTION('',(1.443289932013E-15,-1.,4.551914400963E-15));
#708 = ORIENTED_EDGE('',*,*,#632,.F.);
#709 = CYLINDRICAL_SURFACE('',#710,3.);
#710 = AXIS2_PLACEMENT_3D('',#711,#712,#713);
#711 = CARTESIAN_POINT('',(-105.,207.,75.));
#712 = DIRECTION('',(1.,-3.885780586188E-15,-6.661338147751E-16));
#713 = DIRECTION('',(4.662936703426E-15,4.440892098501E-16,-1.));
#714 = ADVANCED_FACE('',(#715,#733),#783,.T.);
#715 = FACE_BOUND('',#716,.T.);
#716 = EDGE_LOOP('',(#717,#718,#726,#732));
#717 = ORIENTED_EDGE('',*,*,#144,.F.);
#718 = ORIENTED_EDGE('',*,*,#719,.T.);
#719 = EDGE_CURVE('',#145,#720,#722,.T.);
#720 = VERTEX_POINT('',#721);
#721 = CARTESIAN_POINT('',(-93.,58.,149.));
#722 = LINE('',#723,#724);
#723 = CARTESIAN_POINT('',(-105.,58.,149.));
#724 = VECTOR('',#725,1.);
#725 = DIRECTION('',(1.,-3.885780586188E-15,-6.661338147751E-16));
#726 = ORIENTED_EDGE('',*,*,#727,.F.);
#727 = EDGE_CURVE('',#670,#720,#728,.T.);
#728 = LINE('',#729,#730);
#729 = CARTESIAN_POINT('',(-93.,58.,118.5));
#730 = VECTOR('',#731,1.);
#731 = DIRECTION('',(-4.662936703426E-15,-6.661338147751E-16,1.));
#732 = ORIENTED_EDGE('',*,*,#669,.F.);
#733 = FACE_BOUND('',#734,.T.);
#734 = EDGE_LOOP('',(#735,#745,#753,#761,#769,#777));
#735 = ORIENTED_EDGE('',*,*,#736,.F.);
#736 = EDGE_CURVE('',#737,#739,#741,.T.);
#737 = VERTEX_POINT('',#738);
#738 = CARTESIAN_POINT('',(-96.83493649053,58.,148.75));
#739 = VERTEX_POINT('',#740);
#740 = CARTESIAN_POINT('',(-94.66987298107,58.,145.));
#741 = LINE('',#742,#743);
#742 = CARTESIAN_POINT('',(-97.47668331506,58.,149.86153810567));
#743 = VECTOR('',#744,1.);
#744 = DIRECTION('',(0.5,-2.666384945992E-15,-0.866025403784));
#745 = ORIENTED_EDGE('',*,*,#746,.F.);
#746 = EDGE_CURVE('',#747,#737,#749,.T.);
#747 = VERTEX_POINT('',#748);
#748 = CARTESIAN_POINT('',(-101.1650635094,58.,148.75));
#749 = LINE('',#750,#751);
#750 = CARTESIAN_POINT('',(-100.9174682452,58.,148.75));
#751 = VECTOR('',#752,1.);
#752 = DIRECTION('',(1.,-3.330669073876E-16,1.110223024625E-16));
#753 = ORIENTED_EDGE('',*,*,#754,.F.);
#754 = EDGE_CURVE('',#755,#747,#757,.T.);
#755 = VERTEX_POINT('',#756);
#756 = CARTESIAN_POINT('',(-103.3301270189,58.,145.));
#757 = LINE('',#758,#759);
#758 = CARTESIAN_POINT('',(-100.9407849302,58.,149.13846189432));
#759 = VECTOR('',#760,1.);
#760 = DIRECTION('',(0.5,2.333318038605E-15,0.866025403784));
#761 = ORIENTED_EDGE('',*,*,#762,.F.);
#762 = EDGE_CURVE('',#763,#755,#765,.T.);
#763 = VERTEX_POINT('',#764);
#764 = CARTESIAN_POINT('',(-101.1650635094,58.,141.25));
#765 = LINE('',#766,#767);
#766 = CARTESIAN_POINT('',(-105.0544055981,58.,147.98653810567));
#767 = VECTOR('',#768,1.);
#768 = DIRECTION('',(-0.5,2.666384945992E-15,0.866025403784));
#769 = ORIENTED_EDGE('',*,*,#770,.F.);
#770 = EDGE_CURVE('',#771,#763,#773,.T.);
#771 = VERTEX_POINT('',#772);
#772 = CARTESIAN_POINT('',(-96.83493649053,58.,141.25));
#773 = LINE('',#774,#775);
#774 = CARTESIAN_POINT('',(-103.0825317547,58.,141.25));
#775 = VECTOR('',#776,1.);
#776 = DIRECTION('',(-1.,3.330669073876E-16,-1.110223024625E-16));
#777 = ORIENTED_EDGE('',*,*,#778,.F.);
#778 = EDGE_CURVE('',#739,#771,#779,.T.);
#779 = LINE('',#780,#781);
#780 = CARTESIAN_POINT('',(-95.52812615655,58.,143.51346189432));
#781 = VECTOR('',#782,1.);
#782 = DIRECTION('',(-0.5,-2.333318038605E-15,-0.866025403784));
#783 = PLANE('',#784);
#784 = AXIS2_PLACEMENT_3D('',#785,#786,#787);
#785 = CARTESIAN_POINT('',(-105.,58.,152.));
#786 = DIRECTION('',(-1.443289932013E-15,1.,-4.662936703426E-15));
#787 = DIRECTION('',(4.884981308351E-15,6.661338147751E-16,-1.));
#788 = ADVANCED_FACE('',(#789),#807,.T.);
#789 = FACE_BOUND('',#790,.T.);
#790 = EDGE_LOOP('',(#791,#792,#793,#801));
#791 = ORIENTED_EDGE('',*,*,#178,.F.);
#792 = ORIENTED_EDGE('',*,*,#694,.T.);
#793 = ORIENTED_EDGE('',*,*,#794,.F.);
#794 = EDGE_CURVE('',#795,#695,#797,.T.);
#795 = VERTEX_POINT('',#796);
#796 = CARTESIAN_POINT('',(-93.,210.,149.));
#797 = LINE('',#798,#799);
#798 = CARTESIAN_POINT('',(-93.,210.,78.5));
#799 = VECTOR('',#800,1.);
#800 = DIRECTION('',(4.662936703426E-15,6.661338147751E-16,-1.));
#801 = ORIENTED_EDGE('',*,*,#802,.F.);
#802 = EDGE_CURVE('',#170,#795,#803,.T.);
#803 = LINE('',#804,#805);
#804 = CARTESIAN_POINT('',(-105.,210.,149.));
#805 = VECTOR('',#806,1.);
#806 = DIRECTION('',(1.,-3.885780586188E-15,-6.661338147751E-16));
#807 = PLANE('',#808);
#808 = AXIS2_PLACEMENT_3D('',#809,#810,#811);
#809 = CARTESIAN_POINT('',(-105.,210.,72.));
#810 = DIRECTION('',(1.443289932013E-15,-1.,4.662936703426E-15));
#811 = DIRECTION('',(-4.884981308351E-15,-6.661338147751E-16,1.));
#812 = ADVANCED_FACE('',(#813),#832,.F.);
#813 = FACE_BOUND('',#814,.F.);
#814 = EDGE_LOOP('',(#815,#816,#817,#826));
#815 = ORIENTED_EDGE('',*,*,#152,.T.);
#816 = ORIENTED_EDGE('',*,*,#719,.T.);
#817 = ORIENTED_EDGE('',*,*,#818,.F.);
#818 = EDGE_CURVE('',#819,#720,#821,.T.);
#819 = VERTEX_POINT('',#820);
#820 = CARTESIAN_POINT('',(-93.,61.,152.));
#821 = CIRCLE('',#822,3.);
#822 = AXIS2_PLACEMENT_3D('',#823,#824,#825);
#823 = CARTESIAN_POINT('',(-93.,61.,149.));
#824 = DIRECTION('',(1.,1.443289932013E-15,4.662936703426E-15));
#825 = DIRECTION('',(1.443289932013E-15,-1.,4.551914400963E-15));
#826 = ORIENTED_EDGE('',*,*,#827,.F.);
#827 = EDGE_CURVE('',#153,#819,#828,.T.);
#828 = LINE('',#829,#830);
#829 = CARTESIAN_POINT('',(-105.,61.,152.));
#830 = VECTOR('',#831,1.);
#831 = DIRECTION('',(1.,-3.885780586188E-15,-6.661338147751E-16));
#832 = CYLINDRICAL_SURFACE('',#833,3.);
#833 = AXIS2_PLACEMENT_3D('',#834,#835,#836);
#834 = CARTESIAN_POINT('',(-105.,61.,149.));
#835 = DIRECTION('',(1.,-3.885780586188E-15,-6.661338147751E-16));
#836 = DIRECTION('',(-4.662936703426E-15,-4.440892098501E-16,1.));
#837 = ADVANCED_FACE('',(#838),#857,.F.);
#838 = FACE_BOUND('',#839,.F.);
#839 = EDGE_LOOP('',(#840,#841,#849,#856));
#840 = ORIENTED_EDGE('',*,*,#169,.T.);
#841 = ORIENTED_EDGE('',*,*,#842,.T.);
#842 = EDGE_CURVE('',#162,#843,#845,.T.);
#843 = VERTEX_POINT('',#844);
#844 = CARTESIAN_POINT('',(-93.,207.,152.));
#845 = LINE('',#846,#847);
#846 = CARTESIAN_POINT('',(-105.,207.,152.));
#847 = VECTOR('',#848,1.);
#848 = DIRECTION('',(1.,-3.885780586188E-15,-6.661338147751E-16));
#849 = ORIENTED_EDGE('',*,*,#850,.F.);
#850 = EDGE_CURVE('',#795,#843,#851,.T.);
#851 = CIRCLE('',#852,3.);
#852 = AXIS2_PLACEMENT_3D('',#853,#854,#855);
#853 = CARTESIAN_POINT('',(-93.,207.,149.));
#854 = DIRECTION('',(1.,1.443289932013E-15,4.662936703426E-15));
#855 = DIRECTION('',(1.443289932013E-15,-1.,4.551914400963E-15));
#856 = ORIENTED_EDGE('',*,*,#802,.F.);
#857 = CYLINDRICAL_SURFACE('',#858,3.);
#858 = AXIS2_PLACEMENT_3D('',#859,#860,#861);
#859 = CARTESIAN_POINT('',(-105.,207.,149.));
#860 = DIRECTION('',(1.,-3.885780586188E-15,-6.661338147751E-16));
#861 = DIRECTION('',(-1.443289932013E-15,1.,-4.662936703426E-15));
#862 = ADVANCED_FACE('',(#863,#874),#885,.T.);
#863 = FACE_BOUND('',#864,.T.);
#864 = EDGE_LOOP('',(#865,#866,#867,#873));
#865 = ORIENTED_EDGE('',*,*,#161,.F.);
#866 = ORIENTED_EDGE('',*,*,#842,.T.);
#867 = ORIENTED_EDGE('',*,*,#868,.F.);
#868 = EDGE_CURVE('',#819,#843,#869,.T.);
#869 = LINE('',#870,#871);
#870 = CARTESIAN_POINT('',(-93.,172.,152.));
#871 = VECTOR('',#872,1.);
#872 = DIRECTION('',(-1.33226762955E-15,1.,-4.884981308351E-15));
#873 = ORIENTED_EDGE('',*,*,#827,.F.);
#874 = FACE_BOUND('',#875,.T.);
#875 = EDGE_LOOP('',(#876));
#876 = ORIENTED_EDGE('',*,*,#877,.F.);
#877 = EDGE_CURVE('',#878,#878,#880,.T.);
#878 = VERTEX_POINT('',#879);
#879 = CARTESIAN_POINT('',(-94.7,180.,152.));
#880 = CIRCLE('',#881,2.3);
#881 = AXIS2_PLACEMENT_3D('',#882,#883,#884);
#882 = CARTESIAN_POINT('',(-97.,180.,152.));
#883 = DIRECTION('',(-4.440892098501E-16,-3.10862446895E-15,-1.));
#884 = DIRECTION('',(1.,-2.442490654175E-15,-4.440892098501E-16));
#885 = PLANE('',#886);
#886 = AXIS2_PLACEMENT_3D('',#887,#888,#889);
#887 = CARTESIAN_POINT('',(-105.,210.,152.));
#888 = DIRECTION('',(4.662936703426E-15,4.440892098501E-16,-1.));
#889 = DIRECTION('',(1.7763568394E-15,-1.,4.884981308351E-15));
#890 = ADVANCED_FACE('',(#891,#897,#931,#941,#975,#1009),#1019,.T.);
#891 = FACE_BOUND('',#892,.T.);
#892 = EDGE_LOOP('',(#893,#894,#895,#896));
#893 = ORIENTED_EDGE('',*,*,#427,.T.);
#894 = ORIENTED_EDGE('',*,*,#542,.T.);
#895 = ORIENTED_EDGE('',*,*,#566,.T.);
#896 = ORIENTED_EDGE('',*,*,#480,.T.);
#897 = FACE_BOUND('',#898,.T.);
#898 = EDGE_LOOP('',(#899,#909,#917,#925));
#899 = ORIENTED_EDGE('',*,*,#900,.F.);
#900 = EDGE_CURVE('',#901,#903,#905,.T.);
#901 = VERTEX_POINT('',#902);
#902 = CARTESIAN_POINT('',(-93.,187.7,51.7));
#903 = VERTEX_POINT('',#904);
#904 = CARTESIAN_POINT('',(-93.,208.3,51.7));
#905 = LINE('',#906,#907);
#906 = CARTESIAN_POINT('',(-93.,187.7,51.7));
#907 = VECTOR('',#908,1.);
#908 = DIRECTION('',(-1.7763568394E-15,1.,-4.551914400963E-15));
#909 = ORIENTED_EDGE('',*,*,#910,.F.);
#910 = EDGE_CURVE('',#911,#901,#913,.T.);
#911 = VERTEX_POINT('',#912);
#912 = CARTESIAN_POINT('',(-93.,187.7,60.3));
#913 = LINE('',#914,#915);
#914 = CARTESIAN_POINT('',(-93.,187.7,60.3));
#915 = VECTOR('',#916,1.);
#916 = DIRECTION('',(4.551914400963E-15,7.771561172376E-16,-1.));
#917 = ORIENTED_EDGE('',*,*,#918,.F.);
#918 = EDGE_CURVE('',#919,#911,#921,.T.);
#919 = VERTEX_POINT('',#920);
#920 = CARTESIAN_POINT('',(-93.,208.3,60.3));
#921 = LINE('',#922,#923);
#922 = CARTESIAN_POINT('',(-93.,208.3,60.3));
#923 = VECTOR('',#924,1.);
#924 = DIRECTION('',(1.7763568394E-15,-1.,4.551914400963E-15));
#925 = ORIENTED_EDGE('',*,*,#926,.F.);
#926 = EDGE_CURVE('',#903,#919,#927,.T.);
#927 = LINE('',#928,#929);
#928 = CARTESIAN_POINT('',(-93.,208.3,51.699999999999));
#929 = VECTOR('',#930,1.);
#930 = DIRECTION('',(-4.551914400963E-15,-7.771561172376E-16,1.));
#931 = FACE_BOUND('',#932,.T.);
#932 = EDGE_LOOP('',(#933,#934,#935,#936,#937,#938,#939,#940));
#933 = ORIENTED_EDGE('',*,*,#308,.T.);
#934 = ORIENTED_EDGE('',*,*,#266,.F.);
#935 = ORIENTED_EDGE('',*,*,#210,.T.);
#936 = ORIENTED_EDGE('',*,*,#241,.T.);
#937 = ORIENTED_EDGE('',*,*,#291,.T.);
#938 = ORIENTED_EDGE('',*,*,#332,.F.);
#939 = ORIENTED_EDGE('',*,*,#382,.T.);
#940 = ORIENTED_EDGE('',*,*,#364,.F.);
#941 = FACE_BOUND('',#942,.T.);
#942 = EDGE_LOOP('',(#943,#953,#961,#969));
#943 = ORIENTED_EDGE('',*,*,#944,.F.);
#944 = EDGE_CURVE('',#945,#947,#949,.T.);
#945 = VERTEX_POINT('',#946);
#946 = CARTESIAN_POINT('',(-93.,169.7,159.7));
#947 = VERTEX_POINT('',#948);
#948 = CARTESIAN_POINT('',(-93.,190.3,159.7));
#949 = LINE('',#950,#951);
#950 = CARTESIAN_POINT('',(-93.,169.7,159.7));
#951 = VECTOR('',#952,1.);
#952 = DIRECTION('',(-1.7763568394E-15,1.,-4.551914400963E-15));
#953 = ORIENTED_EDGE('',*,*,#954,.F.);
#954 = EDGE_CURVE('',#955,#945,#957,.T.);
#955 = VERTEX_POINT('',#956);
#956 = CARTESIAN_POINT('',(-93.,169.7,168.3));
#957 = LINE('',#958,#959);
#958 = CARTESIAN_POINT('',(-93.,169.7,168.3));
#959 = VECTOR('',#960,1.);
#960 = DIRECTION('',(4.551914400963E-15,7.771561172376E-16,-1.));
#961 = ORIENTED_EDGE('',*,*,#962,.F.);
#962 = EDGE_CURVE('',#963,#955,#965,.T.);
#963 = VERTEX_POINT('',#964);
#964 = CARTESIAN_POINT('',(-93.,190.3,168.3));
#965 = LINE('',#966,#967);
#966 = CARTESIAN_POINT('',(-93.,190.3,168.3));
#967 = VECTOR('',#968,1.);
#968 = DIRECTION('',(1.7763568394E-15,-1.,4.551914400963E-15));
#969 = ORIENTED_EDGE('',*,*,#970,.F.);
#970 = EDGE_CURVE('',#947,#963,#971,.T.);
#971 = LINE('',#972,#973);
#972 = CARTESIAN_POINT('',(-93.,190.3,159.7));
#973 = VECTOR('',#974,1.);
#974 = DIRECTION('',(-4.551914400963E-15,-7.771561172376E-16,1.));
#975 = FACE_BOUND('',#976,.T.);
#976 = EDGE_LOOP('',(#977,#987,#995,#1003));
#977 = ORIENTED_EDGE('',*,*,#978,.F.);
#978 = EDGE_CURVE('',#979,#981,#983,.T.);
#979 = VERTEX_POINT('',#980);
#980 = CARTESIAN_POINT('',(-93.,71.7,51.7));
#981 = VERTEX_POINT('',#982);
#982 = CARTESIAN_POINT('',(-93.,92.3,51.7));
#983 = LINE('',#984,#985);
#984 = CARTESIAN_POINT('',(-93.,71.700000000001,51.7));
#985 = VECTOR('',#986,1.);
#986 = DIRECTION('',(-1.7763568394E-15,1.,-4.551914400963E-15));
#987 = ORIENTED_EDGE('',*,*,#988,.F.);
#988 = EDGE_CURVE('',#989,#979,#991,.T.);
#989 = VERTEX_POINT('',#990);
#990 = CARTESIAN_POINT('',(-93.,71.7,60.3));
#991 = LINE('',#992,#993);
#992 = CARTESIAN_POINT('',(-93.,71.700000000001,60.3));
#993 = VECTOR('',#994,1.);
#994 = DIRECTION('',(4.551914400963E-15,7.771561172376E-16,-1.));
#995 = ORIENTED_EDGE('',*,*,#996,.F.);
#996 = EDGE_CURVE('',#997,#989,#999,.T.);
#997 = VERTEX_POINT('',#998);
#998 = CARTESIAN_POINT('',(-93.,92.3,60.3));
#999 = LINE('',#1000,#1001);
#1000 = CARTESIAN_POINT('',(-93.,92.300000000001,60.3));
#1001 = VECTOR('',#1002,1.);
#1002 = DIRECTION('',(1.7763568394E-15,-1.,4.551914400963E-15));
#1003 = ORIENTED_EDGE('',*,*,#1004,.F.);
#1004 = EDGE_CURVE('',#981,#997,#1005,.T.);
#1005 = LINE('',#1006,#1007);
#1006 = CARTESIAN_POINT('',(-93.,92.300000000001,51.7));
#1007 = VECTOR('',#1008,1.);
#1008 = DIRECTION('',(-4.551914400963E-15,-7.771561172376E-16,1.));
#1009 = FACE_BOUND('',#1010,.T.);
#1010 = EDGE_LOOP('',(#1011,#1012,#1013,#1014,#1015,#1016,#1017,#1018));
#1011 = ORIENTED_EDGE('',*,*,#794,.T.);
#1012 = ORIENTED_EDGE('',*,*,#702,.F.);
#1013 = ORIENTED_EDGE('',*,*,#624,.T.);
#1014 = ORIENTED_EDGE('',*,*,#677,.T.);
#1015 = ORIENTED_EDGE('',*,*,#727,.T.);
#1016 = ORIENTED_EDGE('',*,*,#818,.F.);
#1017 = ORIENTED_EDGE('',*,*,#868,.T.);
#1018 = ORIENTED_EDGE('',*,*,#850,.F.);
#1019 = PLANE('',#1020);
#1020 = AXIS2_PLACEMENT_3D('',#1021,#1022,#1023);
#1021 = CARTESIAN_POINT('',(-93.,134.,85.));
#1022 = DIRECTION('',(1.,-4.440892098501E-15,-1.110223024625E-15));
#1023 = DIRECTION('',(-5.551115123126E-15,-1.110223024625E-15,1.));
#1024 = ADVANCED_FACE('',(#1025),#1044,.F.);
#1025 = FACE_BOUND('',#1026,.T.);
#1026 = EDGE_LOOP('',(#1027,#1028,#1036,#1043));
#1027 = ORIENTED_EDGE('',*,*,#391,.T.);
#1028 = ORIENTED_EDGE('',*,*,#1029,.T.);
#1029 = EDGE_CURVE('',#392,#1030,#1032,.T.);
#1030 = VERTEX_POINT('',#1031);
#1031 = CARTESIAN_POINT('',(-94.7,82.,51.7));
#1032 = LINE('',#1033,#1034);
#1033 = CARTESIAN_POINT('',(-94.7,82.,40.));
#1034 = VECTOR('',#1035,1.);
#1035 = DIRECTION('',(-3.663735981263E-15,-5.551115123126E-16,1.));
#1036 = ORIENTED_EDGE('',*,*,#1037,.F.);
#1037 = EDGE_CURVE('',#1030,#1030,#1038,.T.);
#1038 = CIRCLE('',#1039,2.3);
#1039 = AXIS2_PLACEMENT_3D('',#1040,#1041,#1042);
#1040 = CARTESIAN_POINT('',(-97.,82.,51.7));
#1041 = DIRECTION('',(-5.551115123126E-16,-3.663735981263E-15,-1.));
#1042 = DIRECTION('',(1.,-2.886579864025E-15,-5.551115123126E-16));
#1043 = ORIENTED_EDGE('',*,*,#1029,.F.);
#1044 = CYLINDRICAL_SURFACE('',#1045,2.3);
#1045 = AXIS2_PLACEMENT_3D('',#1046,#1047,#1048);
#1046 = CARTESIAN_POINT('',(-97.,82.,40.));
#1047 = DIRECTION('',(3.441691376338E-15,3.330669073875E-16,-1.));
#1048 = DIRECTION('',(1.,-2.886579864025E-15,-5.551115123126E-16));
#1049 = ADVANCED_FACE('',(#1050),#1069,.F.);
#1050 = FACE_BOUND('',#1051,.T.);
#1051 = EDGE_LOOP('',(#1052,#1053,#1061,#1068));
#1052 = ORIENTED_EDGE('',*,*,#402,.T.);
#1053 = ORIENTED_EDGE('',*,*,#1054,.T.);
#1054 = EDGE_CURVE('',#403,#1055,#1057,.T.);
#1055 = VERTEX_POINT('',#1056);
#1056 = CARTESIAN_POINT('',(-94.7,198.,51.7));
#1057 = LINE('',#1058,#1059);
#1058 = CARTESIAN_POINT('',(-94.7,198.,40.));
#1059 = VECTOR('',#1060,1.);
#1060 = DIRECTION('',(-3.663735981263E-15,-5.551115123126E-16,1.));
#1061 = ORIENTED_EDGE('',*,*,#1062,.F.);
#1062 = EDGE_CURVE('',#1055,#1055,#1063,.T.);
#1063 = CIRCLE('',#1064,2.3);
#1064 = AXIS2_PLACEMENT_3D('',#1065,#1066,#1067);
#1065 = CARTESIAN_POINT('',(-97.,198.,51.7));
#1066 = DIRECTION('',(-5.551115123126E-16,-3.663735981263E-15,-1.));
#1067 = DIRECTION('',(1.,-2.886579864025E-15,-5.551115123126E-16));
#1068 = ORIENTED_EDGE('',*,*,#1054,.F.);
#1069 = CYLINDRICAL_SURFACE('',#1070,2.3);
#1070 = AXIS2_PLACEMENT_3D('',#1071,#1072,#1073);
#1071 = CARTESIAN_POINT('',(-97.,198.,40.));
#1072 = DIRECTION('',(3.441691376338E-15,3.330669073875E-16,-1.));
#1073 = DIRECTION('',(1.,-2.886579864025E-15,-5.551115123126E-16));
#1074 = ADVANCED_FACE('',(#1075),#1094,.F.);
#1075 = FACE_BOUND('',#1076,.T.);
#1076 = EDGE_LOOP('',(#1077,#1085,#1092,#1093));
#1077 = ORIENTED_EDGE('',*,*,#1078,.T.);
#1078 = EDGE_CURVE('',#445,#1079,#1081,.T.);
#1079 = VERTEX_POINT('',#1080);
#1080 = CARTESIAN_POINT('',(-95.7,46.,8.3));
#1081 = LINE('',#1082,#1083);
#1082 = CARTESIAN_POINT('',(-95.7,46.,-2.730038417553E-14));
#1083 = VECTOR('',#1084,1.);
#1084 = DIRECTION('',(-2.553512956638E-15,-3.330669073875E-16,1.));
#1085 = ORIENTED_EDGE('',*,*,#1086,.T.);
#1086 = EDGE_CURVE('',#1079,#1079,#1087,.T.);
#1087 = CIRCLE('',#1088,3.3);
#1088 = AXIS2_PLACEMENT_3D('',#1089,#1090,#1091);
#1089 = CARTESIAN_POINT('',(-99.,46.,8.3));
#1090 = DIRECTION('',(5.551115123126E-16,2.775557561563E-15,1.));
#1091 = DIRECTION('',(1.,-2.22044604925E-15,-5.551115123126E-16));
#1092 = ORIENTED_EDGE('',*,*,#1078,.F.);
#1093 = ORIENTED_EDGE('',*,*,#444,.F.);
#1094 = CYLINDRICAL_SURFACE('',#1095,3.3);
#1095 = AXIS2_PLACEMENT_3D('',#1096,#1097,#1098);
#1096 = CARTESIAN_POINT('',(-99.,46.,-2.620126338115E-14));
#1097 = DIRECTION('',(2.331468351713E-15,1.110223024625E-16,-1.));
#1098 = DIRECTION('',(1.,-1.998401444325E-15,-3.330669073875E-16));
#1099 = ADVANCED_FACE('',(#1100),#1119,.F.);
#1100 = FACE_BOUND('',#1101,.T.);
#1101 = EDGE_LOOP('',(#1102,#1110,#1117,#1118));
#1102 = ORIENTED_EDGE('',*,*,#1103,.T.);
#1103 = EDGE_CURVE('',#456,#1104,#1106,.T.);
#1104 = VERTEX_POINT('',#1105);
#1105 = CARTESIAN_POINT('',(-95.7,222.,8.3));
#1106 = LINE('',#1107,#1108);
#1107 = CARTESIAN_POINT('',(-95.7,222.,-4.767186645438E-13));
#1108 = VECTOR('',#1109,1.);
#1109 = DIRECTION('',(-2.553512956638E-15,-3.330669073875E-16,1.));
#1110 = ORIENTED_EDGE('',*,*,#1111,.T.);
#1111 = EDGE_CURVE('',#1104,#1104,#1112,.T.);
#1112 = CIRCLE('',#1113,3.3);
#1113 = AXIS2_PLACEMENT_3D('',#1114,#1115,#1116);
#1114 = CARTESIAN_POINT('',(-99.,222.,8.299999999999));
#1115 = DIRECTION('',(5.551115123126E-16,2.775557561563E-15,1.));
#1116 = DIRECTION('',(1.,-2.22044604925E-15,-5.551115123126E-16));
#1117 = ORIENTED_EDGE('',*,*,#1103,.F.);
#1118 = ORIENTED_EDGE('',*,*,#455,.F.);
#1119 = CYLINDRICAL_SURFACE('',#1120,3.3);
#1120 = AXIS2_PLACEMENT_3D('',#1121,#1122,#1123);
#1121 = CARTESIAN_POINT('',(-99.,222.,-4.756195437494E-13));
#1122 = DIRECTION('',(2.331468351713E-15,1.110223024625E-16,-1.));
#1123 = DIRECTION('',(1.,-1.998401444325E-15,-3.330669073875E-16));
#1124 = ADVANCED_FACE('',(#1125),#1144,.F.);
#1125 = FACE_BOUND('',#1126,.F.);
#1126 = EDGE_LOOP('',(#1127,#1128,#1136,#1143));
#1127 = ORIENTED_EDGE('',*,*,#490,.F.);
#1128 = ORIENTED_EDGE('',*,*,#1129,.T.);
#1129 = EDGE_CURVE('',#491,#1130,#1132,.T.);
#1130 = VERTEX_POINT('',#1131);
#1131 = CARTESIAN_POINT('',(-96.75,50.4,145.));
#1132 = LINE('',#1133,#1134);
#1133 = CARTESIAN_POINT('',(-96.75,38.,145.));
#1134 = VECTOR('',#1135,1.);
#1135 = DIRECTION('',(-2.22044604925E-16,1.,-1.110223024625E-15));
#1136 = ORIENTED_EDGE('',*,*,#1137,.T.);
#1137 = EDGE_CURVE('',#1130,#1130,#1138,.T.);
#1138 = CIRCLE('',#1139,2.25);
#1139 = AXIS2_PLACEMENT_3D('',#1140,#1141,#1142);
#1140 = CARTESIAN_POINT('',(-99.,50.4,145.));
#1141 = DIRECTION('',(-2.22044604925E-16,-1.,6.661338147751E-16));
#1142 = DIRECTION('',(1.,-2.22044604925E-16,2.22044604925E-16));
#1143 = ORIENTED_EDGE('',*,*,#1129,.F.);
#1144 = CYLINDRICAL_SURFACE('',#1145,2.25);
#1145 = AXIS2_PLACEMENT_3D('',#1146,#1147,#1148);
#1146 = CARTESIAN_POINT('',(-99.,38.,145.));
#1147 = DIRECTION('',(-2.958228394579E-31,-1.,8.881784197001E-16));
#1148 = DIRECTION('',(1.,-6.661338147751E-16,3.574525976783E-31));
#1149 = ADVANCED_FACE('',(#1150),#1175,.F.);
#1150 = FACE_BOUND('',#1151,.F.);
#1151 = EDGE_LOOP('',(#1152,#1160,#1168,#1174));
#1152 = ORIENTED_EDGE('',*,*,#1153,.T.);
#1153 = EDGE_CURVE('',#502,#1154,#1156,.T.);
#1154 = VERTEX_POINT('',#1155);
#1155 = CARTESIAN_POINT('',(-103.3,46.3,28.3));
#1156 = LINE('',#1157,#1158);
#1157 = CARTESIAN_POINT('',(-103.3,38.,28.3));
#1158 = VECTOR('',#1159,1.);
#1159 = DIRECTION('',(-4.440892098501E-16,1.,-1.665334536938E-15));
#1160 = ORIENTED_EDGE('',*,*,#1161,.T.);
#1161 = EDGE_CURVE('',#1154,#1162,#1164,.T.);
#1162 = VERTEX_POINT('',#1163);
#1163 = CARTESIAN_POINT('',(-103.3,46.3,19.7));
#1164 = LINE('',#1165,#1166);
#1165 = CARTESIAN_POINT('',(-103.3,46.3,28.3));
#1166 = VECTOR('',#1167,1.);
#1167 = DIRECTION('',(1.665334536938E-15,1.110223024625E-16,-1.));
#1168 = ORIENTED_EDGE('',*,*,#1169,.F.);
#1169 = EDGE_CURVE('',#504,#1162,#1170,.T.);
#1170 = LINE('',#1171,#1172);
#1171 = CARTESIAN_POINT('',(-103.3,38.,19.7));
#1172 = VECTOR('',#1173,1.);
#1173 = DIRECTION('',(-4.440892098501E-16,1.,-1.665334536938E-15));
#1174 = ORIENTED_EDGE('',*,*,#501,.F.);
#1175 = PLANE('',#1176);
#1176 = AXIS2_PLACEMENT_3D('',#1177,#1178,#1179);
#1177 = CARTESIAN_POINT('',(-103.3,38.,28.3));
#1178 = DIRECTION('',(-1.,8.881784197001E-16,-1.110223024625E-16));
#1179 = DIRECTION('',(1.443289932013E-15,-1.110223024625E-16,-1.));
#1180 = ADVANCED_FACE('',(#1181),#1199,.F.);
#1181 = FACE_BOUND('',#1182,.F.);
#1182 = EDGE_LOOP('',(#1183,#1191,#1197,#1198));
#1183 = ORIENTED_EDGE('',*,*,#1184,.T.);
#1184 = EDGE_CURVE('',#520,#1185,#1187,.T.);
#1185 = VERTEX_POINT('',#1186);
#1186 = CARTESIAN_POINT('',(-94.7,46.3,28.3));
#1187 = LINE('',#1188,#1189);
#1188 = CARTESIAN_POINT('',(-94.7,38.,28.3));
#1189 = VECTOR('',#1190,1.);
#1190 = DIRECTION('',(-4.440892098501E-16,1.,-1.665334536938E-15));
#1191 = ORIENTED_EDGE('',*,*,#1192,.T.);
#1192 = EDGE_CURVE('',#1185,#1154,#1193,.T.);
#1193 = LINE('',#1194,#1195);
#1194 = CARTESIAN_POINT('',(-94.7,46.3,28.3));
#1195 = VECTOR('',#1196,1.);
#1196 = DIRECTION('',(-1.,1.33226762955E-15,3.330669073875E-16));
#1197 = ORIENTED_EDGE('',*,*,#1153,.F.);
#1198 = ORIENTED_EDGE('',*,*,#527,.F.);
#1199 = PLANE('',#1200);
#1200 = AXIS2_PLACEMENT_3D('',#1201,#1202,#1203);
#1201 = CARTESIAN_POINT('',(-94.7,38.,28.3));
#1202 = DIRECTION('',(-1.221245327088E-15,3.330669073875E-16,1.));
#1203 = DIRECTION('',(-1.,1.110223024625E-15,1.110223024625E-16));
#1204 = ADVANCED_FACE('',(#1205),#1223,.F.);
#1205 = FACE_BOUND('',#1206,.F.);
#1206 = EDGE_LOOP('',(#1207,#1208,#1216,#1222));
#1207 = ORIENTED_EDGE('',*,*,#1169,.T.);
#1208 = ORIENTED_EDGE('',*,*,#1209,.T.);
#1209 = EDGE_CURVE('',#1162,#1210,#1212,.T.);
#1210 = VERTEX_POINT('',#1211);
#1211 = CARTESIAN_POINT('',(-94.7,46.3,19.7));
#1212 = LINE('',#1213,#1214);
#1213 = CARTESIAN_POINT('',(-103.3,46.3,19.7));
#1214 = VECTOR('',#1215,1.);
#1215 = DIRECTION('',(1.,-1.33226762955E-15,-3.330669073875E-16));
#1216 = ORIENTED_EDGE('',*,*,#1217,.F.);
#1217 = EDGE_CURVE('',#512,#1210,#1218,.T.);
#1218 = LINE('',#1219,#1220);
#1219 = CARTESIAN_POINT('',(-94.7,38.,19.7));
#1220 = VECTOR('',#1221,1.);
#1221 = DIRECTION('',(-4.440892098501E-16,1.,-1.665334536938E-15));
#1222 = ORIENTED_EDGE('',*,*,#511,.F.);
#1223 = PLANE('',#1224);
#1224 = AXIS2_PLACEMENT_3D('',#1225,#1226,#1227);
#1225 = CARTESIAN_POINT('',(-103.3,38.,19.7));
#1226 = DIRECTION('',(1.221245327088E-15,-3.330669073875E-16,-1.));
#1227 = DIRECTION('',(1.,-1.110223024625E-15,-1.110223024625E-16));
#1228 = ADVANCED_FACE('',(#1229),#1240,.F.);
#1229 = FACE_BOUND('',#1230,.F.);
#1230 = EDGE_LOOP('',(#1231,#1232,#1238,#1239));
#1231 = ORIENTED_EDGE('',*,*,#1217,.T.);
#1232 = ORIENTED_EDGE('',*,*,#1233,.T.);
#1233 = EDGE_CURVE('',#1210,#1185,#1234,.T.);
#1234 = LINE('',#1235,#1236);
#1235 = CARTESIAN_POINT('',(-94.7,46.3,19.7));
#1236 = VECTOR('',#1237,1.);
#1237 = DIRECTION('',(-1.665334536938E-15,-1.110223024625E-16,1.));
#1238 = ORIENTED_EDGE('',*,*,#1184,.F.);
#1239 = ORIENTED_EDGE('',*,*,#519,.F.);
#1240 = PLANE('',#1241);
#1241 = AXIS2_PLACEMENT_3D('',#1242,#1243,#1244);
#1242 = CARTESIAN_POINT('',(-94.7,38.,19.7));
#1243 = DIRECTION('',(1.,-8.881784197001E-16,1.110223024625E-16));
#1244 = DIRECTION('',(-1.443289932013E-15,1.110223024625E-16,1.));
#1245 = ADVANCED_FACE('',(#1246),#1265,.F.);
#1246 = FACE_BOUND('',#1247,.T.);
#1247 = EDGE_LOOP('',(#1248,#1257,#1263,#1264));
#1248 = ORIENTED_EDGE('',*,*,#1249,.T.);
#1249 = EDGE_CURVE('',#1250,#1250,#1252,.T.);
#1250 = VERTEX_POINT('',#1251);
#1251 = CARTESIAN_POINT('',(-94.7,180.,168.3));
#1252 = CIRCLE('',#1253,2.3);
#1253 = AXIS2_PLACEMENT_3D('',#1254,#1255,#1256);
#1254 = CARTESIAN_POINT('',(-97.,180.,168.3));
#1255 = DIRECTION('',(-4.440892098501E-16,-3.10862446895E-15,-1.));
#1256 = DIRECTION('',(1.,-2.442490654175E-15,-4.440892098501E-16));
#1257 = ORIENTED_EDGE('',*,*,#1258,.T.);
#1258 = EDGE_CURVE('',#1250,#577,#1259,.T.);
#1259 = LINE('',#1260,#1261);
#1260 = CARTESIAN_POINT('',(-94.7,180.,148.));
#1261 = VECTOR('',#1262,1.);
#1262 = DIRECTION('',(-3.10862446895E-15,-4.440892098501E-16,1.));
#1263 = ORIENTED_EDGE('',*,*,#576,.F.);
#1264 = ORIENTED_EDGE('',*,*,#1258,.F.);
#1265 = CYLINDRICAL_SURFACE('',#1266,2.3);
#1266 = AXIS2_PLACEMENT_3D('',#1267,#1268,#1269);
#1267 = CARTESIAN_POINT('',(-97.,180.,148.));
#1268 = DIRECTION('',(2.886579864025E-15,2.22044604925E-16,-1.));
#1269 = DIRECTION('',(1.,-2.442490654175E-15,-4.440892098501E-16));
#1270 = ADVANCED_FACE('',(#1271),#1290,.F.);
#1271 = FACE_BOUND('',#1272,.F.);
#1272 = EDGE_LOOP('',(#1273,#1281,#1288,#1289));
#1273 = ORIENTED_EDGE('',*,*,#1274,.T.);
#1274 = EDGE_CURVE('',#588,#1275,#1277,.T.);
#1275 = VERTEX_POINT('',#1276);
#1276 = CARTESIAN_POINT('',(-95.7,222.,161.7));
#1277 = LINE('',#1278,#1279);
#1278 = CARTESIAN_POINT('',(-95.7,222.,170.));
#1279 = VECTOR('',#1280,1.);
#1280 = DIRECTION('',(1.998401444325E-15,2.22044604925E-16,-1.));
#1281 = ORIENTED_EDGE('',*,*,#1282,.T.);
#1282 = EDGE_CURVE('',#1275,#1275,#1283,.T.);
#1283 = CIRCLE('',#1284,3.3);
#1284 = AXIS2_PLACEMENT_3D('',#1285,#1286,#1287);
#1285 = CARTESIAN_POINT('',(-99.,222.,161.7));
#1286 = DIRECTION('',(4.440892098501E-16,2.22044604925E-15,1.));
#1287 = DIRECTION('',(1.,-1.7763568394E-15,-4.440892098501E-16));
#1288 = ORIENTED_EDGE('',*,*,#1274,.F.);
#1289 = ORIENTED_EDGE('',*,*,#587,.F.);
#1290 = CYLINDRICAL_SURFACE('',#1291,3.3);
#1291 = AXIS2_PLACEMENT_3D('',#1292,#1293,#1294);
#1292 = CARTESIAN_POINT('',(-99.,222.,170.));
#1293 = DIRECTION('',(-1.7763568394E-15,1.528418003866E-30,1.));
#1294 = DIRECTION('',(1.,-1.554312234475E-15,-2.22044604925E-16));
#1295 = ADVANCED_FACE('',(#1296),#1315,.F.);
#1296 = FACE_BOUND('',#1297,.F.);
#1297 = EDGE_LOOP('',(#1298,#1306,#1313,#1314));
#1298 = ORIENTED_EDGE('',*,*,#1299,.T.);
#1299 = EDGE_CURVE('',#599,#1300,#1302,.T.);
#1300 = VERTEX_POINT('',#1301);
#1301 = CARTESIAN_POINT('',(-95.7,46.,161.7));
#1302 = LINE('',#1303,#1304);
#1303 = CARTESIAN_POINT('',(-95.7,46.,170.));
#1304 = VECTOR('',#1305,1.);
#1305 = DIRECTION('',(1.998401444325E-15,2.22044604925E-16,-1.));
#1306 = ORIENTED_EDGE('',*,*,#1307,.T.);
#1307 = EDGE_CURVE('',#1300,#1300,#1308,.T.);
#1308 = CIRCLE('',#1309,3.3);
#1309 = AXIS2_PLACEMENT_3D('',#1310,#1311,#1312);
#1310 = CARTESIAN_POINT('',(-99.,46.,161.7));
#1311 = DIRECTION('',(4.440892098501E-16,2.22044604925E-15,1.));
#1312 = DIRECTION('',(1.,-1.7763568394E-15,-4.440892098501E-16));
#1313 = ORIENTED_EDGE('',*,*,#1299,.F.);
#1314 = ORIENTED_EDGE('',*,*,#598,.F.);
#1315 = CYLINDRICAL_SURFACE('',#1316,3.3);
#1316 = AXIS2_PLACEMENT_3D('',#1317,#1318,#1319);
#1317 = CARTESIAN_POINT('',(-99.,46.,170.));
#1318 = DIRECTION('',(-1.7763568394E-15,1.528418003866E-30,1.));
#1319 = DIRECTION('',(1.,-1.554312234475E-15,-2.22044604925E-16));
#1320 = ADVANCED_FACE('',(#1321),#1340,.F.);
#1321 = FACE_BOUND('',#1322,.T.);
#1322 = EDGE_LOOP('',(#1323,#1332,#1338,#1339));
#1323 = ORIENTED_EDGE('',*,*,#1324,.T.);
#1324 = EDGE_CURVE('',#1325,#1325,#1327,.T.);
#1325 = VERTEX_POINT('',#1326);
#1326 = CARTESIAN_POINT('',(-94.7,82.,60.3));
#1327 = CIRCLE('',#1328,2.3);
#1328 = AXIS2_PLACEMENT_3D('',#1329,#1330,#1331);
#1329 = CARTESIAN_POINT('',(-97.,82.,60.3));
#1330 = DIRECTION('',(-5.551115123126E-16,-3.663735981263E-15,-1.));
#1331 = DIRECTION('',(1.,-2.886579864025E-15,-5.551115123126E-16));
#1332 = ORIENTED_EDGE('',*,*,#1333,.T.);
#1333 = EDGE_CURVE('',#1325,#641,#1334,.T.);
#1334 = LINE('',#1335,#1336);
#1335 = CARTESIAN_POINT('',(-94.7,82.,40.));
#1336 = VECTOR('',#1337,1.);
#1337 = DIRECTION('',(-3.663735981263E-15,-5.551115123126E-16,1.));
#1338 = ORIENTED_EDGE('',*,*,#640,.F.);
#1339 = ORIENTED_EDGE('',*,*,#1333,.F.);
#1340 = CYLINDRICAL_SURFACE('',#1341,2.3);
#1341 = AXIS2_PLACEMENT_3D('',#1342,#1343,#1344);
#1342 = CARTESIAN_POINT('',(-97.,82.,40.));
#1343 = DIRECTION('',(3.441691376338E-15,3.330669073875E-16,-1.));
#1344 = DIRECTION('',(1.,-2.886579864025E-15,-5.551115123126E-16));
#1345 = ADVANCED_FACE('',(#1346),#1365,.F.);
#1346 = FACE_BOUND('',#1347,.T.);
#1347 = EDGE_LOOP('',(#1348,#1357,#1363,#1364));
#1348 = ORIENTED_EDGE('',*,*,#1349,.T.);
#1349 = EDGE_CURVE('',#1350,#1350,#1352,.T.);
#1350 = VERTEX_POINT('',#1351);
#1351 = CARTESIAN_POINT('',(-94.7,198.,60.3));
#1352 = CIRCLE('',#1353,2.3);
#1353 = AXIS2_PLACEMENT_3D('',#1354,#1355,#1356);
#1354 = CARTESIAN_POINT('',(-97.,198.,60.3));
#1355 = DIRECTION('',(-5.551115123126E-16,-3.663735981263E-15,-1.));
#1356 = DIRECTION('',(1.,-2.886579864025E-15,-5.551115123126E-16));
#1357 = ORIENTED_EDGE('',*,*,#1358,.T.);
#1358 = EDGE_CURVE('',#1350,#652,#1359,.T.);
#1359 = LINE('',#1360,#1361);
#1360 = CARTESIAN_POINT('',(-94.7,198.,40.));
#1361 = VECTOR('',#1362,1.);
#1362 = DIRECTION('',(-3.663735981263E-15,-5.551115123126E-16,1.));
#1363 = ORIENTED_EDGE('',*,*,#651,.F.);
#1364 = ORIENTED_EDGE('',*,*,#1358,.F.);
#1365 = CYLINDRICAL_SURFACE('',#1366,2.3);
#1366 = AXIS2_PLACEMENT_3D('',#1367,#1368,#1369);
#1367 = CARTESIAN_POINT('',(-97.,198.,40.));
#1368 = DIRECTION('',(3.441691376338E-15,3.330669073875E-16,-1.));
#1369 = DIRECTION('',(1.,-2.886579864025E-15,-5.551115123126E-16));
#1370 = ADVANCED_FACE('',(#1371),#1396,.F.);
#1371 = FACE_BOUND('',#1372,.F.);
#1372 = EDGE_LOOP('',(#1373,#1383,#1389,#1390));
#1373 = ORIENTED_EDGE('',*,*,#1374,.F.);
#1374 = EDGE_CURVE('',#1375,#1377,#1379,.T.);
#1375 = VERTEX_POINT('',#1376);
#1376 = CARTESIAN_POINT('',(-94.66987298107,50.4,145.));
#1377 = VERTEX_POINT('',#1378);
#1378 = CARTESIAN_POINT('',(-96.83493649053,50.4,148.75));
#1379 = LINE('',#1380,#1381);
#1380 = CARTESIAN_POINT('',(-94.66987298107,50.4,145.));
#1381 = VECTOR('',#1382,1.);
#1382 = DIRECTION('',(-0.5,3.181927392442E-16,0.866025403784));
#1383 = ORIENTED_EDGE('',*,*,#1384,.T.);
#1384 = EDGE_CURVE('',#1375,#739,#1385,.T.);
#1385 = LINE('',#1386,#1387);
#1386 = CARTESIAN_POINT('',(-94.66987298107,50.4,145.));
#1387 = VECTOR('',#1388,1.);
#1388 = DIRECTION('',(9.860761315263E-32,1.,-5.551115123126E-16));
#1389 = ORIENTED_EDGE('',*,*,#736,.F.);
#1390 = ORIENTED_EDGE('',*,*,#1391,.F.);
#1391 = EDGE_CURVE('',#1377,#737,#1392,.T.);
#1392 = LINE('',#1393,#1394);
#1393 = CARTESIAN_POINT('',(-96.83493649053,50.4,148.75));
#1394 = VECTOR('',#1395,1.);
#1395 = DIRECTION('',(9.860761315263E-32,1.,-5.551115123126E-16));
#1396 = PLANE('',#1397);
#1397 = AXIS2_PLACEMENT_3D('',#1398,#1399,#1400);
#1398 = CARTESIAN_POINT('',(-94.66987298107,50.4,145.));
#1399 = DIRECTION('',(0.866025403784,2.775557561563E-16,0.5));
#1400 = DIRECTION('',(-0.5,3.994667054201E-16,0.866025403784));
#1401 = ADVANCED_FACE('',(#1402),#1420,.F.);
#1402 = FACE_BOUND('',#1403,.F.);
#1403 = EDGE_LOOP('',(#1404,#1412,#1418,#1419));
#1404 = ORIENTED_EDGE('',*,*,#1405,.F.);
#1405 = EDGE_CURVE('',#1406,#1375,#1408,.T.);
#1406 = VERTEX_POINT('',#1407);
#1407 = CARTESIAN_POINT('',(-96.83493649053,50.4,141.25));
#1408 = LINE('',#1409,#1410);
#1409 = CARTESIAN_POINT('',(-96.83493649053,50.4,141.25));
#1410 = VECTOR('',#1411,1.);
#1411 = DIRECTION('',(0.5,-1.258964706059E-16,0.866025403784));
#1412 = ORIENTED_EDGE('',*,*,#1413,.T.);
#1413 = EDGE_CURVE('',#1406,#771,#1414,.T.);
#1414 = LINE('',#1415,#1416);
#1415 = CARTESIAN_POINT('',(-96.83493649053,50.4,141.25));
#1416 = VECTOR('',#1417,1.);
#1417 = DIRECTION('',(9.860761315263E-32,1.,-5.551115123126E-16));
#1418 = ORIENTED_EDGE('',*,*,#778,.F.);
#1419 = ORIENTED_EDGE('',*,*,#1384,.F.);
#1420 = PLANE('',#1421);
#1421 = AXIS2_PLACEMENT_3D('',#1422,#1423,#1424);
#1422 = CARTESIAN_POINT('',(-96.83493649053,50.4,141.25));
#1423 = DIRECTION('',(0.866025403784,-2.775557561563E-16,-0.5));
#1424 = DIRECTION('',(0.5,1.77422100495E-16,0.866025403784));
#1425 = ADVANCED_FACE('',(#1426),#1444,.F.);
#1426 = FACE_BOUND('',#1427,.F.);
#1427 = EDGE_LOOP('',(#1428,#1436,#1442,#1443));
#1428 = ORIENTED_EDGE('',*,*,#1429,.F.);
#1429 = EDGE_CURVE('',#1430,#1406,#1432,.T.);
#1430 = VERTEX_POINT('',#1431);
#1431 = CARTESIAN_POINT('',(-101.1650635094,50.4,141.25));
#1432 = LINE('',#1433,#1434);
#1433 = CARTESIAN_POINT('',(-101.1650635094,50.4,141.25));
#1434 = VECTOR('',#1435,1.);
#1435 = DIRECTION('',(1.,-4.440892098501E-16,-1.110223024625E-16));
#1436 = ORIENTED_EDGE('',*,*,#1437,.T.);
#1437 = EDGE_CURVE('',#1430,#763,#1438,.T.);
#1438 = LINE('',#1439,#1440);
#1439 = CARTESIAN_POINT('',(-101.1650635094,50.4,141.25));
#1440 = VECTOR('',#1441,1.);
#1441 = DIRECTION('',(9.860761315263E-32,1.,-5.551115123126E-16));
#1442 = ORIENTED_EDGE('',*,*,#770,.F.);
#1443 = ORIENTED_EDGE('',*,*,#1413,.F.);
#1444 = PLANE('',#1445);
#1445 = AXIS2_PLACEMENT_3D('',#1446,#1447,#1448);
#1446 = CARTESIAN_POINT('',(-101.1650635094,50.4,141.25));
#1447 = DIRECTION('',(1.110223024625E-16,-5.551115123126E-16,-1.));
#1448 = DIRECTION('',(1.,-2.22044604925E-16,1.110223024625E-16));
#1449 = ADVANCED_FACE('',(#1450),#1468,.F.);
#1450 = FACE_BOUND('',#1451,.F.);
#1451 = EDGE_LOOP('',(#1452,#1460,#1466,#1467));
#1452 = ORIENTED_EDGE('',*,*,#1453,.F.);
#1453 = EDGE_CURVE('',#1454,#1430,#1456,.T.);
#1454 = VERTEX_POINT('',#1455);
#1455 = CARTESIAN_POINT('',(-103.3301270189,50.4,145.));
#1456 = LINE('',#1457,#1458);
#1457 = CARTESIAN_POINT('',(-103.3301270189,50.4,145.));
#1458 = VECTOR('',#1459,1.);
#1459 = DIRECTION('',(0.5,-3.181927392442E-16,-0.866025403784));
#1460 = ORIENTED_EDGE('',*,*,#1461,.T.);
#1461 = EDGE_CURVE('',#1454,#755,#1462,.T.);
#1462 = LINE('',#1463,#1464);
#1463 = CARTESIAN_POINT('',(-103.3301270189,50.4,145.));
#1464 = VECTOR('',#1465,1.);
#1465 = DIRECTION('',(9.860761315263E-32,1.,-5.551115123126E-16));
#1466 = ORIENTED_EDGE('',*,*,#762,.F.);
#1467 = ORIENTED_EDGE('',*,*,#1437,.F.);
#1468 = PLANE('',#1469);
#1469 = AXIS2_PLACEMENT_3D('',#1470,#1471,#1472);
#1470 = CARTESIAN_POINT('',(-103.3301270189,50.4,145.));
#1471 = DIRECTION('',(-0.866025403784,-2.775557561563E-16,-0.5));
#1472 = DIRECTION('',(0.5,-3.994667054201E-16,-0.866025403784));
#1473 = ADVANCED_FACE('',(#1474),#1492,.F.);
#1474 = FACE_BOUND('',#1475,.F.);
#1475 = EDGE_LOOP('',(#1476,#1484,#1490,#1491));
#1476 = ORIENTED_EDGE('',*,*,#1477,.F.);
#1477 = EDGE_CURVE('',#1478,#1454,#1480,.T.);
#1478 = VERTEX_POINT('',#1479);
#1479 = CARTESIAN_POINT('',(-101.1650635094,50.4,148.75));
#1480 = LINE('',#1481,#1482);
#1481 = CARTESIAN_POINT('',(-101.1650635094,50.4,148.75));
#1482 = VECTOR('',#1483,1.);
#1483 = DIRECTION('',(-0.5,1.258964706059E-16,-0.866025403784));
#1484 = ORIENTED_EDGE('',*,*,#1485,.T.);
#1485 = EDGE_CURVE('',#1478,#747,#1486,.T.);
#1486 = LINE('',#1487,#1488);
#1487 = CARTESIAN_POINT('',(-101.1650635094,50.4,148.75));
#1488 = VECTOR('',#1489,1.);
#1489 = DIRECTION('',(9.860761315263E-32,1.,-5.551115123126E-16));
#1490 = ORIENTED_EDGE('',*,*,#754,.F.);
#1491 = ORIENTED_EDGE('',*,*,#1461,.F.);
#1492 = PLANE('',#1493);
#1493 = AXIS2_PLACEMENT_3D('',#1494,#1495,#1496);
#1494 = CARTESIAN_POINT('',(-101.1650635094,50.4,148.75));
#1495 = DIRECTION('',(-0.866025403784,2.775557561563E-16,0.5));
#1496 = DIRECTION('',(-0.5,-1.77422100495E-16,-0.866025403784));
#1497 = ADVANCED_FACE('',(#1498),#1509,.F.);
#1498 = FACE_BOUND('',#1499,.F.);
#1499 = EDGE_LOOP('',(#1500,#1506,#1507,#1508));
#1500 = ORIENTED_EDGE('',*,*,#1501,.F.);
#1501 = EDGE_CURVE('',#1377,#1478,#1502,.T.);
#1502 = LINE('',#1503,#1504);
#1503 = CARTESIAN_POINT('',(-96.83493649053,50.4,148.75));
#1504 = VECTOR('',#1505,1.);
#1505 = DIRECTION('',(-1.,4.440892098501E-16,1.110223024625E-16));
#1506 = ORIENTED_EDGE('',*,*,#1391,.T.);
#1507 = ORIENTED_EDGE('',*,*,#746,.F.);
#1508 = ORIENTED_EDGE('',*,*,#1485,.F.);
#1509 = PLANE('',#1510);
#1510 = AXIS2_PLACEMENT_3D('',#1511,#1512,#1513);
#1511 = CARTESIAN_POINT('',(-96.83493649053,50.4,148.75));
#1512 = DIRECTION('',(-1.110223024625E-16,5.551115123126E-16,1.));
#1513 = DIRECTION('',(-1.,2.22044604925E-16,-1.110223024625E-16));
#1514 = ADVANCED_FACE('',(#1515),#1534,.F.);
#1515 = FACE_BOUND('',#1516,.T.);
#1516 = EDGE_LOOP('',(#1517,#1518,#1526,#1533));
#1517 = ORIENTED_EDGE('',*,*,#877,.T.);
#1518 = ORIENTED_EDGE('',*,*,#1519,.T.);
#1519 = EDGE_CURVE('',#878,#1520,#1522,.T.);
#1520 = VERTEX_POINT('',#1521);
#1521 = CARTESIAN_POINT('',(-94.7,180.,159.7));
#1522 = LINE('',#1523,#1524);
#1523 = CARTESIAN_POINT('',(-94.7,180.,148.));
#1524 = VECTOR('',#1525,1.);
#1525 = DIRECTION('',(-3.10862446895E-15,-4.440892098501E-16,1.));
#1526 = ORIENTED_EDGE('',*,*,#1527,.F.);
#1527 = EDGE_CURVE('',#1520,#1520,#1528,.T.);
#1528 = CIRCLE('',#1529,2.3);
#1529 = AXIS2_PLACEMENT_3D('',#1530,#1531,#1532);
#1530 = CARTESIAN_POINT('',(-97.,180.,159.7));
#1531 = DIRECTION('',(-4.440892098501E-16,-3.10862446895E-15,-1.));
#1532 = DIRECTION('',(1.,-2.442490654175E-15,-4.440892098501E-16));
#1533 = ORIENTED_EDGE('',*,*,#1519,.F.);
#1534 = CYLINDRICAL_SURFACE('',#1535,2.3);
#1535 = AXIS2_PLACEMENT_3D('',#1536,#1537,#1538);
#1536 = CARTESIAN_POINT('',(-97.,180.,148.));
#1537 = DIRECTION('',(2.886579864025E-15,2.22044604925E-16,-1.));
#1538 = DIRECTION('',(1.,-2.442490654175E-15,-4.440892098501E-16));
#1539 = ADVANCED_FACE('',(#1540,#1565),#1568,.F.);
#1540 = FACE_BOUND('',#1541,.F.);
#1541 = EDGE_LOOP('',(#1542,#1550,#1558,#1564));
#1542 = ORIENTED_EDGE('',*,*,#1543,.T.);
#1543 = EDGE_CURVE('',#901,#1544,#1546,.T.);
#1544 = VERTEX_POINT('',#1545);
#1545 = CARTESIAN_POINT('',(-102.3,187.7,51.7));
#1546 = LINE('',#1547,#1548);
#1547 = CARTESIAN_POINT('',(-93.,187.7,51.7));
#1548 = VECTOR('',#1549,1.);
#1549 = DIRECTION('',(-1.,3.441691376338E-15,5.551115123126E-16));
#1550 = ORIENTED_EDGE('',*,*,#1551,.T.);
#1551 = EDGE_CURVE('',#1544,#1552,#1554,.T.);
#1552 = VERTEX_POINT('',#1553);
#1553 = CARTESIAN_POINT('',(-102.3,208.3,51.7));
#1554 = LINE('',#1555,#1556);
#1555 = CARTESIAN_POINT('',(-102.3,187.7,51.7));
#1556 = VECTOR('',#1557,1.);
#1557 = DIRECTION('',(-1.7763568394E-15,1.,-4.551914400963E-15));
#1558 = ORIENTED_EDGE('',*,*,#1559,.F.);
#1559 = EDGE_CURVE('',#903,#1552,#1560,.T.);
#1560 = LINE('',#1561,#1562);
#1561 = CARTESIAN_POINT('',(-93.,208.3,51.7));
#1562 = VECTOR('',#1563,1.);
#1563 = DIRECTION('',(-1.,3.441691376338E-15,5.551115123126E-16));
#1564 = ORIENTED_EDGE('',*,*,#900,.F.);
#1565 = FACE_BOUND('',#1566,.F.);
#1566 = EDGE_LOOP('',(#1567));
#1567 = ORIENTED_EDGE('',*,*,#1062,.F.);
#1568 = PLANE('',#1569);
#1569 = AXIS2_PLACEMENT_3D('',#1570,#1571,#1572);
#1570 = CARTESIAN_POINT('',(-93.,187.7,51.7));
#1571 = DIRECTION('',(4.107825191113E-15,3.330669073875E-16,-1.));
#1572 = DIRECTION('',(-1.554312234475E-15,1.,-4.329869796038E-15));
#1573 = ADVANCED_FACE('',(#1574),#1592,.F.);
#1574 = FACE_BOUND('',#1575,.F.);
#1575 = EDGE_LOOP('',(#1576,#1577,#1585,#1591));
#1576 = ORIENTED_EDGE('',*,*,#1559,.T.);
#1577 = ORIENTED_EDGE('',*,*,#1578,.T.);
#1578 = EDGE_CURVE('',#1552,#1579,#1581,.T.);
#1579 = VERTEX_POINT('',#1580);
#1580 = CARTESIAN_POINT('',(-102.3,208.3,60.3));
#1581 = LINE('',#1582,#1583);
#1582 = CARTESIAN_POINT('',(-102.3,208.3,51.7));
#1583 = VECTOR('',#1584,1.);
#1584 = DIRECTION('',(-4.551914400963E-15,-7.771561172376E-16,1.));
#1585 = ORIENTED_EDGE('',*,*,#1586,.F.);
#1586 = EDGE_CURVE('',#919,#1579,#1587,.T.);
#1587 = LINE('',#1588,#1589);
#1588 = CARTESIAN_POINT('',(-93.,208.3,60.3));
#1589 = VECTOR('',#1590,1.);
#1590 = DIRECTION('',(-1.,3.441691376338E-15,5.551115123126E-16));
#1591 = ORIENTED_EDGE('',*,*,#926,.F.);
#1592 = PLANE('',#1593);
#1593 = AXIS2_PLACEMENT_3D('',#1594,#1595,#1596);
#1594 = CARTESIAN_POINT('',(-93.,208.3,51.7));
#1595 = DIRECTION('',(-1.221245327088E-15,1.,-4.107825191113E-15));
#1596 = DIRECTION('',(-4.329869796038E-15,-5.551115123126E-16,1.));
#1597 = ADVANCED_FACE('',(#1598,#1616),#1619,.F.);
#1598 = FACE_BOUND('',#1599,.F.);
#1599 = EDGE_LOOP('',(#1600,#1601,#1609,#1615));
#1600 = ORIENTED_EDGE('',*,*,#1586,.T.);
#1601 = ORIENTED_EDGE('',*,*,#1602,.T.);
#1602 = EDGE_CURVE('',#1579,#1603,#1605,.T.);
#1603 = VERTEX_POINT('',#1604);
#1604 = CARTESIAN_POINT('',(-102.3,187.7,60.3));
#1605 = LINE('',#1606,#1607);
#1606 = CARTESIAN_POINT('',(-102.3,208.3,60.3));
#1607 = VECTOR('',#1608,1.);
#1608 = DIRECTION('',(1.7763568394E-15,-1.,4.551914400963E-15));
#1609 = ORIENTED_EDGE('',*,*,#1610,.F.);
#1610 = EDGE_CURVE('',#911,#1603,#1611,.T.);
#1611 = LINE('',#1612,#1613);
#1612 = CARTESIAN_POINT('',(-93.,187.7,60.3));
#1613 = VECTOR('',#1614,1.);
#1614 = DIRECTION('',(-1.,3.441691376338E-15,5.551115123126E-16));
#1615 = ORIENTED_EDGE('',*,*,#918,.F.);
#1616 = FACE_BOUND('',#1617,.F.);
#1617 = EDGE_LOOP('',(#1618));
#1618 = ORIENTED_EDGE('',*,*,#1349,.T.);
#1619 = PLANE('',#1620);
#1620 = AXIS2_PLACEMENT_3D('',#1621,#1622,#1623);
#1621 = CARTESIAN_POINT('',(-93.,208.3,60.3));
#1622 = DIRECTION('',(-4.107825191113E-15,-3.330669073875E-16,1.));
#1623 = DIRECTION('',(1.554312234475E-15,-1.,4.329869796038E-15));
#1624 = ADVANCED_FACE('',(#1625),#1636,.F.);
#1625 = FACE_BOUND('',#1626,.F.);
#1626 = EDGE_LOOP('',(#1627,#1628,#1634,#1635));
#1627 = ORIENTED_EDGE('',*,*,#1610,.T.);
#1628 = ORIENTED_EDGE('',*,*,#1629,.T.);
#1629 = EDGE_CURVE('',#1603,#1544,#1630,.T.);
#1630 = LINE('',#1631,#1632);
#1631 = CARTESIAN_POINT('',(-102.3,187.7,60.3));
#1632 = VECTOR('',#1633,1.);
#1633 = DIRECTION('',(4.551914400963E-15,7.771561172376E-16,-1.));
#1634 = ORIENTED_EDGE('',*,*,#1543,.F.);
#1635 = ORIENTED_EDGE('',*,*,#910,.F.);
#1636 = PLANE('',#1637);
#1637 = AXIS2_PLACEMENT_3D('',#1638,#1639,#1640);
#1638 = CARTESIAN_POINT('',(-93.,187.7,60.3));
#1639 = DIRECTION('',(1.221245327088E-15,-1.,4.107825191113E-15));
#1640 = DIRECTION('',(4.329869796038E-15,5.551115123126E-16,-1.));
#1641 = ADVANCED_FACE('',(#1642,#1667),#1670,.F.);
#1642 = FACE_BOUND('',#1643,.F.);
#1643 = EDGE_LOOP('',(#1644,#1652,#1660,#1666));
#1644 = ORIENTED_EDGE('',*,*,#1645,.T.);
#1645 = EDGE_CURVE('',#945,#1646,#1648,.T.);
#1646 = VERTEX_POINT('',#1647);
#1647 = CARTESIAN_POINT('',(-102.3,169.7,159.7));
#1648 = LINE('',#1649,#1650);
#1649 = CARTESIAN_POINT('',(-93.,169.7,159.7));
#1650 = VECTOR('',#1651,1.);
#1651 = DIRECTION('',(-1.,3.441691376338E-15,5.551115123126E-16));
#1652 = ORIENTED_EDGE('',*,*,#1653,.T.);
#1653 = EDGE_CURVE('',#1646,#1654,#1656,.T.);
#1654 = VERTEX_POINT('',#1655);
#1655 = CARTESIAN_POINT('',(-102.3,190.3,159.7));
#1656 = LINE('',#1657,#1658);
#1657 = CARTESIAN_POINT('',(-102.3,169.7,159.7));
#1658 = VECTOR('',#1659,1.);
#1659 = DIRECTION('',(-1.7763568394E-15,1.,-4.551914400963E-15));
#1660 = ORIENTED_EDGE('',*,*,#1661,.F.);
#1661 = EDGE_CURVE('',#947,#1654,#1662,.T.);
#1662 = LINE('',#1663,#1664);
#1663 = CARTESIAN_POINT('',(-93.,190.3,159.7));
#1664 = VECTOR('',#1665,1.);
#1665 = DIRECTION('',(-1.,3.441691376338E-15,5.551115123126E-16));
#1666 = ORIENTED_EDGE('',*,*,#944,.F.);
#1667 = FACE_BOUND('',#1668,.F.);
#1668 = EDGE_LOOP('',(#1669));
#1669 = ORIENTED_EDGE('',*,*,#1527,.F.);
#1670 = PLANE('',#1671);
#1671 = AXIS2_PLACEMENT_3D('',#1672,#1673,#1674);
#1672 = CARTESIAN_POINT('',(-93.,169.7,159.7));
#1673 = DIRECTION('',(4.107825191113E-15,3.330669073875E-16,-1.));
#1674 = DIRECTION('',(-1.554312234475E-15,1.,-4.329869796038E-15));
#1675 = ADVANCED_FACE('',(#1676),#1694,.F.);
#1676 = FACE_BOUND('',#1677,.F.);
#1677 = EDGE_LOOP('',(#1678,#1679,#1687,#1693));
#1678 = ORIENTED_EDGE('',*,*,#1661,.T.);
#1679 = ORIENTED_EDGE('',*,*,#1680,.T.);
#1680 = EDGE_CURVE('',#1654,#1681,#1683,.T.);
#1681 = VERTEX_POINT('',#1682);
#1682 = CARTESIAN_POINT('',(-102.3,190.3,168.3));
#1683 = LINE('',#1684,#1685);
#1684 = CARTESIAN_POINT('',(-102.3,190.3,159.7));
#1685 = VECTOR('',#1686,1.);
#1686 = DIRECTION('',(-4.551914400963E-15,-7.771561172376E-16,1.));
#1687 = ORIENTED_EDGE('',*,*,#1688,.F.);
#1688 = EDGE_CURVE('',#963,#1681,#1689,.T.);
#1689 = LINE('',#1690,#1691);
#1690 = CARTESIAN_POINT('',(-93.,190.3,168.3));
#1691 = VECTOR('',#1692,1.);
#1692 = DIRECTION('',(-1.,3.441691376338E-15,5.551115123126E-16));
#1693 = ORIENTED_EDGE('',*,*,#970,.F.);
#1694 = PLANE('',#1695);
#1695 = AXIS2_PLACEMENT_3D('',#1696,#1697,#1698);
#1696 = CARTESIAN_POINT('',(-93.,190.3,159.7));
#1697 = DIRECTION('',(-1.221245327088E-15,1.,-4.107825191113E-15));
#1698 = DIRECTION('',(-4.329869796038E-15,-5.551115123126E-16,1.));
#1699 = ADVANCED_FACE('',(#1700,#1718),#1721,.F.);
#1700 = FACE_BOUND('',#1701,.F.);
#1701 = EDGE_LOOP('',(#1702,#1703,#1711,#1717));
#1702 = ORIENTED_EDGE('',*,*,#1688,.T.);
#1703 = ORIENTED_EDGE('',*,*,#1704,.T.);
#1704 = EDGE_CURVE('',#1681,#1705,#1707,.T.);
#1705 = VERTEX_POINT('',#1706);
#1706 = CARTESIAN_POINT('',(-102.3,169.7,168.3));
#1707 = LINE('',#1708,#1709);
#1708 = CARTESIAN_POINT('',(-102.3,190.3,168.3));
#1709 = VECTOR('',#1710,1.);
#1710 = DIRECTION('',(1.7763568394E-15,-1.,4.551914400963E-15));
#1711 = ORIENTED_EDGE('',*,*,#1712,.F.);
#1712 = EDGE_CURVE('',#955,#1705,#1713,.T.);
#1713 = LINE('',#1714,#1715);
#1714 = CARTESIAN_POINT('',(-93.,169.7,168.3));
#1715 = VECTOR('',#1716,1.);
#1716 = DIRECTION('',(-1.,3.441691376338E-15,5.551115123126E-16));
#1717 = ORIENTED_EDGE('',*,*,#962,.F.);
#1718 = FACE_BOUND('',#1719,.F.);
#1719 = EDGE_LOOP('',(#1720));
#1720 = ORIENTED_EDGE('',*,*,#1249,.T.);
#1721 = PLANE('',#1722);
#1722 = AXIS2_PLACEMENT_3D('',#1723,#1724,#1725);
#1723 = CARTESIAN_POINT('',(-93.,190.3,168.3));
#1724 = DIRECTION('',(-4.107825191113E-15,-3.330669073875E-16,1.));
#1725 = DIRECTION('',(1.554312234475E-15,-1.,4.329869796038E-15));
#1726 = ADVANCED_FACE('',(#1727),#1738,.F.);
#1727 = FACE_BOUND('',#1728,.F.);
#1728 = EDGE_LOOP('',(#1729,#1730,#1736,#1737));
#1729 = ORIENTED_EDGE('',*,*,#1712,.T.);
#1730 = ORIENTED_EDGE('',*,*,#1731,.T.);
#1731 = EDGE_CURVE('',#1705,#1646,#1732,.T.);
#1732 = LINE('',#1733,#1734);
#1733 = CARTESIAN_POINT('',(-102.3,169.7,168.3));
#1734 = VECTOR('',#1735,1.);
#1735 = DIRECTION('',(4.551914400963E-15,7.771561172376E-16,-1.));
#1736 = ORIENTED_EDGE('',*,*,#1645,.F.);
#1737 = ORIENTED_EDGE('',*,*,#954,.F.);
#1738 = PLANE('',#1739);
#1739 = AXIS2_PLACEMENT_3D('',#1740,#1741,#1742);
#1740 = CARTESIAN_POINT('',(-93.,169.7,168.3));
#1741 = DIRECTION('',(1.221245327088E-15,-1.,4.107825191113E-15));
#1742 = DIRECTION('',(4.329869796038E-15,5.551115123126E-16,-1.));
#1743 = ADVANCED_FACE('',(#1744,#1769),#1772,.F.);
#1744 = FACE_BOUND('',#1745,.F.);
#1745 = EDGE_LOOP('',(#1746,#1754,#1762,#1768));
#1746 = ORIENTED_EDGE('',*,*,#1747,.T.);
#1747 = EDGE_CURVE('',#979,#1748,#1750,.T.);
#1748 = VERTEX_POINT('',#1749);
#1749 = CARTESIAN_POINT('',(-102.3,71.7,51.7));
#1750 = LINE('',#1751,#1752);
#1751 = CARTESIAN_POINT('',(-93.,71.7,51.7));
#1752 = VECTOR('',#1753,1.);
#1753 = DIRECTION('',(-1.,3.441691376338E-15,5.551115123126E-16));
#1754 = ORIENTED_EDGE('',*,*,#1755,.T.);
#1755 = EDGE_CURVE('',#1748,#1756,#1758,.T.);
#1756 = VERTEX_POINT('',#1757);
#1757 = CARTESIAN_POINT('',(-102.3,92.3,51.7));
#1758 = LINE('',#1759,#1760);
#1759 = CARTESIAN_POINT('',(-102.3,71.700000000001,51.7));
#1760 = VECTOR('',#1761,1.);
#1761 = DIRECTION('',(-1.7763568394E-15,1.,-4.551914400963E-15));
#1762 = ORIENTED_EDGE('',*,*,#1763,.F.);
#1763 = EDGE_CURVE('',#981,#1756,#1764,.T.);
#1764 = LINE('',#1765,#1766);
#1765 = CARTESIAN_POINT('',(-93.,92.300000000001,51.7));
#1766 = VECTOR('',#1767,1.);
#1767 = DIRECTION('',(-1.,3.441691376338E-15,5.551115123126E-16));
#1768 = ORIENTED_EDGE('',*,*,#978,.F.);
#1769 = FACE_BOUND('',#1770,.F.);
#1770 = EDGE_LOOP('',(#1771));
#1771 = ORIENTED_EDGE('',*,*,#1037,.F.);
#1772 = PLANE('',#1773);
#1773 = AXIS2_PLACEMENT_3D('',#1774,#1775,#1776);
#1774 = CARTESIAN_POINT('',(-93.,71.7,51.7));
#1775 = DIRECTION('',(4.107825191113E-15,3.330669073875E-16,-1.));
#1776 = DIRECTION('',(-1.554312234475E-15,1.,-4.329869796038E-15));
#1777 = ADVANCED_FACE('',(#1778),#1796,.F.);
#1778 = FACE_BOUND('',#1779,.F.);
#1779 = EDGE_LOOP('',(#1780,#1781,#1789,#1795));
#1780 = ORIENTED_EDGE('',*,*,#1763,.T.);
#1781 = ORIENTED_EDGE('',*,*,#1782,.T.);
#1782 = EDGE_CURVE('',#1756,#1783,#1785,.T.);
#1783 = VERTEX_POINT('',#1784);
#1784 = CARTESIAN_POINT('',(-102.3,92.3,60.3));
#1785 = LINE('',#1786,#1787);
#1786 = CARTESIAN_POINT('',(-102.3,92.300000000001,51.7));
#1787 = VECTOR('',#1788,1.);
#1788 = DIRECTION('',(-4.551914400963E-15,-7.771561172376E-16,1.));
#1789 = ORIENTED_EDGE('',*,*,#1790,.F.);
#1790 = EDGE_CURVE('',#997,#1783,#1791,.T.);
#1791 = LINE('',#1792,#1793);
#1792 = CARTESIAN_POINT('',(-93.,92.300000000001,60.3));
#1793 = VECTOR('',#1794,1.);
#1794 = DIRECTION('',(-1.,3.441691376338E-15,5.551115123126E-16));
#1795 = ORIENTED_EDGE('',*,*,#1004,.F.);
#1796 = PLANE('',#1797);
#1797 = AXIS2_PLACEMENT_3D('',#1798,#1799,#1800);
#1798 = CARTESIAN_POINT('',(-93.,92.300000000001,51.7));
#1799 = DIRECTION('',(-1.221245327088E-15,1.,-4.107825191113E-15));
#1800 = DIRECTION('',(-4.329869796038E-15,-5.551115123126E-16,1.));
#1801 = ADVANCED_FACE('',(#1802,#1820),#1823,.F.);
#1802 = FACE_BOUND('',#1803,.F.);
#1803 = EDGE_LOOP('',(#1804,#1805,#1813,#1819));
#1804 = ORIENTED_EDGE('',*,*,#1790,.T.);
#1805 = ORIENTED_EDGE('',*,*,#1806,.T.);
#1806 = EDGE_CURVE('',#1783,#1807,#1809,.T.);
#1807 = VERTEX_POINT('',#1808);
#1808 = CARTESIAN_POINT('',(-102.3,71.7,60.3));
#1809 = LINE('',#1810,#1811);
#1810 = CARTESIAN_POINT('',(-102.3,92.300000000001,60.3));
#1811 = VECTOR('',#1812,1.);
#1812 = DIRECTION('',(1.7763568394E-15,-1.,4.551914400963E-15));
#1813 = ORIENTED_EDGE('',*,*,#1814,.F.);
#1814 = EDGE_CURVE('',#989,#1807,#1815,.T.);
#1815 = LINE('',#1816,#1817);
#1816 = CARTESIAN_POINT('',(-93.,71.7,60.3));
#1817 = VECTOR('',#1818,1.);
#1818 = DIRECTION('',(-1.,3.441691376338E-15,5.551115123126E-16));
#1819 = ORIENTED_EDGE('',*,*,#996,.F.);
#1820 = FACE_BOUND('',#1821,.F.);
#1821 = EDGE_LOOP('',(#1822));
#1822 = ORIENTED_EDGE('',*,*,#1324,.T.);
#1823 = PLANE('',#1824);
#1824 = AXIS2_PLACEMENT_3D('',#1825,#1826,#1827);
#1825 = CARTESIAN_POINT('',(-93.,92.300000000001,60.3));
#1826 = DIRECTION('',(-4.107825191113E-15,-3.330669073875E-16,1.));
#1827 = DIRECTION('',(1.554312234475E-15,-1.,4.329869796038E-15));
#1828 = ADVANCED_FACE('',(#1829),#1840,.F.);
#1829 = FACE_BOUND('',#1830,.F.);
#1830 = EDGE_LOOP('',(#1831,#1832,#1838,#1839));
#1831 = ORIENTED_EDGE('',*,*,#1814,.T.);
#1832 = ORIENTED_EDGE('',*,*,#1833,.T.);
#1833 = EDGE_CURVE('',#1807,#1748,#1834,.T.);
#1834 = LINE('',#1835,#1836);
#1835 = CARTESIAN_POINT('',(-102.3,71.700000000001,60.3));
#1836 = VECTOR('',#1837,1.);
#1837 = DIRECTION('',(4.551914400963E-15,7.771561172376E-16,-1.));
#1838 = ORIENTED_EDGE('',*,*,#1747,.F.);
#1839 = ORIENTED_EDGE('',*,*,#988,.F.);
#1840 = PLANE('',#1841);
#1841 = AXIS2_PLACEMENT_3D('',#1842,#1843,#1844);
#1842 = CARTESIAN_POINT('',(-93.,71.7,60.3));
#1843 = DIRECTION('',(1.221245327088E-15,-1.,4.107825191113E-15));
#1844 = DIRECTION('',(4.329869796038E-15,5.551115123126E-16,-1.));
#1845 = ADVANCED_FACE('',(#1846),#1849,.F.);
#1846 = FACE_BOUND('',#1847,.F.);
#1847 = EDGE_LOOP('',(#1848));
#1848 = ORIENTED_EDGE('',*,*,#1086,.T.);
#1849 = PLANE('',#1850);
#1850 = AXIS2_PLACEMENT_3D('',#1851,#1852,#1853);
#1851 = CARTESIAN_POINT('',(-99.,134.,8.3));
#1852 = DIRECTION('',(-2.775557561563E-15,-5.551115123126E-16,1.));
#1853 = DIRECTION('',(1.,-2.22044604925E-15,-5.551115123126E-16));
#1854 = ADVANCED_FACE('',(#1855),#1858,.F.);
#1855 = FACE_BOUND('',#1856,.F.);
#1856 = EDGE_LOOP('',(#1857));
#1857 = ORIENTED_EDGE('',*,*,#1111,.T.);
#1858 = PLANE('',#1859);
#1859 = AXIS2_PLACEMENT_3D('',#1860,#1861,#1862);
#1860 = CARTESIAN_POINT('',(-99.,134.,8.3));
#1861 = DIRECTION('',(-2.775557561563E-15,-5.551115123126E-16,1.));
#1862 = DIRECTION('',(1.,-2.22044604925E-15,-5.551115123126E-16));
#1863 = ADVANCED_FACE('',(#1864,#1872),#1875,.T.);
#1864 = FACE_BOUND('',#1865,.T.);
#1865 = EDGE_LOOP('',(#1866,#1867,#1868,#1869,#1870,#1871));
#1866 = ORIENTED_EDGE('',*,*,#1374,.F.);
#1867 = ORIENTED_EDGE('',*,*,#1405,.F.);
#1868 = ORIENTED_EDGE('',*,*,#1429,.F.);
#1869 = ORIENTED_EDGE('',*,*,#1453,.F.);
#1870 = ORIENTED_EDGE('',*,*,#1477,.F.);
#1871 = ORIENTED_EDGE('',*,*,#1501,.F.);
#1872 = FACE_BOUND('',#1873,.T.);
#1873 = EDGE_LOOP('',(#1874));
#1874 = ORIENTED_EDGE('',*,*,#1137,.T.);
#1875 = PLANE('',#1876);
#1876 = AXIS2_PLACEMENT_3D('',#1877,#1878,#1879);
#1877 = CARTESIAN_POINT('',(-99.,50.4,145.));
#1878 = DIRECTION('',(-2.22044604925E-16,1.,-1.502501826659E-15));
#1879 = DIRECTION('',(-5.551115123126E-16,8.363680118843E-16,1.));
#1880 = ADVANCED_FACE('',(#1881),#1887,.F.);
#1881 = FACE_BOUND('',#1882,.T.);
#1882 = EDGE_LOOP('',(#1883,#1884,#1885,#1886));
#1883 = ORIENTED_EDGE('',*,*,#1209,.T.);
#1884 = ORIENTED_EDGE('',*,*,#1233,.T.);
#1885 = ORIENTED_EDGE('',*,*,#1192,.T.);
#1886 = ORIENTED_EDGE('',*,*,#1161,.T.);
#1887 = PLANE('',#1888);
#1888 = AXIS2_PLACEMENT_3D('',#1889,#1890,#1891);
#1889 = CARTESIAN_POINT('',(-99.,46.3,24.));
#1890 = DIRECTION('',(-6.661338147751E-16,1.,-1.665334536938E-15));
#1891 = DIRECTION('',(-1.665334536938E-15,-3.330669073875E-16,1.));
#1892 = ADVANCED_FACE('',(#1893),#1896,.T.);
#1893 = FACE_BOUND('',#1894,.T.);
#1894 = EDGE_LOOP('',(#1895));
#1895 = ORIENTED_EDGE('',*,*,#1282,.T.);
#1896 = PLANE('',#1897);
#1897 = AXIS2_PLACEMENT_3D('',#1898,#1899,#1900);
#1898 = CARTESIAN_POINT('',(-99.,134.,161.7));
#1899 = DIRECTION('',(-2.22044604925E-15,-4.440892098501E-16,1.));
#1900 = DIRECTION('',(1.,-1.7763568394E-15,-4.440892098501E-16));
#1901 = ADVANCED_FACE('',(#1902),#1905,.T.);
#1902 = FACE_BOUND('',#1903,.T.);
#1903 = EDGE_LOOP('',(#1904));
#1904 = ORIENTED_EDGE('',*,*,#1307,.T.);
#1905 = PLANE('',#1906);
#1906 = AXIS2_PLACEMENT_3D('',#1907,#1908,#1909);
#1907 = CARTESIAN_POINT('',(-99.,134.,161.7));
#1908 = DIRECTION('',(-2.22044604925E-15,-4.440892098501E-16,1.));
#1909 = DIRECTION('',(1.,-1.7763568394E-15,-4.440892098501E-16));
#1910 = ADVANCED_FACE('',(#1911),#1917,.T.);
#1911 = FACE_BOUND('',#1912,.T.);
#1912 = EDGE_LOOP('',(#1913,#1914,#1915,#1916));
#1913 = ORIENTED_EDGE('',*,*,#1551,.T.);
#1914 = ORIENTED_EDGE('',*,*,#1578,.T.);
#1915 = ORIENTED_EDGE('',*,*,#1602,.T.);
#1916 = ORIENTED_EDGE('',*,*,#1629,.T.);
#1917 = PLANE('',#1918);
#1918 = AXIS2_PLACEMENT_3D('',#1919,#1920,#1921);
#1919 = CARTESIAN_POINT('',(-102.3,153.33333333333,92.));
#1920 = DIRECTION('',(1.,-3.552713678801E-15,-8.881784197001E-16));
#1921 = DIRECTION('',(-4.440892098501E-15,-8.881784197001E-16,1.));
#1922 = ADVANCED_FACE('',(#1923),#1929,.T.);
#1923 = FACE_BOUND('',#1924,.T.);
#1924 = EDGE_LOOP('',(#1925,#1926,#1927,#1928));
#1925 = ORIENTED_EDGE('',*,*,#1653,.T.);
#1926 = ORIENTED_EDGE('',*,*,#1680,.T.);
#1927 = ORIENTED_EDGE('',*,*,#1704,.T.);
#1928 = ORIENTED_EDGE('',*,*,#1731,.T.);
#1929 = PLANE('',#1930);
#1930 = AXIS2_PLACEMENT_3D('',#1931,#1932,#1933);
#1931 = CARTESIAN_POINT('',(-102.3,153.33333333333,92.));
#1932 = DIRECTION('',(1.,-3.552713678801E-15,-8.881784197001E-16));
#1933 = DIRECTION('',(-4.440892098501E-15,-8.881784197001E-16,1.));
#1934 = ADVANCED_FACE('',(#1935),#1941,.T.);
#1935 = FACE_BOUND('',#1936,.T.);
#1936 = EDGE_LOOP('',(#1937,#1938,#1939,#1940));
#1937 = ORIENTED_EDGE('',*,*,#1755,.T.);
#1938 = ORIENTED_EDGE('',*,*,#1782,.T.);
#1939 = ORIENTED_EDGE('',*,*,#1806,.T.);
#1940 = ORIENTED_EDGE('',*,*,#1833,.T.);
#1941 = PLANE('',#1942);
#1942 = AXIS2_PLACEMENT_3D('',#1943,#1944,#1945);
#1943 = CARTESIAN_POINT('',(-102.3,153.33333333333,92.));
#1944 = DIRECTION('',(1.,-3.552713678801E-15,-8.881784197001E-16));
#1945 = DIRECTION('',(-4.440892098501E-15,-8.881784197001E-16,1.));
#1946 = ( GEOMETRIC_REPRESENTATION_CONTEXT(3) 
GLOBAL_UNCERTAINTY_ASSIGNED_CONTEXT((#1950)) 
GLOBAL_UNIT_ASSIGNED_CONTEXT((#1947,#1948,#1949)) REPRESENTATION_CONTEXT
('Context #1','3D Context with UNIT and UNCERTAINTY') );
#1947 = ( LENGTH_UNIT() NAMED_UNIT(*) SI_UNIT(.MILLI.,.METRE.) );
#1948 = ( NAMED_UNIT(*) PLANE_ANGLE_UNIT() SI_UNIT($,.RADIAN.) );
#1949 = ( NAMED_UNIT(*) SI_UNIT($,.STERADIAN.) SOLID_ANGLE_UNIT() );
#1950 = UNCERTAINTY_MEASURE_WITH_UNIT(LENGTH_MEASURE(5.E-05),#1947,
  'distance_accuracy_value','confusion accuracy');
#1951 = PRODUCT_RELATED_PRODUCT_CATEGORY('part',$,(#7));
ENDSEC;
END-ISO-10303-21;
