ISO-10303-21;
HEADER;
/* Generated by software containing ST-Developer
 * from STEP Tools, Inc. (www.steptools.com) 
 */

FILE_DESCRIPTION(
/* description */ (''),
/* implementation_level */ '2;1');

FILE_NAME(
/* name */ 'hardware_coupon.step',
/* time_stamp */ '2026-09-06T12:04:40+09:00',
/* author */ (''),
/* organization */ (''),
/* preprocessor_version */ 'ST-DEVELOPER v20.1',
/* originating_system */ 'Autodesk Translation Framework v15.8.0.0',
/* authorisation */ '');

FILE_SCHEMA (('AUTOMOTIVE_DESIGN { 1 0 10303 214 3 1 1 }'));
ENDSEC;

DATA;
#10=MECHANICAL_DESIGN_GEOMETRIC_PRESENTATION_REPRESENTATION('',(#13),#1041);
#11=SHAPE_REPRESENTATION_RELATIONSHIP('SRR','None',#1048,#12);
#12=ADVANCED_BREP_SHAPE_REPRESENTATION('',(#14),#1040);
#13=STYLED_ITEM('',(#1058),#14);
#14=MANIFOLD_SOLID_BREP('\X2\30DC30C730A3\X0\1',#641);
#15=FACE_BOUND('',#98,.T.);
#16=FACE_BOUND('',#108,.T.);
#17=FACE_BOUND('',#118,.T.);
#18=FACE_BOUND('',#125,.T.);
#19=FACE_BOUND('',#126,.T.);
#20=FACE_BOUND('',#127,.T.);
#21=FACE_BOUND('',#128,.T.);
#22=FACE_BOUND('',#129,.T.);
#23=FACE_BOUND('',#130,.T.);
#24=FACE_BOUND('',#132,.T.);
#25=FACE_BOUND('',#133,.T.);
#26=FACE_BOUND('',#134,.T.);
#27=FACE_BOUND('',#135,.T.);
#28=FACE_BOUND('',#136,.T.);
#29=FACE_BOUND('',#137,.T.);
#30=PLANE('',#658);
#31=PLANE('',#659);
#32=PLANE('',#660);
#33=PLANE('',#661);
#34=PLANE('',#662);
#35=PLANE('',#663);
#36=PLANE('',#664);
#37=PLANE('',#671);
#38=PLANE('',#672);
#39=PLANE('',#673);
#40=PLANE('',#674);
#41=PLANE('',#675);
#42=PLANE('',#676);
#43=PLANE('',#677);
#44=PLANE('',#684);
#45=PLANE('',#685);
#46=PLANE('',#686);
#47=PLANE('',#687);
#48=PLANE('',#688);
#49=PLANE('',#689);
#50=PLANE('',#690);
#51=PLANE('',#694);
#52=PLANE('',#695);
#53=PLANE('',#696);
#54=PLANE('',#697);
#55=PLANE('',#698);
#56=PLANE('',#699);
#57=FACE_OUTER_BOUND('',#90,.T.);
#58=FACE_OUTER_BOUND('',#91,.T.);
#59=FACE_OUTER_BOUND('',#92,.T.);
#60=FACE_OUTER_BOUND('',#93,.T.);
#61=FACE_OUTER_BOUND('',#94,.T.);
#62=FACE_OUTER_BOUND('',#95,.T.);
#63=FACE_OUTER_BOUND('',#96,.T.);
#64=FACE_OUTER_BOUND('',#97,.T.);
#65=FACE_OUTER_BOUND('',#99,.T.);
#66=FACE_OUTER_BOUND('',#100,.T.);
#67=FACE_OUTER_BOUND('',#101,.T.);
#68=FACE_OUTER_BOUND('',#102,.T.);
#69=FACE_OUTER_BOUND('',#103,.T.);
#70=FACE_OUTER_BOUND('',#104,.T.);
#71=FACE_OUTER_BOUND('',#105,.T.);
#72=FACE_OUTER_BOUND('',#106,.T.);
#73=FACE_OUTER_BOUND('',#107,.T.);
#74=FACE_OUTER_BOUND('',#109,.T.);
#75=FACE_OUTER_BOUND('',#110,.T.);
#76=FACE_OUTER_BOUND('',#111,.T.);
#77=FACE_OUTER_BOUND('',#112,.T.);
#78=FACE_OUTER_BOUND('',#113,.T.);
#79=FACE_OUTER_BOUND('',#114,.T.);
#80=FACE_OUTER_BOUND('',#115,.T.);
#81=FACE_OUTER_BOUND('',#116,.T.);
#82=FACE_OUTER_BOUND('',#117,.T.);
#83=FACE_OUTER_BOUND('',#119,.T.);
#84=FACE_OUTER_BOUND('',#120,.T.);
#85=FACE_OUTER_BOUND('',#121,.T.);
#86=FACE_OUTER_BOUND('',#122,.T.);
#87=FACE_OUTER_BOUND('',#123,.T.);
#88=FACE_OUTER_BOUND('',#124,.T.);
#89=FACE_OUTER_BOUND('',#131,.T.);
#90=EDGE_LOOP('',(#434,#435,#436,#437));
#91=EDGE_LOOP('',(#438,#439,#440,#441));
#92=EDGE_LOOP('',(#442,#443,#444,#445));
#93=EDGE_LOOP('',(#446,#447,#448,#449));
#94=EDGE_LOOP('',(#450,#451,#452,#453));
#95=EDGE_LOOP('',(#454,#455,#456,#457));
#96=EDGE_LOOP('',(#458,#459,#460,#461));
#97=EDGE_LOOP('',(#462,#463,#464,#465,#466,#467));
#98=EDGE_LOOP('',(#468));
#99=EDGE_LOOP('',(#469,#470,#471,#472));
#100=EDGE_LOOP('',(#473,#474,#475,#476));
#101=EDGE_LOOP('',(#477,#478,#479,#480));
#102=EDGE_LOOP('',(#481,#482,#483,#484));
#103=EDGE_LOOP('',(#485,#486,#487,#488));
#104=EDGE_LOOP('',(#489,#490,#491,#492));
#105=EDGE_LOOP('',(#493,#494,#495,#496));
#106=EDGE_LOOP('',(#497,#498,#499,#500));
#107=EDGE_LOOP('',(#501,#502,#503,#504,#505,#506));
#108=EDGE_LOOP('',(#507));
#109=EDGE_LOOP('',(#508,#509,#510,#511));
#110=EDGE_LOOP('',(#512,#513,#514,#515));
#111=EDGE_LOOP('',(#516,#517,#518,#519));
#112=EDGE_LOOP('',(#520,#521,#522,#523));
#113=EDGE_LOOP('',(#524,#525,#526,#527));
#114=EDGE_LOOP('',(#528,#529,#530,#531));
#115=EDGE_LOOP('',(#532,#533,#534,#535));
#116=EDGE_LOOP('',(#536,#537,#538,#539));
#117=EDGE_LOOP('',(#540,#541,#542,#543,#544,#545));
#118=EDGE_LOOP('',(#546));
#119=EDGE_LOOP('',(#547,#548,#549,#550));
#120=EDGE_LOOP('',(#551,#552,#553,#554));
#121=EDGE_LOOP('',(#555,#556,#557,#558));
#122=EDGE_LOOP('',(#559,#560,#561,#562));
#123=EDGE_LOOP('',(#563,#564,#565,#566));
#124=EDGE_LOOP('',(#567,#568,#569,#570));
#125=EDGE_LOOP('',(#571));
#126=EDGE_LOOP('',(#572,#573,#574,#575,#576,#577));
#127=EDGE_LOOP('',(#578));
#128=EDGE_LOOP('',(#579,#580,#581,#582,#583,#584));
#129=EDGE_LOOP('',(#585));
#130=EDGE_LOOP('',(#586,#587,#588,#589,#590,#591));
#131=EDGE_LOOP('',(#592,#593,#594,#595));
#132=EDGE_LOOP('',(#596));
#133=EDGE_LOOP('',(#597));
#134=EDGE_LOOP('',(#598));
#135=EDGE_LOOP('',(#599));
#136=EDGE_LOOP('',(#600));
#137=EDGE_LOOP('',(#601));
#138=LINE('',#869,#210);
#139=LINE('',#874,#211);
#140=LINE('',#876,#212);
#141=LINE('',#878,#213);
#142=LINE('',#879,#214);
#143=LINE('',#882,#215);
#144=LINE('',#884,#216);
#145=LINE('',#885,#217);
#146=LINE('',#888,#218);
#147=LINE('',#890,#219);
#148=LINE('',#891,#220);
#149=LINE('',#894,#221);
#150=LINE('',#896,#222);
#151=LINE('',#897,#223);
#152=LINE('',#900,#224);
#153=LINE('',#902,#225);
#154=LINE('',#903,#226);
#155=LINE('',#905,#227);
#156=LINE('',#906,#228);
#157=LINE('',#913,#229);
#158=LINE('',#918,#230);
#159=LINE('',#923,#231);
#160=LINE('',#925,#232);
#161=LINE('',#927,#233);
#162=LINE('',#928,#234);
#163=LINE('',#931,#235);
#164=LINE('',#933,#236);
#165=LINE('',#934,#237);
#166=LINE('',#937,#238);
#167=LINE('',#939,#239);
#168=LINE('',#940,#240);
#169=LINE('',#943,#241);
#170=LINE('',#945,#242);
#171=LINE('',#946,#243);
#172=LINE('',#949,#244);
#173=LINE('',#951,#245);
#174=LINE('',#952,#246);
#175=LINE('',#954,#247);
#176=LINE('',#955,#248);
#177=LINE('',#962,#249);
#178=LINE('',#967,#250);
#179=LINE('',#972,#251);
#180=LINE('',#974,#252);
#181=LINE('',#976,#253);
#182=LINE('',#977,#254);
#183=LINE('',#980,#255);
#184=LINE('',#982,#256);
#185=LINE('',#983,#257);
#186=LINE('',#986,#258);
#187=LINE('',#988,#259);
#188=LINE('',#989,#260);
#189=LINE('',#992,#261);
#190=LINE('',#994,#262);
#191=LINE('',#995,#263);
#192=LINE('',#998,#264);
#193=LINE('',#1000,#265);
#194=LINE('',#1001,#266);
#195=LINE('',#1003,#267);
#196=LINE('',#1004,#268);
#197=LINE('',#1011,#269);
#198=LINE('',#1015,#270);
#199=LINE('',#1017,#271);
#200=LINE('',#1019,#272);
#201=LINE('',#1020,#273);
#202=LINE('',#1023,#274);
#203=LINE('',#1025,#275);
#204=LINE('',#1026,#276);
#205=LINE('',#1029,#277);
#206=LINE('',#1031,#278);
#207=LINE('',#1032,#279);
#208=LINE('',#1034,#280);
#209=LINE('',#1035,#281);
#210=VECTOR('',#706,3.4);
#211=VECTOR('',#711,10.);
#212=VECTOR('',#712,10.);
#213=VECTOR('',#713,10.);
#214=VECTOR('',#714,10.);
#215=VECTOR('',#717,10.);
#216=VECTOR('',#718,10.);
#217=VECTOR('',#719,10.);
#218=VECTOR('',#722,10.);
#219=VECTOR('',#723,10.);
#220=VECTOR('',#724,10.);
#221=VECTOR('',#727,10.);
#222=VECTOR('',#728,10.);
#223=VECTOR('',#729,10.);
#224=VECTOR('',#732,10.);
#225=VECTOR('',#733,10.);
#226=VECTOR('',#734,10.);
#227=VECTOR('',#737,10.);
#228=VECTOR('',#738,10.);
#229=VECTOR('',#747,2.34999999999999);
#230=VECTOR('',#752,3.3);
#231=VECTOR('',#757,10.);
#232=VECTOR('',#758,10.);
#233=VECTOR('',#759,10.);
#234=VECTOR('',#760,10.);
#235=VECTOR('',#763,10.);
#236=VECTOR('',#764,10.);
#237=VECTOR('',#765,10.);
#238=VECTOR('',#768,10.);
#239=VECTOR('',#769,10.);
#240=VECTOR('',#770,10.);
#241=VECTOR('',#773,10.);
#242=VECTOR('',#774,10.);
#243=VECTOR('',#775,10.);
#244=VECTOR('',#778,10.);
#245=VECTOR('',#779,10.);
#246=VECTOR('',#780,10.);
#247=VECTOR('',#783,10.);
#248=VECTOR('',#784,10.);
#249=VECTOR('',#793,2.25);
#250=VECTOR('',#798,3.2);
#251=VECTOR('',#803,10.);
#252=VECTOR('',#804,10.);
#253=VECTOR('',#805,10.);
#254=VECTOR('',#806,10.);
#255=VECTOR('',#809,10.);
#256=VECTOR('',#810,10.);
#257=VECTOR('',#811,10.);
#258=VECTOR('',#814,10.);
#259=VECTOR('',#815,10.);
#260=VECTOR('',#816,10.);
#261=VECTOR('',#819,10.);
#262=VECTOR('',#820,10.);
#263=VECTOR('',#821,10.);
#264=VECTOR('',#824,10.);
#265=VECTOR('',#825,10.);
#266=VECTOR('',#826,10.);
#267=VECTOR('',#829,10.);
#268=VECTOR('',#830,10.);
#269=VECTOR('',#839,2.15);
#270=VECTOR('',#842,10.);
#271=VECTOR('',#843,10.);
#272=VECTOR('',#844,10.);
#273=VECTOR('',#845,10.);
#274=VECTOR('',#848,10.);
#275=VECTOR('',#849,10.);
#276=VECTOR('',#850,10.);
#277=VECTOR('',#853,10.);
#278=VECTOR('',#854,10.);
#279=VECTOR('',#855,10.);
#280=VECTOR('',#858,10.);
#281=VECTOR('',#859,10.);
#282=CIRCLE('',#656,3.4);
#283=CIRCLE('',#657,3.4);
#284=CIRCLE('',#665,2.34999999999999);
#285=CIRCLE('',#667,2.34999999999999);
#286=CIRCLE('',#669,3.3);
#287=CIRCLE('',#670,3.3);
#288=CIRCLE('',#678,2.25);
#289=CIRCLE('',#680,2.25);
#290=CIRCLE('',#682,3.2);
#291=CIRCLE('',#683,3.2);
#292=CIRCLE('',#691,2.15);
#293=CIRCLE('',#693,2.15);
#294=VERTEX_POINT('',#866);
#295=VERTEX_POINT('',#868);
#296=VERTEX_POINT('',#872);
#297=VERTEX_POINT('',#873);
#298=VERTEX_POINT('',#875);
#299=VERTEX_POINT('',#877);
#300=VERTEX_POINT('',#881);
#301=VERTEX_POINT('',#883);
#302=VERTEX_POINT('',#887);
#303=VERTEX_POINT('',#889);
#304=VERTEX_POINT('',#893);
#305=VERTEX_POINT('',#895);
#306=VERTEX_POINT('',#899);
#307=VERTEX_POINT('',#901);
#308=VERTEX_POINT('',#908);
#309=VERTEX_POINT('',#911);
#310=VERTEX_POINT('',#915);
#311=VERTEX_POINT('',#917);
#312=VERTEX_POINT('',#921);
#313=VERTEX_POINT('',#922);
#314=VERTEX_POINT('',#924);
#315=VERTEX_POINT('',#926);
#316=VERTEX_POINT('',#930);
#317=VERTEX_POINT('',#932);
#318=VERTEX_POINT('',#936);
#319=VERTEX_POINT('',#938);
#320=VERTEX_POINT('',#942);
#321=VERTEX_POINT('',#944);
#322=VERTEX_POINT('',#948);
#323=VERTEX_POINT('',#950);
#324=VERTEX_POINT('',#957);
#325=VERTEX_POINT('',#960);
#326=VERTEX_POINT('',#964);
#327=VERTEX_POINT('',#966);
#328=VERTEX_POINT('',#970);
#329=VERTEX_POINT('',#971);
#330=VERTEX_POINT('',#973);
#331=VERTEX_POINT('',#975);
#332=VERTEX_POINT('',#979);
#333=VERTEX_POINT('',#981);
#334=VERTEX_POINT('',#985);
#335=VERTEX_POINT('',#987);
#336=VERTEX_POINT('',#991);
#337=VERTEX_POINT('',#993);
#338=VERTEX_POINT('',#997);
#339=VERTEX_POINT('',#999);
#340=VERTEX_POINT('',#1006);
#341=VERTEX_POINT('',#1009);
#342=VERTEX_POINT('',#1013);
#343=VERTEX_POINT('',#1014);
#344=VERTEX_POINT('',#1016);
#345=VERTEX_POINT('',#1018);
#346=VERTEX_POINT('',#1022);
#347=VERTEX_POINT('',#1024);
#348=VERTEX_POINT('',#1028);
#349=VERTEX_POINT('',#1030);
#350=EDGE_CURVE('',#294,#294,#282,.T.);
#351=EDGE_CURVE('',#294,#295,#138,.T.);
#352=EDGE_CURVE('',#295,#295,#283,.T.);
#353=EDGE_CURVE('',#296,#297,#139,.T.);
#354=EDGE_CURVE('',#298,#296,#140,.T.);
#355=EDGE_CURVE('',#299,#298,#141,.T.);
#356=EDGE_CURVE('',#299,#297,#142,.T.);
#357=EDGE_CURVE('',#297,#300,#143,.T.);
#358=EDGE_CURVE('',#301,#299,#144,.T.);
#359=EDGE_CURVE('',#301,#300,#145,.T.);
#360=EDGE_CURVE('',#300,#302,#146,.T.);
#361=EDGE_CURVE('',#303,#301,#147,.T.);
#362=EDGE_CURVE('',#303,#302,#148,.T.);
#363=EDGE_CURVE('',#302,#304,#149,.T.);
#364=EDGE_CURVE('',#305,#303,#150,.T.);
#365=EDGE_CURVE('',#305,#304,#151,.T.);
#366=EDGE_CURVE('',#304,#306,#152,.T.);
#367=EDGE_CURVE('',#307,#305,#153,.T.);
#368=EDGE_CURVE('',#307,#306,#154,.T.);
#369=EDGE_CURVE('',#306,#296,#155,.T.);
#370=EDGE_CURVE('',#298,#307,#156,.T.);
#371=EDGE_CURVE('',#308,#308,#284,.T.);
#372=EDGE_CURVE('',#309,#309,#285,.T.);
#373=EDGE_CURVE('',#309,#308,#157,.T.);
#374=EDGE_CURVE('',#310,#310,#286,.T.);
#375=EDGE_CURVE('',#310,#311,#158,.T.);
#376=EDGE_CURVE('',#311,#311,#287,.T.);
#377=EDGE_CURVE('',#312,#313,#159,.T.);
#378=EDGE_CURVE('',#314,#312,#160,.T.);
#379=EDGE_CURVE('',#315,#314,#161,.T.);
#380=EDGE_CURVE('',#315,#313,#162,.T.);
#381=EDGE_CURVE('',#313,#316,#163,.T.);
#382=EDGE_CURVE('',#317,#315,#164,.T.);
#383=EDGE_CURVE('',#317,#316,#165,.T.);
#384=EDGE_CURVE('',#316,#318,#166,.T.);
#385=EDGE_CURVE('',#319,#317,#167,.T.);
#386=EDGE_CURVE('',#319,#318,#168,.T.);
#387=EDGE_CURVE('',#318,#320,#169,.T.);
#388=EDGE_CURVE('',#321,#319,#170,.T.);
#389=EDGE_CURVE('',#321,#320,#171,.T.);
#390=EDGE_CURVE('',#320,#322,#172,.T.);
#391=EDGE_CURVE('',#323,#321,#173,.T.);
#392=EDGE_CURVE('',#323,#322,#174,.T.);
#393=EDGE_CURVE('',#322,#312,#175,.T.);
#394=EDGE_CURVE('',#314,#323,#176,.T.);
#395=EDGE_CURVE('',#324,#324,#288,.T.);
#396=EDGE_CURVE('',#325,#325,#289,.T.);
#397=EDGE_CURVE('',#325,#324,#177,.T.);
#398=EDGE_CURVE('',#326,#326,#290,.T.);
#399=EDGE_CURVE('',#326,#327,#178,.T.);
#400=EDGE_CURVE('',#327,#327,#291,.T.);
#401=EDGE_CURVE('',#328,#329,#179,.T.);
#402=EDGE_CURVE('',#330,#328,#180,.T.);
#403=EDGE_CURVE('',#331,#330,#181,.T.);
#404=EDGE_CURVE('',#331,#329,#182,.T.);
#405=EDGE_CURVE('',#329,#332,#183,.T.);
#406=EDGE_CURVE('',#333,#331,#184,.T.);
#407=EDGE_CURVE('',#333,#332,#185,.T.);
#408=EDGE_CURVE('',#332,#334,#186,.T.);
#409=EDGE_CURVE('',#335,#333,#187,.T.);
#410=EDGE_CURVE('',#335,#334,#188,.T.);
#411=EDGE_CURVE('',#334,#336,#189,.T.);
#412=EDGE_CURVE('',#337,#335,#190,.T.);
#413=EDGE_CURVE('',#337,#336,#191,.T.);
#414=EDGE_CURVE('',#336,#338,#192,.T.);
#415=EDGE_CURVE('',#339,#337,#193,.T.);
#416=EDGE_CURVE('',#339,#338,#194,.T.);
#417=EDGE_CURVE('',#338,#328,#195,.T.);
#418=EDGE_CURVE('',#330,#339,#196,.T.);
#419=EDGE_CURVE('',#340,#340,#292,.T.);
#420=EDGE_CURVE('',#341,#341,#293,.T.);
#421=EDGE_CURVE('',#341,#340,#197,.T.);
#422=EDGE_CURVE('',#342,#343,#198,.T.);
#423=EDGE_CURVE('',#343,#344,#199,.T.);
#424=EDGE_CURVE('',#345,#344,#200,.T.);
#425=EDGE_CURVE('',#342,#345,#201,.T.);
#426=EDGE_CURVE('',#346,#342,#202,.T.);
#427=EDGE_CURVE('',#347,#345,#203,.T.);
#428=EDGE_CURVE('',#346,#347,#204,.T.);
#429=EDGE_CURVE('',#348,#346,#205,.T.);
#430=EDGE_CURVE('',#349,#347,#206,.T.);
#431=EDGE_CURVE('',#348,#349,#207,.T.);
#432=EDGE_CURVE('',#343,#348,#208,.T.);
#433=EDGE_CURVE('',#344,#349,#209,.T.);
#434=ORIENTED_EDGE('',*,*,#350,.F.);
#435=ORIENTED_EDGE('',*,*,#351,.T.);
#436=ORIENTED_EDGE('',*,*,#352,.F.);
#437=ORIENTED_EDGE('',*,*,#351,.F.);
#438=ORIENTED_EDGE('',*,*,#353,.F.);
#439=ORIENTED_EDGE('',*,*,#354,.F.);
#440=ORIENTED_EDGE('',*,*,#355,.F.);
#441=ORIENTED_EDGE('',*,*,#356,.T.);
#442=ORIENTED_EDGE('',*,*,#357,.F.);
#443=ORIENTED_EDGE('',*,*,#356,.F.);
#444=ORIENTED_EDGE('',*,*,#358,.F.);
#445=ORIENTED_EDGE('',*,*,#359,.T.);
#446=ORIENTED_EDGE('',*,*,#360,.F.);
#447=ORIENTED_EDGE('',*,*,#359,.F.);
#448=ORIENTED_EDGE('',*,*,#361,.F.);
#449=ORIENTED_EDGE('',*,*,#362,.T.);
#450=ORIENTED_EDGE('',*,*,#363,.F.);
#451=ORIENTED_EDGE('',*,*,#362,.F.);
#452=ORIENTED_EDGE('',*,*,#364,.F.);
#453=ORIENTED_EDGE('',*,*,#365,.T.);
#454=ORIENTED_EDGE('',*,*,#366,.F.);
#455=ORIENTED_EDGE('',*,*,#365,.F.);
#456=ORIENTED_EDGE('',*,*,#367,.F.);
#457=ORIENTED_EDGE('',*,*,#368,.T.);
#458=ORIENTED_EDGE('',*,*,#369,.F.);
#459=ORIENTED_EDGE('',*,*,#368,.F.);
#460=ORIENTED_EDGE('',*,*,#370,.F.);
#461=ORIENTED_EDGE('',*,*,#354,.T.);
#462=ORIENTED_EDGE('',*,*,#361,.T.);
#463=ORIENTED_EDGE('',*,*,#358,.T.);
#464=ORIENTED_EDGE('',*,*,#355,.T.);
#465=ORIENTED_EDGE('',*,*,#370,.T.);
#466=ORIENTED_EDGE('',*,*,#367,.T.);
#467=ORIENTED_EDGE('',*,*,#364,.T.);
#468=ORIENTED_EDGE('',*,*,#371,.F.);
#469=ORIENTED_EDGE('',*,*,#372,.F.);
#470=ORIENTED_EDGE('',*,*,#373,.T.);
#471=ORIENTED_EDGE('',*,*,#371,.T.);
#472=ORIENTED_EDGE('',*,*,#373,.F.);
#473=ORIENTED_EDGE('',*,*,#374,.F.);
#474=ORIENTED_EDGE('',*,*,#375,.T.);
#475=ORIENTED_EDGE('',*,*,#376,.F.);
#476=ORIENTED_EDGE('',*,*,#375,.F.);
#477=ORIENTED_EDGE('',*,*,#377,.F.);
#478=ORIENTED_EDGE('',*,*,#378,.F.);
#479=ORIENTED_EDGE('',*,*,#379,.F.);
#480=ORIENTED_EDGE('',*,*,#380,.T.);
#481=ORIENTED_EDGE('',*,*,#381,.F.);
#482=ORIENTED_EDGE('',*,*,#380,.F.);
#483=ORIENTED_EDGE('',*,*,#382,.F.);
#484=ORIENTED_EDGE('',*,*,#383,.T.);
#485=ORIENTED_EDGE('',*,*,#384,.F.);
#486=ORIENTED_EDGE('',*,*,#383,.F.);
#487=ORIENTED_EDGE('',*,*,#385,.F.);
#488=ORIENTED_EDGE('',*,*,#386,.T.);
#489=ORIENTED_EDGE('',*,*,#387,.F.);
#490=ORIENTED_EDGE('',*,*,#386,.F.);
#491=ORIENTED_EDGE('',*,*,#388,.F.);
#492=ORIENTED_EDGE('',*,*,#389,.T.);
#493=ORIENTED_EDGE('',*,*,#390,.F.);
#494=ORIENTED_EDGE('',*,*,#389,.F.);
#495=ORIENTED_EDGE('',*,*,#391,.F.);
#496=ORIENTED_EDGE('',*,*,#392,.T.);
#497=ORIENTED_EDGE('',*,*,#393,.F.);
#498=ORIENTED_EDGE('',*,*,#392,.F.);
#499=ORIENTED_EDGE('',*,*,#394,.F.);
#500=ORIENTED_EDGE('',*,*,#378,.T.);
#501=ORIENTED_EDGE('',*,*,#385,.T.);
#502=ORIENTED_EDGE('',*,*,#382,.T.);
#503=ORIENTED_EDGE('',*,*,#379,.T.);
#504=ORIENTED_EDGE('',*,*,#394,.T.);
#505=ORIENTED_EDGE('',*,*,#391,.T.);
#506=ORIENTED_EDGE('',*,*,#388,.T.);
#507=ORIENTED_EDGE('',*,*,#395,.F.);
#508=ORIENTED_EDGE('',*,*,#396,.F.);
#509=ORIENTED_EDGE('',*,*,#397,.T.);
#510=ORIENTED_EDGE('',*,*,#395,.T.);
#511=ORIENTED_EDGE('',*,*,#397,.F.);
#512=ORIENTED_EDGE('',*,*,#398,.F.);
#513=ORIENTED_EDGE('',*,*,#399,.T.);
#514=ORIENTED_EDGE('',*,*,#400,.F.);
#515=ORIENTED_EDGE('',*,*,#399,.F.);
#516=ORIENTED_EDGE('',*,*,#401,.F.);
#517=ORIENTED_EDGE('',*,*,#402,.F.);
#518=ORIENTED_EDGE('',*,*,#403,.F.);
#519=ORIENTED_EDGE('',*,*,#404,.T.);
#520=ORIENTED_EDGE('',*,*,#405,.F.);
#521=ORIENTED_EDGE('',*,*,#404,.F.);
#522=ORIENTED_EDGE('',*,*,#406,.F.);
#523=ORIENTED_EDGE('',*,*,#407,.T.);
#524=ORIENTED_EDGE('',*,*,#408,.F.);
#525=ORIENTED_EDGE('',*,*,#407,.F.);
#526=ORIENTED_EDGE('',*,*,#409,.F.);
#527=ORIENTED_EDGE('',*,*,#410,.T.);
#528=ORIENTED_EDGE('',*,*,#411,.F.);
#529=ORIENTED_EDGE('',*,*,#410,.F.);
#530=ORIENTED_EDGE('',*,*,#412,.F.);
#531=ORIENTED_EDGE('',*,*,#413,.T.);
#532=ORIENTED_EDGE('',*,*,#414,.F.);
#533=ORIENTED_EDGE('',*,*,#413,.F.);
#534=ORIENTED_EDGE('',*,*,#415,.F.);
#535=ORIENTED_EDGE('',*,*,#416,.T.);
#536=ORIENTED_EDGE('',*,*,#417,.F.);
#537=ORIENTED_EDGE('',*,*,#416,.F.);
#538=ORIENTED_EDGE('',*,*,#418,.F.);
#539=ORIENTED_EDGE('',*,*,#402,.T.);
#540=ORIENTED_EDGE('',*,*,#409,.T.);
#541=ORIENTED_EDGE('',*,*,#406,.T.);
#542=ORIENTED_EDGE('',*,*,#403,.T.);
#543=ORIENTED_EDGE('',*,*,#418,.T.);
#544=ORIENTED_EDGE('',*,*,#415,.T.);
#545=ORIENTED_EDGE('',*,*,#412,.T.);
#546=ORIENTED_EDGE('',*,*,#419,.F.);
#547=ORIENTED_EDGE('',*,*,#420,.F.);
#548=ORIENTED_EDGE('',*,*,#421,.T.);
#549=ORIENTED_EDGE('',*,*,#419,.T.);
#550=ORIENTED_EDGE('',*,*,#421,.F.);
#551=ORIENTED_EDGE('',*,*,#422,.T.);
#552=ORIENTED_EDGE('',*,*,#423,.T.);
#553=ORIENTED_EDGE('',*,*,#424,.F.);
#554=ORIENTED_EDGE('',*,*,#425,.F.);
#555=ORIENTED_EDGE('',*,*,#426,.T.);
#556=ORIENTED_EDGE('',*,*,#425,.T.);
#557=ORIENTED_EDGE('',*,*,#427,.F.);
#558=ORIENTED_EDGE('',*,*,#428,.F.);
#559=ORIENTED_EDGE('',*,*,#429,.T.);
#560=ORIENTED_EDGE('',*,*,#428,.T.);
#561=ORIENTED_EDGE('',*,*,#430,.F.);
#562=ORIENTED_EDGE('',*,*,#431,.F.);
#563=ORIENTED_EDGE('',*,*,#432,.T.);
#564=ORIENTED_EDGE('',*,*,#431,.T.);
#565=ORIENTED_EDGE('',*,*,#433,.F.);
#566=ORIENTED_EDGE('',*,*,#423,.F.);
#567=ORIENTED_EDGE('',*,*,#433,.T.);
#568=ORIENTED_EDGE('',*,*,#430,.T.);
#569=ORIENTED_EDGE('',*,*,#427,.T.);
#570=ORIENTED_EDGE('',*,*,#424,.T.);
#571=ORIENTED_EDGE('',*,*,#352,.T.);
#572=ORIENTED_EDGE('',*,*,#363,.T.);
#573=ORIENTED_EDGE('',*,*,#366,.T.);
#574=ORIENTED_EDGE('',*,*,#369,.T.);
#575=ORIENTED_EDGE('',*,*,#353,.T.);
#576=ORIENTED_EDGE('',*,*,#357,.T.);
#577=ORIENTED_EDGE('',*,*,#360,.T.);
#578=ORIENTED_EDGE('',*,*,#376,.T.);
#579=ORIENTED_EDGE('',*,*,#387,.T.);
#580=ORIENTED_EDGE('',*,*,#390,.T.);
#581=ORIENTED_EDGE('',*,*,#393,.T.);
#582=ORIENTED_EDGE('',*,*,#377,.T.);
#583=ORIENTED_EDGE('',*,*,#381,.T.);
#584=ORIENTED_EDGE('',*,*,#384,.T.);
#585=ORIENTED_EDGE('',*,*,#400,.T.);
#586=ORIENTED_EDGE('',*,*,#411,.T.);
#587=ORIENTED_EDGE('',*,*,#414,.T.);
#588=ORIENTED_EDGE('',*,*,#417,.T.);
#589=ORIENTED_EDGE('',*,*,#401,.T.);
#590=ORIENTED_EDGE('',*,*,#405,.T.);
#591=ORIENTED_EDGE('',*,*,#408,.T.);
#592=ORIENTED_EDGE('',*,*,#432,.F.);
#593=ORIENTED_EDGE('',*,*,#422,.F.);
#594=ORIENTED_EDGE('',*,*,#426,.F.);
#595=ORIENTED_EDGE('',*,*,#429,.F.);
#596=ORIENTED_EDGE('',*,*,#350,.T.);
#597=ORIENTED_EDGE('',*,*,#372,.T.);
#598=ORIENTED_EDGE('',*,*,#374,.T.);
#599=ORIENTED_EDGE('',*,*,#396,.T.);
#600=ORIENTED_EDGE('',*,*,#398,.T.);
#601=ORIENTED_EDGE('',*,*,#420,.T.);
#602=CYLINDRICAL_SURFACE('',#655,3.4);
#603=CYLINDRICAL_SURFACE('',#666,2.34999999999999);
#604=CYLINDRICAL_SURFACE('',#668,3.3);
#605=CYLINDRICAL_SURFACE('',#679,2.25);
#606=CYLINDRICAL_SURFACE('',#681,3.2);
#607=CYLINDRICAL_SURFACE('',#692,2.15);
#608=ADVANCED_FACE('',(#57),#602,.F.);
#609=ADVANCED_FACE('',(#58),#30,.F.);
#610=ADVANCED_FACE('',(#59),#31,.F.);
#611=ADVANCED_FACE('',(#60),#32,.F.);
#612=ADVANCED_FACE('',(#61),#33,.F.);
#613=ADVANCED_FACE('',(#62),#34,.F.);
#614=ADVANCED_FACE('',(#63),#35,.F.);
#615=ADVANCED_FACE('',(#64,#15),#36,.T.);
#616=ADVANCED_FACE('',(#65),#603,.F.);
#617=ADVANCED_FACE('',(#66),#604,.F.);
#618=ADVANCED_FACE('',(#67),#37,.F.);
#619=ADVANCED_FACE('',(#68),#38,.F.);
#620=ADVANCED_FACE('',(#69),#39,.F.);
#621=ADVANCED_FACE('',(#70),#40,.F.);
#622=ADVANCED_FACE('',(#71),#41,.F.);
#623=ADVANCED_FACE('',(#72),#42,.F.);
#624=ADVANCED_FACE('',(#73,#16),#43,.T.);
#625=ADVANCED_FACE('',(#74),#605,.F.);
#626=ADVANCED_FACE('',(#75),#606,.F.);
#627=ADVANCED_FACE('',(#76),#44,.F.);
#628=ADVANCED_FACE('',(#77),#45,.F.);
#629=ADVANCED_FACE('',(#78),#46,.F.);
#630=ADVANCED_FACE('',(#79),#47,.F.);
#631=ADVANCED_FACE('',(#80),#48,.F.);
#632=ADVANCED_FACE('',(#81),#49,.F.);
#633=ADVANCED_FACE('',(#82,#17),#50,.T.);
#634=ADVANCED_FACE('',(#83),#607,.F.);
#635=ADVANCED_FACE('',(#84),#51,.T.);
#636=ADVANCED_FACE('',(#85),#52,.T.);
#637=ADVANCED_FACE('',(#86),#53,.T.);
#638=ADVANCED_FACE('',(#87),#54,.T.);
#639=ADVANCED_FACE('',(#88,#18,#19,#20,#21,#22,#23),#55,.T.);
#640=ADVANCED_FACE('',(#89,#24,#25,#26,#27,#28,#29),#56,.F.);
#641=CLOSED_SHELL('',(#608,#609,#610,#611,#612,#613,#614,#615,#616,#617,
#618,#619,#620,#621,#622,#623,#624,#625,#626,#627,#628,#629,#630,#631,#632,
#633,#634,#635,#636,#637,#638,#639,#640));
#642=DERIVED_UNIT_ELEMENT(#644,1.);
#643=DERIVED_UNIT_ELEMENT(#1043,-3.);
#644=(
MASS_UNIT()
NAMED_UNIT(*)
SI_UNIT(.KILO.,.GRAM.)
);
#645=DERIVED_UNIT((#642,#643));
#646=MEASURE_REPRESENTATION_ITEM('density measure',
POSITIVE_RATIO_MEASURE(7850.),#645);
#647=PROPERTY_DEFINITION_REPRESENTATION(#652,#649);
#648=PROPERTY_DEFINITION_REPRESENTATION(#653,#650);
#649=REPRESENTATION('material name',(#651),#1040);
#650=REPRESENTATION('density',(#646),#1040);
#651=DESCRIPTIVE_REPRESENTATION_ITEM('\X2\92FC\X0\','\X2\92FC\X0\');
#652=PROPERTY_DEFINITION('material property','material name',#1050);
#653=PROPERTY_DEFINITION('material property','density of part',#1050);
#654=AXIS2_PLACEMENT_3D('',#864,#700,#701);
#655=AXIS2_PLACEMENT_3D('',#865,#702,#703);
#656=AXIS2_PLACEMENT_3D('',#867,#704,#705);
#657=AXIS2_PLACEMENT_3D('',#870,#707,#708);
#658=AXIS2_PLACEMENT_3D('',#871,#709,#710);
#659=AXIS2_PLACEMENT_3D('',#880,#715,#716);
#660=AXIS2_PLACEMENT_3D('',#886,#720,#721);
#661=AXIS2_PLACEMENT_3D('',#892,#725,#726);
#662=AXIS2_PLACEMENT_3D('',#898,#730,#731);
#663=AXIS2_PLACEMENT_3D('',#904,#735,#736);
#664=AXIS2_PLACEMENT_3D('',#907,#739,#740);
#665=AXIS2_PLACEMENT_3D('',#909,#741,#742);
#666=AXIS2_PLACEMENT_3D('',#910,#743,#744);
#667=AXIS2_PLACEMENT_3D('',#912,#745,#746);
#668=AXIS2_PLACEMENT_3D('',#914,#748,#749);
#669=AXIS2_PLACEMENT_3D('',#916,#750,#751);
#670=AXIS2_PLACEMENT_3D('',#919,#753,#754);
#671=AXIS2_PLACEMENT_3D('',#920,#755,#756);
#672=AXIS2_PLACEMENT_3D('',#929,#761,#762);
#673=AXIS2_PLACEMENT_3D('',#935,#766,#767);
#674=AXIS2_PLACEMENT_3D('',#941,#771,#772);
#675=AXIS2_PLACEMENT_3D('',#947,#776,#777);
#676=AXIS2_PLACEMENT_3D('',#953,#781,#782);
#677=AXIS2_PLACEMENT_3D('',#956,#785,#786);
#678=AXIS2_PLACEMENT_3D('',#958,#787,#788);
#679=AXIS2_PLACEMENT_3D('',#959,#789,#790);
#680=AXIS2_PLACEMENT_3D('',#961,#791,#792);
#681=AXIS2_PLACEMENT_3D('',#963,#794,#795);
#682=AXIS2_PLACEMENT_3D('',#965,#796,#797);
#683=AXIS2_PLACEMENT_3D('',#968,#799,#800);
#684=AXIS2_PLACEMENT_3D('',#969,#801,#802);
#685=AXIS2_PLACEMENT_3D('',#978,#807,#808);
#686=AXIS2_PLACEMENT_3D('',#984,#812,#813);
#687=AXIS2_PLACEMENT_3D('',#990,#817,#818);
#688=AXIS2_PLACEMENT_3D('',#996,#822,#823);
#689=AXIS2_PLACEMENT_3D('',#1002,#827,#828);
#690=AXIS2_PLACEMENT_3D('',#1005,#831,#832);
#691=AXIS2_PLACEMENT_3D('',#1007,#833,#834);
#692=AXIS2_PLACEMENT_3D('',#1008,#835,#836);
#693=AXIS2_PLACEMENT_3D('',#1010,#837,#838);
#694=AXIS2_PLACEMENT_3D('',#1012,#840,#841);
#695=AXIS2_PLACEMENT_3D('',#1021,#846,#847);
#696=AXIS2_PLACEMENT_3D('',#1027,#851,#852);
#697=AXIS2_PLACEMENT_3D('',#1033,#856,#857);
#698=AXIS2_PLACEMENT_3D('',#1036,#860,#861);
#699=AXIS2_PLACEMENT_3D('',#1037,#862,#863);
#700=DIRECTION('axis',(0.,0.,1.));
#701=DIRECTION('refdir',(1.,0.,0.));
#702=DIRECTION('center_axis',(0.,0.,1.));
#703=DIRECTION('ref_axis',(1.,0.,0.));
#704=DIRECTION('center_axis',(0.,0.,1.));
#705=DIRECTION('ref_axis',(1.,0.,0.));
#706=DIRECTION('',(0.,0.,1.));
#707=DIRECTION('center_axis',(0.,0.,-1.));
#708=DIRECTION('ref_axis',(1.,0.,0.));
#709=DIRECTION('center_axis',(1.99788331052838E-15,1.,0.));
#710=DIRECTION('ref_axis',(-1.,1.99788331052838E-15,0.));
#711=DIRECTION('',(1.,-1.99788331052838E-15,0.));
#712=DIRECTION('',(0.,0.,1.));
#713=DIRECTION('',(-1.,1.99788331052838E-15,0.));
#714=DIRECTION('',(0.,0.,1.));
#715=DIRECTION('center_axis',(0.866025403784439,0.499999999999999,0.));
#716=DIRECTION('ref_axis',(-0.499999999999999,0.866025403784439,0.));
#717=DIRECTION('',(0.499999999999999,-0.866025403784439,0.));
#718=DIRECTION('',(-0.499999999999999,0.866025403784439,0.));
#719=DIRECTION('',(0.,0.,1.));
#720=DIRECTION('center_axis',(0.866025403784438,-0.500000000000001,0.));
#721=DIRECTION('ref_axis',(0.500000000000001,0.866025403784438,0.));
#722=DIRECTION('',(-0.500000000000001,-0.866025403784438,0.));
#723=DIRECTION('',(0.500000000000001,0.866025403784438,0.));
#724=DIRECTION('',(0.,0.,1.));
#725=DIRECTION('center_axis',(-2.49735413816047E-15,-1.,0.));
#726=DIRECTION('ref_axis',(1.,-2.49735413816047E-15,0.));
#727=DIRECTION('',(-1.,2.49735413816047E-15,0.));
#728=DIRECTION('',(1.,-2.49735413816047E-15,0.));
#729=DIRECTION('',(0.,0.,1.));
#730=DIRECTION('center_axis',(-0.86602540378444,-0.499999999999998,0.));
#731=DIRECTION('ref_axis',(0.499999999999998,-0.86602540378444,0.));
#732=DIRECTION('',(-0.499999999999998,0.86602540378444,0.));
#733=DIRECTION('',(0.499999999999998,-0.86602540378444,0.));
#734=DIRECTION('',(0.,0.,1.));
#735=DIRECTION('center_axis',(-0.866025403784437,0.500000000000002,0.));
#736=DIRECTION('ref_axis',(-0.500000000000002,-0.866025403784437,0.));
#737=DIRECTION('',(0.500000000000002,0.866025403784437,0.));
#738=DIRECTION('',(-0.500000000000002,-0.866025403784437,0.));
#739=DIRECTION('center_axis',(0.,0.,1.));
#740=DIRECTION('ref_axis',(1.,0.,0.));
#741=DIRECTION('center_axis',(0.,0.,1.));
#742=DIRECTION('ref_axis',(1.,0.,0.));
#743=DIRECTION('center_axis',(0.,0.,1.));
#744=DIRECTION('ref_axis',(1.,0.,0.));
#745=DIRECTION('center_axis',(0.,0.,1.));
#746=DIRECTION('ref_axis',(1.,0.,0.));
#747=DIRECTION('',(0.,0.,1.));
#748=DIRECTION('center_axis',(0.,0.,1.));
#749=DIRECTION('ref_axis',(1.,0.,0.));
#750=DIRECTION('center_axis',(0.,0.,1.));
#751=DIRECTION('ref_axis',(1.,0.,0.));
#752=DIRECTION('',(0.,0.,1.));
#753=DIRECTION('center_axis',(0.,0.,-1.));
#754=DIRECTION('ref_axis',(1.,0.,0.));
#755=DIRECTION('center_axis',(1.02558009940457E-15,1.,0.));
#756=DIRECTION('ref_axis',(-1.,1.02558009940457E-15,0.));
#757=DIRECTION('',(1.,-1.02558009940457E-15,0.));
#758=DIRECTION('',(0.,0.,1.));
#759=DIRECTION('',(-1.,1.02558009940457E-15,0.));
#760=DIRECTION('',(0.,0.,1.));
#761=DIRECTION('center_axis',(0.866025403784439,0.499999999999999,0.));
#762=DIRECTION('ref_axis',(-0.499999999999999,0.866025403784439,0.));
#763=DIRECTION('',(0.499999999999999,-0.866025403784439,0.));
#764=DIRECTION('',(-0.499999999999999,0.866025403784439,0.));
#765=DIRECTION('',(0.,0.,1.));
#766=DIRECTION('center_axis',(0.866025403784438,-0.500000000000001,0.));
#767=DIRECTION('ref_axis',(0.500000000000001,0.866025403784438,0.));
#768=DIRECTION('',(-0.500000000000001,-0.866025403784438,0.));
#769=DIRECTION('',(0.500000000000001,0.866025403784438,0.));
#770=DIRECTION('',(0.,0.,1.));
#771=DIRECTION('center_axis',(-1.28197512425571E-15,-1.,0.));
#772=DIRECTION('ref_axis',(1.,-1.28197512425571E-15,0.));
#773=DIRECTION('',(-1.,1.28197512425571E-15,0.));
#774=DIRECTION('',(1.,-1.28197512425571E-15,0.));
#775=DIRECTION('',(0.,0.,1.));
#776=DIRECTION('center_axis',(-0.866025403784439,-0.499999999999999,0.));
#777=DIRECTION('ref_axis',(0.499999999999999,-0.866025403784439,0.));
#778=DIRECTION('',(-0.499999999999999,0.866025403784439,0.));
#779=DIRECTION('',(0.499999999999999,-0.866025403784439,0.));
#780=DIRECTION('',(0.,0.,1.));
#781=DIRECTION('center_axis',(-0.866025403784438,0.500000000000001,0.));
#782=DIRECTION('ref_axis',(-0.500000000000001,-0.866025403784438,0.));
#783=DIRECTION('',(0.500000000000001,0.866025403784438,0.));
#784=DIRECTION('',(-0.500000000000001,-0.866025403784438,0.));
#785=DIRECTION('center_axis',(0.,0.,1.));
#786=DIRECTION('ref_axis',(1.,0.,0.));
#787=DIRECTION('center_axis',(0.,0.,1.));
#788=DIRECTION('ref_axis',(1.,0.,0.));
#789=DIRECTION('center_axis',(0.,0.,1.));
#790=DIRECTION('ref_axis',(1.,0.,0.));
#791=DIRECTION('center_axis',(0.,0.,1.));
#792=DIRECTION('ref_axis',(1.,0.,0.));
#793=DIRECTION('',(0.,0.,1.));
#794=DIRECTION('center_axis',(0.,0.,1.));
#795=DIRECTION('ref_axis',(1.,0.,0.));
#796=DIRECTION('center_axis',(0.,0.,1.));
#797=DIRECTION('ref_axis',(1.,0.,0.));
#798=DIRECTION('',(0.,0.,1.));
#799=DIRECTION('center_axis',(0.,0.,-1.));
#800=DIRECTION('ref_axis',(1.,0.,0.));
#801=DIRECTION('center_axis',(0.,1.,0.));
#802=DIRECTION('ref_axis',(-1.,0.,0.));
#803=DIRECTION('',(1.,0.,0.));
#804=DIRECTION('',(0.,0.,1.));
#805=DIRECTION('',(-1.,0.,0.));
#806=DIRECTION('',(0.,0.,1.));
#807=DIRECTION('center_axis',(0.866025403784439,0.5,0.));
#808=DIRECTION('ref_axis',(-0.5,0.866025403784439,0.));
#809=DIRECTION('',(0.5,-0.866025403784439,0.));
#810=DIRECTION('',(-0.5,0.866025403784439,0.));
#811=DIRECTION('',(0.,0.,1.));
#812=DIRECTION('center_axis',(0.866025403784438,-0.500000000000001,0.));
#813=DIRECTION('ref_axis',(0.500000000000001,0.866025403784438,0.));
#814=DIRECTION('',(-0.500000000000001,-0.866025403784438,0.));
#815=DIRECTION('',(0.500000000000001,0.866025403784438,0.));
#816=DIRECTION('',(0.,0.,1.));
#817=DIRECTION('center_axis',(-7.90258638239821E-16,-1.,0.));
#818=DIRECTION('ref_axis',(1.,-7.90258638239821E-16,0.));
#819=DIRECTION('',(-1.,7.90258638239821E-16,0.));
#820=DIRECTION('',(1.,-7.90258638239821E-16,0.));
#821=DIRECTION('',(0.,0.,1.));
#822=DIRECTION('center_axis',(-0.866025403784439,-0.499999999999999,0.));
#823=DIRECTION('ref_axis',(0.499999999999999,-0.866025403784439,0.));
#824=DIRECTION('',(-0.499999999999999,0.866025403784439,0.));
#825=DIRECTION('',(0.499999999999999,-0.866025403784439,0.));
#826=DIRECTION('',(0.,0.,1.));
#827=DIRECTION('center_axis',(-0.866025403784438,0.5,0.));
#828=DIRECTION('ref_axis',(-0.5,-0.866025403784438,0.));
#829=DIRECTION('',(0.5,0.866025403784438,0.));
#830=DIRECTION('',(-0.5,-0.866025403784438,0.));
#831=DIRECTION('center_axis',(0.,0.,1.));
#832=DIRECTION('ref_axis',(1.,0.,0.));
#833=DIRECTION('center_axis',(0.,0.,1.));
#834=DIRECTION('ref_axis',(1.,0.,0.));
#835=DIRECTION('center_axis',(0.,0.,1.));
#836=DIRECTION('ref_axis',(1.,0.,0.));
#837=DIRECTION('center_axis',(0.,0.,1.));
#838=DIRECTION('ref_axis',(1.,0.,0.));
#839=DIRECTION('',(0.,0.,1.));
#840=DIRECTION('center_axis',(0.,1.,0.));
#841=DIRECTION('ref_axis',(-1.,0.,0.));
#842=DIRECTION('',(-1.,0.,0.));
#843=DIRECTION('',(0.,0.,1.));
#844=DIRECTION('',(-1.,0.,0.));
#845=DIRECTION('',(0.,0.,1.));
#846=DIRECTION('center_axis',(1.,0.,0.));
#847=DIRECTION('ref_axis',(0.,1.,0.));
#848=DIRECTION('',(0.,1.,0.));
#849=DIRECTION('',(0.,1.,0.));
#850=DIRECTION('',(0.,0.,1.));
#851=DIRECTION('center_axis',(0.,-1.,0.));
#852=DIRECTION('ref_axis',(1.,0.,0.));
#853=DIRECTION('',(1.,0.,0.));
#854=DIRECTION('',(1.,0.,0.));
#855=DIRECTION('',(0.,0.,1.));
#856=DIRECTION('center_axis',(-1.,0.,0.));
#857=DIRECTION('ref_axis',(0.,-1.,0.));
#858=DIRECTION('',(0.,-1.,0.));
#859=DIRECTION('',(0.,-1.,0.));
#860=DIRECTION('center_axis',(0.,0.,1.));
#861=DIRECTION('ref_axis',(1.,0.,0.));
#862=DIRECTION('center_axis',(0.,0.,1.));
#863=DIRECTION('ref_axis',(1.,0.,0.));
#864=CARTESIAN_POINT('',(0.,0.,0.));
#865=CARTESIAN_POINT('Origin',(80.,32.,-1.));
#866=CARTESIAN_POINT('',(76.6,32.,0.));
#867=CARTESIAN_POINT('Origin',(80.,32.,0.));
#868=CARTESIAN_POINT('',(76.6,32.,8.));
#869=CARTESIAN_POINT('',(76.6,32.,-1.));
#870=CARTESIAN_POINT('Origin',(80.,32.,8.));
#871=CARTESIAN_POINT('Origin',(82.2227985363801,15.85,4.3));
#872=CARTESIAN_POINT('',(77.7772014636199,15.85,8.));
#873=CARTESIAN_POINT('',(82.2227985363801,15.85,8.));
#874=CARTESIAN_POINT('',(65.11139926819,15.85,8.));
#875=CARTESIAN_POINT('',(77.7772014636199,15.85,4.3));
#876=CARTESIAN_POINT('',(77.7772014636199,15.85,4.3));
#877=CARTESIAN_POINT('',(82.2227985363801,15.85,4.3));
#878=CARTESIAN_POINT('',(82.2227985363801,15.85,4.3));
#879=CARTESIAN_POINT('',(82.2227985363801,15.85,4.3));
#880=CARTESIAN_POINT('Origin',(84.4455970727601,12.,4.3));
#881=CARTESIAN_POINT('',(84.4455970727601,12.,8.));
#882=CARTESIAN_POINT('',(77.724833929204,23.6407032302755,8.));
#883=CARTESIAN_POINT('',(84.4455970727601,12.,4.3));
#884=CARTESIAN_POINT('',(84.4455970727601,12.,4.3));
#885=CARTESIAN_POINT('',(84.4455970727601,12.,4.3));
#886=CARTESIAN_POINT('Origin',(82.2227985363801,8.15,4.3));
#887=CARTESIAN_POINT('',(82.2227985363801,8.15,8.));
#888=CARTESIAN_POINT('',(80.9435616799362,5.93429676972447,8.));
#889=CARTESIAN_POINT('',(82.2227985363801,8.15,4.3));
#890=CARTESIAN_POINT('',(82.2227985363801,8.15,4.3));
#891=CARTESIAN_POINT('',(82.2227985363801,8.15,4.3));
#892=CARTESIAN_POINT('Origin',(77.7772014636199,8.15000000000001,4.3));
#893=CARTESIAN_POINT('',(77.7772014636199,8.15000000000001,8.));
#894=CARTESIAN_POINT('',(62.88860073181,8.15000000000004,8.));
#895=CARTESIAN_POINT('',(77.7772014636199,8.15000000000001,4.3));
#896=CARTESIAN_POINT('',(77.7772014636199,8.15000000000001,4.3));
#897=CARTESIAN_POINT('',(77.7772014636199,8.15000000000001,4.3));
#898=CARTESIAN_POINT('Origin',(75.5544029272399,12.,4.3));
#899=CARTESIAN_POINT('',(75.5544029272399,12.,8.));
#900=CARTESIAN_POINT('',(69.9450390518738,21.7157032302755,8.));
#901=CARTESIAN_POINT('',(75.5544029272399,12.,4.3));
#902=CARTESIAN_POINT('',(75.5544029272399,12.,4.3));
#903=CARTESIAN_POINT('',(75.5544029272399,12.,4.3));
#904=CARTESIAN_POINT('Origin',(77.7772014636199,15.85,4.3));
#905=CARTESIAN_POINT('',(75.386565338986,11.7092967697245,8.));
#906=CARTESIAN_POINT('',(77.7772014636199,15.85,4.3));
#907=CARTESIAN_POINT('Origin',(80.,12.,4.3));
#908=CARTESIAN_POINT('',(77.65,12.,4.3));
#909=CARTESIAN_POINT('Origin',(80.,12.,4.3));
#910=CARTESIAN_POINT('Origin',(80.,12.,-1.));
#911=CARTESIAN_POINT('',(77.65,12.,0.));
#912=CARTESIAN_POINT('Origin',(80.,12.,0.));
#913=CARTESIAN_POINT('',(77.65,12.,-1.));
#914=CARTESIAN_POINT('Origin',(48.,32.,-1.));
#915=CARTESIAN_POINT('',(44.7,32.,0.));
#916=CARTESIAN_POINT('Origin',(48.,32.,0.));
#917=CARTESIAN_POINT('',(44.7,32.,8.));
#918=CARTESIAN_POINT('',(44.7,32.,-1.));
#919=CARTESIAN_POINT('Origin',(48.,32.,8.));
#920=CARTESIAN_POINT('Origin',(50.1650635094611,15.75,4.3));
#921=CARTESIAN_POINT('',(45.8349364905389,15.75,8.));
#922=CARTESIAN_POINT('',(50.1650635094611,15.75,8.));
#923=CARTESIAN_POINT('',(49.0825317547306,15.75,8.));
#924=CARTESIAN_POINT('',(45.8349364905389,15.75,4.3));
#925=CARTESIAN_POINT('',(45.8349364905389,15.75,4.3));
#926=CARTESIAN_POINT('',(50.1650635094611,15.75,4.3));
#927=CARTESIAN_POINT('',(50.1650635094611,15.75,4.3));
#928=CARTESIAN_POINT('',(50.1650635094611,15.75,4.3));
#929=CARTESIAN_POINT('Origin',(52.3301270189222,12.,4.3));
#930=CARTESIAN_POINT('',(52.3301270189222,12.,8.));
#931=CARTESIAN_POINT('',(49.6237976320958,16.6875,8.));
#932=CARTESIAN_POINT('',(52.3301270189222,12.,4.3));
#933=CARTESIAN_POINT('',(52.3301270189222,12.,4.3));
#934=CARTESIAN_POINT('',(52.3301270189222,12.,4.3));
#935=CARTESIAN_POINT('Origin',(50.1650635094611,8.25,4.3));
#936=CARTESIAN_POINT('',(50.1650635094611,8.25,8.));
#937=CARTESIAN_POINT('',(52.8713928962875,12.9375,8.));
#938=CARTESIAN_POINT('',(50.1650635094611,8.25,4.3));
#939=CARTESIAN_POINT('',(50.1650635094611,8.25,4.3));
#940=CARTESIAN_POINT('',(50.1650635094611,8.25,4.3));
#941=CARTESIAN_POINT('Origin',(45.8349364905389,8.25,4.3));
#942=CARTESIAN_POINT('',(45.8349364905389,8.25,8.));
#943=CARTESIAN_POINT('',(46.9174682452694,8.25,8.));
#944=CARTESIAN_POINT('',(45.8349364905389,8.25,4.3));
#945=CARTESIAN_POINT('',(45.8349364905389,8.25,4.3));
#946=CARTESIAN_POINT('',(45.8349364905389,8.25,4.3));
#947=CARTESIAN_POINT('Origin',(43.6698729810778,12.,4.3));
#948=CARTESIAN_POINT('',(43.6698729810778,12.,8.));
#949=CARTESIAN_POINT('',(42.046075348982,14.8125,8.));
#950=CARTESIAN_POINT('',(43.6698729810778,12.,4.3));
#951=CARTESIAN_POINT('',(43.6698729810778,12.,4.3));
#952=CARTESIAN_POINT('',(43.6698729810778,12.,4.3));
#953=CARTESIAN_POINT('Origin',(45.8349364905389,15.75,4.3));
#954=CARTESIAN_POINT('',(47.4587341226347,18.5625,8.));
#955=CARTESIAN_POINT('',(45.8349364905389,15.75,4.3));
#956=CARTESIAN_POINT('Origin',(48.,12.,4.3));
#957=CARTESIAN_POINT('',(45.75,12.,4.3));
#958=CARTESIAN_POINT('Origin',(48.,12.,4.3));
#959=CARTESIAN_POINT('Origin',(48.,12.,-1.));
#960=CARTESIAN_POINT('',(45.75,12.,0.));
#961=CARTESIAN_POINT('Origin',(48.,12.,0.));
#962=CARTESIAN_POINT('',(45.75,12.,-1.));
#963=CARTESIAN_POINT('Origin',(16.,32.,-1.));
#964=CARTESIAN_POINT('',(12.8,32.,0.));
#965=CARTESIAN_POINT('Origin',(16.,32.,0.));
#966=CARTESIAN_POINT('',(12.8,32.,8.));
#967=CARTESIAN_POINT('',(12.8,32.,-1.));
#968=CARTESIAN_POINT('Origin',(16.,32.,8.));
#969=CARTESIAN_POINT('Origin',(18.1073284825421,15.65,4.3));
#970=CARTESIAN_POINT('',(13.8926715174579,15.65,8.));
#971=CARTESIAN_POINT('',(18.1073284825421,15.65,8.));
#972=CARTESIAN_POINT('',(33.0536642412711,15.65,8.));
#973=CARTESIAN_POINT('',(13.8926715174579,15.65,4.3));
#974=CARTESIAN_POINT('',(13.8926715174579,15.65,4.3));
#975=CARTESIAN_POINT('',(18.1073284825421,15.65,4.3));
#976=CARTESIAN_POINT('',(18.1073284825421,15.65,4.3));
#977=CARTESIAN_POINT('',(18.1073284825421,15.65,4.3));
#978=CARTESIAN_POINT('Origin',(20.2146569650843,12.,4.3));
#979=CARTESIAN_POINT('',(20.2146569650843,12.,8.));
#980=CARTESIAN_POINT('',(21.5227613349876,9.73429676972449,8.));
#981=CARTESIAN_POINT('',(20.2146569650843,12.,4.3));
#982=CARTESIAN_POINT('',(20.2146569650843,12.,4.3));
#983=CARTESIAN_POINT('',(20.2146569650843,12.,4.3));
#984=CARTESIAN_POINT('Origin',(18.1073284825421,8.35,4.3));
#985=CARTESIAN_POINT('',(18.1073284825421,8.35,8.));
#986=CARTESIAN_POINT('',(24.7992241126388,19.9407032302755,8.));
#987=CARTESIAN_POINT('',(18.1073284825421,8.35,4.3));
#988=CARTESIAN_POINT('',(18.1073284825421,8.35,4.3));
#989=CARTESIAN_POINT('',(18.1073284825421,8.35,4.3));
#990=CARTESIAN_POINT('Origin',(13.8926715174579,8.35,4.3));
#991=CARTESIAN_POINT('',(13.8926715174579,8.35,8.));
#992=CARTESIAN_POINT('',(30.9463357587289,8.34999999999999,8.));
#993=CARTESIAN_POINT('',(13.8926715174579,8.35,4.3));
#994=CARTESIAN_POINT('',(13.8926715174579,8.35,4.3));
#995=CARTESIAN_POINT('',(13.8926715174579,8.35,4.3));
#996=CARTESIAN_POINT('Origin',(11.7853430349157,12.,4.3));
#997=CARTESIAN_POINT('',(11.7853430349157,12.,8.));
#998=CARTESIAN_POINT('',(14.1471116460902,7.9092967697245,8.));
#999=CARTESIAN_POINT('',(11.7853430349157,12.,4.3));
#1000=CARTESIAN_POINT('',(11.7853430349157,12.,4.3));
#1001=CARTESIAN_POINT('',(11.7853430349157,12.,4.3));
#1002=CARTESIAN_POINT('Origin',(13.8926715174579,15.65,4.3));
#1003=CARTESIAN_POINT('',(19.5309029062834,25.4157032302755,8.));
#1004=CARTESIAN_POINT('',(13.8926715174579,15.65,4.3));
#1005=CARTESIAN_POINT('Origin',(16.,12.,4.3));
#1006=CARTESIAN_POINT('',(13.85,12.,4.3));
#1007=CARTESIAN_POINT('Origin',(16.,12.,4.3));
#1008=CARTESIAN_POINT('Origin',(16.,12.,-1.));
#1009=CARTESIAN_POINT('',(13.85,12.,0.));
#1010=CARTESIAN_POINT('Origin',(16.,12.,0.));
#1011=CARTESIAN_POINT('',(13.85,12.,-1.));
#1012=CARTESIAN_POINT('Origin',(96.,44.,0.));
#1013=CARTESIAN_POINT('',(96.,44.,0.));
#1014=CARTESIAN_POINT('',(0.,44.,0.));
#1015=CARTESIAN_POINT('',(96.,44.,0.));
#1016=CARTESIAN_POINT('',(0.,44.,8.));
#1017=CARTESIAN_POINT('',(0.,44.,0.));
#1018=CARTESIAN_POINT('',(96.,44.,8.));
#1019=CARTESIAN_POINT('',(96.,44.,8.));
#1020=CARTESIAN_POINT('',(96.,44.,0.));
#1021=CARTESIAN_POINT('Origin',(96.,0.,0.));
#1022=CARTESIAN_POINT('',(96.,0.,0.));
#1023=CARTESIAN_POINT('',(96.,0.,0.));
#1024=CARTESIAN_POINT('',(96.,0.,8.));
#1025=CARTESIAN_POINT('',(96.,0.,8.));
#1026=CARTESIAN_POINT('',(96.,0.,0.));
#1027=CARTESIAN_POINT('Origin',(0.,0.,0.));
#1028=CARTESIAN_POINT('',(0.,0.,0.));
#1029=CARTESIAN_POINT('',(0.,0.,0.));
#1030=CARTESIAN_POINT('',(0.,0.,8.));
#1031=CARTESIAN_POINT('',(0.,0.,8.));
#1032=CARTESIAN_POINT('',(0.,0.,0.));
#1033=CARTESIAN_POINT('Origin',(0.,44.,0.));
#1034=CARTESIAN_POINT('',(0.,44.,0.));
#1035=CARTESIAN_POINT('',(0.,44.,8.));
#1036=CARTESIAN_POINT('Origin',(48.,22.,8.));
#1037=CARTESIAN_POINT('Origin',(48.,22.,0.));
#1038=UNCERTAINTY_MEASURE_WITH_UNIT(LENGTH_MEASURE(0.01),#1042,
'DISTANCE_ACCURACY_VALUE',
'Maximum model space distance between geometric entities at asserted c
onnectivities');
#1039=UNCERTAINTY_MEASURE_WITH_UNIT(LENGTH_MEASURE(0.01),#1042,
'DISTANCE_ACCURACY_VALUE',
'Maximum model space distance between geometric entities at asserted c
onnectivities');
#1040=(
GEOMETRIC_REPRESENTATION_CONTEXT(3)
GLOBAL_UNCERTAINTY_ASSIGNED_CONTEXT((#1038))
GLOBAL_UNIT_ASSIGNED_CONTEXT((#1042,#1044,#1045))
REPRESENTATION_CONTEXT('','3D')
);
#1041=(
GEOMETRIC_REPRESENTATION_CONTEXT(3)
GLOBAL_UNCERTAINTY_ASSIGNED_CONTEXT((#1039))
GLOBAL_UNIT_ASSIGNED_CONTEXT((#1042,#1044,#1045))
REPRESENTATION_CONTEXT('','3D')
);
#1042=(
LENGTH_UNIT()
NAMED_UNIT(*)
SI_UNIT(.MILLI.,.METRE.)
);
#1043=(
LENGTH_UNIT()
NAMED_UNIT(*)
SI_UNIT($,.METRE.)
);
#1044=(
NAMED_UNIT(*)
PLANE_ANGLE_UNIT()
SI_UNIT($,.RADIAN.)
);
#1045=(
NAMED_UNIT(*)
SI_UNIT($,.STERADIAN.)
SOLID_ANGLE_UNIT()
);
#1046=SHAPE_DEFINITION_REPRESENTATION(#1047,#1048);
#1047=PRODUCT_DEFINITION_SHAPE('',$,#1050);
#1048=SHAPE_REPRESENTATION('',(#654),#1040);
#1049=PRODUCT_DEFINITION_CONTEXT('part definition',#1054,'design');
#1050=PRODUCT_DEFINITION('hardware_coupon','hardware_coupon',#1051,#1049);
#1051=PRODUCT_DEFINITION_FORMATION('',$,#1056);
#1052=PRODUCT_RELATED_PRODUCT_CATEGORY('hardware_coupon',
'hardware_coupon',(#1056));
#1053=APPLICATION_PROTOCOL_DEFINITION('international standard',
'automotive_design',2009,#1054);
#1054=APPLICATION_CONTEXT(
'Core Data for Automotive Mechanical Design Process');
#1055=PRODUCT_CONTEXT('part definition',#1054,'mechanical');
#1056=PRODUCT('hardware_coupon','hardware_coupon',$,(#1055));
#1057=PRESENTATION_STYLE_ASSIGNMENT((#1059));
#1058=PRESENTATION_STYLE_ASSIGNMENT((#1060));
#1059=SURFACE_STYLE_USAGE(.BOTH.,#1061);
#1060=SURFACE_STYLE_USAGE(.BOTH.,#1062);
#1061=SURFACE_SIDE_STYLE('',(#1063));
#1062=SURFACE_SIDE_STYLE('',(#1064));
#1063=SURFACE_STYLE_FILL_AREA(#1065);
#1064=SURFACE_STYLE_FILL_AREA(#1066);
#1065=FILL_AREA_STYLE('\X2\92FC\X0\ - \X2\30B530C630F3\X0\',(#1067));
#1066=FILL_AREA_STYLE('DGX_\X2\591689B3306E307F\X0\_frame',(#1068));
#1067=FILL_AREA_STYLE_COLOUR('\X2\92FC\X0\ - \X2\30B530C630F3\X0\',#1069);
#1068=FILL_AREA_STYLE_COLOUR('DGX_\X2\591689B3306E307F\X0\_frame',#1070);
#1069=COLOUR_RGB('\X2\92FC\X0\ - \X2\30B530C630F3\X0\',0.627450980392157,
0.627450980392157,0.627450980392157);
#1070=COLOUR_RGB('DGX_\X2\591689B3306E307F\X0\_frame',0.509803921568627,
0.541176470588235,0.580392156862745);
ENDSEC;
END-ISO-10303-21;
